<?xml version="1.0" standalone="no"?>
<!DOCTYPE svg PUBLIC "-//W3C//DTD SVG 1.1//EN" "http://www.w3.org/Graphics/SVG/1.1/DTD/svg11.dtd" >
<svg xmlns="http://www.w3.org/2000/svg" xmlns:xlink="http://www.w3.org/1999/xlink" version="1.1">
<metadata>
Created by FontForge 20201107 at Fri Feb  6 09:14:35 2009
 By Jimmy Wärting
(c) 2004 Michael Hagemann www.FontMesa.com All Rights Reserved
</metadata>
<defs>
<font id="MagicSchoolTwo" horiz-adv-x="1189" >
  <font-face 
    font-family="Magic School Two"
    font-weight="400"
    font-stretch="normal"
    units-per-em="2048"
    panose-1="0 0 4 0 0 0 0 0 0 0"
    ascent="1638"
    descent="-410"
    x-height="812"
    cap-height="1202"
    bbox="-450.048 -876 3963.05 2132.15"
    underline-thickness="20"
    underline-position="-143"
    unicode-range="U+0020-215E"
  />
<missing-glyph horiz-adv-x="1024" 
d="M128 0v1408h768v-1408h-768zM256 128h512v1152h-512v-1152z" />
    <glyph glyph-name=".notdef" horiz-adv-x="1024" 
d="M128 0v1408h768v-1408h-768zM256 128h512v1152h-512v-1152z" />
    <glyph glyph-name=".null" horiz-adv-x="0" 
 />
    <glyph glyph-name="nonmarkingreturn" horiz-adv-x="500" 
 />
    <glyph glyph-name="space" unicode=" " horiz-adv-x="500" 
 />
    <glyph glyph-name="exclam" unicode="!" horiz-adv-x="477" 
d="M425 221l-9 -14q-7 -10 -25 0l-194 109q-40 22 -48 30q-24 22 -24 60q1 12 -1 49q-1 41 -1 59q0 8 -1 98v111v237q-1 73 -4 220q-1 29 -28 27l-26 -2q-13 -2 -14 10q-2 16 8 19q31 9 59 15q39 9 113 26q53 13 125 29q11 2 17 -8q7 -10 -3 -17l-30 -22q-15 -14 -15 -39
q0 -23 1 -53q1 -38 2 -47q0 -77 2 -224q2 -116 2 -259q0 -12 2 -106q1 -77 0 -101q-1 -33 2 -93q1 -28 3 -33q4 -12 23 -24l54 -36q16 -10 10 -21zM427 90q-7 -12 -19 -8l-27 8q-17 6 -25 -8t-23 -39q-8 -16 -25 -40q-13 -13 -38 -12q-13 0 -59 29l-113 73q-15 9 -12 23
q5 19 16 13l17 -11q14 -8 27 15q11 15 26 44q2 5 21 38q15 26 41 12q27 -17 79 -46q19 -11 88 -52l21 -12q17 -11 5 -27z" />
    <glyph glyph-name="quotedbl" unicode="&#x22;" horiz-adv-x="486" 
d="M396 1071q2 -16 -6 -38q-7 -17 -31 -40l-76 -75q-17 -16 -21 -5q-9 18 1 30l18 23q10 13 3 30l-44 114q-14 37 16 64l90 81q11 10 21 -4q5 -8 -8 -23l-13 -16q17 -46 39 -106q5 -12 11 -35zM206 1071q2 -16 -6 -38q-7 -17 -31 -40l-76 -75q-17 -16 -21 -5q-9 18 1 30
l18 23q10 13 3 30l-44 114q-14 37 16 64l90 81q11 10 21 -4q5 -8 -8 -23l-13 -16q17 -46 39 -106q5 -12 11 -35z" />
    <glyph glyph-name="numbersign" unicode="#" horiz-adv-x="887" 
d="M857 732q-2 -11 -33 -11q-21 0 -68 9q-59 10 -72 12q-12 -56 -29 -135q-5 -24 -15 -66q17 -2 37 -5q11 -1 36 -16q28 -42 85 -125q3 -4 2 -6q-2 -11 -33 -11q-23 0 -78 10q-65 11 -83 13q-29 -127 -43 -172q-2 -8 -17 -23q-17 -9 -47 -22q17 -1 47 0q1 -4 10 -39
q10 -18 22 -45q4 -11 21 -9l27 4q14 1 18 -8q2 -7 -16 -14l-105 -44q-39 -16 -45 -16q-19 1 -27 10q-1 2 -12 26q-4 8 -35 82l-40 -14q-18 -7 -19 2q-1 13 13 23l13 8q9 6 18 21q3 4 11 27q6 20 18 63q21 71 40 147q-72 0 -141 -3q-15 -65 -44 -176q-2 -8 -17 -23
q-17 -9 -47 -22q17 -1 47 0q1 -4 10 -39q10 -18 22 -45q4 -11 21 -9l27 4q14 1 18 -8q2 -7 -16 -14l-105 -44q-39 -16 -45 -16q-19 1 -27 10q-1 2 -12 26q-4 8 -35 82l-37 -12q-18 -6 -19 2q-1 14 13 23l10 6q8 6 18 21q3 4 11 27q6 20 18 63q19 65 37 134q-42 -3 -72 -3
q-17 0 -22.5 11t-18.5 58t-12 54q2 8 46 12q56 6 115 10q7 29 12 53q16 73 34 150q-61 -5 -97 -5q-17 0 -22.5 10.5t-18.5 57.5t-12 55q2 7 46 12q66 7 135 11q4 24 9 48q11 60 34 174q5 23 8 29q6 11 23 20q3 1 68 31q36 18 86 40q9 3 15 -5q5 -9 -3 -15q-24 -20 -26 -22
q-11 -12 -17 -33q-13 -71 -35 -181q-7 -32 -16 -79q67 2 131 2h14q4 19 8 39q11 60 34 174q5 23 8 29q6 11 23 20q3 1 68 31q36 18 86 40q9 3 15 -5q5 -9 -3 -15q-24 -20 -26 -22q-11 -12 -17 -33q-13 -71 -35 -181q-8 -33 -17 -85l21 -3q12 -1 37 -16q28 -42 84 -125
q3 -4 2 -6zM539 750h-22q-52 1 -121 -1q-13 -59 -31 -142q-4 -23 -14 -62q71 2 142 2q6 23 10 43q18 82 36 160z" />
    <glyph glyph-name="dollar" unicode="$" horiz-adv-x="1077" 
d="M1017 428q0 -246 -232 -433q-53 -37 -149 -125v-240l-41 -70v256q-14 -20 -30 -46l-158 234q-127 167 -216 164q-22 -1 -53.5 -33t-46.5 -65q-15 -35 2 -46q20 18 47 18q31 0 52.5 -22.5t21.5 -54.5q0 -31 -21.5 -53.5t-52.5 -22.5q-47 -1 -93 42t-47 79q-1 21 27 77
q50 99 125 169q92 86 184 86q116 0 196 -96q24 -29 63 -78v333q-12 -4 -23 -11q-92 -59 -249 -60q-170 -1 -261 141q6 8 24 25q-46 85 -46 159q0 189 237 416q37 36 194 171q9 7 17 7q22 0 22 -23q0 -8 -5 -14q-9 -10 -31 -42q17 14 31 14q16 0 53 -39q17 -18 37 -36v137
q-49 16 -49 69q0 29 20.5 50t49.5 21t49.5 -21t20.5 -50q0 -54 -50 -69v-170q123 -90 220 -90q63 0 63 46q0 10 -5 20q-30 0 -51.5 20.5t-21.5 49.5t21.5 49.5t51.5 20.5q98 0 95 -129q-3 -97 -89 -157q-109 -74 -243 -77q-21 0 -41 1v-255q76 55 153 55q115 0 176 -92
q52 -81 52 -210zM595 638v296q-105 13 -202 73q-45 28 -81 58q-12 -68 -12 -151q0 -162 96 -279q23 -28 65 -59q-24 -32 -79 -45q103 -4 179 72q11 11 32 33zM767 284q-3 126 -56 187q-32 37 -75 38v-394q37 -48 58 -65q76 70 73 234z" />
    <glyph glyph-name="percent" unicode="%" horiz-adv-x="1443" 
d="M1350 1261q10 -2 -11 -34q-7 -11 -32 -15q-32 -6 -69 -38q-64 -56 -178 -209q-88 -121 -175 -241l-301 -412q-54 -75 -126 -177q-20 -32 -24 -58q-4 -28 15 -29l24 -1q14 -1 14 -14q0 -20 -15 -29q-7 -5 -129 -3q-57 1 -145 3q-30 0 -76 3q-10 2 11 35q7 11 33 15
q31 5 68 37q44 38 241 303q144 192 281 389q77 102 243 343q28 43 28 69q0 17 -15 18l-23 2q-14 1 -14 14q0 23 15 32q32 1 84 3q40 3 145 -1q59 -1 131 -5zM586 846q0 -63 -26 -110q-23 -40 -86 -125q-42 -58 -114 -58q-141 -1 -220 103q-65 88 -67 231q0 72 32.5 144
t109.5 153q49 51 137 113l11 -16q-7 -11 -16 -20q93 -51 152 -134q87 -121 87 -281zM521 811q0 88 -27 158q-24 60 -77 118v-177q-1 -29 0 -49q1 -22 1 -29q0 -9 -2 -18q-5 -21 -12 -32q-23 -32 -121 -115q24 -22 75 -34q22 -6 47 -6q16 0 28 14q21 22 49 63q14 19 34 52
q5 10 5 55zM347 857q0 15 -1 149q-2 139 -2 144q-6 9 -55 57q-26 -18 -74 -81q-31 -39 -45 -74q-20 -50 -20 -109q0 -56 14 -103q15 -53 46 -103q17 -28 53 -57q19 15 51 51q26 29 31 45q1 2 2 28v53zM1284 288q0 -63 -26 -110q-23 -40 -86 -125q-42 -58 -114 -58
q-142 -1 -220 104q-65 87 -67 230q0 73 32.5 144.5t109.5 152.5q49 52 137 113l11 -16q-7 -10 -16 -20q92 -50 152 -133q87 -121 87 -282zM1219 253q0 88 -27 159q-24 60 -77 117v-177q-1 -28 -0.5 -49t0.5 -29q0 -9 -1 -17q-5 -22 -12 -32q-23 -33 -121 -116q24 -21 75 -34
q21 -5 47 -5q16 0 28 13q20 22 49 63q14 19 34 53q5 10 5 54zM1045 300q0 14 -1 148q-2 140 -2 145q-6 8 -55 56q-26 -17 -74 -80q-31 -40 -45 -75q-20 -50 -20 -109q0 -55 14 -103q14 -52 46 -103q17 -27 53 -57q19 15 51 51q26 29 31 46q1 2 2 28v53z" />
    <glyph glyph-name="ampersand" unicode="&#x26;" horiz-adv-x="1069" 
d="M1033 96q3 -15 -10 -25l-102 -77q-40 -31 -52 -31q-23 0 -34 12q-16 18 -45 72q-8 14 -53 86q-54 -51 -102 -82q-110 -74 -175 -74q-155 0 -289.5 94.5t-134.5 199.5q0 130 102 198l150 99q-203 100 -203 212q0 83 76 171q56 64 127 108q78 45 230 137l41 -22
q-3 -7 -24 -25q86 -12 141 -78q51 -61 51 -132q0 -82 -35 -138q-46 -72 -169 -140q254 -123 298 -237q22 62 28 126q-121 10 -171 108q60 41 103 109l42 -62q41 -45 93 -45q41 0 52 24q-30 0 -30 34q0 37 36 37q41 0 41 -61q0 -123 -114 -142q1 -23 1 -43q0 -95 -32 -181
q51 -92 109 -215q12 -24 24 -15l16 11q10 7 14 -13zM599 865q0 57 -75 116q-59 47 -125 71q-75 -48 -88 -59q-51 -42 -51 -88q0 -114 224 -222q115 73 115 182zM697 199q-51 175 -366 343q-37 -28 -74 -55q-52 -48 -52 -98q0 -79 113 -173.5t248 -126.5q34 16 64 41
q43 36 67 69z" />
    <glyph glyph-name="quotesingle" unicode="'" horiz-adv-x="291" 
d="M260 1071q3 -17 -9 -39q-9 -16 -41 -40l-102 -75q-23 -17 -29 -6q-11 19 2 31l24 23q14 13 5 30l-60 115q-19 37 21 64l121 82q15 10 28 -4q7 -8 -9 -23l-18 -16q22 -46 52 -107q6 -12 15 -35z" />
    <glyph glyph-name="parenleft" unicode="(" horiz-adv-x="621" 
d="M521 -78l-157 -121q-294 386 -294 774q0 240 93 436q56 120 242 380l48 -56q-202 -267 -202 -667q0 -247 110 -488q73 -160 160 -258z" />
    <glyph glyph-name="parenright" unicode=")" horiz-adv-x="591" 
d="M511 614q0 -177 -77 -382q-90 -240 -258 -431l-65 27q229 303 229 698q0 267 -126 522q-73 146 -144 224l159 119q282 -374 282 -777z" />
    <glyph glyph-name="asterisk" unicode="*" horiz-adv-x="579" 
d="M520 1174q0 -49 -53 -89q-48 -38 -100 -40q1 -46 16 -88q20 -60 55 -60q-6 6 -6 12q0 26 29 26q31 0 31 -31q0 -26 -26 -42t-56 -16q-45 0 -92.5 37.5t-60.5 82.5q-117 -41 -117 -103q0 -3 1 -6q6 9 16 9q28 0 28 -28q0 -33 -31 -33q-32 0 -55 34q-19 30 -19 64
q0 123 98 160q-68 45 -96 45q-27 0 -39 -15q23 1 23 -27q0 -27 -32 -27q-34 0 -34 48q0 52 46 87q42 33 95 33q39 0 76 -22q24 38 24 71q0 42 -25 54q1 -4 1 -6q0 -21 -27 -21q-29 0 -29 32q0 40 57 40q52 0 91 -53q35 -50 35 -107q0 -11 -1 -20q34 -20 80 -20q40 0 52 21
q-3 -1 -5 -1q-21 0 -21 27q0 28 32 28q39 0 39 -56z" />
    <glyph glyph-name="plus" unicode="+" horiz-adv-x="782" 
d="M707 511q0 -17 -33 -11q-112 23 -239 22l1 -16q9 -134 31 -228q4 -15 0 -20q-5 -6 -20 -1q-48 11 -115 37q-12 9 -17 40q-6 39 -16 185q-72 -4 -147 -13q-31 -3 -44 9q-23 33 -66 91q-13 18 -13 25q0 10 32 14q100 12 233 18q1 147 12 255q2 24 3 26q4 8 23 2
q42 -13 99 -32q13 -5 10 -43q-6 -75 -8 -150v-58q101 -5 159 -12q15 0 41 -15q14 -17 42 -62q32 -52 32 -63z" />
    <glyph glyph-name="comma" unicode="," horiz-adv-x="340" 
d="M260 101q3 -17 -9 -39q-9 -16 -41 -40l-102 -75q-23 -17 -29 -6q-11 19 2 31l24 23q14 13 5 30l-60 115q-19 37 21 64l121 82q15 10 28 -4q7 -8 -9 -23l-18 -16q22 -46 52 -107q6 -12 15 -35z" />
    <glyph glyph-name="hyphen" unicode="-" horiz-adv-x="627" 
d="M538 505q3 -4 3 -9q0 -17 -23 -8q-53 19 -144 26q-98 7 -229 -20q-20 -4 -27 10q-30 60 -48 104q-9 22 -8 25q2 5 21 10q99 25 216 28q72 2 124 -10q14 -3 25 -17q38 -60 90 -139z" />
    <glyph glyph-name="hyphen" unicode="&#x2010;" horiz-adv-x="627" 
d="M538 505q3 -4 3 -9q0 -17 -23 -8q-53 19 -144 26q-98 7 -229 -20q-20 -4 -27 10q-30 60 -48 104q-9 22 -8 25q2 5 21 10q99 25 216 28q72 2 124 -10q14 -3 25 -17q38 -60 90 -139z" />
    <glyph glyph-name="period" unicode="." horiz-adv-x="334" 
d="M289 222q3 -14 -8 -23l-90 -68q-36 -27 -47 -27q-20 -1 -28.5 12t-20.5 37q-7 13 -20 40q-5 9 -18 4l-22 -8q-9 -3 -15 7q-9 16 4 26l17 11q24 17 70 49q25 17 62 43q21 13 33 -11q6 -12 16 -36q8 -15 20 -41q10 -21 21 -14l14 10q9 6 12 -11z" />
    <glyph glyph-name="slash" unicode="/" horiz-adv-x="1282" 
d="M1202 1333q10 -2 -5 -34q-5 -11 -29 -16q-31 -5 -62 -38q-53 -56 -155 -244l-146 -276q-11 -19 -223 -415q-42 -78 -96 -183q-16 -34 -16 -59q0 -27 19 -28l23 -1q18 -1 17 -21q-1 -19 -9 -25q-32 -1 -84 -4h-134q-21 0 -146 5q-30 1 -76 5q-11 2 4 35q6 11 30 16
q30 5 62 38q36 38 184 305q98 175 202 392q81 141 224 421q16 34 16 59q0 27 -19 28l-23 1q-18 1 -17 21q1 18 9 25q32 1 84 4h144q21 0 146 -5q30 -1 76 -6z" />
    <glyph glyph-name="zero" unicode="0" horiz-adv-x="995" 
d="M932 526q0 -115 -48 -200q-41 -72 -155 -228q-77 -104 -207 -105q-258 -2 -401 189q-119 158 -121 418q-1 132 59 265q58 128 198 275q90 94 250 206l20 -29q-13 -19 -29 -36q168 -93 276 -243q158 -220 158 -512zM815 463q0 159 -51 288q-42 109 -138 213l-2 -322
q0 -52 1 -88q1 -40 1 -54q0 -15 -4 -31q-8 -39 -21 -58q-42 -60 -219 -211q30 -27 120 -57q43 -14 101 -14q29 0 51 24q37 40 89 115q25 34 63 95q9 19 9 100zM498 547q0 26 -3 270q-2 253 -2 263q-11 15 -100 102q-48 -31 -136 -146q-56 -72 -81 -136q-36 -91 -36 -198
q0 -101 24 -187q27 -95 84 -187q31 -50 97 -104q34 28 92 93q47 53 57 83q1 4 3 51q0 25 1 96z" />
    <glyph glyph-name="one" unicode="1" horiz-adv-x="475" 
d="M396 2l-41 -1q-20 -1 -123 1h-76l-33 1q-7 0 -14 11q0 5 15 16l28 20q13 9 13 22v138q0 20 2 188v360q-3 228 -2 319q1 27 -31 27h-65q-19 0 -19 5q0 4 14 14l182 127q28 19 43 14q14 -5 24 -11q7 -4 8 -19l5 -67q4 -53 4 -110l1 -276q0 -219 2 -266q1 -52 5 -157
q3 -55 16 -215q1 -24 5 -72q2 -29 10 -34l22 -14q14 -9 14 -16q-1 -5 -9 -5z" />
    <glyph glyph-name="two" unicode="2" horiz-adv-x="664" 
d="M624 243q-36 -57 -101 -189q-24 -65 -114 -65q-108 0 -191 45q-60 32 -127 33q-37 1 -91 -18q176 309 248 489q92 228 92 378q0 187 -141 187q-64 0 -119 -100q-9 -16 -20 -12l-12 5q-10 4 0 25q35 66 100 190q20 44 47 103l43 -12q-3 -8 -7 -28q112 9 224 -70
q139 -98 139 -273q0 -161 -135 -345l-292 -374q75 38 140 38q51 0 112 -20q84 -29 97 -29q30 0 51 23q11 12 25 31.5t25 15.5q20 -8 7 -28z" />
    <glyph glyph-name="three" unicode="3" horiz-adv-x="754" 
d="M704 402q0 -127 -149 -281q-78 -80 -129 -117q-28 -21 -60 -21q-51 0 -77 44q-101 166 -163 166q-28 0 -50 -30t-22 -58q0 -9 3 -15q12 13 28 13q45 0 45 -55q0 -59 -56 -59q-74 1 -74 97q0 99 52 163q71 86 161 86q86 0 140 -68q37 -46 74 -100q19 -28 30 -28q8 0 17 7
q57 46 57 166q0 112 -110 204q-36 30 -162 101q-17 -10 -41 -25q-14 -9 -21 -4q-2 4 -8 11q-8 8 4 15q20 17 54 46q63 53 132 145q90 119 90 189q0 57 -24 77q-62 -63 -193 -63q-96 0 -169 43q-83 49 -83 132q0 97 73 97q53 0 53 -53q0 -52 -54 -52q-4 -8 -4 -15
q0 -34 48 -35q111 -3 223 116q17 18 65 85l41 -23q-6 -16 -20 -35q112 -22 186.5 -85.5t74.5 -141.5q0 -159 -255 -323q273 -135 273 -316z" />
    <glyph glyph-name="four" unicode="4" horiz-adv-x="972" 
d="M922 295q0 -110 -90 -110q-69 0 -69 68q0 65 64 65q19 0 39 -10q-35 64 -131 91l-1 -82q1 -118 2 -172q2 -63 27 -62l54 1q11 1 16 -13q4 -12 0 -19q-8 -13 -57 -24q-9 -2 -119 -32q-83 -23 -139 -45q-28 -12 -72 -27q-11 -3 -13 27q-1 12 29 49q35 43 47 78
q16 48 19 202q0 26 -1 139q-223 -8 -307 -107q-13 -15 -25 -14q-15 1 -35 24q-33 48 -95 129q-9 -8 -34 -29q-18 -15 -31 7q-13 23 3 38q45 42 263 316q273 344 292 367q98 118 137 158q9 11 25 31q8 9 27 2q20 -8 18 -29q-6 -63 -15 -192q-13 -350 -13 -486q0 -19 -1 -85
q186 -99 186 -254zM530 977q-39 -35 -184 -219.5t-171 -208.5q147 70 308 70q20 0 43 -3l1 15q3 345 3 346z" />
    <glyph glyph-name="five" unicode="5" horiz-adv-x="891" 
d="M855 1147q0 -196 -230 -196q-166 0 -312 153q-35 -172 -68 -257q153 -15 288 -99q183 -112 183 -289q0 -126 -94 -217q-68 -67 -209 -132q-2 -1 -199 -69q-129 -44 -147 -85q-10 -20 -7 -30q9 10 28 10q32 0 32 -33q0 -36 -52 -36q-81 0 -81 79q0 67 110 146
q101 71 203 143q109 94 109 196q0 206 -369 292q93 180 122 329q2 8 -5 14t-17 4l-72 -16q-20 -4 -20 16q0 8 15 17q92 53 171 106q76 49 175 121l39 -28q-3 -6 -36 -47q46 25 72 21q41 -7 82 -64q66 -91 125 -91q70 0 74 35q-65 0 -65 55q0 58 69 58q86 0 86 -106z" />
    <glyph glyph-name="six" unicode="6" horiz-adv-x="796" 
d="M746 390q0 -89 -26 -147q-40 -88 -159 -189q-96 -82 -144 -82q-155 0 -272 135q-145 167 -145 473q0 436 435 750l41 -21q-271 -236 -271 -683q0 -174 94 -335q92 -157 205 -194q44 28 65 64q16 28 16 109q0 95 -79 181q-75 81 -142 81q-47 0 -97 -37q-22 -17 -30 8
q-2 8 8 20q83 101 143 280q6 18 20 18q22 0 22 -22q0 -15 -11 -49q21 16 51 16q41 0 102 -47q174 -133 174 -329z" />
    <glyph glyph-name="seven" unicode="7" horiz-adv-x="851" 
d="M811 1105q-121 -164 -198 -410q-62 -199 -75 -378q-7 -84 0 -143q3 -28 7 -40q7 -20 25 -24l45 -11q11 -2 15.5 -13.5t0.5 -18.5q-8 -13 -57 -24q-147 -33 -258 -77q-28 -12 -72 -27q-11 -3 -13 27q-1 7 30 44t34 86q-2 -26 -2 161q0 203 87 374q65 131 236 332l-12 4
q-41 -45 -138 -75q-87 -27 -163 -27q-121 0 -209 66q-94 71 -94 184q0 56 27 100q32 51 86 51q65 0 65 -67q0 -58 -55 -58q-7 0 -15 1q-7 -9 -7 -18q0 -53 83 -53q141 0 279 81q43 28 86 57q59 39 79 39q14 0 63 -37q-3 7 -15 55l40 23q32 -67 95 -184z" />
    <glyph glyph-name="eight" unicode="8" horiz-adv-x="765" 
d="M715 370q0 -83 -28 -137q-39 -76 -160 -179q-96 -82 -144 -82q-129 0 -256 106.5t-127 221.5q0 94 111 208l111 114q-96 65 -130 97q-76 72 -76 147q0 132 196 311q65 50 189 153l34 -25q-3 -8 -20 -28q78 -15 153 -90q78 -78 78 -154q0 -71 -62 -146q-38 -45 -169 -160
q300 -199 300 -357zM482 921q0 67 -69 151q-58 72 -109 97q-62 -53 -76 -70q-38 -44 -38 -93q0 -64 42 -120q35 -46 123 -117l27 -19q100 96 100 171zM554 240q0 90 -88 182q-56 60 -209 171q-83 -67 -83 -162q0 -88 93 -193t203 -141q22 14 67 64q17 19 17 79z" />
    <glyph glyph-name="nine" unicode="9" horiz-adv-x="798" 
d="M748 640q0 -410 -445 -730q-12 -9 -20 -8q-10 9 -24 20q-4 3 3 9q271 236 271 683q0 173 -94 335q-92 157 -205 194q-75 -54 -75 -189q0 -103 76 -197q72 -89 139 -89q47 0 97 37q22 17 30 -8q1 -7 -8 -20q-106 -152 -143 -260q-6 -18 -20 -18q-22 0 -22 22q0 -6 11 29
q-21 -16 -51 -16q-55 0 -113 49q-155 130 -155 324q0 207 156 350q67 57 194 167l36 -29q-6 -10 -26 -32q150 -16 257 -154q131 -171 131 -469z" />
    <glyph glyph-name="colon" unicode=":" horiz-adv-x="379" 
d="M309 592q3 -14 -8 -23l-90 -68q-36 -27 -47 -27q-20 -1 -28.5 12t-20.5 37q-7 13 -20 40q-5 9 -18 4l-22 -8q-9 -3 -15 7q-9 16 4 26l17 11q24 17 70 49q25 17 62 43q21 13 33 -11q6 -12 16 -36q8 -15 20 -41q10 -21 21 -14l14 10q9 6 12 -11zM309 202q3 -14 -8 -23
l-90 -68q-36 -27 -47 -27q-20 -1 -28.5 12t-20.5 37q-7 13 -20 40q-5 9 -18 4l-22 -8q-9 -3 -15 7q-9 16 4 26l17 11q24 17 70 49q25 17 62 43q21 13 33 -11q6 -12 16 -36q8 -15 20 -41q10 -21 21 -14l14 10q9 6 12 -11z" />
    <glyph glyph-name="semicolon" unicode=";" horiz-adv-x="359" 
d="M309 592q3 -14 -8 -23l-90 -68q-36 -27 -47 -27q-20 -1 -28.5 12t-20.5 37q-7 13 -20 40q-5 9 -18 4l-22 -8q-9 -3 -15 7q-9 16 4 26l17 11q24 17 70 49q25 17 62 43q21 13 33 -11q6 -12 16 -36q8 -15 20 -41q10 -21 21 -14l14 10q9 6 12 -11zM298 111q3 -17 -9 -39
q-9 -16 -41 -40l-102 -75q-23 -17 -29 -6q-11 19 2 31l24 23q14 13 5 30l-60 115q-19 37 21 64l121 82q15 10 28 -4q7 -8 -10 -23l-18 -16q23 -46 53 -107q6 -12 15 -35z" />
    <glyph glyph-name="less" unicode="&#x3c;" horiz-adv-x="3637" 
d="M3513 452q-36 -109 -75 -275q-33 -140 -65 -279q-60 -241 -74 -546q-217 -107 -763 -192q-232 -36 -392 -36q-52 0 -92 25q-46 30 -46 79q0 41 45 104q81 108 240 338q-18 -1 -42 -1h-43q-28 1 -42 1q-86 0 -86 87q0 28 45 120q31 61 62 123q-31 -3 -66 -3
q-129 0 -226 27l86 -82q36 -34 34 -67q-3 -38 -42 -76q-42 -40 -83 -38q-32 3 -57 28l-210 209q-68 -29 -128 -29q-85 0 -141 72h-17q-24 0 -47 6q-33 10 -211 173q-317 10 -317 209q0 99 95 137q-5 24 -4 47q2 69 48 116l-1330 1339q-20 21 -19 41q2 25 28 23q16 -1 34 -17
l828 -761q-7 21 -7 36q0 67 60 67q20 0 72 -12q177 -39 409 -77q47 -7 118 -36q102 -42 117 -47q185 -62 408 -94q66 -9 228 -107q247 -150 304 -180q142 -75 281 -193q32 63 104 105t144 42q103 0 428 -164q309 -155 407 -242zM2675 748q0 40 -31 40q-52 0 -169 -119
q9 -11 28 -31q35 35 57 35q19 0 19 -42q0 -107 -58 -304q-53 -178 -134 -318q-72 -123 -111 -123q-10 0 -10 6q0 1 65 145l-12 3q-31 -16 -77 -27q-34 -102 -80 -194q-12 -24 -12 -38q0 -23 31 -23q74 0 167 80q134 115 241 425q86 249 86 485zM2812 566q0 239 -123 243
q82 -42 82 -180q0 -501 -247 -962q-46 2 -138 4q-131 -200 -221 -316q-55 -71 -55 -99q0 -23 32 -23q45 0 120 51q225 153 395 582q155 393 155 700zM2458 464l-98 30l98 -10l-102 33l99 -9l-105 27l97 -5l-106 30l99 -6l-112 28l103 -4l-115 26h102l-111 19l95 2l-103 15
l96 6l-109 9l96 13l-108 2l93 17l-103 -2l81 21l-93 -6l79 24l-91 -11l72 29l-85 -13l66 30l-83 -16l64 30l-79 -15l60 27l-80 -13l62 28l-78 -12l58 25l-73 -10l51 25l-66 -11l49 23l-65 -10l46 23l-61 -9l42 22l-57 -12l38 24l-52 -13l39 27l-57 -15l39 25l-58 -11l37 23
l-58 -7l29 25l-62 -17l34 26l-60 -11l31 22l-62 -11l35 24l-67 -9l42 18l-64 -5l43 16l-59 -1l32 15l-56 1l31 8l-56 14l34 1l-28 16q-79 56 -108 73q-55 33 -101 43q-293 64 -403 98q-78 37 -228 85q-104 15 -248 49q-43 -64 -95 -64q-48 0 -82 20.5t-68 42.5l-1 -8
q11 -29 25 -46l-9 -41l28 25l-4 -44l23 30v-48l22 33l4 -47l18 33l3 -46l21 38l2 -49l19 43l2 -53l21 47l3 -54l16 50l2 -55l21 53v-58l23 55l-4 -60l24 55l-6 -60l29 58l-8 -65l34 63l-12 -68l34 63l-13 -68l42 65l-21 -69l42 69l-21 -70l35 54l-20 -77l40 58l-22 -73
l44 62l-25 -73l43 61l-20 -75l40 70l-19 -84l39 75l-19 -86l49 84l-20 -84l48 80l-22 -89l51 84l-24 -84l55 78l-25 -86l52 79l-31 -91l58 91l-36 -96l58 96l-42 -110l51 93l-31 -109l44 91l-31 -104l46 91l-31 -98l54 84l-38 -95l51 86l-33 -92l51 86l-38 -93l57 78
l-42 -88l66 79l-40 -90l64 82l-39 -89l62 78l-40 -85l62 83l-38 -92l59 87l-36 -98l57 91l-30 -102l53 98l-29 -101l54 101l-35 -114l47 87l-32 -110l47 83l-28 -108l52 88l-36 -106l54 89l-38 -101l61 86l-35 -82l58 68l-21 -49l54 33l-69 -58l101 44l-131 -76l135 45
l-154 -72l155 47l-170 -69l148 39l-156 -60l140 39l-145 -58l133 39l-136 -57l127 40l-131 -62l122 38l-125 -56l119 37l-120 -63l116 42l-115 -68l110 48l-108 -70l108 54l-75 -51l77 29l-51 -31q53 9 149 19q41 2 41 -11q0 -9 -50 -17q-31 -6 -63 -11l5 -14l-43 9l15 -19
l-38 14l8 -27l-30 24l3 -30l-20 27l-1 -33l-18 32l-2 -37l-16 36l-2 -36l-15 35l-4 -37l-10 38l-9 -40l-8 41l-15 -38l-4 40l-25 -34l8 36l-34 -28l17 29l-40 -23l13 23l-39 -15l4 17q-214 33 -296 33q-196 0 -196 -132q0 -130 216 -157q158 -8 315 -15l35 -5l17 13l21 -14
l4 10l16 -15l4 19l16 -19l7 21l13 -24l9 29l12 -30l11 32l10 -37l10 38l6 -40l17 44l1 -46l21 49l-3 -53l25 51l-4 -58l30 59l-10 -65l34 65l-13 -71l36 69l-17 -76l39 76l-21 -85l47 79l-28 -85l48 77l-29 -89l49 89l-30 -100l49 91l-30 -103l51 93l-32 -101l53 90
l-31 -102l50 94l-32 -105l49 95l-26 -106l46 100l-29 -107l50 99l-30 -108l47 100l-26 -110l44 104l-23 -110l40 105l-19 -113l37 107l-17 -113l35 108l-13 -113l34 108l-13 -113l32 109l-8 -111l26 105l-3 -108l18 107l6 -108l13 105l10 -105l11 104l12 -105l5 103l16 -101
l2 100l20 -98l-3 101l28 -101l-10 102l31 -97l-14 100l33 -95l-16 97l39 -92l-25 100l46 -90l-30 98l50 -88l-38 98l57 -85l-43 93l62 -79l-50 90l67 -71l-56 83l75 -69l-64 82l81 -63l-70 77l84 -60l-74 72l86 -49l-77 62l89 -43l-78 58l88 -42l-81 61l89 -40l-83 54
l91 -36l-85 54l95 -34l-89 51l97 -31l-92 46l96 -26l-91 43l97 -25l-92 39l96 -21l-91 39l96 -21l-93 37l94 -16l-92 33l95 -13l-95 33l94 -15l-94 32zM1428 817l-90 40l66 -5q-15 5 -62 24q-26 9 -69 24q-21 7 -60 26q-94 -47 -179 -115l237 -218l-94 116l110 -98l-90 112
l114 -100l-95 112l117 -98l-105 111l126 -94l-110 109l125 -86l-115 99l127 -71l-117 87l133 -61l-123 78l137 -46l-131 66l145 -42l-120 57zM670 1384l-60 23q-37 6 -105 22q1 -41 44 -64q38 -20 80 -18l4 1l-49 21l68 -15l-63 23l73 -12l-71 23l78 -12l-73 24zM1183 945
q-52 13 -87 52q-186 31 -279 132q-80 11 -156 31v-8l347 -318q83 62 175 111zM1039 585l-115 118q-17 -18 -26 -48q-8 -24 -8 -50q1 -15 4 -27q63 14 145 7zM1598 22l-65 70l27 -54l-58 37l34 -43l-64 31l35 -36l-60 23l29 -22l-67 14l-10 -4q24 -13 47.5 -26t53.5 -13
q35 0 98 23zM1522 101l-58 56l-18 -42l-15 76l-4 -80l-24 92l7 -99l-43 111l24 -114l-66 116l42 -121l-82 123l52 -121l-90 119l57 -117l-103 121l81 -126l-119 126l-42 2q70 -71 171 -152q28 -9 70 -9q78 0 160 39zM1306 372q0 -48 -28 -78q6 23 13 76q1 10 -2 82
q17 -36 17 -80zM1284 384q0 -57 -29 -93q6 28 14 91q0 10 -3 97q18 -42 18 -95zM1120 417q0 -63 -31 -87q-26 -20 -90 -20q-170 0 -170 114q0 91 125 91q166 0 166 -98zM1081 427l-131 31l121 -11l-129 32l124 -13q-105 25 -117 25q-90 0 -90 -68q0 -88 159 -88q12 3 28 6
l-96 20l115 -9l-103 31l112 -15l-111 34l117 -16l-121 35l120 -14l-122 33z" />
    <glyph glyph-name="equal" unicode="=" horiz-adv-x="791" 
d="M654 605q4 -4 4 -9q0 -17 -30 -8q-68 19 -186 26q-126 7 -295 -20q-25 -4 -35 10q-38 60 -62 104q-10 20 -10 24q0 6 27 11q127 25 279 28q93 2 159 -10q18 -3 33 -17q49 -60 116 -139zM704 355q4 -4 4 -9q0 -17 -30 -8q-68 19 -186 26q-126 7 -295 -20q-25 -4 -35 10
q-38 60 -62 104q-10 20 -10 24q0 6 27 11q127 25 279 28q93 2 159 -10q18 -3 33 -17q49 -60 116 -139z" />
    <glyph glyph-name="greater" unicode="&#x3e;" horiz-adv-x="4087" 
d="M3963 2109q1 -20 -19 -41l-1330 -1339q46 -47 48 -116q1 -23 -4 -47q95 -38 95 -137q0 -199 -317 -209q-55 -50 -109 -100q-73 -64 -103 -73q-22 -6 -46 -6h-17q-56 -72 -142 -72q-59 0 -127 29l-210 -209q-26 -25 -58 -28q-41 -2 -81 37t-43 77q-2 33 34 67l86 82
q-97 -27 -226 -27q-35 0 -66 3q31 -62 62 -123q45 -92 45 -120q0 -87 -86 -87q-14 0 -42 -1h-43q-24 0 -42 1q78 -110 240 -338q45 -63 45 -104q0 -49 -46 -79q-40 -25 -92 -25q-160 0 -392 36q-546 85 -763 192q-14 305 -74 546q-40 187 -140 554q98 87 407 242
q325 164 428 164q72 0 144 -42t104 -105q138 118 281 193q57 30 304 180q162 98 228 107q223 32 408 94q78 35 235 83q232 38 409 77q52 12 72 12q59 0 59 -67q0 -15 -6 -36l828 761q17 16 34 17q26 2 28 -23zM3008 1429q-37 -6 -105 -22l-60 -23l74 16l-73 -24l78 12
l-71 -23l73 12l-63 -23l68 15l-49 -21l4 -1q42 -2 79 18q44 23 45 64zM2852 1160q-76 -20 -156 -31q-93 -101 -279 -132q-36 -39 -88 -52q92 -49 176 -111l347 318v8zM2623 605q0 26 -8 50q-9 30 -26 48l-115 -118q82 7 145 -7q3 12 4 27zM2479 811q-86 68 -179 115
q-15 -10 -60 -26q-30 -10 -69 -24q-20 -7 -62 -24l66 5l-90 -40l123 27l-120 -57l145 42l-131 -66l137 46l-123 -78l133 61l-117 -87l127 71l-115 -99l125 86l-110 -109l126 94l-105 -111l117 98l-95 -112l114 100l-90 -112l109 98l-93 -116zM3039 1378l-1 8
q-34 -22 -68 -42.5t-82 -20.5q-52 0 -95 64q-144 -34 -248 -49q-42 -6 -114 -38q-90 -39 -114 -47q-110 -34 -403 -98q-65 -14 -209 -116l-28 -16l34 -1l-56 -14l31 -8l-56 -1l32 -15l-59 1l42 -16l-63 5l41 -18l-66 9l35 -24l-62 11l31 -22l-60 11l34 -26l-62 17l29 -25
l-58 7l36 -23l-57 11l39 -25l-57 15l39 -27l-52 13l38 -24l-57 12l42 -22l-61 9l46 -23l-65 10l49 -23l-66 11l51 -25l-73 10l58 -25l-78 12l62 -28l-81 13l61 -27l-80 15l65 -30l-83 16l66 -30l-85 13l72 -29l-91 11l79 -24l-93 6l81 -21l-103 2l93 -17l-108 -2l96 -13
l-109 -9l96 -6l-103 -15l95 -2l-111 -19h102l-115 -26l102 4l-111 -28l99 6l-106 -30l97 5l-105 -27l99 9l-102 -33l98 10l-98 -30l96 10l-95 -32l95 15l-95 -33l95 13l-93 -33l95 16l-93 -37l96 21l-91 -39l96 21l-92 -39l97 25l-91 -43l96 26l-92 -46l96 31l-88 -51l95 34
l-86 -54l92 36l-83 -54l89 40l-81 -61l88 42l-78 -58l89 43l-77 -62l86 49l-74 -72l84 60l-71 -77l82 63l-64 -82l75 69l-56 -83l67 71l-50 -90l62 79l-43 -93l57 85l-39 -98l51 88l-30 -98l46 90l-25 -100l39 92l-16 -97l33 95l-14 -100l31 97l-10 -102l28 101l-3 -101
l20 98l2 -100l16 101l5 -103l12 105l11 -104l10 105l12 -105l7 108l18 -107l-3 108l26 -105l-8 111l32 -109l-13 113l34 -108l-13 113l34 -108l-16 113l37 -107l-20 113l41 -105l-23 110l43 -104l-25 110l47 -100l-30 108l50 -99l-30 107l47 -100l-26 106l49 -95l-32 105
l50 -94l-31 102l53 -90l-32 101l51 -93l-30 103l49 -91l-31 100l50 -89l-29 89l48 -77l-28 85l47 -79l-21 85l39 -76l-17 76l36 -69l-13 71l33 -65l-9 65l30 -59l-4 58l25 -51l-3 53l21 -49v46l18 -44l6 40l10 -38l10 37l11 -32l12 30l9 -29l13 24l7 -21l16 19l4 -19l16 15
l4 -10l21 14l17 -13l35 5q157 7 315 15q215 27 215 157q0 132 -195 132q-82 0 -296 -33l4 -17l-39 15l13 -23l-40 23l17 -29l-35 28l9 -36l-25 34l-4 -40l-15 38l-9 -41l-8 40l-10 -38l-4 37l-15 -35l-2 36l-17 -36l-1 37l-18 -32l-1 33l-20 -27l2 30l-29 -24l8 27l-38 -14
l15 19l-43 -9l4 14q-31 5 -63 11q-50 8 -50 17q0 13 41 11q39 -5 150 -19l-51 31l77 -29l-75 51l108 -54l-108 70l110 -48l-115 68l116 -42l-121 63l120 -37l-126 56l123 -38l-131 62l127 -40l-136 57l133 -39l-145 58l140 -39l-156 60l148 -39l-170 69l155 -47l-154 72
l135 -45l-131 76l101 -44l-69 58l54 -33l-21 49l58 -68l-35 82l61 -86l-38 101l54 -89l-36 106l52 -88l-28 108l47 -83l-32 110l47 -87l-35 114l54 -101l-29 101l53 -98l-30 102l57 -91l-36 98l59 -87l-38 92l61 -83l-39 85l62 -78l-39 89l64 -82l-40 90l65 -79l-41 88
l57 -78l-38 93l51 -86l-33 92l51 -86l-38 95l54 -84l-31 98l46 -91l-31 104l44 -91l-31 109l51 -93l-42 110l58 -96l-36 96l58 -91l-31 91l52 -79l-25 86l55 -78l-24 84l51 -84l-22 89l48 -80l-20 84l49 -84l-19 86l39 -75l-19 84l40 -70l-20 75l43 -61l-25 73l43 -62
l-21 73l40 -58l-21 77l35 -54l-20 70l42 -69l-21 69l42 -65l-13 68l34 -63l-13 68l35 -63l-8 65l29 -58l-6 60l24 -55l-4 60l22 -55l1 58l21 -53l2 55l16 -50l3 54l21 -47l2 53l19 -43l2 49l21 -38l3 46l18 -33l4 47l22 -33v48l23 -30l-4 44l28 -25l-9 41q14 17 25 46z
M2392 223l-42 -2l-119 -126l81 126l-104 -121l58 117l-90 -119l52 121l-82 -123l42 121l-66 -116l24 114l-43 -111l7 99l-24 -92l-4 80l-15 -76l-18 42l-58 -56q82 -39 160 -39q42 0 70 9q18 6 83 69q81 77 88 83zM2113 38l-9 4l-67 -14l29 22l-60 -23l35 36l-64 -31l34 43
l-58 -37l27 54l-65 -70q63 -23 98 -23q30 0 53.5 13t46.5 26zM1363 -219q0 14 -12 38q-46 92 -80 194q-46 11 -77 27l-12 -3q65 -144 65 -145q0 -6 -10 -6q-39 0 -111 123q-81 140 -134 318q-58 197 -58 304q0 42 19 42q22 0 57 -35q3 3 28 31q-117 119 -169 119
q-31 0 -31 -40q0 -236 86 -485q107 -310 241 -425q93 -80 167 -80q31 0 31 23zM1403 -744q0 28 -55 99q-90 116 -221 316q-46 -2 -138 -4q-248 461 -248 962q0 138 83 180q-123 -4 -123 -243q0 -307 155 -700q170 -429 395 -582q75 -51 120 -51q32 0 32 23zM2684 424
q0 -114 -170 -114q-64 0 -90 20q-31 24 -31 87q0 98 165 98q126 0 126 -91zM2258 291q-29 36 -29 93q0 53 17 95q-2 -87 -2 -97q2 -30 14 -91zM2235 294q-28 30 -28 78q0 44 17 80q-3 -74 -2 -82q2 -26 13 -76zM2654 423q0 68 -90 68q-13 0 -117 -25l124 13l-130 -32l122 11
l-132 -31l125 13l-122 -33l120 14l-121 -35l117 16l-111 -34l112 15l-103 -31l115 9l-96 -20q13 -3 28 -6q159 0 159 88z" />
    <glyph glyph-name="question" unicode="?" horiz-adv-x="647" 
d="M577 945q0 -210 -169 -375q-59 -58 -89.5 -84t-31.5 -62q0 -24 7 -46q8 -25 -9 -37q-84 -61 -121 -84q-9 -5 -19 11q-17 27 -17 66q0 56 55 145q90 144 102 169q55 113 55 228q0 177 -159 177q-31 0 -71 -22q-50 -28 -78 -78q-9 -16 -20 -12l-12 5q-10 4 0 25
q52 108 97 220l50 123l43 -12q-3 -8 -7 -28q16 1 34 1q132 0 229 -63q131 -87 131 -267zM422 192q3 -14 -9 -23l-90 -68q-35 -27 -46 -27q-20 -1 -28.5 12t-21.5 37q-6 13 -20 40q-4 9 -18 4l-21 -8q-9 -3 -15 7q-9 16 4 26l16 11q24 17 70 49q25 17 63 43q20 13 32 -11
q6 -12 17 -36q7 -15 20 -41q10 -21 21 -14l14 10q8 6 12 -11z" />
    <glyph glyph-name="at" unicode="@" horiz-adv-x="1182" 
d="M1112 484q0 -55 -10 -89.5t-94 -101.5q-23 -19 -47 -19q-119 -9 -256 -16q-14 -2 -35 2q-8 2 -27 18q-12 10 -25 24q-14 -7 -41 -20q-22 -10 -36 -17q-22 -11 -30.5 -12t-32.5 -1q-33 1 -42 10t-17 23q-14 24 -38 73q-15 29 -40 82q-10 22 -13 32q-4 16 0 26q8 18 61 50
q32 20 80 36q37 13 65 19q12 3 46 9q12 0 36 -6q2 -7 -7 -11q-73 -37 -90 -53q0 -24 1.5 -36t11.5 -45q6 -19 20 -48q19 -36 39 -74q27 9 39 16q4 33 11 114q3 47 1 121q0 38 -3 115q0 5 -5 53q-1 15 -19 10q-27 -8 -46 -14l-58 -19q-17 -6 -26.5 -12.5t-12.5 -23.5
q-1 -4 -5 -34q-3 -22 -22 -5q-5 5 -29 33q-10 11 -27 33q-1 0 -33 50q-9 13 -2 19q5 3 28 14q18 8 158 61q19 7 37 12q12 4 29 -7q34 -23 100 -69q39 -29 88 -67q23 -19 34 -40q8 -17 10 -41q2 -31 2 -78q0 -79 -1 -94q-1 -37 -5 -109q14 -1 37 -1q-16 0 41 -2q64 -2 64 57
q0 135 -59 244q-55 103 -190 202q-122 82 -243 163q-56 -26 -159 -123q-65 -62 -94 -115q-43 -77 -43 -168q0 -85 29 -158q31 -81 97 -159q104 -122 315 -161q46 -8 100 -8q35 0 76 54q15 21 24 21q5 0 17 -17q16 -20 34 -49q10 -16 10 -19q0 -8 -30 -30q-102 -74 -217 -75
q-310 -1 -477 160q-138 134 -141 355q-1 112 68 222.5t232 234.5q104 80 291 174l24 -24q-15 -17 -34 -31q196 -78 322 -205q184 -187 184 -435z" />
    <glyph glyph-name="A" unicode="A" 
d="M1139 8q7 -9 -15 -25l-107 -80q-30 -23 -58 -24q-33 -2 -53 15q-6 5 -34 37q-46 56 -103 126l-17 -13q-24 -18 -32 1q-7 18 11 33l9 6q11 9 20 31q10 26 12 144q2 71 2 199h-275l-143 -250l101 27l-408 -619l-3 1l118 393l-110 -56l175 433l-119 -55l320 603
q-39 17 -58 55h-6q6 -69 -43.5 -122.5t-118.5 -53.5q-80 0 -134 37q-70 49 -70 149q0 77 62 78q27 1 44 -16t15 -42q-3 -39 -25 -50q7 -32 38 -32q71 0 68 126q-2 21 -4 64q0 32 8 41q5 5 14 5t30 -8q74 -29 141 -29q81 0 152 10l64 121l-16 -113q16 3 105 35q73 26 118 26
q59 0 97 -40l84 38q16 7 29 -3q18 -14 2 -27l-17 -13q-23 -17 -24 -46q-1 -256 -2 -580q-3 -303 -3 -307q2 -41 -15 -57q-20 -20 -54 -38q16 6 31 6q47 0 84 -60q26 -41 39 -60q19 -25 25 -25q5 0 8 2l12 6q20 10 29 -4zM776 806q1 113 -3 199l-6 1q-16 -43 -62 -72.5
t-105 -29.5q-24 0 -46 2l-45 -304h263q4 67 4 204z" />
    <glyph glyph-name="B" unicode="B" horiz-adv-x="942" 
d="M887 405q6 -362 -345 -505q-195 -79 -291 -225q3 131 84 205q98 81 197 162q100 94 100 201q0 121 -47 243q-26 66 -66 64q-14 -1 -165 -63l-6 -146l-64 115l-21 -576l-56 95l-44 -492h-4l-121 862l69 -69l-59 481l86 -66l-30 280q-3 23 -23 18l-61 -17q-20 -5 -20 16
q0 8 15 18q44 26 162 107q55 38 142 105l25 25q9 8 19 7q11 -2 9 -20q-5 -51 -16 -175q60 66 148 134q27 19 54 12q41 -9 110 -40q29 -12 93 -46q26 -17 33 -44q6 -22 6 -88q-1 -106 -103 -213q-45 -47 -156 -129q103 43 193 54q52 7 101.5 -87t51.5 -203zM598 973
q-1 17 -41.5 49.5t-61.5 32.5q-4 0 -6 -1q-15 -7 -62.5 -49.5t-66.5 -66.5l-4 -325q79 80 159 160q91 109 83 200z" />
    <glyph glyph-name="C" unicode="C" horiz-adv-x="1235" 
d="M1185 -65q-1 -11 -18 -28q-68 -68 -99 -87q-43 -10 -120 -10q-51 0 -107 6l-87 -456h-2l-5 439l-54 -75v116q-131 31 -215 78q-128 71 -201 192t-77 268q-3 86 16 183q-35 -14 -70 -14q-59 0 -102.5 41t-43.5 101q0 106 90 106q49 0 49 -45q1 -44 -39 -44q-8 0 -17 3
q1 -57 52 -57q46 0 93 44q62 58 79 168q22 140 97 218q12 13 114 95q64 51 70 90q22 -8 43 -25q-3 -30 -25 -64l2 -1q41 29 66 24q20 -3 44 -34q40 -50 50 -61q132 -129 240 -129q74 0 74 36q0 7 -6 18q-71 0 -71 62t73 62q47 0 75 -34.5t28 -81.5q0 -110 -76 -172
q-83 -68 -237 -68q-82 0 -179 51t-130 109l-3 -1q7 -56 7 -80q0 -124 -96 -193q-2 -29 -2 -57q0 -367 233 -564l5 216l-63 -104l1 532l258 63l-40 -313l79 55l-97 -441l67 57l-34 -165q84 -29 180 -33q31 73 64 105q17 16 23 5q14 -27 37 -76q8 -21 7 -30z" />
    <glyph glyph-name="D" unicode="D" horiz-adv-x="1385" 
d="M1315 466q0 -214 -162 -403q-156 -182 -326 -232q-21 -7 -45 5q-65 36 -217 113l-33 -123q-27 -102 -83 -332l-2 458l-69 -95l9 161q-73 21 -127 20q-35 0 -71 -18q-76 -36 -90 -105q-7 -33 19 -37q60 23 143 51q21 4 24 -2l3 -19q5 -36 13 -91q3 -22 2 -23
q-1 -9 -19 -11q-186 -21 -261 19q-22 12 -23 41q-1 25 11 69q20 72 60 129q93 133 242 167q40 9 82 9h2l18 354l-76 -111l16 457q-30 -18 -58 -24t-54 -6q-66 0 -115 39q-45 36 -45 84q0 28 18 51.5t48 23.5q20 0 35 -12q38 -29 10 -76q8 -3 18 -3q40 0 77 42q35 39 39 82
q3 39 -41 52q-25 7 -25 22q0 20 30 21q9 0 88 -14q171 -28 341 -57q169 -41 329 -158q265 -195 265 -518zM1193 333q-38 180 -195 336q-9 9 -75 68q-30 28 -30 30q0 17 69 43q-75 -13 -152 19q-14 6 -134 73q-21 11 -52 23l-21 -186l103 94l-142 -650q24 -8 50 -20q6 4 8 -3
l2 -1q89 -46 275 -127q35 -13 63 1q57 27 130 110q32 35 64 89q43 71 37 101z" />
    <glyph glyph-name="E" unicode="E" horiz-adv-x="948" 
d="M898 1064q1 -90 -70.5 -148.5t-216.5 -61.5q-211 -3 -310 124l-4 -72q-1 -64 -4 -186q-3 -101 -3 -190q107 75 195 73q46 -1 116 -8q14 -3 25 -17q27 -60 67 -140q3 -5 4 -9q0 -17 -24 -9q-62 22 -160 22q-63 0 -159 -57q-18 -10 -30 3.5t-32 43.5q0 -29 -1 -65
q-1 -29 -1 -44q0 -68 4 -212q64 30 178 33q218 5 380 -108q33 -23 33 -35q0 -7 -6 -18q-14 -22 -53 -69q-20 -25 -65 -78q62 17 103 12q21 -3 14 -18q-20 -44 -34 -65q-7 -10 -41 -4q-125 20 -192 56q-24 13 -5 33q43 36 111 96q15 14 15 17q1 5 -15 14q-33 19 -97 18
q-137 -1 -293 -86q-18 -9 -32 -9q-46 0 -53 80l-6 -1l-52 -275l-39 132l-43 -355h-3l-99 571l97 -60l-91 347l86 -61l-92 436l94 -60l-22 219q-3 33 -19 30l-36 -9q-17 -4 -17 16q0 8 13 17q37 25 136 105q86 70 116 101t75 90q7 16 19 16q29 0 23 -35q-5 -24 -21 -48
q38 25 60 20q21 -4 92 -73q99 -95 203 -93q85 2 89 47q-54 0 -54 55t60 55q86 0 87 -103z" />
    <glyph glyph-name="F" unicode="F" horiz-adv-x="968" 
d="M927 948q4 -13 -10 -16q-15 -2 -23 11q-3 3 -29 37q-18 24 -42 21q-59 -5 -200 -20q-99 -11 -219 -31q-40 -7 -47 -90l-13 -152l106 105q-45 -215 -46 -209q38 22 103 43q62 20 99 22q14 1 27 -10l92 -83q32 -27 21 -39q-14 -15 -28 -1l-9 10q-14 15 -66 -2
q-89 -29 -150 -57q-38 -17 -73 -38q-14 -8 -23 4l-21 27l-34 -273q14 12 82 71l-195 -773h-6l-15 457l-77 -97l37 612l-76 -119l26 609q3 61 -26 86q-25 23 -48 32q-7 3 -32 8q-9 2 -12 13q-4 13 14 17q25 6 73 -6q44 -11 111 2t236 36q47 4 190 20q49 6 69 10q49 10 63 30
t13 41q-1 12 1 19q2 13 13 14q15 2 35 -71q8 -22 22 -65q7 -22 28 -73q14 -31 36 -81q9 -19 23 -51z" />
    <glyph glyph-name="G" unicode="G" horiz-adv-x="1361" 
d="M1311 992q2 -120 -93 -184q-81 -56 -203 -57q-56 -1 -120 20q-58 18 -79 37l2 -159l100 59l-96 -461l72 64l-99 -391q46 -7 91 -5q34 1 51 4q32 6 47 19q51 48 100 129q69 116 66 254q-2 117 -76 153q34 -49 6 -107q-24 -49 -84 -49q-42 0 -69 30t-27 73q0 16 5 32
q40 137 185 139q102 2 159 -56.5t58 -159.5q1 -143 -134 -332q-76 -107 -129 -162q-50 -51 -124 -70q-66 -16 -153 -17h-2q-4 -18 -6 -30q-24 -90 -67 -282q1 75 10 314q-252 15 -406 105q-129 75 -211 202q-85 132 -85 272q0 385 355 627q-4 6 -19.5 15t-15.5 13q0 10 7 15
q78 50 113 80q32 22 89 74q5 8 16 22q23 24 23 -6q0 -8 -10 -30q-27 -62 -27 -282l1 -460q48 37 112 61l-1 348q0 170 6 211q13 89 69 150q22 -8 43 -25q-3 -28 -25 -61q57 24 68 22q20 -3 45.5 -35.5t50.5 -64.5q106 -118 237 -118q73 0 73 38q0 7 -3 14q-72 0 -72 61
q0 25 21 43.5t51 18.5q47 0 75 -34t29 -81zM395 832q-115 -101 -115 -324q0 -157 72 -276q16 25 23 66q17 96 18 271zM715 110l-71 -75l1 426q-53 -32 -136 -108q-87 -81 -128 -162q44 -63 93 -112q100 -97 234 -139z" />
    <glyph glyph-name="H" unicode="H" horiz-adv-x="1087" 
d="M1018 1130q2 -4 0 -10q-12 -10 -27 -26q-25 -38 -29 -85q-6 -64 -14 -168q0 -4 -9 -127q23 17 79 58q-32 -231 -90 -577q17 23 76 87l-107 -498q-24 -90 -75 -297q-1 48 -4 264q-2 175 -2 225l-75 -90l-4 585q-41 -39 -125 -85q-69 -37 -132 -52v-78q-1 -48 -1 -77
q0 -161 1 -219q1 -42 14.5 -55.5t36.5 -21.5q8 -3 12 -11.5t2 -14.5q-3 -6 -12 -4q-18 5 -51 12q-26 5 -81 11q-30 3 -171 7q-26 0 -75 1q-5 0 -7 12q-1 8 11 14l18 6q32 15 48 32t18 40q6 50 7 128q1 64 1 110v70q-64 -3 -89 4q0 -2 36 -113q4 -11 0 -13t-17 5
q-61 29 -161 79q-20 11 -20 16q0 4 20 8l55 11q-11 27 -31 60q-11 18 -11 22q0 6 30 7q69 -3 189 1l-3 199l-7 281q0 8 -1.5 53t-1.5 55q0 59 -27 58q-30 -1 -54 -32t-23 -74t24 -77q17 -26 41 -36q6 -2 6 -10q0 -9 -8 -9l-8 2q-18 7 -138 53q-19 7 -23 38q-6 56 33 123
q36 61 86 109t117 88q22 13 43 -1q42 -28 80 -47q65 -32 115 -37q12 -1 16 -9q5 -9 -5 -17q-9 -4 -27 -19q-11 -12 -13 -35q-2 -31 -2 -88l4 -268q2 -188 4 -260q48 14 123 62q52 32 130 87q-2 61 -10 245q-3 69 -3 97t-3 69q-4 45 -4 56q-1 21 -7.5 32t-22.5 20.5t-11 19.5
q3 7 14 5q4 -1 47 2q40 0 120 5q41 3 117 10q14 2 36 5q9 0 12 -8z" />
    <glyph glyph-name="I" unicode="I" horiz-adv-x="523" 
d="M443 1195l-11 -907l-73 118l-21 -513l-65 102l-48 -432h-3l-137 763l78 -70l-69 453l99 -68l-68 561q38 -4 99 -10q41 -1 110 -3q-21 1 109 6z" />
    <glyph glyph-name="J" unicode="J" horiz-adv-x="1119" 
d="M960 1012q9 -11 -10 -24q-128 -85 -188 -111q-25 -11 -50 -11q-67 -1 -109 54q-110 146 -316 141q-64 -2 -64 -43q0 -8 5 -17q41 -10 103 -26q23 -6 23 -17q0 -9 -23 -40q-29 -38 -54 -61q-42 27 -85 54q-59 43 -59 80q0 86 90 142q109 68 245 70q193 3 317 -65
q105 -58 105 -115q0 -8 -2 -16q10 9 30 26q12 9 17 4q9 -8 25 -25zM1079 130q-3 -38 -44 -78q-25 -25 -127.5 -103.5t-166.5 -118.5l29 -270l-7 -2l-60 249l-15 -8q-46 -26 -102 -26q-86 0 -197 137q-108 134 -191 129q-48 -3 -78.5 -35.5t-30.5 -68.5q0 -14 5 -26
q42 -10 104 -25q23 -6 23 -17q1 -9 -23 -40q-29 -38 -54 -61q-59 26 -86 46q-56 40 -58 88q-4 123 90 208q98 89 248 89q118 0 199 -88l122 -134l-150 589l82 -46l-35 229l408 214q40 21 69 34q21 10 32 -11q10 -21 -6 -30l-18 -9q-22 -11 -25 -71q1 21 1 -100v-502
q0 -50 31 -91t31 -51zM892 85q-1 8 -31 47.5t-30 86.5v429q0 2 -4 91q-3 59 2 90l-41 -22l9 -490l-48 30l25 -292l-65 53l18 -159h1q59 28 142 100q22 20 22 36z" />
    <glyph glyph-name="K" unicode="K" horiz-adv-x="1344" 
d="M1304 -164l-226 -97q-13 -6 -19 -2l-155 92q-13 8 2 19l120 86q21 15 21 21t-18 11q-120 35 -227 104q-123 79 -178 172q-51 88 -74 156q-13 -13 -55 -29l5 -276l-84 260l10 -638l-75 224l-1 -427h-3l-155 648l102 -59l-62 223q-26 -10 -78 3l8 -114q1 -13 -2 -15t-15 5
l-127 82q-18 11 -18 16t19 9l52 11l-29 57q-10 19 -10 21q0 6 28 6q105 -6 151 -1l-118 523l102 -104l-57 348q104 -3 90 -3q40 1 110 4q35 4 118 14l33 -733q9 3 37 18q-20 87 -22 110q-5 39 22 43q81 12 166 54q12 6 19 6q9 0 9 -10q0 -21 -34 -80l3 -2q80 59 158 179
q85 130 87 221q-1 0 -122 33q-37 10 -60 22q-8 4 -14 -6l-20 -40q-8 -14 -17 -4q-20 13 -44 30q-6 8 0 15q20 22 127 128q32 33 67 29q24 -2 135 -40q64 -22 126 -34q52 -10 68 11q10 13 22 37q7 14 15 7q12 -15 28 -34q8 -6 3 -16q-63 -123 -162 -140q-25 -4 -54 -3
q-22 -165 -161 -335q-59 -73 -119 -124q13 -82 49 -165q73 -160 196 -241q73 -48 208 -76q33 -7 33 -19q0 -6 -10 -21q-23 -37 -72.5 -87.5t-91.5 -66.5l-2 -4h242q29 0 0 -12z" />
    <glyph glyph-name="L" unicode="L" horiz-adv-x="1173" 
d="M1143 -164l-226 -97q-13 -6 -19 -2l-155 92q-13 8 2 19l118 85q17 12 17 16t-20 16q-35 20 -113 21q-210 3 -358 -91l-83 -402h-3l-27 313q-12 -11 -45 -46q-23 -24 -56 1q-45 40 -162 134q-23 16 -13 29q13 16 28 3l10 -9q15 -13 37 16t111 98l-15 374l-74 -117l-7 850
q20 41 99 41q101 0 98 -1q58 8 98 59q30 -19 11 -71q33 20 39 19q14 -4 63.5 -84.5t50.5 -82.5q32 -42 68 -42q42 0 42 32q0 5 -2 11q-44 0 -44 49q0 48 44 48q57 0 60 -91q3 -92 -54 -146q-42 -39 -114 -39q-74 0 -168 140l-44 -340l97 68l-57 -453l76 68l-28 -187
q112 23 150 23q267 -3 443 -126q40 -28 40 -42q0 -8 -9 -20q-26 -32 -80 -75q-49 -39 -66 -45l-2 -4h242q29 0 0 -12z" />
    <glyph glyph-name="M" unicode="M" horiz-adv-x="1540" 
d="M1482 928q-76 -169 -153 -338q-104 -241 -108 -371q-5 -179 21 -271q38 17 97 42q18 6 26 6q14 0 24 -38q10 -32 22 -83q-64 -17 -119 -20q-81 -4 -126 33q-171 143 -175 335q-3 164 47 279q51 112 132 214q46 53 110 139q11 17 -4 36q-19 26 -80 87q-68 68 -105 93
q-21 15 -39 2q-85 -67 -119 -98q-17 -16 -16 -45q2 -160 23 -652l-98 80l56 -569l-87 104l-23 -422l-5 2l-202 658l94 -56l-112 538l96 -60l-32 324q-4 44 -18 62q-18 16 -37 32q-52 49 -122 103q-17 13 -39 -2q-116 -80 -176 -158q-14 -19 -4 -36q45 -74 101 -151
q92 -126 135 -224q56 -127 51 -269q-3 -97 -66 -202q-58 -98 -145 -167q-33 -27 -57 -16q-81 34 -156 17q0 33 9 79q5 26 11.5 33t28.5 1l70 -18q76 95 64 289q-7 132 -144 413q-133 275 -133 325q0 22 18.5 38.5t38.5 33.5q40 35 185 130q95 63 147 82q34 12 63 -18
q62 -55 150 -143q46 41 127 113q26 22 49 2q53 -45 129 -108q51 57 147 150q17 13 48 4q55 -15 159 -78q137 -83 181 -122q21 -17 41 -35q17 -17 17 -40q0 -24 -18 -69z" />
    <glyph glyph-name="N" unicode="N" horiz-adv-x="1032" 
d="M991 963q-1 -20 -14 -55q-114 -288 -270 -722q-6 -18 -12 -48q-2 -19 2 -50q12 -102 41 -240q95 40 131 52q10 3 16 4q9 0 8 -14q-3 -20 -6 -39q-3 -30 -9 -81q-69 -18 -173 -25q-22 -1 -58 31q-49 43 -105 148q-52 98 -76 182q-10 32 -9 51q6 173 93 330q41 74 114 170
l106 134q11 15 -4 36q-3 4 -174 150q-12 10 -19 11q-8 1 -24 -10q-98 -63 -140 -103q-18 -17 -17 -45l19 -611l-100 111l77 -584l-103 85l-24 -374l-6 -2l-219 710l97 -51l-133 623l108 -91l-58 346l349 294l-5 -245l133 127q31 29 51 22q83 -28 178 -77q70 -35 180 -97
q21 -12 42 -25q15 -10 13 -28z" />
    <glyph glyph-name="O" unicode="O" horiz-adv-x="1250" 
d="M1186 394q0 -77 -10 -116q-12 -44 -52 -104q-53 -80 -203 -251q-100 -114 -255 -116l-16 -319l-3 1l-25 318q-116 3 -233 50q-140 56 -230 158q-159 179 -159 461q0 123 61.5 265.5t144.5 209.5q-105 23 -173 81q-19 16 -19 21q0 3 18 19.5t48 45.5q-9 5 -31 19
q-14 10 -14 13q0 4 23 9q53 9 150 30q15 3 18 -3t-4 -17q-23 -40 -63 -101q46 -18 95 -18q141 -1 229 132q42 62 91 61q28 0 66 -20q253 -132 394 -335q152 -220 152 -494zM1045 325q0 165 -64 317q-53 126 -184 236l7 -413l-48 75l-14 -481l-56 86l-11 -180q57 -9 93 -9
t66 27q49 45 116 127q33 38 83 105q12 20 12 110zM632 769l-10 236q-85 -96 -250 -93q-49 1 -92 14q-55 -64 -75 -108q-46 -99 -45 -229q2 -222 142 -413q92 -126 300 -194l-48 419l55 -35l-55 462z" />
    <glyph glyph-name="P" unicode="P" horiz-adv-x="729" 
d="M669 928l-20 -288q-4 -49 -9 -81q-4 -22 -25 -38.5t-50 -31.5q-45 -24 -90 -37q-40 -12 -61 -13q-18 -1 -26 12l-86 140l18 -441l-74 146l-13 -483l-64 107q-10 -98 -47 -467l-6 -1l-113 780l63 -66l-72 487l101 -52l-78 671q33 -3 69 -5q41 -1 110 -3q53 -1 109 1
l-1 -81q1 -7 14 -10l128 39q16 5 26 -7l182 -230q16 -21 15 -48zM454 649v135q0 22 -3 59q-2 43 -2 60q-2 64 -8 126q-6 52 -12 82q-4 17 -22 13l-92 -21q-11 -2 -11 -14l-3 -448q44 8 74 9q14 1 39 0q31 -1 40 -1zM442 553q19 29 -5 31q-18 2 -48 4q-20 2 -38 4l49 -59
q11 -14 24 -1q6 6 18 21z" />
    <glyph glyph-name="Q" unicode="Q" horiz-adv-x="1264" 
d="M1186 372q0 -78 -10 -118q-12 -45 -52 -105q-49 -75 -203 -256q-71 -82 -146 -95l126 -131l-88 -3l324 -208h-28l-299 94l-190 -110l86 168l-20 171q-149 -6 -286 45q-147 55 -241 163q-159 181 -159 468q0 125 61.5 269.5t144.5 212.5q-105 23 -173 82q-19 17 -19 22
q0 3 18 19.5t48 45.5q-9 6 -31 20q-14 10 -14 13q0 4 23 9q53 9 150 30q15 3 18 -3t-4 -16q-23 -41 -63 -103q46 -18 95 -19q141 0 229 134q42 63 91 62q28 0 66 -20q254 -134 395 -342q151 -222 151 -499zM1045 301q0 168 -64 323q-53 127 -184 239l33 -552l-60 42l39 -332
l-95 57l35 -153q11 -3 26 0q34 7 59 29q49 46 116 129q33 39 83 107q12 21 12 111zM643 -58l-88 352l83 -43l-119 484l114 -51l-66 267q-56 -56 -195 -54q-49 1 -92 15q-55 -65 -75 -110q-46 -100 -45 -233q2 -225 142 -418q120 -167 341 -209z" />
    <glyph glyph-name="R" unicode="R" horiz-adv-x="1027" 
d="M1007 -318l-5 -1q-344 76 -510 403q-73 142 -103 330q142 175 188 246q97 152 92 254q-1 29 -66 86.5t-82 48.5q-23 -12 -141 -166l-13 -701l-73 114l-10 -518l-65 96l-94 -389l-5 1l-101 732l85 -68l-83 574l99 -69l-37 288q-3 24 -22 21l-41 -9q-20 -4 -20 18
q0 10 15 20q43 30 159 123q135 108 169 144q9 10 25 28q9 9 18 8q12 -2 10 -23q-6 -106 -16 -279q92 156 149 201q35 28 60 21q42 -12 164 -89q108 -69 156 -108q16 -13 33 -25q11 -11 12 -23q0 -17 -29 -76q-54 -110 -176 -251q-117 -133 -226 -218l224 42q-1 -8 -1 -73
q0 -163 81 -392q84 -239 180 -321z" />
    <glyph glyph-name="S" unicode="S" horiz-adv-x="1100" 
d="M1027 370q0 -239 -235 -421q-46 -31 -130 -100q-43 -43 -92 -119q-38 60 -136 198l-99 -195l1 105l-197 -442l-2 1l47 356l37 -74l115 363q-81 77 -143 75q-22 -1 -54 -32t-47 -64q-15 -34 2 -44q20 17 47 17q31 0 53 -21.5t22 -52.5t-22 -52.5t-53 -21.5q-47 -1 -95 42
q-45 40 -46 76q-1 20 28 75q50 96 127 165q93 83 184 83q41 0 74 -10l25 72l15 -88v0l47 135q-76 -24 -173 -24q-173 -1 -264 137q6 7 24 24q-46 83 -46 154q0 184 239 405q37 35 196 166q8 7 17 7q22 0 22 -23q0 -8 -5 -13q-9 -10 -31 -41q16 13 31 13q16 1 53 -38
q109 -111 241 -145l28 66h2l1 -73q16 -2 30 -2q63 0 63 45q0 9 -5 19q-72 0 -72 68q0 29 21.5 51t51.5 22q91 0 91 -122q0 -136 -179 -206l3 -226q95 -15 145 -102q43 -76 43 -188zM736 860q-26 -4 -52 -4q-158 0 -287 76q-45 27 -81 56q-13 -66 -13 -146q0 -90 20 -147.5
t77 -123.5q23 -27 65 -57q-23 -35 -79 -44l2 -2q83 1 157 54l69 201l20 -102zM774 230q-2 117 -52 177l-90 -189l5 127l-84 -172q17 -19 76 -92q24 -30 72 -79q76 68 73 228z" />
    <glyph glyph-name="T" unicode="T" horiz-adv-x="1145" 
d="M1105 1384q-6 -28 -24 -72q-26 -71 -69 -183q-7 -24 -22 -65q-11 -26 -17 -33t-26 -13q-24 -8 -31 -8t-7 6t10 30q27 65 35 106q-18 -33 -31 -51q-24 -33 -43 -35q-170 -21 -177 -94l-33 -306l105 110l-140 -636l85 68l-216 -771h-4l17 548l-73 -91l30 561l-77 -90
l-1 534q0 32 -53 33q-30 0 -61 -7q-66 -13 -159 -40q-27 -13 -52 -64q-5 -12 -10 -22.5t-29 -14.5q-18 -3 -27 0q-10 4 -5 17q5 14 20 67q15 57 47 175q14 53 38 130q13 25 34 10q9 -6 8 -19q-3 -34 -10 -58q59 66 85 66q3 0 13.5 -1t18.5 -1q46 2 318 61q89 20 197 45
q81 18 241 62q15 5 44 42q7 11 25 27q10 5 19.5 -3.5t6.5 -19.5z" />
    <glyph glyph-name="U" unicode="U" horiz-adv-x="1025" 
d="M944 535l-88 83l61 -716l-77 68l46 -508h-3l-139 358q-51 -41 -198 -122q-11 -6 -26 -6q-27 0 -84 42q-249 178 -300 232q-136 142 -136 337q0 87 29 200q13 40 29 121q40 -22 86 -20h12q-69 51 -69 69q0 7 14 15q19 11 20 12q55 51 87 156q29 93 29 179q0 45 -15 83
q-20 52 -59 52q-8 0 -16 -4q24 -32 24 -60q0 -58 -63 -58q-69 0 -69 67q0 101 121 99q109 -2 171 -125q50 -100 50 -221q0 -235 -105 -441q-69 -136 -75 -149q-38 -89 -38 -161q0 -76 42 -132q29 -40 104 -96q34 -25 67 -25q20 0 36 12q33 20 96 62q57 43 143 106l-101 256
l91 -24l-124 520l88 -51l-64 387q37 -4 99 -10q41 -1 110 -3q-9 0 129 6z" />
    <glyph glyph-name="V" unicode="V" horiz-adv-x="1383" 
d="M1353 1084q0 -3 -7 -25q-43 -130 -141 -146q-29 -5 -62 5q-26 -201 -128 -448q-137 -334 -253 -470l49 -107l-97 64l108 -402l-3 -1l-372 516l95 -3l-393 597l117 -22l-266 430q36 12 94 32q38 15 102 41q27 15 97 50l352 -758l-117 54l203 -417q113 144 215 423
q114 311 126 443q-56 15 -102 57q-29 30 -67 64q-12 6 -26 0q-8 -4 -24 -11q-16 -6 -21 2q-6 5 -14 14q-4 9 3 15q76 68 128 102q31 20 59 7q34 -20 109 -62q43 -27 127 -60q33 -4 58 11.5t32 26.5t14 4q3 -4 5 -26z" />
    <glyph glyph-name="W" unicode="W" horiz-adv-x="1863" 
d="M1833 1084q0 -3 -7 -25q-43 -130 -141 -146q-29 -5 -62 5q-59 -156 -135 -386q-61 -183 -181 -531l41 -105l-94 61l66 -361l-3 -1l-376 540l99 -7l-145 222q-22 -52 -42 -103q-16 -41 -91 -247l49 -104l-97 61l108 -402l-3 -1l-376 517l99 -4l-396 598l120 -23l-266 430
q36 12 94 32q47 15 114 38q41 16 125 53l310 -756l-115 52l183 -370q40 100 125 316l-192 298l115 -21l-219 368q40 9 102 25q26 6 114 40q37 14 117 48l294 -702l-112 42l202 -429l133 409q90 284 154 426q-46 12 -94 56q-29 30 -67 64q-12 6 -26 0q-8 -4 -24 -11
q-16 -6 -21 2q-6 5 -14 14q-4 9 3 15q76 68 128 102q31 20 59 7q34 -20 109 -62q43 -27 127 -60q33 -4 58 11.5t32 26.5t14 4q3 -4 5 -26z" />
    <glyph glyph-name="X" unicode="X" horiz-adv-x="1402" 
d="M1362 1166l-263 -227l166 16l-396 -348l145 20l-111 -108q124 -248 148 -291l80 -146q68 -120 105 -159q31 -33 61 -40q23 -6 29 -18q3 -7 8 -19q3 -10 -4 -12q-32 -7 -75 -3q-63 5 -145 6q-26 0 -73 -4q-50 -5 -62 -5q-87 -2 -68 -3q-13 1 -17.5 4.5t-6.5 29.5
q-1 14 16 15l24 1q26 1 26 26q0 9 -23 61q-71 133 -210 397l-104 -88l96 -7l-495 -398l14 55l-225 -164l-2 2l287 362l-107 -21l423 457l-143 -31l96 131l-162 295l-4 -1q3 -13 3 -26q0 -49 -36 -83q-38 -37 -99 -37q-91 0 -145 38q-89 63 -89 168q0 77 62 78q27 1 43.5 -16
t15.5 -42q-3 -39 -25 -50q6 -32 38 -32q70 0 67 126q-1 21 -3 64q0 32 8 41q5 5 14 5t30 -8q60 -23 141 -29q12 -1 34 1q27 2 37 2q75 0 114 -63q46 -75 94 -166q6 -12 25 -47l245 325z" />
    <glyph glyph-name="Y" unicode="Y" horiz-adv-x="1392" 
d="M1362 1144q0 -3 -7 -25q-43 -130 -141 -146q-29 -5 -62 5q-23 -45 -171 -217q-117 -136 -135 -259l17 -343l-81 113l24 -598l-70 121l-33 -312h-3l-192 647l102 -60l-121 393l92 -56l4 3q-53 167 -220 313q-176 154 -244 327q-40 102 -100 109q-21 2 -21 23q0 18 16 22
q27 8 69 4q128 -13 140 -13q2 0 156 26q54 9 64 -1q6 -5 7 -21q1 -17 -9 -20l-37 -14q-26 -10 -26 -44q0 -33 18 -63q37 -63 178 -184q135 -117 215 -264q44 114 145 223q126 137 145 167q-56 15 -102 57q-30 30 -67 64q-12 6 -26 0q-8 -4 -24 -11q-16 -6 -21 2q-6 5 -14 14
q-4 9 3 15q76 68 128 102q31 20 59 7q34 -20 109 -62q43 -27 127 -60q33 -4 58 11.5t32 26.5t14 4q3 -4 5 -26z" />
    <glyph glyph-name="Z" unicode="Z" horiz-adv-x="1490" 
d="M1450 1166l-263 -227l167 17l-397 -349l138 -6l-395 -330l113 -10l-252 -186l2 -4q166 97 358 97q276 0 423 -124q48 -40 48 -62q-1 -20 -30 -38l-153 -92l-2 -4h242q29 0 0 -12l-226 -97q-13 -6 -19 -2l-155 92q-14 8 2 19l75 52q8 6 17 15q2 5 -18.5 16.5t-92.5 23.5
q-76 13 -131 13q-292 0 -620 -237q-10 -7 -15 -5q-7 3 -3 19l36 137l-297 -217l-2 2l375 454l-128 -23l444 459l-152 -29l388 475l-6 1q-124 -114 -256 -114q-101 0 -183 62l-4 -1q3 -13 3 -26q0 -49 -36 -83q-38 -37 -99 -37q-91 0 -145 38q-89 63 -89 168q0 77 62 78
q27 1 44 -16t15 -42q-3 -39 -25 -50q7 -32 38 -32q71 0 68 126q-2 21 -4 64q0 32 8 41q5 5 14 5t30 -8q74 -29 141 -29q62 0 179.5 28t176.5 28q96 0 152 -60l74 105z" />
    <glyph glyph-name="bracketleft" unicode="[" horiz-adv-x="476" 
d="M437 1141q0 -1 -1 -3q-5 -9 -23 -7l-34 4q-21 3 -29 -11q-19 -31 -45 -82q-10 -16 -24 -45q-14 -4 -60 0q35 -17 54 -28q16 -8 16 -27q0 -152 1 -230q-1 -127 -1 -301q2 -75 -6 -243q-6 -145 -14 -229q-2 -15 -3.5 -18t-12.5 -9q-19 -11 -54 -27q22 -1 60 0q2 -4 24 -46
q26 -51 45 -82q8 -14 29 -11l34 4q18 2 24 -9q5 -8 -15 -17l-123 -52q-45 -19 -53 -19q-25 1 -37 12q-2 2 -23 30q-7 11 -66 99l-58 -23q-12 -4 -18 -3q-5 0 -7 6q-5 17 11 27l24 15q9 6 17 25q3 5 7 33q2 24 6 74q8 86 11 177q9 200 9 266q0 180 3 265q2 36 -1 188
q-2 129 -8 163q-2 14 -7 33q-2 8 -17 25l-24 15q-16 10 -11 27q2 6 7 6q6 1 18 -3l58 -23q28 43 66 99q8 11 23 30q12 11 37 12q8 0 53 -19l123 -52q20 -9 15 -16z" />
    <glyph glyph-name="backslash" unicode="\" horiz-adv-x="1355" 
d="M1203 -1q-12 -2 -76 -5q-125 -5 -146 -5q-52 -1 -134 0q-36 -3 -84 4q-8 6 -9 25q-1 20 17 21l23 1q19 1 19 28q0 25 -16 59q-7 16 -96 183l-223 415l-146 276q-102 188 -155 244q-32 33 -62 38q-24 5 -30 16q-15 32 -4 34q12 3 76 6q125 5 146 5q57 1 144 0q36 2 84 -4
q8 -7 9 -25q1 -20 -17 -21l-23 -1q-19 -1 -19 -28q0 -25 16 -59q33 -73 108 -206q81 -143 115 -215q105 -217 202 -392l80 -146q68 -120 105 -159q31 -33 62 -38q24 -5 29 -16q15 -33 5 -35z" />
    <glyph glyph-name="bracketright" unicode="]" horiz-adv-x="477" 
d="M467 -226q-1 -6 -7 -6q-6 -1 -17 3l-59 23q-28 -43 -66 -99q-7 -11 -23 -30q-12 -11 -36 -12q-8 0 -53 19l-123 52q-20 9 -16 17l2 2q5 9 23 7l34 -4q21 -3 29 11q18 31 45 82q9 16 24 46q13 3 60 0q-35 16 -54 27q-14 7 -16 27q-8 84 -15 229q-7 168 -5 243
q-1 135 -2 301q2 69 2 230q0 19 17.5 28.5t52.5 26.5h-60q-2 4 -24 45q-27 51 -45 82q-8 14 -29 11l-34 -4q-18 -2 -25 10q-4 7 16 16l123 52q45 19 53 19q24 -1 36 -12q3 -2 23 -30q8 -10 66 -99l59 23q11 4 17 3q6 0 7 -6q6 -17 -10 -27l-25 -15q-9 -6 -17 -25
q-2 -5 -7 -33q-5 -34 -7 -163q-3 -152 -2 -188q4 -85 4 -265q0 -66 8 -266q4 -91 11 -177q2 -28 6 -74q2 -14 7 -33q2 -8 17 -25l25 -15q16 -10 10 -27z" />
    <glyph glyph-name="asciicircum" unicode="^" horiz-adv-x="532" 
d="M484 1270q9 -7 -6 -23q-39 -46 -51 -57q-36 -36 -62 -36q-46 -2 -110 73q-47 -41 -87 -65q-14 -8 -19 -8q-7 0 -19 7q-41 22 -81 49q0 11 7 15q25 16 68 44q21 14 78 53q27 22 69 55q13 -4 21 -12q-14 -14 -26 -28q18 2 34 -4.5t47 -27.5q25 -17 66 -44q11 -6 18 -6
q-1 0 15 4q7 5 21 13q10 5 17 -2z" />
    <glyph glyph-name="underscore" unicode="_" horiz-adv-x="1212" 
d="M1250 -332h-1288v152h1288v-152z" />
    <glyph glyph-name="grave" unicode="`" horiz-adv-x="627" 
d="M462 1303q0 -14 -48 -28q-42 -13 -62 -13q-66 0 -112.5 73.5t-63.5 73.5q-5 0 -14.5 -3t-13.5 -3q-12 0 -12 25q0 4 7 10q58 47 107 47q63 0 105 -81.5t74 -81.5q5 0 12.5 4.5t11.5 4.5q9 0 9 -28z" />
    <glyph glyph-name="a" unicode="a" horiz-adv-x="549" 
d="M534 332q-14 -16 -30 -28q-30 -24 -85 -75q-11 -12 -29 -35q-23 -27 -70 -23q-11 0 -29 8q-7 7 -14 27q-5 11 -11 26q-13 -10 -35.5 -25.5t-35.5 -25.5q-20 -15 -27.5 -17t-29.5 -1q-31 2 -39 14t-15 31q-13 34 -35 101q-14 41 -37 114q-9 31 -11 45q-4 22 0 35
q7 25 55 70q29 27 74 50q33 17 59 26q11 4 42 12q11 0 33 -8q2 -11 -6 -15q-17 -13 -44 -36q-16 -14 -38 -38q0 -34 1 -48q1 -18 10 -64q5 -26 19 -66q16 -50 35 -103q24 12 36 22q3 46 10 159q3 65 1 167q0 39 -2 130q-36 -30 -105 -31q-70 -2 -121 32q-60 41 -60 118
q0 64 50 64q42 0 42 -38q0 -36 -30 -39q13 -13 36 -14q45 0 133 56q51 37 103 73q24 16 32 16t24 -16q38 -34 91 -83q13 -13 3 -22q-11 -11 -19 -18q4 -127 4 -242q0 -109 -1 -130q-1 -51 -4 -151q12 -2 33 -2q4 0 18.5 -1t18.5 -1z" />
    <glyph glyph-name="b" unicode="b" horiz-adv-x="749" 
d="M678 596q0 -21 -2 -116q-1 -25 -9 -118q-7 -76 -15 -117q-4 -25 -22 -44q-27 -28 -77 -61q-22 -16 -61 -40q-23 -12 -43 -3q-66 27 -112 52l-14 -53q-8 -30 -29 -33q-19 -2 -42 17l-138 112q-20 15 5 19l26 4q27 4 27 33v336q2 105 -1 367q-1 120 -5 252q-1 44 -5 53
t-26 9q-54 0 -76 -41q30 -2 30 -38t-42 -36q-23 0 -35.5 13.5t-11.5 38.5q1 42 67 110q38 38 106 96q36 30 68 17q31 -12 54 -25q18 -13 59 -42q9 -6 9 -13q0 -4 -7 -15.5t-8 -20.5q3 -82 1 -235q-2 -93 -5 -223q15 12 29 20q35 21 51 17q18 -3 51 -14q20 -6 59.5 -19
t72 -28.5t46.5 -38.5q11 -18 18 -48q6 -24 7 -144zM499 563q-1 -25 -2 113q0 21 -5 69q-2 16 -13 26.5t-47 25.5q-9 4 -32.5 -6.5t-34 -20t-12.5 -24.5q0 -33 -3 -105q1 -94 1 -242v-150q17 -8 61 -24q28 -8 41 -5q25 7 30 37t10 102q4 64 6 204z" />
    <glyph glyph-name="c" unicode="c" horiz-adv-x="532" 
d="M497 397q0 -7 -11 -26q-31 -54 -69 -105q-20 -27 -35 -39t-47 -14q-26 -1 -63 -2q-25 -1 -40 -1q-23 1 -41 3q-13 2 -42 26q-20 14 -54 44q-18 18 -53 54l-30 29q-4 5 -8 28t-4 56q0 16 2 52.5t2 56.5v85q-1 42 3 125q-1 8 4 57q0 9 13 28q32 28 94 79q27 22 81 65
q26 19 41 17q85 -12 141 -51q97 -68 97 -182q0 -63 -28 -116q-33 -61 -84 -61q-59 0 -59 55q0 65 60 65q40 0 43 -48q12 25 11 50q-1 48 -71 90l-92 34q-39 20 -35 100l-6 -3q-13 -23 -19 -58.5t-9 -87.5q-1 -7 -3 -133q0 -25 -1 -76q-1 -70 1 -131q0 -39 4 -115
q1 -15 8.5 -29t30.5 -32q16 -13 33 -24q14 -9 21 3q2 4 13 32q9 23 25 65q5 12 32 105q5 18 10 12q11 -6 29 -17q22 -15 66 -40q39 -19 39 -25z" />
    <glyph glyph-name="d" unicode="d" horiz-adv-x="629" 
d="M588 1223q18 -8 -5 -24q-73 -58 -153 -122q-11 -8 -17 -2q-5 6 1 17q67 135 83 212q-2 27 -30 20q-59 -14 -93 -81q-30 -57 -29 -124q0 -103 74 -272t76 -252q2 -133 -9 -349q-1 -27 30 -28l64 -3q19 0 19 -5q0 -4 -15 -14l-193 -124q-27 -17 -43 -15q-3 1 -24 14
q-8 5 -7 19l3 53q-46 -22 -111 -47q-20 -7 -42 5q-8 4 -59 41q-48 34 -73 62q-17 19 -20 44q-6 41 -10 115q-5 92 -5 117q0 44 1 113q2 54 12 140q7 24 20 48q11 20 46 39q23 10 72 30q5 2 70 25q-23 81 -21 155q2 94 45.5 182.5t115.5 138.5q96 67 170 61q28 -3 39 -26
q12 -26 9 -69q-3 -42 -19 -81q7 -3 28 -13zM317 417q3 243 -69 384q-17 -6 -43 -21q-20 -18 -25 -105q-3 -68 -4 -120q-2 -138 -1 -201q2 -34 4 -101q1 -28 26 -37q13 -4 42 4.5t63 21.5q3 63 7 175z" />
    <glyph glyph-name="e" unicode="e" horiz-adv-x="561" 
d="M501 565q-9 -15 -25 -41q-9 -14 -32 -45q-11 -14 -24 -9q-6 2 -29 8q-45 12 -134 34q-35 7 -67 7v-78q-2 -72 0 -136q0 -39 4 -118q2 -15 10 -29q16 -29 54 -57q16 -11 21 -1q16 19 39 50q21 39 27 60q20 70 27 109q4 20 11 13q6 -7 17 -22q9 -11 24 -33q11 -17 22 -32
q8 -12 5 -18q-12 -16 -40 -55q-19 -20 -53 -58q-20 -19 -52 -52q-12 -14 -27 -15h-42q-13 0 -42 3q-22 3 -102 80q-18 19 -54 56l-31 31q-11 11 -8 27q3 20 3 49v113q0 23 -1 87q-1 42 -1 64q5 56 17 135q1 9 15 29q29 23 90 70q1 1 81 62q18 14 29 15q20 0 28 -3
q25 -8 79 -34q26 -11 75 -38q11 -8 15 -20q9 -22 35 -91q2 -6 33 -86q8 -23 3 -31zM343 561q-15 40 -40 104q-12 30 -29 77q-29 80 -46 67q-7 -6 -12 -15q-7 -13 -13 -49q-8 -44 -13 -167q23 1 58 -2q16 -2 50 -7q31 -7 45 -8z" />
    <glyph glyph-name="f" unicode="f" horiz-adv-x="750" 
d="M720 1173q24 -10 -5 -24q-107 -48 -223 -102q-11 -8 -16 -2q-5 5 0 17q39 81 84 192q-3 58 -49 58q-88 0 -139 -59q-45 -54 -45 -134q1 -82 36 -176l68 -160q35 15 61 27q126 59 134 59q21 0 20 -15q-2 -36 -22 -82q-30 -68 -39 -103q-3 -13 -20 -13q-19 0 -14 20
q5 7 9 26q1 7 -6.5 11t-13.5 3q-34 -3 -79 -21q14 -49 17 -96q9 -161 9 -189q0 -207 -14 -291q-28 -159 -123 -252q-54 -53 -140 -101q-76 80 -165 78q-85 -2 -107 -58q29 -2 29 -37t-41 -36q-46 0 -46 54q0 71 116 148q111 74 191 74q78 0 129 -28l4 3q-22 41 -53 67
q-10 7 -20 21q-1 8 18 20q36 23 43 127q1 17 1 169q0 19 -16 201q-2 26 -7 53q-45 -13 -87 -13q-51 0 -88 30q-43 33 -42 90q2 83 62 83q44 0 44 -45q0 -47 -42 -38q35 -18 78 -18q17 0 48 9l-52 150q-26 87 -25 160q5 213 153 322q83 61 202 61q71 0 119 -30
q60 -36 60 -106q0 -33 -24 -91q7 -3 28 -13z" />
    <glyph glyph-name="g" unicode="g" horiz-adv-x="648" 
d="M618 -213q2 -23 -52 -74q-41 -38 -56 -51t-179 -24q-66 -4 -177 13q-19 3 -90 23q-42 12 -64 26q-13 8 5 33q38 51 47 78q0 1 75 -81q12 -13 18 -14q87 -8 178 0t129 26q9 4 40 46q3 3 3 6q0 11 -33 20q-88 25 -154 25q-91 0 -163 -35q-20 -10 -34 8q-23 30 -47 59
q-15 22 -15 57q0 27 15 62l38 64q29 54 34 94q-26 11 -63 41q-8 12 -16.5 48t-10.5 175q0 21 3 115q1 56 5 119q1 32 8 103q2 15 33 48q30 30 77 69q34 27 62 42q22 11 43 3q65 -27 111 -52l2 53q1 32 29 36q19 2 49 -11l144 -60q33 -14 -6 -19l-28 -4q-25 -4 -25 -41
q0 -15 1 -118v-140q0 -25 -1.5 -121.5t-1.5 -113.5q0 -37 -1 -40q-4 -12 -34 -35q-54 -43 -164 -119q-34 -20 -51 -20q-15 0 -48 6q-27 5 -62 17q-20 -59 -42 -158q25 10 117 21q120 1 194 -46q5 -2 78 -58q21 -16 70 -65q7 -7 10 -36zM378 609q0 27 -2 73q-2 51 -2 74
q-17 9 -61 28q-18 7 -48 16q-26 4 -30 -31q-5 -51 -8 -120q-1 -80 -2 -204q-1 -19 1 -68q2 -57 2.5 -74.5t4.5 -59.5q3 -16 14 -28q5 -5 45 -14q14 -4 34.5 5.5t35.5 21.5q9 9 10 24q1 23 3 85q1 109 3 272z" />
    <glyph glyph-name="h" unicode="h" horiz-adv-x="774" 
d="M749 -20l-14 -29q-5 -10 -26 -3l-145 54q-28 10 -50 30t-26 59q-3 33 -3 108q0 34 3 82q4 60 5 78q5 153 6 204q-1 -25 -2 113q0 21 -5 69q-2 16 -13 26.5t-47 25.5q-9 4 -32.5 -6.5t-34 -20t-12.5 -24.5q0 -33 -3 -105q1 -94 1 -242q-1 -76 -3 -153t-25 -150
q-10 -30 -29 -33q-19 -2 -42 17l-138 112q-20 15 5 19l26 4q27 4 27 33v336q2 105 -1 367q-1 120 -5 252q-1 44 -5 53t-26 9q-54 0 -76 -41q30 -2 30 -38t-42 -36q-23 0 -35.5 13.5t-11.5 38.5q1 42 67 110q38 38 106 96q36 30 68 17q31 -12 54 -25q18 -13 59 -42
q9 -6 9 -13q0 -4 -7 -15.5t-8 -20.5q3 -82 1 -235q-2 -93 -5 -223q15 12 29 20q35 21 51 17q18 -3 51 -14q20 -6 59.5 -19t72 -28.5t46.5 -38.5q11 -18 18 -48q6 -24 7 -144q0 -21 -2 -116q-2 -71 -6 -187q-5 -61 -2 -177q0 -28 4 -78q1 -6 7 -22q6 -19 27 -19l38 -1
q4 0 7 -1q4 -3 -2 -15z" />
    <glyph glyph-name="i" unicode="i" horiz-adv-x="433" 
d="M312 1046q3 -11 -10 -18l-104 -53q-42 -21 -54 -22q-23 0 -35 9q-8 11 -23 30q-7 10 -23 32q-5 7 -21 3l-24 -7q-11 -2 -18 6q-10 12 5 20l19 9l153 72q24 10 38 -9q7 -9 19 -28q9 -12 22 -30.5t25 -12.5l17 8q9 4 14 -9zM413 74l-8 -13q-7 -9 -25 0l-160 79
q-34 17 -47 30q-24 22 -24 59q1 11 -0.5 49.5t-1.5 56.5q0 13 -1 67q-1 51 -1 79q0 90 -1 154q3 42 -3 170q-2 32 -27 27l-41 -9q-13 -3 -14 10q-2 17 5 20q24 9 70 28q36 16 97 42q39 20 96 45q8 3 17 -2.5t9 -12.5q-1 -5 -4 -8q-35 -35 -35 -65q0 -31 2 -90q2 -75 5 -220
q0 -29 3 -96q3 -58 3 -79q0 -104 -1.5 -144t-0.5 -65q2 -27 4 -32q4 -12 22 -24l53 -35q16 -10 9 -21z" />
    <glyph glyph-name="j" unicode="j" horiz-adv-x="486" 
d="M371 1046q3 -11 -10 -18l-104 -53q-42 -21 -54 -22q-23 0 -33 10t-24 29q-8 10 -23 32q-6 7 -22 3l-24 -7q-11 -2 -18 6q-10 12 5 20l19 9l153 72q24 10 38 -9q7 -9 19 -28q9 -12 22 -30.5t26 -12.5l16 8q10 4 14 -9zM461 -184q0 -14 -8 -18q-32 -14 -99 -45
q-51 -25 -112 -60q-24 -13 -46 0q-41 24 -110 50q-83 30 -123 36q-27 4 -39 3q-10 -1 -25 -7q-20 -8 -29 3q-6 7 10 23q108 106 202 106q69 0 127 -27v186q2 52 0 134q-3 112 -3 135q0 103 -3 300q3 42 -2 170q-3 32 -28 27l-41 -9q-13 -3 -14 10q-2 17 5 20q25 9 71 28
q36 16 96 42q39 20 96 45q8 3 17 -2.5t9 -12.5q0 -5 -3 -8q-36 -35 -36 -65q0 -31 2 -90q2 -75 5 -220q0 -29 4 -96q2 -58 2 -79v-144q-1 -118 -1 -137q0 -226 2 -272q2 -32 25 -26l32 9q16 5 17 -9z" />
    <glyph glyph-name="k" unicode="k" horiz-adv-x="774" 
d="M749 -20l-14 -29q-5 -10 -26 -3l-145 54q-28 10 -50 30t-26 59q-3 33 -3 108q0 144 -21 212q-33 28 -109 95q86 43 109 59q35 23 34 64q0 21 -4 68q-3 17 -13.5 27t-46.5 26q-10 4 -33.5 -7t-34 -20t-11.5 -25q-4 -45 -4 -121v-178q-1 -76 -3 -153t-25 -150
q-10 -30 -29 -33q-19 -2 -42 17l-138 112q-20 15 5 19l26 4q27 4 27 33v336q2 105 -1 367q-1 120 -5 252q-1 44 -5 53t-26 9q-54 0 -76 -41q30 -2 30 -38t-42 -36q-23 0 -35.5 13.5t-11.5 38.5q1 42 67 110q38 38 106 96q36 30 68 17q31 -12 54 -25q18 -13 59 -42
q9 -6 9 -13q0 -4 -7 -15.5t-8 -20.5q3 -82 1 -235q-2 -93 -5 -223q15 12 29 20q35 21 51 17q18 -3 51 -14q20 -6 59 -19t72 -28.5t47 -38.5q11 -18 18 -48t7 -159q0 -69 -35 -93q-47 -32 -111 -65q46 -19 91 -38q39 -20 41 -60q1 -77 4 -209q0 -27 4 -77q1 -7 7 -23
q6 -19 27 -19l38 -1q4 0 7 -1q4 -3 -2 -15z" />
    <glyph glyph-name="l" unicode="l" horiz-adv-x="500" 
d="M475 -9q4 -8 -15 -16l-121 -51q-44 -19 -52 -19q-24 1 -36 12q-2 2 -22 29q-8 10 -65 97l-57 -22q-12 -4 -17 -4q-6 1 -8 7q-5 16 11 26l24 15q9 6 17 24q2 5 6 32q2 24 6 73q8 85 11 174q8 196 8 211q0 128 4 211q0 4 -1 185l-2 198q-1 45 -5 53.5t-26 8.5
q-54 0 -76 -41q30 -2 30 -38t-42 -36q-23 0 -35.5 13.5t-11.5 38.5q1 42 67 110q38 38 106 96q30 25 49 24q26 0 73 -32q23 -14 59 -42q7 -8 7 -15q0 -5 -6 -16t-7 -18q2 -82 1 -235q0 -23 3 -199q-1 -100 -1 -246q1 -43 -5.5 -187.5t-14.5 -226.5q-1 -9 -15 -27
q-19 -10 -53 -26q22 -1 59 0q1 -4 23 -45q26 -50 44 -80q8 -13 29 -11l33 4q17 2 24 -9z" />
    <glyph glyph-name="m" unicode="m" horiz-adv-x="1041" 
d="M999 169q-38 -22 -201 -128q-14 -9 -22 -9q-17 0 -14 77l8 247q1 104 1 124q-1 86 -6 163q-3 37 -8 107q-1 29 -28 37q-16 5 -69 -14q-49 -17 -68 -30q0 -59 3 -133q2 -53 5 -160q3 -55 16 -219q2 -24 5 -74q2 -29 11 -35l23 -14q32 -21 5 -21l-42 -1q-21 -1 -126 1
q-27 -1 -77 0l-34 1q-14 0 -14 11q0 5 15 16l29 21q13 9 13 22v141q0 19 2 192q1 113 0 194q-2 100 -2 80q0 28 -32 28h-99q0 -26 -1 -65v-134q-2 -79 0 -116q1 -9 3 -134l3 -155q0 -37 -24 -60q-19 -17 -49 -29l-191 -79q-20 -8 -25 1l-9 14q-7 11 10 21l61 35q19 10 23 22
q2 6 4 34q1 20 3 66q0 7 4 173q1 48 3 142q2 44 5 130q1 42 1 109q0 20 -24 33l-73 40q-9 5 -9 13q0 12 8 16q22 13 69 42q53 35 86 67q28 27 88 95q6 8 17 24q16 17 16 -14v-12.5v-12.5l-1 -234q60 32 158 88q45 35 116 71q16 2 18 -38l5 -89q79 37 145 52q26 6 43 -3
q26 -13 63 -44q44 -36 65 -59q15 -16 21 -46q9 -52 15 -117q9 -95 10 -198q1 -100 0 -110q-2 -49 -6 -146q15 10 38 24q4 2 8 2q21 0 21 -24q0 -12 -12 -19z" />
    <glyph glyph-name="n" unicode="n" horiz-adv-x="696" 
d="M666 -160q-5 -10 -21 -34q-40 -48 -83 -82q-14 -11 -54 -34q-21 -12 -38 1q-47 35 -106 90q-35 32 -39 52q-3 16 4.5 37.5t28.5 38.5h28q-38 -43 -32 -71q2 -12 17 -21q11 -6 25 -4q17 4 47 26q25 19 39 37q-19 10 -25 16q-22 20 -26 58q-3 33 -3 106q0 32 2 88
q3 60 4 84q1 101 1 121q-3 137 -6 200q-3 37 -8 105q-2 29 -27 36q-14 4 -48 -12q-37 -17 -56 -31v-137q2 -193 2 -247v-150l-2 -72q0 -18 -4 -22q-5 -7 -30 -9q-15 0 -59 -2l-140 -7q-12 -1 -13 3q0 4 18 15l28 18q24 15 24 49v400v182q0 21 -7 27q-7 5 -24 0l-64 -21
q-19 -6 -19 3q0 6 14 16l189 128q30 20 42 20q18 0 23.5 -3t7.5 -19l9 -60q34 18 113 51q20 8 41 -3t53 -37q50 -42 73 -66q15 -16 20 -43q9 -52 15 -115q7 -75 8 -116q2 -47 5 -118q0 -74 -4 -164q-4 -82 -3 -162q0 -29 6 -80q0 -4 5 -18q0 -8 30 -27l14 -5q12 -4 5 -16z
" />
    <glyph glyph-name="o" unicode="o" horiz-adv-x="656" 
d="M586 282q-1 -59 -12 -107q-7 -25 -19 -50q-16 -32 -119 -80q-78 -37 -113 -43q-25 -4 -50 15q-47 35 -91 76q-18 17 -58 56q-19 18 -38 43q-6 6 -13 36q-4 101 -2 231q2 39 4 118q-47 17 -75 20q-3 25 14 55q4 -1 36 -11q10 -4 30 -11q2 12 7 43q2 12 15 21q45 25 118 67
q57 34 121 61q20 8 43 -3q16 -9 64 -40.5t80 -65.5q21 -22 25 -46q14 -74 19 -134q6 -51 12 -133q3 -70 2 -118zM369 732q1 14 -2 24q-38 -27 -116 -80q-1 -6 -1 -25q0 -3 1 -10v-12q16 5 33 14q11 5 40 23q23 16 31 31q12 22 14 35zM400 346q-1 69 -5 136q-4 60 -9 105
q-2 15 -20 16q-27 2 -48 -5q-32 -10 -67 -25v-153q1 -52 5 -163q1 -42 6 -124q1 -11 11 -23.5t27 -28.5q8 -9 23 -4q20 5 49 21q11 5 14 25q6 37 10 95q5 76 4 128z" />
    <glyph glyph-name="p" unicode="p" horiz-adv-x="647" 
d="M577 317q0 -54 -7 -141q-6 -24 -18.5 -48.5t-44.5 -42.5q-21 -11 -70 -30q-36 -14 -109 -35q-21 -4 -50 18q-15 11 -29 22q1 -48 4 -132l6 -117q3 -48 11 -109q2 -7 16 -24l7 -5q15 -10 9 -24q-7 -15 -26 -1l-14 10q-24 -30 -76 -81q-16 -13 -43 -12q-22 2 -46 19l-86 60
q-17 12 -11 23q5 10 20 2q5 -3 9 -3q7 0 39.5 29.5t62.5 29.5q8 0 17 -2q-21 9 -54 29q-14 13 -13 43q0 72 1 173q2 182 0 360q-3 229 -2 303q0 32 -20 39l-45 15q-15 5 -15 12q0 9 19 21l185 119q18 12 26 12q14 0 13 -33l-2 -44q38 10 111 34q19 8 42 -3q8 -4 60 -39
q49 -33 75 -60q18 -19 22 -43q7 -40 14 -115q4 -42 9 -116q3 -92 3 -113zM401 349q-2 111 -6 180q-3 35 -8 101q-2 31 -27 38q-13 4 -40 -5q-9 -3 -64 -26v-147q1 -128 4 -207q3 -72 6 -113q1 -11 10.5 -23t25.5 -27q12 -12 34 2t44 42q6 7 14 27q4 25 5 57q0 17 1 54
q1 28 1 47z" />
    <glyph glyph-name="q" unicode="q" horiz-adv-x="639" 
d="M613 -294q-4 -20 -38 -52q-60 -55 -107 -90q-17 -13 -38 -1q-39 23 -54 34q-43 34 -83 82q-10 12 -21 34q-7 12 5 16l14 5q24 8 30 27q4 10 8 33q2 35 3 65q0 -22 -3 152q0 21 3 68q3 56 3 68q-15 -12 -29 -21q-35 -20 -51 -20q-67 0 -115 16q-39 14 -68.5 27.5
t-44.5 39.5q-11 18 -19 49q-6 26 -8 174q0 21 3 115q1 56 5 119q0 32 8 103q2 15 33 48q30 30 77 69q33 27 62 42q22 11 43 3q65 -27 111 -52l2 53q1 32 29 36q19 2 49 -11l144 -60q33 -14 -6 -19l-28 -4q-25 -4 -25 -41v-389q-1 -101 1 -357q1 -37 2 -138q1 -67 -3 -105.5
t-26 -58.5q-6 -6 -25 -16q14 -18 40 -37q29 -22 46 -26q14 -2 25 4q15 9 18 21q5 28 -32 71h27q21 -17 28.5 -38.5t4.5 -37.5zM331 609q1 27 -1 73q-2 51 -2 74q-17 9 -61 28q-18 7 -48 16q-26 4 -30 -31q-5 -51 -8 -120q-1 -80 -3 -204q0 -19 2 -68q2 -57 2.5 -74.5
t4.5 -59.5q3 -16 14 -28q5 -5 45 -14q14 -4 34.5 5.5t34.5 21.5q10 9 11 24q1 23 3 85q1 109 2 272z" />
    <glyph glyph-name="r" unicode="r" horiz-adv-x="565" 
d="M525 729q9 -28 -9 -44q-48 -42 -77 -64q-25 -20 -75 -56l-18 -12q-8 -6 -12 -1l-10 12q-2 3 -2 7q0 5 2 7l25 25q7 7 10 14q3 6 -6 35l-31 103q-2 6 -8 22q-3 7 -15 -1l-9 -6q-7 -5 -7 -15q0 -53 1 -67q1 -45 3 -126l4 -233q2 -87 2 -135q-1 -25 3 -80q1 -14 3 -38
q2 -16 17 -26q25 -16 58 -29q37 -15 62 -21q12 -2 34 -8q8 -1 8 -14q-1 -13 -7 -12q-9 -2 -76 0l-75 2q-19 0 -170 42q-87 24 -138 19q-5 4 -12 18q48 23 73 50t29 62t5 83q0 20 -1 95l-1 223q0 5 -1 68q-1 54 -1 71v27q0 27 -11 27h-25q-16 0 -14 11q1 11 8 18.5t32 30.5
l137 113q8 8 25 22q26 19 27 -17l1 -57q0 -19 10 -16q8 4 19 11l85 50q25 15 37 -8l63 -118q18 -33 28 -64z" />
    <glyph glyph-name="s" unicode="s" horiz-adv-x="668" 
d="M629 1053q0 -60 -38 -118q-36 -47 -71 -95q-4 -6 -26 -61q-13 -34 -43 -44q-25 -8 -54 -8q-86 0 -156 67q37 -91 37 -190q0 -58 -14 -104q43 93 116 150q19 15 26 17q13 4 36 4q76 0 126 -59.5t51 -137.5q0 -122 -84 -243q-78 -115 -190 -173q-63 71 -185 68
q-82 -2 -104 -56q28 -2 28 -36t-39 -34q-22 0 -34 14t-11 38q1 23 41 156t40 267q0 45 -30 245q98 127 310 270q27 -76 94 -75q51 0 83 49q27 43 27 95q1 75 -50 124t-130 49q-98 0 -127 -62q29 -3 29 -35q0 -43 -44 -43q-53 0 -53 65q0 66 64 103q55 32 129 33
q107 1 176.5 -66t69.5 -174zM482 368q0 47 -23 80q-26 38 -71 38q-83 0 -197 -130q-63 -72 -85 -101q-53 -70 -79 -134q56 73 139.5 125.5t145.5 52.5q60 0 135 -43q35 54 35 112z" />
    <glyph glyph-name="t" unicode="t" horiz-adv-x="444" 
d="M561 -58l-9 -10l-57 -57q-20 -22 -46 -51l-7 -7q-13 -13 -34 -5l-34 12q-110 39 -184 72q-31 13 -88 42q-20 13 -22 38t-2 40q0 76 3 227.5t3 227.5q0 27 -1 70q-1 55 -1 71v115q0 15 -15 15h-51q-16 0 -16 11q0 10 9 18q37 35 61 62q37 43 69 88q45 64 68 106
q8 15 20 35q8 15 15 14q8 0 9 -11q1 -31 2 -54l4 -146q1 -39 3 -54q48 -2 126 -2v-36q-1 -18 -1 -36q-42 -1 -123 -5q0 -19 1 -74q1 -46 1 -73q-2 -58 1 -175q0 -68 1 -205q-1 -70 -1 -197l1 -46q0 -17 15 -26l96 -54q20 -11 34 1l37 32q18 16 -8 22l-97 22q-22 5 -23 12
q3 4 23 8l173 -7q53 -2 53 -13q0 -6 -8 -17z" />
    <glyph glyph-name="u" unicode="u" horiz-adv-x="635" 
d="M595 245q1 -14 -8 -18q-31 -14 -99 -45q-51 -25 -111 -60q-17 -9 -20 -9q-9 0 -26 8q-57 31 -111 51q-96 35 -131 40q-27 4 -39 3q-6 -1 -19 -6q-22 -9 -24 -7q-11 7 8 19q6 3 25 14v273q0 171 -3 232q-3 58 -8 86q-8 52 -26 82q-8 13 -3 22q5 8 25 3q30 -6 42 -5
q47 2 71 39q6 10 5 23q-1 22 -21 28q-12 -19 -32 -17q-33 3 -35 37q-1 18 12.5 30.5t32.5 12.5q59 -1 95 -59q33 -52 33 -119q0 -54 -8 -137.5t-8 -175.5q0 -246 -9 -279q31 17 69 16q39 -1 71 -18q0 13 -1.5 67.5t-1.5 79.5q0 63 11 191l29 209q4 26 -9 32q-6 0 -25 7
l-16 9q-14 8 -9 19l3 7q6 12 34 2q55 -21 183 -42q32 -5 32 -27q0 -5 -4 -21q-58 -236 -58 -420q-1 -62 11 -151q4 -32 25 -26l31 9q17 5 17 -9z" />
    <glyph glyph-name="v" unicode="v" horiz-adv-x="862" 
d="M822 725l-289 -617q38 -39 58 -39q26 0 51 23q-16 -5 -26 10t-9 34q3 40 38 38q42 -3 42 -78q-1 -49 -27 -96q-40 -69 -130 -69q-156 0 -279 344q-47 137 -129 365q-26 66 -71 66q-9 0 -19 -8l-15 -11q-7 -5 -11 3l-6 9q-7 13 8 23l112 70q45 28 68 28q38 0 52 -10
q41 -28 75 -135q127 -392 190 -523l211 447l-4 4q-13 -9 -30 -9q-15 0 -42 12q-6 2 -31 36q-15 20 -36 47q-11 14 -26 4l-11 -9q-14 -9 -23 1q-7 9 9 26l74 76q15 15 39 33q20 6 32 -2q3 -1 25 -24q32 -35 73 -80l24 43q12 22 28 9q18 -14 5 -41z" />
    <glyph glyph-name="w" unicode="w" horiz-adv-x="1305" 
d="M1265 720l-298 -601q39 -37 57 -37q26 0 53 22q-17 -5 -27 9.5t-9 32.5q2 39 39 37q44 -2 43 -76q0 -49 -28 -95q-45 -73 -130 -73q-115 0 -203 146q-44 73 -107 249l-104 -214q40 -38 55 -38q27 0 53 22q-16 -5 -26.5 9.5t-9.5 32.5q3 39 39 37q45 -2 44 -76
q0 -49 -28 -95q-45 -73 -130 -73q-176 0 -295 342q-90 257 -126 346q-25 62 -73 62q-8 0 -21 -7l-16 -10q-7 -4 -11 3l-6 10q-4 7 -1 12q2 5 10 10l131 75q49 28 66 28q2 0 8 1h10q56 0 104 -140q44 -129 88 -257q57 -160 105 -251l112 229q-34 92 -89 235q-25 62 -73 62
q-7 0 -20 -7l-16 -10q-7 -4 -12 3l-6 10q-7 11 9 22l111 73q49 32 65 32q41 0 56 -10q44 -27 80 -131q66 -189 91 -258q60 -158 108 -251l217 434l-4 4q-27 -17 -76 4q-5 2 -32 35q-15 19 -37 46q-12 13 -27 3l-12 -8q-14 -10 -24 1q-7 8 10 25l77 74q15 15 40 32
q21 6 34 -2q3 -1 27 -23q33 -34 76 -78l24 42q12 21 30 8t5 -39z" />
    <glyph glyph-name="x" unicode="x" horiz-adv-x="881" 
d="M856 109q0 -50 -32 -95q-51 -73 -148 -73q-134 0 -223 125q-49 70 -109 216l-176 -161q37 21 55 15q7 -2 38 -34l44 -44q14 -12 31 -2l30 17q17 10 27 0q10 -9 -9 -25l-103 -86q-16 -15 -45 -33q-23 -7 -38 0q-3 1 -31 22q-43 38 -98 86l-44 -32q-19 -13 -25 -4
q-11 16 2 29l325 294q-57 135 -137 302q-30 65 -80 65q-14 0 -26 -8l-19 -11q-7 -5 -12 3l-7 9q-7 9 10 22l97 73q34 26 56 25q43 -2 64 -12q62 -30 110 -129l97 -197l167 153q-37 -20 -56 -13q-6 3 -37 35q-17 19 -42 46q-14 13 -31 3l-13 -8q-17 -9 -27 1q-9 9 10 25
l88 74q18 15 46 32q24 5 39 -2q3 -1 30 -23q10 -8 89 -78l47 34q18 13 24 3q10 -15 -3 -28l-308 -296q12 -27 58 -123q29 -61 82 -161q36 -57 97 -57q33 0 63 22q-18 -4 -30 10t-11 33q3 38 45 36q50 -2 49 -75z" />
    <glyph glyph-name="y" unicode="y" horiz-adv-x="826" 
d="M782 843q0 -86 -80 -268q-43 -98 -103 -216q-84 -167 -130 -245q-61 -104 -96 -158q-54 -75 -124 -173q-77 -115 -117 -163q-58 -69 -105 -106q-3 -3 -18 -2q-50 5 -154 22q-14 3 -15 4q-6 3 -6 14q-1 28 -4 91q0 12 11 26q36 41 100 114q5 6 7 6q5 0 -4 -20
q-5 -10 -13 -35q-6 -33 -4 -125q41 36 103 119q175 236 189 279q-30 109 -48 172q-24 77 -60 194q-13 40 -37 119q-9 32 -24 73q-10 11 -25.5 12.5t-16.5 7.5q-2 12 12 12q68 0 139 3l124 5q12 0 23 -7q0 -7 -13.5 -11.5t-22.5 -8t-12 -12.5t-1 -20q6 -25 24 -97
q25 -83 65 -218q32 54 109 208l82 167q49 95 51 137q2 44 -20 47l-31 4q-36 4 1 19l177 75q20 9 49 -4q18 -7 18 -41z" />
    <glyph glyph-name="z" unicode="z" horiz-adv-x="726" 
d="M692 174q0 -222 -213 -338q-148 -80 -295 -80q-172 0 -172 92q0 58 56 58q55 0 55 -56q0 -14 -6 -30q52 -8 71 -8q113 0 222 98q122 109 122 254q0 61 -30.5 97t-75.5 36q-107 0 -181 -96q-6 -13 -21 -28q-9 -2 -22 12q-66 69 -116 108q-12 9 -44 -13q-6 -5 -11 -5
q-7 0 -14.5 11.5t-7.5 17.5q1 7 13 17q100 73 304 230q-66 2 -110 -2q-11 -1 -15.5 3.5t-2.5 13.5q5 14 24 16q58 8 145 2q150 127 146 181l-2 -1q-7 -16 -26 -35q-11 -12 -18 -12q-6 0 -12 11q-9 15 -12 18q-81 72 -215 70q-49 -1 -103 -25q-64 -29 -70 -71h3q16 26 45 26
q21 0 36 -18t15 -37q1 -58 -58 -60q-84 -3 -84 91t111 152q88 46 191 50q198 7 327 -82q35 -25 33 -60q-3 -72 -199 -211q56 -9 81 -18q18 -7 16 -20q-2 -20 -20 -13q-36 13 -118 23q-94 -61 -244 -166l5 -1q101 66 220 66q105 0 178 -52q99 -70 99 -216z" />
    <glyph glyph-name="braceleft" unicode="{" horiz-adv-x="576" 
d="M526 1211q-1 -1 -2 -3q-5 -9 -23 -7l-34 4q-21 3 -29 -11q-18 -31 -45 -82q-9 -16 -24 -45q-13 -4 -60 0q35 -17 54 -28q16 -8 16 -27q0 -23 1 -91t1 -99q0 -201 -162 -271q75 -40 118 -121q37 -68 37 -132q0 -118 -15 -189q0 -10 -16 -27q-19 -11 -54 -27q23 -1 60 0
q2 -4 24 -46q27 -51 45 -82q8 -14 29 -11l34 4q18 2 25 -9q4 -8 -16 -17l-123 -52q-45 -19 -53 -19q-24 1 -36 12q-3 2 -23 30q-8 11 -67 99l-58 -23q-11 -4 -17 -3q-6 0 -8 6q-5 17 11 27l25 15q9 6 17 25q2 5 7 33q1 24 6 74q1 14 1 177q0 68 -39 142q-42 78 -103 114
q131 52 152 215q7 58 8 148q2 114 -5 163q-2 14 -7 33q-2 8 -17 25l-25 15q-16 10 -11 27q2 6 8 6q6 1 17 -3l58 -23q29 43 67 99q7 11 23 30q12 11 36 12q8 0 53 -19l123 -52q20 -9 16 -16z" />
    <glyph glyph-name="bar" unicode="|" horiz-adv-x="557" 
d="M512 826q-4 -11 -17 -20q-43 -29 -66.5 -43.5t-69.5 -40.5q-11 -6 -16 -1q-3 5 -12 18q5 7 17.5 14.5t12.5 24.5q-1 16 -13 56q-7 19 -21 58q-2 6 -8 8q-6 1 -16 -3t-10 -9q-1 -64 4 -581q0 -30 13 -46q3 -2 42 -36q-28 2 -48 2q-112 3 -99 3q-16 0 -50.5 -4.5
t-52.5 -4.5q-35 0 -69 19q10 8 31 25q27 24 34 32q13 15 14 56q3 117 5 288l3 288q-1 4 -7 2q-5 -2 -10 -6q-6 -7 -14 -3q-14 7 -7 15q16 18 94 91q26 25 82 77q5 4 18 9q13 0 14 -11q2 -42 2 -70q1 -32 3 -68q15 8 48 31l48 30q11 6 20 6q15 -1 21 -12q31 -55 78 -171
q6 -13 2 -23z" />
    <glyph glyph-name="braceright" unicode="}" horiz-adv-x="606" 
d="M576 551q-61 -36 -103 -114q-39 -74 -39 -142q0 -163 1 -177q2 -28 6 -74q2 -14 7 -33q2 -8 17 -25l25 -15q16 -10 10 -27q-1 -6 -7 -6q-6 -1 -17 3l-59 23q-28 -43 -66 -99q-7 -11 -23 -30q-12 -11 -36 -12q-8 0 -53 19l-123 52q-20 9 -16 17l2 2q5 9 23 7l34 -4
q21 -3 29 11q18 31 45 82q9 16 24 46q13 3 60 0q-35 16 -54 27q-12 6 -16 27q-15 71 -15 189q0 64 37 132q43 81 118 121q-162 70 -162 271q0 31 1 99t1 91q0 19 17.5 28.5t52.5 26.5h-60q-2 4 -24 45q-27 51 -45 82q-8 14 -29 11l-34 -4q-18 -2 -25 10q-4 7 16 16l123 52
q45 19 53 19q24 -1 36 -12q3 -2 23 -30q8 -10 66 -99l59 23q11 4 17 3q6 0 7 -6q6 -17 -10 -27l-25 -15q-9 -6 -17 -25q-2 -5 -7 -33q-7 -49 -5 -163q1 -90 8 -148q21 -163 152 -215z" />
    <glyph glyph-name="asciitilde" unicode="~" horiz-adv-x="783" 
d="M723 1298q0 -9 -7 -22q-48 -93 -55 -101q-49 -65 -126 -65q-69 0 -173 53.5t-147 53.5q-39 0 -72.5 -25.5t-38.5 -25.5q-7 0 -17.5 12t-6.5 19q30 49 81 90q64 50 121 50q69 0 162 -42t127 -42q76 0 110 53q8 13 13 13q29 0 29 -21z" />
    <glyph glyph-name="exclamdown" unicode="&#xa1;" horiz-adv-x="598" 
d="M501 923q11 -16 -6 -27l-20 -12q-30 -18 -89 -52q-31 -18 -79 -46q-26 -14 -41 12q-8 13 -21 38q-9 17 -25 44q-13 23 -27 15l-18 -11q-10 -6 -15 12q-3 15 11 24l114 73q45 29 59 29q25 0 37 -12q10 -15 26 -40q8 -14 25 -43q6 -10 23 -5l27 9q11 4 19 -8zM498 792
q7 -11 -9 -21l-55 -36q-23 -16 -26 -57q-3 -60 -1 -93q0 -24 -1 -101q-1 -94 -1 -106q0 -143 -2 -259q-1 -85 -3 -224q0 -9 -1 -47q-1 -30 -1 -53q0 -25 15 -37.5t30 -23.5q9 -7 3 -17q-7 -10 -18 -8q-44 11 -124 29q-42 10 -113 26q-29 6 -60 15q-9 3 -7 19q1 12 14 10
l26 -2q27 -2 28 27.5t3 219.5q0 -3 0 237q0 30 1 111v98q0 18 2 59q1 37 1 49q0 37 24 60q8 8 48 30l193 109q18 10 25 -1z" />
    <glyph glyph-name="cent" unicode="&#xa2;" horiz-adv-x="755" 
d="M679 712q-59 -32 -136 -74q-19 -11 -28 -11q-4 0 -21 21q-30 57 -71 136q-8 16 -25 49l-17 -533l3 -2q16 -7 24 3q2 4 15 28q12 21 31 58q5 10 37 93q6 15 12 11q6 -8 19 -21q25 -26 41 -46q35 -44 46 -56t7 -17l-49 -49q-24 -24 -41.5 -35t-56.5 -12q-30 -1 -73 -2h-16
l-4 -120l-49 -50l5 170q-17 0 -32 1.5t-50 23.5q-23 12 -64 38q-21 17 -62 48l-35 26q-5 4 -9.5 24.5t-4.5 49.5q0 14 2 48q2 31 2 49q1 21 0 75q-1 37 4 111q-2 7 4 50q1 8 16 25q38 25 111 70q32 20 95 57q22 12 34 13h11l3 82l49 59l-5 -151q22 -9 64 -25q30 -10 86 -33
q13 -7 18 -17q9 -19 40 -79q9 -17 30 -57q10 -21 36 -5q15 -15 4 -24zM353 910q-5 4 -14.5 -2t-14.5 -13q-9 -12 -16 -42.5t-11 -76.5q0 -6 -3 -118q-1 -22 -1 -67q-2 -62 1 -116q0 -34 4 -102q4 -24 37 -47z" />
    <glyph glyph-name="sterling" unicode="&#xa3;" horiz-adv-x="1091" 
d="M1050 -91q-13 -28 -42 -83q-7 -11 -13 -11q-12 3 -25 6q-155 25 -237 69l-23 13q0 3 12 16q56 48 141 124q16 16 16 18q0 3 -19 14q-35 20 -113 21q-301 4 -516 -226q-23 -24 -56 1q-45 40 -162 134q-23 16 -13 29q13 16 28 3l10 -9q15 -13 37 16q59 77 154 132
q-39 19 -84 47q-18 25 -13 67q9 73 14 259q-34 -4 -53 -6q-24 -3 -32 8q-30 45 -48 80q-8 16 -7 19q2 4 26 7q41 7 117 13q2 74 -2 222q-1 46 9 91q13 54 56 106l68 72l68 72q34 41 37 75q30 -19 11 -71q42 26 127 26q196 0 342 -95q87 -56 90 -147q4 -117 -95 -117
q-31 0 -52.5 18.5t-21.5 44.5q0 27 21.5 45.5t52.5 18.5q1 5 1 11q0 59 -129 59q-163 0 -247 -111q-17 -23 -46 -23q-43 0 -69 38q0 -96 -1 -308v-21q46 -3 68 -6q17 -3 29 -14q40 -45 95 -106q3 -3 3 -7q0 -14 -28 -7q-61 15 -168 21q-2 -210 -18 -321q109 35 225 34
q267 -3 443 -126q39 -27 39 -41q0 -8 -8 -21q-16 -26 -61 -80q-24 -29 -76 -91q72 20 120 13q23 -3 18 -15z" />
    <glyph glyph-name="currency" unicode="&#xa4;" horiz-adv-x="1114" 
d="M1034 17q-20 -40 -66 -110q-74 -17 -167 -17q-277 0 -471 108q-173 96 -242 276l-23 -2q-28 -3 -35 7q-35 46 -55 80q-10 17 -8 20t29 7q24 3 61 7q-5 40 -5 85q-33 -3 -51 -5q-27 -3 -36 8q-34 45 -54 80q-10 16 -8 19q2 4 28 7q47 6 130 12q3 21 8 42q-35 -14 -70 -14
q-60 0 -101.5 39t-44.5 99q-5 108 90 110q48 1 49 -45q0 -44 -39 -44q-9 0 -18 3q1 -57 52 -57q47 0 93 44q62 58 79 168q22 140 97 218q12 13 114 95q64 51 70 90q22 -8 43 -25q-3 -30 -25 -64q57 26 68 23q20 -3 44 -34q40 -50 50 -61q132 -129 241 -129q73 0 73 39
q0 7 -4 15q-72 0 -72 62t72 62q97 0 103 -116q5 -105 -75 -171.5t-237 -68.5q-85 -2 -181.5 49t-131.5 110q7 -57 7 -83q0 -121 -96 -190q-5 -81 4 -160q47 -2 70 -5q19 -3 33 -14q45 -45 107 -106q4 -3 4 -7q0 -14 -32 -7q-52 11 -161 19q11 -41 25 -80q59 -3 88 -6
q19 -3 33 -14q46 -46 108 -106q3 -4 4 -7q0 -14 -33 -7q-43 9 -140 17q161 -259 478 -271q35 60 64 134q9 -24 63 -128z" />
    <glyph glyph-name="yen" unicode="&#xa5;" horiz-adv-x="1448" 
d="M1379 1144q0 -3 -7 -25q-43 -130 -141 -146q-29 -5 -62 5q-23 -45 -171 -217q-116 -136 -135 -259v-10q14 -1 23 -2q19 -3 33 -14q45 -45 107 -106q4 -3 4 -7q0 -14 -32 -7q-40 9 -129 16l4 -80q24 -2 37 -3q19 -3 33 -14q46 -46 108 -106q3 -4 4 -7q0 -14 -33 -7
q-47 10 -149 18h-3q-38 3 -67 3l22 -519l-72 138l-33 -312h-3l-191 643l101 -56l-30 99q-50 -4 -79 -7q-26 -3 -35 7q-35 46 -55 80q-10 17 -8 20t29 7q40 6 112 11l-25 80q-27 -2 -42 -4q-27 -3 -36 8q-34 45 -54 80q-10 16 -8 19q2 4 28 7q52 7 147 14q-50 110 -212 252
q-154 136 -221 307q-40 102 -100 109q-21 2 -21 23q0 18 16 22q27 8 69 4q129 -13 140 -13q2 0 156 26q54 9 64 -1q6 -5 7 -21q1 -17 -9 -20l-37 -14q-26 -10 -26 -44q0 -33 18 -63q37 -63 178 -184q135 -117 215 -264q44 114 145 223q126 137 145 167q-56 15 -102 57
q-30 30 -67 64q-12 6 -26 0q-8 -4 -24 -11q-16 -6 -21 2q-6 5 -14 14q-4 9 3 15q76 68 128 102q31 20 59 7q34 -20 109 -62q43 -27 127 -60q33 -4 58 11.5t32 26.5t14 4q3 -4 5 -26z" />
    <glyph glyph-name="dieresis" unicode="&#xa8;" horiz-adv-x="612" 
d="M572 1314q2 -11 -7 -19l-75 -57q-30 -23 -39 -23q-16 -1 -23.5 10t-17.5 31q-5 11 -16 34q-5 8 -16 3l-18 -6q-7 -3 -12 6q-8 13 4 21l13 10q36 26 110 77q17 11 27 -9q5 -10 14 -30q6 -13 17 -35q8 -18 17 -11l12 8q7 5 10 -10zM312 1314q2 -11 -7 -19l-75 -57
q-30 -23 -39 -23q-16 -1 -23.5 10t-17.5 31q-5 11 -16 34q-5 8 -16 3l-18 -6q-7 -3 -12 6q-8 13 4 21l13 10q36 26 110 77q17 11 27 -9q5 -10 14 -30q6 -13 17 -35q8 -18 17 -11l12 8q7 5 10 -10z" />
    <glyph glyph-name="copyright" unicode="&#xa9;" horiz-adv-x="1268" 
d="M1208 494q0 -61 -12 -101q-12 -43 -105 -149q-133 -152 -181 -181q-115 -70 -223 -70q-345 -2 -530 177q-154 149 -157 394q-2 124 76 249q76 121 257 259q116 89 324 194l27 -27q-18 -19 -39 -34q218 -87 358 -229q205 -207 205 -482zM1057 435q0 161 -76 301
q-63 116 -224 228q-58 40 -247 148q-62 -30 -177 -138q-78 -74 -108 -128q-53 -98 -53 -196q0 -85 31 -176q30 -84 108 -176q112 -132 305 -172q40 -9 167 -9q34 0 118 87q46 52 92 103q64 69 64 128zM892 701q-55 -32 -126 -73q-19 -11 -27 -10q-3 0 -18 20q-28 57 -66 134
q-13 26 -32 65q-10 22 -30 55q-6 10 -19 2q-7 -5 -12 -12q-9 -12 -15 -42t-10 -76q-1 -6 -3 -115q0 -23 -1 -67q-1 -61 1 -115q0 -33 4 -100q2 -12 10.5 -24.5t33.5 -28.5q17 -11 36 -21q15 -7 22 3q3 4 15 28q10 20 28 57q4 10 34 91q6 15 12 11q6 -7 18 -20q23 -26 38 -46
q32 -43 42.5 -55t6.5 -17q-15 -15 -46 -48q-22 -23 -38.5 -34t-52.5 -12q-28 -1 -68 -2q-28 -1 -45 -1q-25 1 -45 3q-14 1 -46 22q-21 13 -59 38q-20 16 -58 47l-33 26q-5 4 -9 24.5t-4 48.5q0 14 2 46t2 49v74q-1 37 3 110q-1 7 4 50q1 7 16 24q35 24 103 69q29 19 88 56
q20 12 32 13q21 0 30 -2q29 -11 83 -33q28 -9 80 -32q12 -7 17 -17q9 -19 37 -77q9 -17 28 -57q10 -20 34 -5q14 -15 3 -24z" />
    <glyph glyph-name="registered" unicode="&#xae;" horiz-adv-x="1268" 
d="M1208 494q0 -61 -12 -101q-12 -43 -105 -149q-133 -152 -181 -181q-115 -70 -223 -70q-147 -1 -277 38l-22 -143h-3l-21 157q-125 46 -207 125q-154 149 -157 394q-2 124 76 249q76 121 257 259q116 89 324 194l27 -27q-18 -19 -39 -34q218 -87 358 -229
q205 -207 205 -482zM1057 435q0 161 -76 301q-63 116 -224 228q-58 40 -247 148q-62 -30 -177 -138q-78 -74 -108 -128q-53 -98 -53 -196q0 -85 31 -176q39 -110 132 -202l-20 155l48 -39l-34 279l56 -40l-21 165q-2 14 -12 12l-24 -5q-11 -2 -11 10q0 6 8 12q25 17 91 70
q76 62 96 82q5 6 14 16q5 6 10 5q7 -1 6 -13q-3 -61 -9 -160q52 89 84 115q20 16 35 12q67 -19 182 -112q12 -9 25 -28q0 -10 -16 -43q-71 -146 -229 -269l127 24v-42q0 -188 112 -284l-3 -1q-264 -6 -312 296q163 203 159 286q-1 17 -37.5 50t-46.5 28q-13 -7 -80 -95
l-8 -368l-41 66l-6 -271l-37 55l-6 -44q86 -51 181 -70q40 -9 167 -9q34 0 118 87q46 52 92 103q64 69 64 128z" />
    <glyph glyph-name="plusminus" unicode="&#xb1;" horiz-adv-x="813" 
d="M720 551q0 -17 -33 -11q-90 18 -159 21q-27 2 -70 1l1 -16q6 -81 21 -208q4 -15 0 -20q-5 -6 -20 -1q-48 11 -115 37q-12 9 -17 40q-1 45 -6 165q-52 -3 -137 -13q-31 -3 -44 9q-23 33 -66 91q-13 18 -13 25q0 10 32 14q108 12 223 18q1 137 12 245q2 24 3 26q4 8 23 2
q42 -14 99 -32q13 -5 10 -43q-7 -79 -8 -140v-58q84 -4 149 -12q15 0 41 -15q14 -17 42 -62q32 -52 32 -63zM723 92q4 -5 5 -9q0 -16 -30 -8q-69 18 -186 25q-127 7 -295 -19q-25 -3 -35 10q-38 56 -62 98q-10 18 -10 22q0 6 26 11q128 23 280 26q93 1 159 -9q18 -3 33 -17
q49 -56 115 -130z" />
    <glyph glyph-name="twosuperior" unicode="&#xb2;" horiz-adv-x="3637" 
d="M3451 449q-35 -108 -74 -273q-32 -138 -64 -275q-59 -242 -74 -533q-162 -78 -542 -145q-340 -59 -523 -59q-128 0 -128 64q0 38 43 98q147 208 250 369q-73 -5 -146 -5q-85 0 -85 67q0 34 106 263q-47 -5 -95 -5q-148 0 -282 37l117 -117q32 -33 31 -60
q-3 -32 -32.5 -60t-63.5 -28q-25 0 -44 19l-212 213q-81 -35 -138 -35q-79 0 -132 68q-13 -1 -21 -1q-29 0 -51 6q-28 8 -102 78q-50 48 -99 96q-313 9 -313 195q0 60 37 94q33 22 66 43q-7 25 -7 49q0 65 52 120l-379 415q-22 24 -60 111q-40 92 -40 128q0 59 48 59
q18 0 70 -12q213 -47 408 -78q48 -8 118 -38q97 -41 116 -47q175 -59 410 -93q60 -8 259 -128q135 -80 269 -161q127 -66 294 -210q35 68 99 113q68 47 141 47q98 0 392 -154q273 -143 381 -235zM1212 948q-74 19 -109 57l-2 2q-179 30 -275 132q-65 9 -188 42v-25l365 -350
q69 52 209 142z" />
    <glyph glyph-name="threesuperior" unicode="&#xb3;" horiz-adv-x="4087" 
d="M3064 1385q0 -36 -40 -127q-37 -87 -59 -111l-379 -415q51 -55 51 -120q0 -24 -6 -49q33 -21 65 -43q38 -34 38 -94q0 -186 -313 -195q-50 -48 -99 -96q-74 -70 -103 -78q-21 -6 -50 -6q-8 0 -21 1q-53 -68 -133 -68q-56 0 -137 35l-212 -213q-19 -19 -45 -19
q-33 0 -63 28t-32 60q-2 27 31 60l117 117q-134 -37 -282 -37q-48 0 -96 5q107 -229 107 -263q0 -67 -85 -67q-74 0 -146 5q103 -161 250 -369q42 -60 42 -98q0 -64 -127 -64q-183 0 -523 59q-380 67 -542 145q-15 291 -75 533q-39 184 -138 548q109 92 382 235
q294 154 392 154q73 0 141 -47q64 -45 99 -113q164 141 294 209q80 42 304 178q166 101 224 109q229 33 410 94q76 36 234 87q211 34 408 77q51 12 70 12q47 0 47 -59zM2873 1181q-124 -33 -188 -42q-94 -100 -275 -130l-3 -2q-36 -41 -108 -59q61 -32 209 -142l365 350v25z
" />
    <glyph glyph-name="acute" unicode="&#xb4;" horiz-adv-x="628" 
d="M462 1428q0 -25 -11 -25q-5 0 -14 3t-14 3q-17 0 -63.5 -73.5t-113.5 -73.5q-20 0 -62 13q-48 14 -48 28q0 28 10 28q3 0 11 -4.5t13 -4.5q31 0 73 81.5t105 81.5q49 0 107 -47q7 -6 7 -10z" />
    <glyph glyph-name="middot" unicode="&#xb7;" horiz-adv-x="375" 
d="M322 752q3 -14 -9 -23l-90 -68q-35 -27 -46 -27q-20 -1 -29 12t-21 37q-6 13 -20 40q-4 9 -18 4l-21 -8q-9 -3 -15 7q-9 16 4 26l16 11q24 17 70 49q25 17 63 43q20 13 32 -11q6 -12 16 -36q8 -15 21 -41q10 -21 21 -14l14 10q8 6 12 -11z" />
    <glyph glyph-name="middot" unicode="&#x2219;" horiz-adv-x="375" 
d="M322 752q3 -14 -9 -23l-90 -68q-35 -27 -46 -27q-20 -1 -29 12t-21 37q-6 13 -20 40q-4 9 -18 4l-21 -8q-9 -3 -15 7q-9 16 4 26l16 11q24 17 70 49q25 17 63 43q20 13 32 -11q6 -12 16 -36q8 -15 21 -41q10 -21 21 -14l14 10q8 6 12 -11z" />
    <glyph glyph-name="cedilla" unicode="&#xb8;" horiz-adv-x="739" 
d="M565 -136q0 -128 -182 -212q-12 -5 -26 -4q-52 4 -153 14q-24 3 -30 5q-11 4 -12 15l-3 33l-3 46q-2 29 5 31q6 1 27 -9q38 -16 150 -56q6 -3 12 -2q11 0 27 11q52 37 52 89q0 45 -64 73q-49 21 -103 23q-18 1 -24 -12.5t-10 -13.5q-14 0 -13 16q11 29 29 81t71 52
q70 0 151 -45q99 -55 99 -135z" />
    <glyph glyph-name="onequarter" unicode="&#xbc;" horiz-adv-x="1277" 
d="M1227 1261q11 -2 -10 -34q-8 -11 -33 -15q-31 -6 -68 -38q-64 -56 -179 -209q-87 -121 -175 -241l-300 -412q-54 -75 -126 -177q-21 -32 -24 -58q-4 -28 15 -29l23 -1q14 -1 14 -14q0 -20 -14 -29q-8 -5 -129 -3q-57 1 -145 3q-30 0 -76 3q-10 2 11 35q7 11 32 15
q32 5 69 37q43 38 240 303q144 192 281 389q77 102 244 343q27 43 27 69q0 17 -14 18l-24 2q-13 1 -13 14q0 23 14 32q32 1 84 3q41 3 145 -1q59 -1 131 -5zM342 583l-33 -1q-16 0 -98 1q-21 -1 -60 0h-27q-11 0 -11 6q0 3 12 9l23 11q10 5 10 12v77q0 10 1 103q2 116 0 199
q-2 126 -1 176q0 15 -25 15h-52h-11q-10 2 7 10l145 70q23 11 35 8q11 -3 19 -6q5 -2 6 -11l4 -37q3 -29 3 -60l1 -153q0 -120 2 -146q1 -29 4 -87q2 -30 12 -119q1 -13 4 -39q2 -16 8 -19l18 -8q25 -11 4 -11zM1141 175q0 -63 -58 -63q-44 0 -44 38t41 38q12 0 25 -6
q-23 36 -85 52v-47q0 -67 1 -98q1 -36 18 -36l34 1q7 0 10 -7.5t1 -11.5q-5 -7 -37 -13q-94 -19 -166 -45q-18 -6 -46 -15q-7 -2 -8 15q-1 7 18 28q23 25 31 45q10 28 12 116q0 15 -1 80q-143 -5 -197 -62q-8 -8 -16 -8q-10 1 -22 14q-22 27 -61 74q-6 -5 -22 -17
q-12 -8 -20 4q-8 14 2 22q141 156 356 391q63 68 88 91q6 6 16 18q5 5 17 1q13 -5 12 -17q-4 -36 -10 -110q-8 -200 -8 -278q0 -11 -1 -49q120 -57 120 -145zM889 565q-96 -108 -228 -245q94 40 198 40q13 0 28 -1v8z" />
    <glyph glyph-name="onehalf" unicode="&#xbd;" horiz-adv-x="1282" 
d="M1227 1261q11 -2 -10 -34q-8 -11 -33 -15q-31 -6 -68 -38q-64 -56 -179 -209q-87 -121 -175 -241l-300 -412q-54 -75 -126 -177q-21 -32 -24 -58q-4 -28 15 -29l23 -1q14 -1 14 -14q0 -20 -14 -29q-8 -5 -129 -3q-57 1 -145 3q-30 0 -76 3q-10 2 11 35q7 11 32 15
q32 5 69 37q43 38 240 303q144 192 281 389q77 102 244 343q27 43 27 69q0 17 -14 18l-24 2q-13 1 -13 14q0 23 14 32q32 1 84 3q41 3 145 -1q59 -1 131 -5zM345 581l-32 -1q-17 0 -98 1q-22 -1 -61 0h-26q-11 0 -11 6q0 3 12 9l22 11q10 5 10 12v77q0 10 1 103q2 116 0 199
q-2 126 -1 176q1 14 -24 14h-52q-8 0 -11 1q-10 2 7 10l145 70q22 11 34 8q11 -3 18 -6t8 -11l3 -37q4 -29 4 -60v-153q0 -120 2 -146q1 -29 4 -87q2 -30 12 -119q2 -13 4 -39q2 -16 9 -19l17 -8q26 -11 4 -11zM1232 137q-30 -31 -81 -101q-20 -34 -91 -34q-86 0 -152 24
q-48 17 -102 17q-29 1 -72 -9q140 165 198 260q73 122 73 203q0 99 -112 99q-51 0 -95 -53q-8 -9 -16 -6l-10 2q-8 2 0 14q28 35 80 101q16 24 37 55l35 -6q-3 -5 -6 -15q90 4 179 -38q110 -52 110 -146q0 -85 -107 -184q-116 -100 -233 -199q60 20 112 20q40 0 89 -11
q67 -15 77 -15q30 0 61 29q11 10 20 8q16 -4 6 -15z" />
    <glyph glyph-name="threequarters" unicode="&#xbe;" horiz-adv-x="1355" 
d="M1305 1261q11 -2 -10 -34q-8 -11 -33 -15q-31 -6 -68 -38q-64 -56 -179 -209q-87 -121 -174 -241l-301 -412q-54 -75 -126 -177q-21 -32 -24 -58q-4 -28 15 -29l23 -1q14 -1 14 -14q0 -20 -14 -29q-8 -5 -129 -3q-57 1 -145 3q-30 0 -76 3q-10 2 11 35q7 11 32 15
q32 5 69 37q43 38 240 303q144 192 281 389q78 102 244 343q27 43 27 69q0 17 -14 18l-24 2q-13 1 -13 14q0 23 14 32q32 1 85 3q40 3 144 -1q59 -1 131 -5zM1249 175q0 -63 -58 -63q-44 0 -44 38t41 38q12 0 25 -6q-23 36 -85 52v-47q0 -67 1 -98q1 -36 18 -36l34 1
q7 0 10 -7.5t1 -11.5q-5 -7 -37 -13q-94 -19 -166 -45q-18 -6 -46 -15q-7 -2 -8 15q-1 7 19 28q22 25 30 45q10 28 12 116q0 15 -1 80q-143 -5 -197 -62q-8 -8 -16 -8q-10 1 -22 14q-22 27 -61 74q-6 -5 -22 -17q-12 -8 -20 4q-8 14 2 22q141 156 356 391q63 68 88 91
q6 6 16 18q5 5 17 1q13 -5 12 -17q-4 -36 -10 -110q-8 -200 -8 -278q0 -11 -1 -49q120 -57 120 -145zM997 565q-96 -108 -228 -245q94 40 198 40q13 0 28 -1v8zM552 771q0 -72 -110 -160q-58 -45 -96 -67q-21 -11 -45 -11q-37 0 -57 25q-74 94 -120 94q-21 0 -37.5 -17
t-16.5 -33q0 -5 2 -8q9 7 21 7q33 0 33 -31q0 -34 -41 -34q-55 1 -55 55q0 57 39 93q52 49 119 49q64 0 104 -39q27 -26 55 -57q14 -16 22 -16q6 0 13 4q42 26 42 95q0 61 -74 110q-32 21 -128 63q-12 -6 -30 -14q-11 -5 -16 -3q-1 2 -6 7q-6 4 3 8q15 10 40 26q47 30 99 83
q66 67 66 107q0 32 -18 44q-46 -36 -143 -36q-71 0 -125 24q-62 28 -62 75q0 55 54 55q40 0 40 -30t-41 -30q-2 -4 -2 -8q0 -19 35 -20q82 -1 166 66q12 11 48 48l30 -13q-5 -9 -15 -20q83 -12 138.5 -48t55.5 -81q0 -90 -190 -183q203 -76 203 -179z" />
    <glyph glyph-name="questiondown" unicode="&#xbf;" horiz-adv-x="645" 
d="M482 1211q9 -15 -4 -25l-16 -11q-24 -17 -70 -49q-25 -18 -63 -43q-20 -14 -32 11q-7 12 -17 36q-7 15 -20 41q-10 21 -21 13l-14 -9q-9 -6 -12 11q-3 13 9 23l89 68q36 27 47 27q20 0 30 -11q7 -14 20 -38q6 -13 19 -41q5 -8 19 -3l21 8q9 3 15 -8zM635 347
q-25 -52 -97 -230q-23 -57 -50 -113l-44 12q4 8 8 28q-13 -1 -28 -1q-136 0 -241 65q-145 91 -145 279q0 243 189 427q12 12 90 78q30 26 31 62q0 24 -7 46q-8 24 9 37q84 61 121 84q9 5 19 -12q17 -26 17 -65q0 -56 -55 -152q-90 -157 -102 -185q-55 -120 -55 -235
q0 -108 64 -163q52 -44 124 -44q64 0 120 100q9 16 20 12l12 -5q10 -4 0 -25z" />
    <glyph glyph-name="Agrave" unicode="&#xc0;" 
d="M1139 8q7 -9 -15 -25l-107 -80q-30 -23 -58 -24q-33 -2 -53 15q-6 5 -34 37q-46 56 -103 126l-17 -13q-24 -18 -32 1q-7 18 11 33l9 6q11 9 20 31q10 26 12 144q2 71 2 199h-275l-143 -250l101 27l-408 -619l-3 1l118 393l-110 -56l175 433l-119 -55l320 603
q-39 17 -58 55h-6q6 -69 -43.5 -122.5t-118.5 -53.5q-80 0 -134 37q-70 49 -70 149q0 77 62 78q27 1 44 -16t15 -42q-3 -39 -25 -50q7 -32 38 -32q71 0 68 126q-2 21 -4 64q0 32 8 41q5 5 14 5t30 -8q74 -29 141 -29q81 0 152 10l64 121l-16 -113q16 3 105 35q73 26 118 26
q59 0 97 -40l84 38q16 7 29 -3q18 -14 2 -27l-17 -13q-23 -17 -24 -46q-1 -256 -2 -580q-3 -303 -3 -307q2 -41 -15 -57q-20 -20 -54 -38q16 6 31 6q47 0 84 -60q26 -41 39 -60q19 -25 25 -25q5 0 8 2l12 6q20 10 29 -4zM776 806q1 113 -3 199l-6 1q-16 -43 -62 -72.5
t-105 -29.5q-24 0 -46 2l-45 -304h263q4 67 4 204zM806 1286q0 -14 -48 -28q-42 -13 -62 -13q-66 0 -112.5 73.5t-63.5 73.5q-5 0 -14.5 -3t-13.5 -3q-12 0 -12 25q0 4 7 10q58 47 107 47q63 0 105 -81.5t74 -81.5q5 0 12.5 4.5t11.5 4.5q9 0 9 -28z" />
    <glyph glyph-name="Aacute" unicode="&#xc1;" 
d="M1139 8q7 -9 -15 -25l-107 -80q-30 -23 -58 -24q-33 -2 -53 15q-6 5 -34 37q-46 56 -103 126l-17 -13q-24 -18 -32 1q-7 18 11 33l9 6q11 9 20 31q10 26 12 144q2 71 2 199h-275l-143 -250l101 27l-408 -619l-3 1l118 393l-110 -56l175 433l-119 -55l320 603
q-39 17 -58 55h-6q6 -69 -43.5 -122.5t-118.5 -53.5q-80 0 -134 37q-70 49 -70 149q0 77 62 78q27 1 44 -16t15 -42q-3 -39 -25 -50q7 -32 38 -32q71 0 68 126q-2 21 -4 64q0 32 8 41q5 5 14 5t30 -8q74 -29 141 -29q81 0 152 10l64 121l-16 -113q16 3 105 35q73 26 118 26
q59 0 97 -40l84 38q16 7 29 -3q18 -14 2 -27l-17 -13q-23 -17 -24 -46q-1 -256 -2 -580q-3 -303 -3 -307q2 -41 -15 -57q-20 -20 -54 -38q16 6 31 6q47 0 84 -60q26 -41 39 -60q19 -25 25 -25q5 0 8 2l12 6q20 10 29 -4zM776 806q1 113 -3 199l-6 1q-16 -43 -62 -72.5
t-105 -29.5q-24 0 -46 2l-45 -304h263q4 67 4 204zM972 1408q0 -25 -11 -25q-5 0 -14 3t-14 3q-17 0 -63.5 -73.5t-113.5 -73.5q-20 0 -62 13q-48 14 -48 28q0 28 10 28q3 0 11 -4.5t13 -4.5q31 0 73 81.5t105 81.5q49 0 107 -47q7 -6 7 -10z" />
    <glyph glyph-name="Acircumflex" unicode="&#xc2;" 
d="M1139 8q7 -9 -15 -25l-107 -80q-30 -23 -58 -24q-33 -2 -53 15q-6 5 -34 37q-46 56 -103 126l-17 -13q-24 -18 -32 1q-7 18 11 33l9 6q11 9 20 31q10 26 12 144q2 71 2 199h-275l-143 -250l101 27l-408 -619l-3 1l118 393l-110 -56l175 433l-119 -55l320 603
q-39 17 -58 55h-6q6 -69 -43.5 -122.5t-118.5 -53.5q-80 0 -134 37q-70 49 -70 149q0 77 62 78q27 1 44 -16t15 -42q-3 -39 -25 -50q7 -32 38 -32q71 0 68 126q-2 21 -4 64q0 32 8 41q5 5 14 5t30 -8q74 -29 141 -29q81 0 152 10l64 121l-16 -113q16 3 105 35q73 26 118 26
q59 0 97 -40l84 38q16 7 29 -3q18 -14 2 -27l-17 -13q-23 -17 -24 -46q-1 -256 -2 -580q-3 -303 -3 -307q2 -41 -15 -57q-20 -20 -54 -38q16 6 31 6q47 0 84 -60q26 -41 39 -60q19 -25 25 -25q5 0 8 2l12 6q20 10 29 -4zM776 806q1 113 -3 199l-6 1q-16 -43 -62 -72.5
t-105 -29.5q-24 0 -46 2l-45 -304h263q4 67 4 204zM870 1386q8 -7 -5 -23q-37 -44 -48 -54q-34 -34 -58 -34q-43 -2 -103 69q-43 -39 -80 -61q-14 -8 -19 -8q-6 0 -18 7q-37 21 -75 47q0 10 7 14q23 15 63 41q20 13 73 50q25 21 65 53q11 -4 19 -12q-13 -13 -24 -26
q16 1 32 -5q36 -24 105 -68q10 -5 17 -5q-1 0 13 3q7 5 20 13q9 4 16 -1z" />
    <glyph glyph-name="Atilde" unicode="&#xc3;" 
d="M1139 8q7 -9 -15 -25l-107 -80q-30 -23 -58 -24q-33 -2 -53 15q-6 5 -34 37q-46 56 -103 126l-17 -13q-24 -18 -32 1q-7 18 11 33l9 6q11 9 20 31q10 26 12 144q2 71 2 199h-275l-143 -250l101 27l-408 -619l-3 1l118 393l-110 -56l175 433l-119 -55l320 603
q-39 17 -58 55h-6q6 -69 -43.5 -122.5t-118.5 -53.5q-80 0 -134 37q-70 49 -70 149q0 77 62 78q27 1 44 -16t15 -42q-3 -39 -25 -50q7 -32 38 -32q71 0 68 126q-2 21 -4 64q0 32 8 41q5 5 14 5t30 -8q74 -29 141 -29q81 0 152 10l64 121l-16 -113q16 3 105 35q73 26 118 26
q59 0 97 -40l84 38q16 7 29 -3q18 -14 2 -27l-17 -13q-23 -17 -24 -46q-1 -256 -2 -580q-3 -303 -3 -307q2 -41 -15 -57q-20 -20 -54 -38q16 6 31 6q47 0 84 -60q26 -41 39 -60q19 -25 25 -25q5 0 8 2l12 6q20 10 29 -4zM776 806q1 113 -3 199l-6 1q-16 -43 -62 -72.5
t-105 -29.5q-24 0 -46 2l-45 -304h263q4 67 4 204zM887 1379q-1 -10 -3 -13q-55 -105 -141 -105q-41 0 -106 34.5t-90 34.5q-24 0 -35.5 -13.5t-14.5 -13.5q-5 0 -15.5 9.5t-10.5 14.5q0 13 37 46q34 30 53 40q36 18 70 18q42 0 105 -28t80 -28q15 0 28 12.5t17 12.5
q26 0 26 -21z" />
    <glyph glyph-name="Adieresis" unicode="&#xc4;" 
d="M1139 8q7 -9 -15 -25l-107 -80q-30 -23 -58 -24q-33 -2 -53 15q-6 5 -34 37q-46 56 -103 126l-17 -13q-24 -18 -32 1q-7 18 11 33l9 6q11 9 20 31q10 26 12 144q2 71 2 199h-275l-143 -250l101 27l-408 -619l-3 1l118 393l-110 -56l175 433l-119 -55l320 603
q-39 17 -58 55h-6q6 -69 -43.5 -122.5t-118.5 -53.5q-80 0 -134 37q-70 49 -70 149q0 77 62 78q27 1 44 -16t15 -42q-3 -39 -25 -50q7 -32 38 -32q71 0 68 126q-2 21 -4 64q0 32 8 41q5 5 14 5t30 -8q74 -29 141 -29q81 0 152 10l64 121l-16 -113q16 3 105 35q73 26 118 26
q59 0 97 -40l84 38q16 7 29 -3q18 -14 2 -27l-17 -13q-23 -17 -24 -46q-1 -256 -2 -580q-3 -303 -3 -307q2 -41 -15 -57q-20 -20 -54 -38q16 6 31 6q47 0 84 -60q26 -41 39 -60q19 -25 25 -25q5 0 8 2l12 6q20 10 29 -4zM776 806q1 113 -3 199l-6 1q-16 -43 -62 -72.5
t-105 -29.5q-24 0 -46 2l-45 -304h263q4 67 4 204zM871 1357q2 -11 -7 -19l-75 -57q-30 -23 -39 -23q-16 -1 -23.5 10t-17.5 31q-5 11 -16 34q-5 8 -16 3l-18 -6q-7 -3 -12 6q-8 13 4 21l13 10q36 26 110 77q17 11 27 -9q5 -10 14 -30q6 -13 17 -35q8 -18 17 -11l12 8
q7 5 10 -10zM611 1357q2 -11 -7 -19l-75 -57q-30 -23 -39 -23q-16 -1 -23.5 10t-17.5 31q-5 11 -16 34q-5 8 -16 3l-18 -6q-7 -3 -12 6q-8 13 4 21l13 10q36 26 110 77q17 11 27 -9q5 -10 14 -30q6 -13 17 -35q8 -18 17 -11l12 8q7 5 10 -10z" />
    <glyph glyph-name="Aring" unicode="&#xc5;" 
d="M1139 8q7 -9 -15 -25l-107 -80q-30 -23 -58 -24q-33 -2 -53 15q-6 5 -34 37q-46 56 -103 126l-17 -13q-24 -18 -32 1q-7 18 11 33l9 6q11 9 20 31q10 26 12 144q2 71 2 199h-275l-143 -250l101 27l-408 -619l-3 1l118 393l-110 -56l175 433l-119 -55l320 603
q-39 17 -58 55h-6q6 -69 -43.5 -122.5t-118.5 -53.5q-80 0 -134 37q-70 49 -70 149q0 77 62 78q27 1 44 -16t15 -42q-3 -39 -25 -50q7 -32 38 -32q71 0 68 126q-2 21 -4 64q0 32 8 41q5 5 14 5t30 -8q74 -29 141 -29q81 0 152 10l64 121l-16 -113q16 3 105 35q73 26 118 26
q59 0 97 -40l84 38q16 7 29 -3q18 -14 2 -27l-17 -13q-23 -17 -24 -46q-1 -256 -2 -580q-3 -303 -3 -307q2 -41 -15 -57q-20 -20 -54 -38q16 6 31 6q47 0 84 -60q26 -41 39 -60q19 -25 25 -25q5 0 8 2l12 6q20 10 29 -4zM776 806q1 113 -3 199l-6 1q-16 -43 -62 -72.5
t-105 -29.5q-24 0 -46 2l-45 -304h263q4 67 4 204zM818 1346q0 -20 -13 -35.5t-36 -40.5q-22 -17 -54 -17q-64 -1 -101 33q-29 28 -30 73q0 23 15 45q28 43 112 84l5 -5q-3 -4 -7 -6q42 -16 69 -42q40 -39 40 -89zM754 1336q0 32 -20 56q-38 42 -39 44q-44 -34 -44 -63
q0 -49 58 -62q6 -1 19.5 1.5t25.5 23.5z" />
    <glyph glyph-name="AE" unicode="&#xc6;" horiz-adv-x="1665" 
d="M1615 1064q2 -90 -72 -150q-70 -57 -215 -60q-211 -3 -310 124l-4 -72q-1 -64 -4 -186q-3 -101 -3 -190q107 75 195 73q46 -1 116 -8q14 -3 25 -17q27 -60 67 -140q3 -5 4 -9q0 -17 -24 -9q-61 22 -160 22q-63 0 -159 -57q-17 -10 -29.5 3.5t-32.5 43.5q0 -29 -1 -65
q-1 -29 -1 -44q0 -68 4 -212q64 30 178 33q218 5 380 -108q34 -23 34 -35q0 -7 -7 -18q-14 -22 -52 -69q-21 -25 -66 -78q62 17 103 12q21 -3 14 -18q-20 -44 -34 -65q-7 -10 -41 -4q-125 20 -192 56q-24 13 -5 33q43 36 111 96q15 14 15 17q1 5 -15 14q-32 19 -97 18
q-137 -1 -293 -86q-18 -9 -32 -9q-46 0 -53 80l-6 -1l-54 -274l-37 131l-43 -355h-3l-99 571l83 -21l-78 306l63 -37l-26 158h-260l-143 -250l101 26l-408 -618l-3 1l118 393l-110 -56l175 433l-118 -54l319 602q-39 17 -58 55h-6q6 -69 -43.5 -122.5t-118.5 -53.5
q-80 0 -134 37q-70 49 -70 149q0 77 62 78q27 1 44 -16t15 -42q-3 -39 -25 -50q7 -32 38 -32q71 0 68 126q-2 21 -4 64q0 32 8 41q5 5 14 5t30 -8q74 -29 141 -29q81 0 152 10l64 121l-16 -113q16 3 105 35q73 26 118 26q58 0 99 -44q29 19 72 38q11 5 23 5q25 -1 21 -21
q-2 -11 -26 -37q38 20 91 20q60 0 136 -74q99 -95 203 -93q85 2 89 47q-54 0 -54 55t60 55q86 0 87 -103zM776 787q0 149 -3 218l-6 1q-16 -43 -62 -72.5t-105 -29.5q-24 0 -46 2l-45 -304h230l-36 218z" />
    <glyph glyph-name="Ccedilla" unicode="&#xc7;" horiz-adv-x="1235" 
d="M1185 -65q-1 -11 -18 -28q-68 -68 -99 -87q-43 -10 -120 -10q-51 0 -107 6l-87 -456h-2l-5 439l-54 -75v116q-131 31 -215 78q-128 71 -201 192t-77 268q-3 86 16 183q-35 -14 -70 -14q-59 0 -102.5 41t-43.5 101q0 106 90 106q49 0 49 -45q1 -44 -39 -44q-8 0 -17 3
q1 -57 52 -57q46 0 93 44q62 58 79 168q22 140 97 218q12 13 114 95q64 51 70 90q22 -8 43 -25q-3 -30 -25 -64l2 -1q41 29 66 24q20 -3 44 -34q40 -50 50 -61q132 -129 240 -129q74 0 74 36q0 7 -6 18q-71 0 -71 62t73 62q47 0 75 -34.5t28 -81.5q0 -110 -76 -172
q-83 -68 -237 -68q-82 0 -179 51t-130 109l-3 -1q7 -56 7 -80q0 -124 -96 -193q-2 -29 -2 -57q0 -367 233 -564l5 216l-63 -104l1 532l258 63l-40 -313l79 55l-97 -441l67 57l-34 -165q84 -29 180 -33q31 73 64 105q17 16 23 5q14 -27 37 -76q8 -21 7 -30zM983 -334
q0 -128 -182 -212q-12 -5 -26 -4q-52 4 -153 14q-24 3 -30 5q-11 4 -12 15l-3 33l-3 46q-2 29 5 31q6 1 27 -9q38 -16 150 -56q6 -3 12 -2q11 0 27 11q52 37 52 89q0 45 -64 73q-49 21 -103 23q-18 1 -24 -12.5t-10 -13.5q-14 0 -13 16q11 29 29 81t71 52q70 0 151 -45
q99 -55 99 -135z" />
    <glyph glyph-name="Egrave" unicode="&#xc8;" horiz-adv-x="948" 
d="M898 1064q1 -90 -70.5 -148.5t-216.5 -61.5q-211 -3 -310 124l-4 -72q-1 -64 -4 -186q-3 -101 -3 -190q107 75 195 73q46 -1 116 -8q14 -3 25 -17q27 -60 67 -140q3 -5 4 -9q0 -17 -24 -9q-62 22 -160 22q-63 0 -159 -57q-18 -10 -30 3.5t-32 43.5q0 -29 -1 -65
q-1 -29 -1 -44q0 -68 4 -212q64 30 178 33q218 5 380 -108q33 -23 33 -35q0 -7 -6 -18q-14 -22 -53 -69q-20 -25 -65 -78q62 17 103 12q21 -3 14 -18q-20 -44 -34 -65q-7 -10 -41 -4q-125 20 -192 56q-24 13 -5 33q43 36 111 96q15 14 15 17q1 5 -15 14q-33 19 -97 18
q-137 -1 -293 -86q-18 -9 -32 -9q-46 0 -53 80l-6 -1l-52 -275l-39 132l-43 -355h-3l-99 571l97 -60l-91 347l86 -61l-92 436l94 -60l-22 219q-3 33 -19 30l-36 -9q-17 -4 -17 16q0 8 13 17q37 25 136 105q86 70 116 101t75 90q7 16 19 16q29 0 23 -35q-5 -24 -21 -48
q38 25 60 20q21 -4 92 -73q99 -95 203 -93q85 2 89 47q-54 0 -54 55t60 55q86 0 87 -103zM588 1272q0 -14 -48 -28q-42 -13 -62 -13q-66 0 -112.5 73.5t-63.5 73.5q-5 0 -14.5 -3t-13.5 -3q-12 0 -12 25q0 4 7 10q58 47 107 47q63 0 105 -81.5t74 -81.5q5 0 12.5 4.5
t11.5 4.5q9 0 9 -28z" />
    <glyph glyph-name="Eacute" unicode="&#xc9;" horiz-adv-x="948" 
d="M898 1064q1 -90 -70.5 -148.5t-216.5 -61.5q-211 -3 -310 124l-4 -72q-1 -64 -4 -186q-3 -101 -3 -190q107 75 195 73q46 -1 116 -8q14 -3 25 -17q27 -60 67 -140q3 -5 4 -9q0 -17 -24 -9q-62 22 -160 22q-63 0 -159 -57q-18 -10 -30 3.5t-32 43.5q0 -29 -1 -65
q-1 -29 -1 -44q0 -68 4 -212q64 30 178 33q218 5 380 -108q33 -23 33 -35q0 -7 -6 -18q-14 -22 -53 -69q-20 -25 -65 -78q62 17 103 12q21 -3 14 -18q-20 -44 -34 -65q-7 -10 -41 -4q-125 20 -192 56q-24 13 -5 33q43 36 111 96q15 14 15 17q1 5 -15 14q-33 19 -97 18
q-137 -1 -293 -86q-18 -9 -32 -9q-46 0 -53 80l-6 -1l-52 -275l-39 132l-43 -355h-3l-99 571l97 -60l-91 347l86 -61l-92 436l94 -60l-22 219q-3 33 -19 30l-36 -9q-17 -4 -17 16q0 8 13 17q37 25 136 105q86 70 116 101t75 90q7 16 19 16q29 0 23 -35q-5 -24 -21 -48
q38 25 60 20q21 -4 92 -73q99 -95 203 -93q85 2 89 47q-54 0 -54 55t60 55q86 0 87 -103zM710 1395q0 -25 -11 -25q-5 0 -14 3t-14 3q-17 0 -63.5 -73.5t-113.5 -73.5q-20 0 -62 13q-48 14 -48 28q0 28 10 28q3 0 11 -4.5t13 -4.5q31 0 73 81.5t105 81.5q49 0 107 -47
q7 -6 7 -10z" />
    <glyph glyph-name="Ecircumflex" unicode="&#xca;" horiz-adv-x="948" 
d="M898 1064q1 -90 -70.5 -148.5t-216.5 -61.5q-211 -3 -310 124l-4 -72q-1 -64 -4 -186q-3 -101 -3 -190q107 75 195 73q46 -1 116 -8q14 -3 25 -17q27 -60 67 -140q3 -5 4 -9q0 -17 -24 -9q-62 22 -160 22q-63 0 -159 -57q-18 -10 -30 3.5t-32 43.5q0 -29 -1 -65
q-1 -29 -1 -44q0 -68 4 -212q64 30 178 33q218 5 380 -108q33 -23 33 -35q0 -7 -6 -18q-14 -22 -53 -69q-20 -25 -65 -78q62 17 103 12q21 -3 14 -18q-20 -44 -34 -65q-7 -10 -41 -4q-125 20 -192 56q-24 13 -5 33q43 36 111 96q15 14 15 17q1 5 -15 14q-33 19 -97 18
q-137 -1 -293 -86q-18 -9 -32 -9q-46 0 -53 80l-6 -1l-52 -275l-39 132l-43 -355h-3l-99 571l97 -60l-91 347l86 -61l-92 436l94 -60l-22 219q-3 33 -19 30l-36 -9q-17 -4 -17 16q0 8 13 17q37 25 136 105q86 70 116 101t75 90q7 16 19 16q29 0 23 -35q-5 -24 -21 -48
q38 25 60 20q21 -4 92 -73q99 -95 203 -93q85 2 89 47q-54 0 -54 55t60 55q86 0 87 -103zM635 1352q8 -7 -6 -22q-38 -42 -50 -52q-35 -32 -60 -33q-44 -1 -107 67q-45 -38 -84 -59q-14 -7 -18 -7q-7 0 -19 6q-39 20 -78 45q-1 10 6 13q24 15 66 40q21 13 76 48q27 20 67 50
q12 -3 21 -10q-14 -13 -26 -26q17 2 33 -4t46 -25q24 -16 64 -40q10 -6 18 -6q-1 0 13 4q8 5 21 12q10 4 17 -1z" />
    <glyph glyph-name="Edieresis" unicode="&#xcb;" horiz-adv-x="948" 
d="M898 1064q1 -90 -70.5 -148.5t-216.5 -61.5q-211 -3 -310 124l-4 -72q-1 -64 -4 -186q-3 -101 -3 -190q107 75 195 73q46 -1 116 -8q14 -3 25 -17q27 -60 67 -140q3 -5 4 -9q0 -17 -24 -9q-62 22 -160 22q-63 0 -159 -57q-18 -10 -30 3.5t-32 43.5q0 -29 -1 -65
q-1 -29 -1 -44q0 -68 4 -212q64 30 178 33q218 5 380 -108q33 -23 33 -35q0 -7 -6 -18q-14 -22 -53 -69q-20 -25 -65 -78q62 17 103 12q21 -3 14 -18q-20 -44 -34 -65q-7 -10 -41 -4q-125 20 -192 56q-24 13 -5 33q43 36 111 96q15 14 15 17q1 5 -15 14q-33 19 -97 18
q-137 -1 -293 -86q-18 -9 -32 -9q-46 0 -53 80l-6 -1l-52 -275l-39 132l-43 -355h-3l-99 571l97 -60l-91 347l86 -61l-92 436l94 -60l-22 219q-3 33 -19 30l-36 -9q-17 -4 -17 16q0 8 13 17q37 25 136 105q86 70 116 101t75 90q7 16 19 16q29 0 23 -35q-5 -24 -21 -48
q38 25 60 20q21 -4 92 -73q99 -95 203 -93q85 2 89 47q-54 0 -54 55t60 55q86 0 87 -103zM637 1325q2 -10 -8 -18l-74 -53q-29 -21 -38 -21q-17 -1 -24 9.5t-17 28.5l-16 32q-4 7 -16 3l-17 -7q-8 -2 -13 6q-7 13 4 20l13 9q36 25 110 72q17 10 26 -9q6 -9 14 -28
q6 -12 17 -32q8 -17 17 -11l12 8q7 5 10 -9zM379 1325q2 -10 -8 -18l-74 -53q-29 -21 -38 -21q-17 -1 -24 9.5t-17 28.5l-16 32q-4 7 -15 3l-18 -7q-8 -2 -13 6q-7 13 4 20l13 9q37 25 110 72q17 10 27 -9q5 -9 13 -28q6 -12 17 -32q8 -17 17 -11l12 8q7 5 10 -9z" />
    <glyph glyph-name="Igrave" unicode="&#xcc;" horiz-adv-x="523" 
d="M443 1195l-11 -907l-73 118l-21 -513l-65 102l-48 -432h-3l-137 763l78 -70l-69 453l99 -68l-68 561q38 -4 99 -10q41 -1 110 -3q-21 1 109 6zM366 1285q0 -14 -48 -28q-42 -13 -62 -13q-66 0 -112.5 73.5t-63.5 73.5q-5 0 -14.5 -3t-13.5 -3q-12 0 -12 25q0 4 7 10
q58 47 107 47q63 0 105 -81.5t74 -81.5q5 0 12.5 4.5t11.5 4.5q9 0 9 -28z" />
    <glyph glyph-name="Iacute" unicode="&#xcd;" horiz-adv-x="538" 
d="M443 1195l-11 -907l-73 118l-21 -513l-65 102l-48 -432h-3l-137 763l78 -70l-69 453l99 -68l-68 561q38 -4 99 -10q41 -1 110 -3q-21 1 109 6zM457 1401q0 -25 -11 -25q-5 0 -14 3t-14 3q-17 0 -63.5 -73.5t-113.5 -73.5q-20 0 -62 13q-48 14 -48 28q0 28 10 28
q3 0 11 -4.5t13 -4.5q31 0 73 81.5t105 81.5q49 0 107 -47q7 -6 7 -10z" />
    <glyph glyph-name="Icircumflex" unicode="&#xce;" horiz-adv-x="552" 
d="M443 1195l-11 -907l-73 118l-21 -513l-65 102l-48 -432h-3l-137 763l78 -70l-69 453l99 -68l-68 561q38 -4 99 -10q41 -1 110 -3q-21 1 109 6zM472 1357q8 -6 -5 -22q-35 -43 -45 -53q-33 -33 -56 -34q-41 -1 -98 68q-41 -38 -77 -60q-13 -7 -17 -7q-7 0 -17 6
q-36 21 -72 46q0 10 6 14q22 15 61 41q19 13 69 49q24 21 62 52q11 -4 18 -11q-12 -14 -23 -27q16 2 31 -5q35 -23 100 -66q10 -5 16 -5q-1 0 13 3q7 5 19 13q9 4 15 -2z" />
    <glyph glyph-name="Idieresis" unicode="&#xcf;" horiz-adv-x="568" 
d="M443 1195l-11 -907l-73 118l-21 -513l-65 102l-48 -432h-3l-137 763l78 -70l-69 453l99 -68l-68 561q37 -4 99 -10q41 -1 110 -3q-21 1 109 6zM488 1348q2 -11 -6 -19l-63 -60q-25 -24 -32 -24q-14 0 -20 11t-15 32q-4 12 -14 36q-3 7 -12 3l-15 -7q-7 -3 -11 6
q-6 14 3 22l12 10q30 28 92 81q14 12 23 -10q4 -10 11 -31q6 -14 13.5 -34.5t15.5 -13.5l10 9q6 5 8 -11zM270 1348q2 -11 -6 -19l-63 -60q-25 -24 -32 -24q-14 0 -20 11t-15 32q-4 12 -14 36q-3 7 -13 3l-14 -7q-7 -3 -11 6q-6 14 3 22l11 10q31 28 93 81q14 12 23 -10
q4 -10 11 -31q5 -14 13 -34.5t16 -13.5l10 9q5 5 8 -11z" />
    <glyph glyph-name="Eth" unicode="&#xd0;" horiz-adv-x="1385" 
d="M1315 466q0 -214 -162 -403q-156 -182 -326 -232q-21 -7 -45 5q-65 36 -217 113l-33 -123q-27 -102 -83 -332l-2 458l-67 -94l7 160q-73 21 -127 20q-35 0 -71 -18q-76 -36 -90 -105q-7 -33 19 -37q60 23 143 51q21 4 24 -2l3 -19q5 -36 13 -91q3 -22 2 -23
q-1 -9 -19 -11q-186 -21 -261 19q-22 12 -23 41q-1 25 11 69q20 72 60 129q93 133 242 167q40 9 82 9h2l6 126q-64 -5 -112 -10q-27 -3 -36 8q-34 45 -54 80q-10 16 -8 19q2 4 28 7q65 9 188 16l6 138l-78 -75l18 391q-30 -18 -58 -24t-54 -6q-66 0 -115 39q-45 36 -45 84
q0 28 18 51.5t48 23.5q20 0 35 -12q38 -29 10 -76q8 -3 18 -3q40 0 77 42q35 39 39 82q3 39 -41 52q-25 7 -25 22q0 20 30 21q9 0 88 -14q171 -28 341 -57q169 -41 329 -158q265 -195 265 -518zM1193 333q-38 180 -195 336q-9 9 -75 68q-30 28 -30 30q0 17 69 43
q-75 -13 -152 19q-14 6 -134 73q-21 11 -52 23l-21 -186l106 98l-83 -372q38 -3 57 -5.5t33 -13.5q45 -45 107 -106q4 -3 4 -7q0 -14 -32 -7q-72 16 -192 21h-3l-36 -164q24 -8 50 -20q6 4 8 -3l2 -1q89 -46 275 -127q35 -13 63 1q57 27 130 110q32 35 64 89q43 71 37 101z
" />
    <glyph glyph-name="Ntilde" unicode="&#xd1;" horiz-adv-x="1032" 
d="M991 963q-1 -20 -14 -55q-114 -288 -270 -722q-6 -18 -12 -48q-2 -19 2 -50q12 -102 41 -240q95 40 131 52q10 3 16 4q9 0 8 -14q-3 -20 -6 -39q-3 -30 -9 -81q-69 -18 -173 -25q-22 -1 -58 31q-49 43 -105 148q-52 98 -76 182q-10 32 -9 51q6 173 93 330q41 74 114 170
l106 134q11 15 -4 36q-3 4 -174 150q-12 10 -19 11q-8 1 -24 -10q-98 -63 -140 -103q-18 -17 -17 -45l19 -611l-100 111l77 -584l-103 85l-24 -374l-6 -2l-219 710l97 -51l-133 623l108 -91l-58 346l349 294l-5 -245l133 127q31 29 51 22q83 -28 178 -77q70 -35 180 -97
q21 -12 42 -25q15 -10 13 -28zM759 1377q-1 -10 -3 -13q-55 -105 -141 -105q-41 0 -106 34.5t-90 34.5q-24 0 -35.5 -13.5t-14.5 -13.5q-5 0 -15.5 9.5t-10.5 14.5q0 13 37 46q34 30 53 40q36 18 70 18q42 0 105 -28t80 -28q15 0 28 12.5t17 12.5q26 0 26 -21z" />
    <glyph glyph-name="Ograve" unicode="&#xd2;" horiz-adv-x="1250" 
d="M1186 394q0 -77 -10 -116q-12 -44 -52 -104q-53 -80 -203 -251q-100 -114 -255 -116l-16 -319l-3 1l-25 318q-116 3 -233 50q-140 56 -230 158q-159 179 -159 461q0 123 61.5 265.5t144.5 209.5q-105 23 -173 81q-19 16 -19 21q0 3 18 19.5t48 45.5q-9 5 -31 19
q-14 10 -14 13q0 4 23 9q53 9 150 30q15 3 18 -3t-4 -17q-23 -40 -63 -101q46 -18 95 -18q141 -1 229 132q42 62 91 61q28 0 66 -20q253 -132 394 -335q152 -220 152 -494zM1045 325q0 165 -64 317q-53 126 -184 236l7 -413l-48 75l-14 -481l-56 86l-11 -180q57 -9 93 -9
t66 27q49 45 116 127q33 38 83 105q12 20 12 110zM632 769l-10 236q-85 -96 -250 -93q-49 1 -92 14q-55 -64 -75 -108q-46 -99 -45 -229q2 -222 142 -413q92 -126 300 -194l-48 419l55 -35l-55 462zM690 1303q0 -12 -48 -25q-43 -11 -62 -11q-67 0 -113.5 65t-63.5 65
q-5 0 -14.5 -3t-13.5 -3q-12 0 -12 23q0 3 7 8q58 42 107 42q64 0 106 -72t73 -72q5 0 13 4t11 4q10 0 10 -25z" />
    <glyph glyph-name="Oacute" unicode="&#xd3;" horiz-adv-x="1250" 
d="M1186 394q0 -77 -10 -116q-12 -44 -52 -104q-53 -80 -203 -251q-100 -114 -255 -116l-16 -319l-3 1l-25 318q-116 3 -233 50q-140 56 -230 158q-159 179 -159 461q0 123 61.5 265.5t144.5 209.5q-105 23 -173 81q-19 16 -19 21q0 3 18 19.5t48 45.5q-9 5 -31 19
q-14 10 -14 13q0 4 23 9q53 9 150 30q15 3 18 -3t-4 -17q-23 -40 -63 -101q46 -18 95 -18q141 -1 229 132q42 62 91 61q28 0 66 -20q253 -132 394 -335q152 -220 152 -494zM1045 325q0 165 -64 317q-53 126 -184 236l7 -413l-48 75l-14 -481l-56 86l-11 -180q57 -9 93 -9
t66 27q49 45 116 127q33 38 83 105q12 20 12 110zM632 769l-10 236q-85 -96 -250 -93q-49 1 -92 14q-55 -64 -75 -108q-46 -99 -45 -229q2 -222 142 -413q92 -126 300 -194l-48 419l55 -35l-55 462zM817 1418q0 -23 -12 -23q-5 0 -14 3t-14 3q-17 0 -64 -68.5t-114 -68.5
q-20 0 -62 12q-49 14 -49 26q0 26 10 26q3 0 11 -4t13 -4q32 0 74 75.5t106 75.5q49 0 108 -44q7 -5 7 -9z" />
    <glyph glyph-name="Ocircumflex" unicode="&#xd4;" horiz-adv-x="1250" 
d="M1186 394q0 -77 -10 -116q-12 -44 -52 -104q-53 -80 -203 -251q-100 -114 -255 -116l-16 -319l-3 1l-25 318q-116 3 -233 50q-140 56 -230 158q-159 179 -159 461q0 123 61.5 265.5t144.5 209.5q-105 23 -173 81q-19 16 -19 21q0 3 18 19.5t48 45.5q-9 5 -31 19
q-14 10 -14 13q0 4 23 9q53 9 150 30q15 3 18 -3t-4 -17q-23 -40 -63 -101q46 -18 95 -18q141 -1 229 132q42 62 91 61q28 0 66 -20q253 -132 394 -335q152 -220 152 -494zM1045 325q0 165 -64 317q-53 126 -184 236l7 -413l-48 75l-14 -481l-56 86l-11 -180q57 -9 93 -9
t66 27q49 45 116 127q33 38 83 105q12 20 12 110zM632 769l-10 236q-85 -96 -250 -93q-49 1 -92 14q-55 -64 -75 -108q-46 -99 -45 -229q2 -222 142 -413q92 -126 300 -194l-48 419l55 -35l-55 462zM802 1365q8 -7 -6 -23q-39 -44 -50 -54q-36 -34 -61 -35q-45 -1 -108 70
q-45 -39 -84 -61q-15 -8 -19 -8q-7 0 -19 7q-40 21 -79 47q0 10 7 14q24 15 66 42q21 13 77 50q26 21 68 53q12 -4 20 -11q-14 -14 -25 -27q17 1 34 -5q14 -6 44 -25q25 -17 66 -43q10 -6 17 -6q-1 0 14 4q7 5 21 13q10 4 17 -2z" />
    <glyph glyph-name="Otilde" unicode="&#xd5;" horiz-adv-x="1250" 
d="M1186 394q0 -77 -10 -116q-12 -44 -52 -104q-53 -80 -203 -251q-100 -114 -255 -116l-16 -319l-3 1l-25 318q-116 3 -233 50q-140 56 -230 158q-159 179 -159 461q0 123 61.5 265.5t144.5 209.5q-105 23 -173 81q-19 16 -19 21q0 3 18 19.5t48 45.5q-9 5 -31 19
q-14 10 -14 13q0 4 23 9q53 9 150 30q15 3 18 -3t-4 -17q-23 -40 -63 -101q46 -18 95 -18q141 -1 229 132q42 62 91 61q28 0 66 -20q253 -132 394 -335q152 -220 152 -494zM1045 325q0 165 -64 317q-53 126 -184 236l7 -413l-48 75l-14 -481l-56 86l-11 -180q57 -9 93 -9
t66 27q49 45 116 127q33 38 83 105q12 20 12 110zM632 769l-10 236q-85 -96 -250 -93q-49 1 -92 14q-55 -64 -75 -108q-46 -99 -45 -229q2 -222 142 -413q92 -126 300 -194l-48 419l55 -35l-55 462zM809 1384q-1 -10 -3 -13q-55 -105 -141 -105q-41 0 -106 34.5t-90 34.5
q-24 0 -35.5 -13.5t-14.5 -13.5q-5 0 -15.5 9.5t-10.5 14.5q0 13 37 46q34 30 53 40q36 18 70 18q42 0 105 -28t80 -28q15 0 28 12.5t17 12.5q26 0 26 -21z" />
    <glyph glyph-name="Odieresis" unicode="&#xd6;" horiz-adv-x="1250" 
d="M1186 394q0 -77 -10 -116q-12 -44 -52 -104q-53 -80 -203 -251q-100 -114 -255 -116l-16 -319l-3 1l-25 318q-116 3 -233 50q-140 56 -230 158q-159 179 -159 461q0 123 61.5 265.5t144.5 209.5q-105 23 -173 81q-19 16 -19 21q0 3 18 19.5t48 45.5q-9 5 -31 19
q-14 10 -14 13q0 4 23 9q53 9 150 30q15 3 18 -3t-4 -17q-23 -40 -63 -101q46 -18 95 -18q141 -1 229 132q42 62 91 61q28 0 66 -20q253 -132 394 -335q152 -220 152 -494zM1045 325q0 165 -64 317q-53 126 -184 236l7 -413l-48 75l-14 -481l-56 86l-11 -180q57 -9 93 -9
t66 27q49 45 116 127q33 38 83 105q12 20 12 110zM632 769l-10 236q-85 -96 -250 -93q-49 1 -92 14q-55 -64 -75 -108q-46 -99 -45 -229q2 -222 142 -413q92 -126 300 -194l-48 419l55 -35l-55 462zM830 1351q2 -11 -7 -19l-75 -57q-30 -23 -39 -23q-16 -1 -23.5 10
t-17.5 31q-5 11 -16 34q-5 8 -16 3l-18 -6q-7 -3 -12 6q-8 13 4 21l13 10q36 26 110 77q17 11 27 -9q5 -10 14 -30q6 -13 17 -35q8 -18 17 -11l12 8q7 5 10 -10zM570 1351q2 -11 -7 -19l-75 -57q-30 -23 -39 -23q-16 -1 -23.5 10t-17.5 31q-5 11 -16 34q-5 8 -16 3l-18 -6
q-7 -3 -12 6q-8 13 4 21l13 10q36 26 110 77q17 11 27 -9q5 -10 14 -30q6 -13 17 -35q8 -18 17 -11l12 8q7 5 10 -10z" />
    <glyph glyph-name="multiply" unicode="&#xd7;" horiz-adv-x="730" 
d="M680 898q-69 -55 -189 -186q-21 -23 -53 -63q66 -93 97 -149q21 -39 13 -58q-29 -63 -66 -120q-6 -9 -12 -9q-8 0 -24 28q-33 61 -109 180q-50 -67 -97 -138q-20 -31 -39 -31q-80 -3 -135 1q-29 1 -29 7t17 32q60 97 184 259l-22 27q-34 43 -88 102q-25 27 -21 45
q9 43 47 109q16 29 23 29q9 0 29 -21q53 -55 136 -164q92 105 124 136q19 18 22 19q7 4 22 5q32 1 92 0q73 -2 76 -2q21 0 21 -11t-19 -27z" />
    <glyph glyph-name="Oslash" unicode="&#xd8;" horiz-adv-x="1104" 
d="M1040 526q0 -115 -53 -200q-45 -72 -172 -228q-86 -104 -230 -105q-201 -1 -348 100l-54 -93q4 -12 4 -24q0 -67 -62 -67t-62 67q0 58 54 66l59 101q-19 18 -36 39q-132 158 -135 418q-1 132 65 265q65 128 220 275q100 94 278 206l23 -29q-15 -19 -33 -36
q112 -56 214 -146l54 88q-7 14 -7 30q0 66 62 66t62 -66q0 -53 -47 -65l-67 -109q211 -226 211 -553zM682 985q-76 74 -240 197q-53 -31 -151 -146q-62 -72 -90 -136q-40 -91 -40 -198q0 -101 27 -187q31 -99 93 -187l3 -5zM910 463q0 159 -56 288q-37 86 -116 176
l-399 -664q106 -94 242 -125q43 -9 95 -9q31 0 56 24q41 40 98 115q28 34 70 95q10 19 10 100z" />
    <glyph glyph-name="Ugrave" unicode="&#xd9;" horiz-adv-x="1025" 
d="M944 535l-88 83l61 -716l-77 68l46 -508h-3l-139 358q-51 -41 -198 -122q-11 -6 -26 -6q-27 0 -84 42q-249 178 -300 232q-136 142 -136 337q0 87 29 200q13 40 29 121q40 -22 86 -20h12q-69 51 -69 69q0 7 14 15q19 11 20 12q55 51 87 156q29 93 29 179q0 45 -15 83
q-20 52 -59 52q-8 0 -16 -4q24 -32 24 -60q0 -58 -63 -58q-69 0 -69 67q0 101 121 99q109 -2 171 -125q50 -100 50 -221q0 -235 -105 -441q-69 -136 -75 -149q-38 -89 -38 -161q0 -76 42 -132q29 -40 104 -96q34 -25 67 -25q20 0 36 12q33 20 96 62q57 43 143 106l-101 256
l91 -24l-124 520l88 -51l-64 387q37 -4 99 -10q41 -1 110 -3q-9 0 129 6zM581 1217q0 -14 -48 -28q-42 -13 -62 -13q-66 0 -112.5 73.5t-63.5 73.5q-5 0 -14.5 -3t-13.5 -3q-12 0 -12 25q0 4 7 10q58 47 107 47q63 0 105 -81.5t74 -81.5q5 0 12.5 4.5t11.5 4.5q9 0 9 -28z
" />
    <glyph glyph-name="Uacute" unicode="&#xda;" horiz-adv-x="1025" 
d="M944 535l-88 83l61 -716l-77 68l46 -508h-3l-139 358q-51 -41 -198 -122q-11 -6 -26 -6q-27 0 -84 42q-249 178 -300 232q-136 142 -136 337q0 87 29 200q13 40 29 121q40 -22 86 -20h12q-69 51 -69 69q0 7 14 15q19 11 20 12q55 51 87 156q29 93 29 179q0 45 -15 83
q-20 52 -59 52q-8 0 -16 -4q24 -32 24 -60q0 -58 -63 -58q-69 0 -69 67q0 101 121 99q109 -2 171 -125q50 -100 50 -221q0 -235 -105 -441q-69 -136 -75 -149q-38 -89 -38 -161q0 -76 42 -132q29 -40 104 -96q34 -25 67 -25q20 0 36 12q33 20 96 62q57 43 143 106l-101 256
l91 -24l-124 520l88 -51l-64 387q37 -4 99 -10q41 -1 110 -3q-9 0 129 6zM705 1351q0 -25 -11 -25q-5 0 -14 3t-14 3q-17 0 -63.5 -73.5t-113.5 -73.5q-20 0 -62 13q-48 14 -48 28q0 28 10 28q3 0 11 -4.5t13 -4.5q31 0 73 81.5t105 81.5q49 0 107 -47q7 -6 7 -10z" />
    <glyph glyph-name="Ucircumflex" unicode="&#xdb;" horiz-adv-x="1025" 
d="M944 535l-88 83l61 -716l-77 68l46 -508h-3l-139 358q-51 -41 -198 -122q-11 -6 -26 -6q-27 0 -84 42q-249 178 -300 232q-136 142 -136 337q0 87 29 200q13 40 29 121q40 -22 86 -20h12q-69 51 -69 69q0 7 14 15q19 11 20 12q55 51 87 156q29 93 29 179q0 45 -15 83
q-20 52 -59 52q-8 0 -16 -4q24 -32 24 -60q0 -58 -63 -58q-69 0 -69 67q0 101 121 99q109 -2 171 -125q50 -100 50 -221q0 -235 -105 -441q-69 -136 -75 -149q-38 -89 -38 -161q0 -76 42 -133q29 -39 104 -95q34 -25 67 -25q20 0 36 12q33 20 96 62q57 43 143 106l-101 256
l91 -24l-124 520l88 -51l-64 387q37 -4 99 -10q41 -1 110 -3q-9 0 129 6zM702 1295q8 -7 -5 -23q-34 -45 -43 -55q-33 -36 -55 -37q-40 -1 -95 72q-40 -40 -75 -63q-13 -8 -17 -8q-6 0 -17 7q-34 22 -69 48q-1 11 6 15q21 15 58 43q19 13 68 52q24 22 60 54q11 -3 18 -11
q-12 -14 -22 -28q15 2 30 -5q33 -25 97 -70q9 -6 16 -6q-1 0 12 4q6 5 18 13q9 4 15 -2z" />
    <glyph glyph-name="Udieresis" unicode="&#xdc;" horiz-adv-x="1025" 
d="M944 535l-88 83l61 -716l-77 68l46 -508h-3l-139 358q-51 -41 -198 -122q-11 -6 -26 -6q-27 0 -84 42q-249 178 -300 232q-136 142 -136 337q0 87 29 200q13 40 29 121q40 -22 86 -20h12q-69 51 -69 69q0 7 14 15q19 11 20 12q55 51 87 156q29 93 29 179q0 45 -15 83
q-20 52 -59 52q-8 0 -16 -4q24 -32 24 -60q0 -58 -63 -58q-69 0 -69 67q0 101 121 99q109 -2 171 -125q50 -100 50 -221q0 -235 -105 -441q-69 -136 -75 -149q-38 -89 -38 -161q0 -76 42 -132q29 -40 104 -96q34 -25 67 -25q20 0 36 12q33 20 96 62q57 43 143 106l-101 256
l91 -24l-124 520l88 -51l-64 387q37 -4 99 -10q41 -1 110 -3q-9 0 129 6zM779 1293q2 -11 -7 -19l-75 -57q-30 -23 -39 -23q-16 -1 -23.5 10t-17.5 31q-5 11 -16 34q-5 8 -16 3l-18 -6q-7 -3 -12 6q-8 13 4 21l13 10q36 26 110 77q17 11 27 -9q5 -10 14 -30q6 -13 17 -35
q8 -18 17 -11l12 8q7 5 10 -10zM519 1293q2 -11 -7 -19l-75 -57q-30 -23 -39 -23q-16 -1 -23.5 10t-17.5 31q-5 11 -16 34q-5 8 -16 3l-18 -6q-7 -3 -12 6q-8 13 4 21l13 10q36 26 110 77q17 11 27 -9q5 -10 14 -30q6 -13 17 -35q8 -18 17 -11l12 8q7 5 10 -10z" />
    <glyph glyph-name="Yacute" unicode="&#xdd;" horiz-adv-x="1392" 
d="M1362 1144q0 -3 -7 -25q-43 -130 -141 -146q-29 -5 -62 5q-23 -45 -171 -217q-117 -136 -135 -259l17 -343l-81 113l24 -598l-70 121l-33 -312h-3l-192 647l102 -60l-121 393l92 -56l4 3q-53 167 -220 313q-176 154 -244 327q-40 102 -100 109q-21 2 -21 23q0 18 16 22
q27 8 69 4q128 -13 140 -13q2 0 156 26q54 9 64 -1q6 -5 7 -21q1 -17 -9 -20l-37 -14q-26 -10 -26 -44q0 -33 18 -63q37 -63 178 -184q135 -117 215 -264q44 114 145 223q126 137 145 167q-56 15 -102 57q-30 30 -67 64q-12 6 -26 0q-8 -4 -24 -11q-16 -6 -21 2q-6 5 -14 14
q-4 9 3 15q76 68 128 102q31 20 59 7q34 -20 109 -62q43 -27 127 -60q33 -4 58 11.5t32 26.5t14 4q3 -4 5 -26zM857 1328q0 -25 -11 -25q-5 0 -14 3t-14 3q-17 0 -63.5 -73.5t-113.5 -73.5q-20 0 -62 13q-48 14 -48 28q0 28 10 28q3 0 11 -4.5t13 -4.5q31 0 73 81.5
t105 81.5q49 0 107 -47q7 -6 7 -10z" />
    <glyph glyph-name="agrave" unicode="&#xe0;" horiz-adv-x="549" 
d="M534 332q-14 -16 -30 -28q-30 -24 -85 -75q-11 -12 -29 -35q-23 -27 -70 -23q-11 0 -29 8q-7 7 -14 27q-5 11 -11 26q-13 -10 -35.5 -25.5t-35.5 -25.5q-20 -15 -27.5 -17t-29.5 -1q-31 2 -39 14t-15 31q-13 34 -35 101q-14 41 -37 114q-9 31 -11 45q-4 22 0 35
q7 25 55 70q29 27 74 50q33 17 59 26q11 4 42 12q11 0 33 -8q2 -11 -6 -15q-17 -13 -44 -36q-16 -14 -38 -38q0 -34 1 -48q1 -18 10 -64q5 -26 19 -66q16 -50 35 -103q24 12 36 22q3 46 10 159q3 65 1 167q0 39 -2 130q-36 -30 -105 -31q-70 -2 -121 32q-60 41 -60 118
q0 64 50 64q42 0 42 -38q0 -36 -30 -39q13 -13 36 -14q45 0 133 56q51 37 103 73q24 16 32 16t24 -16q38 -34 91 -83q13 -13 3 -22q-11 -11 -19 -18q4 -127 4 -242q0 -109 -1 -130q-1 -51 -4 -151q12 -2 33 -2q4 0 18.5 -1t18.5 -1zM362 1049q0 -11 -46 -24q-41 -10 -60 -10
q-64 0 -108.5 61t-60.5 61q-5 0 -13.5 -3t-13.5 -3q-11 0 -11 21q0 4 6 8q57 39 103 39q61 0 101 -67.5t71 -67.5q4 0 11.5 4t11.5 4q9 0 9 -23z" />
    <glyph glyph-name="aacute" unicode="&#xe1;" horiz-adv-x="549" 
d="M534 332q-14 -16 -30 -28q-30 -24 -85 -75q-11 -12 -29 -35q-23 -27 -70 -23q-11 0 -29 8q-7 7 -14 27q-5 11 -11 26q-13 -10 -35.5 -25.5t-35.5 -25.5q-20 -15 -27.5 -17t-29.5 -1q-31 2 -39 14t-15 31q-13 34 -35 101q-14 41 -37 114q-9 31 -11 45q-4 22 0 35
q7 25 55 70q29 27 74 50q33 17 59 26q11 4 42 12q11 0 33 -8q2 -11 -6 -15q-17 -13 -44 -36q-16 -14 -38 -38q0 -34 1 -48q1 -18 10 -64q5 -26 19 -66q16 -50 35 -103q24 12 36 22q3 46 10 159q3 65 1 167q0 39 -2 130q-36 -30 -105 -31q-70 -2 -121 32q-60 41 -60 118
q0 64 50 64q42 0 42 -38q0 -36 -30 -39q13 -13 36 -14q45 0 133 56q51 37 103 73q24 16 32 16t24 -16q38 -34 91 -83q13 -13 3 -22q-11 -11 -19 -18q4 -127 4 -242q0 -109 -1 -130q-1 -51 -4 -151q12 -2 33 -2q4 0 18.5 -1t18.5 -1zM448 1140q0 -20 -12 -20q-4 0 -13.5 2.5
t-14.5 2.5q-17 0 -63.5 -61t-113.5 -61q-20 0 -62 10q-48 13 -48 24q0 23 9 23q4 0 12 -3.5t12 -3.5q32 0 74 67.5t106 67.5q49 0 107 -39q7 -5 7 -9z" />
    <glyph glyph-name="acircumflex" unicode="&#xe2;" horiz-adv-x="549" 
d="M534 332q-14 -16 -30 -28q-30 -24 -85 -75q-11 -12 -29 -35q-23 -27 -70 -23q-11 0 -29 8q-7 7 -14 27q-5 11 -11 26q-13 -10 -35.5 -25.5t-35.5 -25.5q-20 -15 -27.5 -17t-29.5 -1q-31 2 -39 14t-15 31q-13 34 -35 101q-14 41 -37 114q-9 31 -11 45q-4 22 0 35
q7 25 55 70q29 27 74 50q33 17 59 26q11 4 42 12q11 0 33 -8q2 -11 -6 -15q-17 -13 -44 -36q-16 -14 -38 -38q0 -34 1 -48q1 -18 10 -64q5 -26 19 -66q16 -50 35 -103q24 12 36 22q3 46 10 159q3 65 1 167q0 39 -2 130q-36 -30 -105 -31q-70 -2 -121 32q-60 41 -60 118
q0 64 50 64q42 0 42 -38q0 -36 -30 -39q13 -13 36 -14q45 0 133 56q51 37 103 73q24 16 32 16t24 -16q38 -34 91 -83q13 -13 3 -22q-11 -11 -19 -18q4 -127 4 -242q0 -109 -1 -130q-1 -51 -4 -151q12 -2 33 -2q4 0 18.5 -1t18.5 -1zM441 1124q7 -7 -5 -22q-33 -42 -42 -52
q-31 -33 -52 -34q-39 -1 -92 67q-39 -37 -73 -59q-12 -8 -16 -8q-6 0 -16 7q-33 21 -67 45q0 10 6 14q20 15 56 41q18 12 65 48q23 21 59 51q10 -3 17 -11q-12 -13 -22 -26q15 2 29 -5q32 -23 94 -65q9 -5 15 -5q-1 0 12 3q6 5 18 12q8 5 14 -1z" />
    <glyph glyph-name="atilde" unicode="&#xe3;" horiz-adv-x="549" 
d="M534 332q-14 -16 -30 -28q-30 -24 -85 -75q-11 -12 -29 -35q-23 -27 -70 -23q-11 0 -29 8q-7 7 -14 27q-5 11 -11 26q-13 -10 -35.5 -25.5t-35.5 -25.5q-20 -15 -27.5 -17t-29.5 -1q-31 2 -39 14t-15 31q-13 34 -35 101q-14 41 -37 114q-9 31 -11 45q-4 22 0 35
q7 25 55 70q29 27 74 50q33 17 59 26q11 4 42 12q11 0 33 -8q2 -11 -6 -15q-17 -13 -44 -36q-16 -14 -38 -38q0 -34 1 -48q1 -18 10 -64q5 -26 19 -66q16 -50 35 -103q24 12 36 22q3 46 10 159q3 65 1 167q0 39 -2 130q-36 -30 -105 -31q-70 -2 -121 32q-60 41 -60 118
q0 64 50 64q42 0 42 -38q0 -36 -30 -39q13 -13 36 -14q45 0 133 56q51 37 103 73q24 16 32 16t24 -16q38 -34 91 -83q13 -13 3 -22q-11 -11 -19 -18q4 -127 4 -242q0 -109 -1 -130q-1 -51 -4 -151q12 -2 33 -2q4 0 18.5 -1t18.5 -1zM463 1143q-1 -10 -3 -13
q-55 -105 -141 -105q-41 0 -106 34.5t-90 34.5q-24 0 -35.5 -13.5t-14.5 -13.5q-5 0 -15.5 9.5t-10.5 14.5q0 13 37 46q34 30 53 40q36 18 70 18q42 0 105 -28t80 -28q15 0 28 12.5t17 12.5q26 0 26 -21z" />
    <glyph glyph-name="adieresis" unicode="&#xe4;" horiz-adv-x="549" 
d="M534 332q-14 -16 -30 -28q-30 -24 -85 -75q-11 -12 -29 -35q-23 -27 -70 -23q-11 0 -29 8q-7 7 -14 27q-5 11 -11 26q-13 -10 -35.5 -25.5t-35.5 -25.5q-20 -15 -27.5 -17t-29.5 -1q-31 2 -39 14t-15 31q-13 34 -35 101q-14 41 -37 114q-9 31 -11 45q-4 22 0 35
q7 25 55 70q29 27 74 50q33 17 59 26q11 4 42 12q11 0 33 -8q2 -11 -6 -15q-17 -13 -44 -36q-16 -14 -38 -38q0 -34 1 -48q1 -18 10 -64q5 -26 19 -66q16 -50 35 -103q24 12 36 22q3 46 10 159q3 65 1 167q0 39 -2 130q-36 -30 -105 -31q-70 -2 -121 32q-60 41 -60 118
q0 64 50 64q42 0 42 -38q0 -36 -30 -39q13 -13 36 -14q45 0 133 56q51 37 103 73q24 16 32 16t24 -16q38 -34 91 -83q13 -13 3 -22q-11 -11 -19 -18q4 -127 4 -242q0 -109 -1 -130q-1 -51 -4 -151q12 -2 33 -2q4 0 18.5 -1t18.5 -1zM485 1127q2 -11 -7 -18l-68 -56
q-28 -23 -36 -23q-15 0 -21.5 10.5t-15.5 29.5q-5 12 -16 34q-3 7 -13 3l-17 -6q-7 -3 -11 6q-7 13 3 20l12 10q34 26 101 76q16 11 25 -9q5 -10 12 -30q6 -13 16 -34q7 -17 16 -11l10 8q7 5 10 -10zM247 1127q2 -11 -7 -18l-68 -56q-27 -23 -35 -23q-16 0 -22.5 10.5
t-15.5 29.5q-5 12 -15 34q-4 7 -14 3l-16 -6q-7 -3 -12 6q-7 13 4 20l12 10q33 26 101 76q15 11 24 -9q5 -10 13 -30q6 -13 15 -34q8 -17 16 -11l11 8q6 5 9 -10z" />
    <glyph glyph-name="aring" unicode="&#xe5;" horiz-adv-x="549" 
d="M354 1062q0 -20 -13 -35.5t-36 -40.5q-22 -17 -54 -17q-64 -1 -101 33q-29 28 -30 73q0 23 15 45q28 43 112 84l5 -5q-3 -4 -7 -6q42 -16 69 -42q40 -39 40 -89zM290 1052q0 32 -20 56q-38 42 -39 44q-44 -34 -44 -63q0 -49 58 -62q6 -1 19.5 1.5t25.5 23.5zM534 332
q-14 -16 -30 -28q-30 -24 -85 -75q-11 -12 -29 -35q-23 -27 -70 -23q-11 0 -29 8q-7 7 -14 27q-5 11 -11 26q-13 -10 -35.5 -25.5t-35.5 -25.5q-20 -15 -27.5 -17t-29.5 -1q-31 2 -39 14t-15 31q-13 34 -35 101q-14 41 -37 114q-9 31 -11 45q-4 22 0 35q7 25 55 70
q29 27 74 50q33 17 59 26q11 4 42 12q11 0 33 -8q2 -11 -6 -15q-17 -13 -44 -36q-16 -14 -38 -38q0 -34 1 -48q1 -18 10 -64q5 -26 19 -66q16 -50 35 -103q24 12 36 22q3 46 10 159q3 65 1 167q0 39 -2 130q-36 -30 -105 -31q-70 -2 -121 32q-60 41 -60 118q0 64 50 64
q42 0 42 -38q0 -36 -30 -39q13 -13 36 -14q45 0 133 56q51 37 103 73q24 16 32 16t24 -16q38 -34 91 -83q13 -13 3 -22q-11 -11 -19 -18q4 -127 4 -242q0 -109 -1 -130q-1 -51 -4 -151q12 -2 33 -2q4 0 18.5 -1t18.5 -1z" />
    <glyph glyph-name="ae" unicode="&#xe6;" horiz-adv-x="832" 
d="M772 665q-8 -15 -24 -41q-9 -14 -32 -45q-11 -14 -24 -9q-9 3 -29 8q-45 12 -134 34q-35 7 -67 7q0 -48 -1 -78q-1 -72 1 -136q0 -39 4 -118q2 -15 10 -29q16 -29 54 -57q16 -11 21 -1q16 19 39 50q21 39 27 60q20 70 27 109q4 20 11 13q6 -7 17 -22q9 -11 24 -33l22 -32
q8 -12 5 -18q-12 -16 -40 -55q-19 -20 -53 -58q-20 -19 -52 -52q-12 -14 -27 -15h-42q-13 0 -42 3q-22 3 -102 80q-7 8 -32 34q-37 -30 -83 -67q-20 -14 -32 -23q-19 -14 -26 -16q-13 -3 -59 -1q-30 1 -37.5 12.5t-14.5 30.5q-13 33 -34 97q-13 40 -35 110q-9 29 -11 43
q-4 21 0 34q7 24 53 67q28 26 71 48q32 17 57 25q10 4 40 12q11 0 32 -8q2 -11 -6 -15q-16 -12 -42 -34q-16 -14 -37 -37q0 -32 1 -46q1 -17 10 -61q5 -25 18 -64q16 -47 34 -99q23 12 34 21q3 44 10 153q3 62 1 161q0 37 -2 125q-34 -29 -101 -30q-68 -2 -116 31
q-58 39 -58 113q0 62 48 62q40 0 40 -37q0 -35 -28 -37q12 -13 34 -13q44 -1 128 53q49 35 99 70q24 16 31 16q8 0 24 -17t38 -36q17 12 62 46q18 14 29 15q20 0 28 -3q25 -8 79 -34q25 -11 75 -38q11 -8 15 -20q9 -22 35 -91q3 -7 32 -86q9 -23 3 -31zM615 661
q-15 40 -40 104q-12 30 -30 77q-28 80 -45 67q-7 -6 -12 -15q-7 -13 -13 -49q-8 -44 -13 -167q23 1 58 -2q16 -2 50 -7q30 -7 45 -8z" />
    <glyph glyph-name="ccedilla" unicode="&#xe7;" horiz-adv-x="532" 
d="M497 397q0 -7 -11 -26q-31 -54 -69 -105q-20 -27 -35 -39t-47 -14q-26 -1 -63 -2q-25 -1 -40 -1q-23 1 -41 3q-13 2 -42 26q-20 14 -54 44q-18 18 -53 54l-30 29q-4 5 -8 28t-4 56q0 16 2 52.5t2 56.5v85q-1 42 3 125q-1 8 4 57q0 9 13 28q32 28 94 79q27 22 81 65
q26 19 41 17q85 -12 141 -51q97 -68 97 -182q0 -63 -28 -116q-33 -61 -84 -61q-59 0 -59 55q0 65 60 65q40 0 43 -48q12 25 11 50q-1 48 -71 90l-92 34q-39 20 -35 100l-6 -3q-13 -23 -19 -58.5t-9 -87.5q-1 -7 -3 -133q0 -25 -1 -76q-1 -70 1 -131q0 -39 4 -115
q1 -15 8.5 -29t30.5 -32q16 -13 33 -24q14 -9 21 3q2 4 13 32q9 23 25 65q5 12 32 105q5 18 10 12q11 -6 29 -17q22 -15 66 -40q39 -19 39 -25zM392 120q0 -80 -102 -131q-6 -4 -15 -3q-28 3 -85 9q-11 0 -24 13q0 6 -1 20l-2 28q-1 18 3 19q3 1 15 -5q21 -10 84 -35
q3 -2 7 -2q6 1 15 8q29 23 29 55q0 56 -93 60q-11 0 -14 -8t-6 -8q-9 0 -6 15q6 17 15.5 47t39.5 30q39 0 84 -27q56 -35 56 -85z" />
    <glyph glyph-name="egrave" unicode="&#xe8;" horiz-adv-x="561" 
d="M501 565q-9 -15 -25 -41q-9 -14 -32 -45q-11 -14 -24 -9q-8 3 -29 8q-45 12 -134 34q-35 7 -67 7v-78q-2 -72 0 -136q0 -39 4 -118q2 -15 10 -29q16 -29 54 -57q16 -11 21 -1q16 19 39 50q21 39 27 60q20 70 27 109q4 20 11 13q6 -7 17 -22q9 -11 24 -33q11 -17 22 -32
q8 -12 5 -18q-12 -16 -40 -55q-19 -20 -53 -58q-20 -19 -52 -52q-12 -14 -27 -15h-42q-13 0 -42 3q-22 3 -102 80q-18 19 -54 56l-31 31q-11 11 -8 27q3 20 3 49v113q0 23 -1 87q-1 42 -1 64q5 56 17 135q1 9 15 29q29 23 90 70q1 1 81 62q18 14 29 15q20 0 28 -3
q25 -8 79 -34q26 -11 75 -38q11 -8 15 -20q9 -22 35 -91q3 -6 33 -86q8 -23 3 -31zM343 561q-15 40 -40 104q-12 30 -29 77q-29 80 -46 67q-7 -6 -12 -15q-7 -13 -13 -49q-8 -44 -13 -167q23 1 58 -2q16 -2 50 -7q31 -7 45 -8zM377 930q0 -11 -46 -23q-40 -11 -59 -11
q-64 0 -108.5 61t-61.5 61q-4 0 -13 -2.5t-13 -2.5q-12 0 -12 20q0 4 7 9q56 39 103 39q60 0 100.5 -67.5t70.5 -67.5q5 0 12.5 3.5t10.5 3.5q9 0 9 -23z" />
    <glyph glyph-name="eacute" unicode="&#xe9;" horiz-adv-x="561" 
d="M501 565q-9 -15 -25 -41q-9 -14 -32 -45q-11 -14 -24 -9q-8 3 -29 8q-45 12 -134 34q-35 7 -67 7v-78q-2 -72 0 -136q0 -39 4 -118q2 -15 10 -29q16 -29 54 -57q16 -11 21 -1q16 19 39 50q21 39 27 60q20 70 27 109q4 20 11 13q6 -7 17 -22q9 -11 24 -33q11 -17 22 -32
q8 -12 5 -18q-12 -16 -40 -55q-19 -20 -53 -58q-20 -19 -52 -52q-12 -14 -27 -15h-42q-13 0 -42 3q-22 3 -102 80q-18 19 -54 56l-31 31q-11 11 -8 27q3 20 3 49v113q0 23 -1 87q-1 42 -1 64q5 56 17 135q1 9 15 29q29 23 90 70q1 1 81 62q18 14 29 15q20 0 28 -3
q25 -8 79 -34q26 -11 75 -38q11 -8 15 -20q9 -22 35 -91q3 -6 33 -86q8 -23 3 -31zM343 561q-15 40 -40 104q-12 30 -29 77q-29 80 -46 67q-7 -6 -12 -15q-7 -13 -13 -49q-8 -44 -13 -167q23 1 58 -2q16 -2 50 -7q31 -7 45 -8zM457 1045q0 -20 -11 -20q-5 0 -14 2.5t-14 2.5
q-17 0 -64 -61t-114 -61q-19 0 -62 10q-48 13 -48 24q0 23 10 23q3 0 11 -3.5t13 -3.5q31 0 73.5 67.5t105.5 67.5q49 0 108 -39q6 -5 6 -9z" />
    <glyph glyph-name="ecircumflex" unicode="&#xea;" horiz-adv-x="561" 
d="M501 565q-9 -15 -25 -41q-9 -14 -32 -45q-11 -14 -24 -9q-8 3 -29 8q-45 12 -134 34q-35 7 -67 7v-78q-2 -72 0 -136q0 -39 4 -118q2 -15 10 -29q16 -29 54 -57q16 -11 21 -1q16 19 39 50q21 39 27 60q20 70 27 109q4 20 11 13q6 -7 17 -22q9 -11 24 -33q11 -17 22 -32
q8 -12 5 -18q-12 -16 -40 -55q-19 -20 -53 -58q-20 -19 -52 -52q-12 -14 -27 -15h-42q-13 0 -42 3q-22 3 -102 80q-18 19 -54 56l-31 31q-11 11 -8 27q3 20 3 49v113q0 23 -1 87q-1 42 -1 64q5 56 17 135q1 9 15 29q29 23 90 70q1 1 81 62q18 14 29 15q20 0 28 -3
q25 -8 79 -34q26 -11 75 -38q11 -8 15 -20q9 -22 35 -91q3 -6 33 -86q8 -23 3 -31zM343 561q-15 40 -40 104q-12 30 -29 77q-29 80 -46 67q-7 -6 -12 -15q-7 -13 -13 -49q-8 -44 -13 -167q23 1 58 -2q16 -2 50 -7q31 -7 45 -8zM433 1007q7 -7 -5 -22q-33 -42 -42 -52
q-31 -33 -53 -34q-38 -1 -92 67q-39 -37 -72 -59q-12 -7 -16 -8q-6 0 -16 7q-34 21 -68 45q0 10 6 14q21 15 57 41q18 12 65 48q23 21 58 51q10 -3 17 -11q-12 -13 -21 -26q14 2 29 -5q32 -23 93 -65q9 -5 15 -5q-1 0 12 3q6 5 18 12q8 5 15 -1z" />
    <glyph glyph-name="edieresis" unicode="&#xeb;" horiz-adv-x="561" 
d="M501 565q-9 -15 -25 -41q-9 -14 -32 -45q-11 -14 -24 -9q-8 3 -29 8q-45 12 -134 34q-35 7 -67 7v-78q-2 -72 0 -136q0 -39 4 -118q2 -15 10 -29q16 -29 54 -57q16 -11 21 -1q16 19 39 50q21 39 27 60q20 70 27 109q4 20 11 13q6 -7 17 -22q9 -11 24 -33q11 -17 22 -32
q8 -12 5 -18q-12 -16 -40 -55q-19 -20 -53 -58q-20 -19 -52 -52q-12 -14 -27 -15h-42q-13 0 -42 3q-22 3 -102 80q-18 19 -54 56l-31 31q-11 11 -8 27q3 20 3 49v113q0 23 -1 87q-1 42 -1 64q5 56 17 135q1 9 15 29q29 23 90 70q1 1 81 62q18 14 29 15q20 0 28 -3
q25 -8 79 -34q26 -11 75 -38q11 -8 15 -20q9 -22 35 -91q3 -6 33 -86q8 -23 3 -31zM343 561q-15 40 -40 104q-12 30 -29 77q-29 80 -46 67q-7 -6 -12 -15q-7 -13 -13 -49q-8 -44 -13 -167q23 1 58 -2q16 -2 50 -7q31 -7 45 -8zM481 991q2 -11 -7 -18l-68 -57
q-27 -22 -36 -22q-15 -1 -21.5 10t-15.5 30q-5 11 -15 34q-4 7 -14 3l-17 -7q-6 -3 -11 6q-7 13 3 21l13 10q33 26 100 76q16 11 25 -10q5 -9 12 -29q6 -13 16 -34q7 -18 16 -11l11 8q6 4 9 -10zM243 991q2 -11 -7 -18l-68 -57q-27 -22 -35 -22q-15 -1 -22 10t-16 30
q-5 11 -15 34q-4 7 -14 3l-16 -7q-7 -3 -12 6q-6 13 4 21l12 10q33 26 101 76q15 11 24 -10q5 -9 13 -29q6 -13 14.5 -32.5t16.5 -12.5l11 8q6 4 9 -10z" />
    <glyph glyph-name="igrave" unicode="&#xec;" horiz-adv-x="432" 
d="M412 74l-9 -13q-6 -9 -24 0l-161 79q-33 17 -47 30q-23 22 -23 59q0 11 -1.5 49.5t-1.5 56.5q0 13 -1 67v79q0 90 -1 154q2 42 -3 170q-3 32 -27 27l-42 -9q-12 -3 -14 10q-1 17 6 20q24 9 70 28q36 16 96 42q40 20 97 45q8 3 16.5 -2.5t8.5 -12.5q0 -5 -3 -8
q-36 -35 -36 -65q0 -31 3 -90q1 -75 4 -220q1 -29 4 -96q3 -58 3 -79q0 -104 -2 -144q-1 -39 0 -65q1 -27 3 -32q4 -12 22 -24l54 -35q16 -10 9 -21zM355 1026q0 -11 -46 -23q-41 -11 -60 -11q-64 0 -108.5 61t-60.5 61q-5 0 -13.5 -2.5t-13.5 -2.5q-11 0 -11 20q0 4 7 9
q56 39 103 39q60 0 100 -67.5t71 -67.5q4 0 12 3.5t11 3.5q9 0 9 -23z" />
    <glyph glyph-name="iacute" unicode="&#xed;" horiz-adv-x="462" 
d="M419 74l-9 -13q-6 -9 -25 0l-160 79q-34 17 -47 30q-24 22 -23 59q0 11 -1.5 49.5t-1.5 56.5q0 13 -1 67q-1 51 -1 79q0 90 -1 154q3 42 -2 170q-3 32 -28 27l-41 -9q-13 -3 -14 10q-2 17 5 20q25 9 71 28q35 16 96 42q39 20 96 45q8 3 17 -2.5t9 -12.5q-1 -5 -3 -8
q-36 -35 -36 -65q0 -31 2 -90q2 -75 5 -220q0 -29 3 -96q3 -58 3 -79q0 -104 -1 -144q-2 -39 0 -65q1 -27 3 -32q4 -12 22 -24l53 -35q16 -10 10 -21zM427 1125q0 -21 -12 -21q-4 0 -13 3t-14 3q-17 0 -64 -61t-114 -61q-19 0 -62 10q-48 13 -48 24q0 23 9 23q4 0 12 -4
t13 -4q31 0 73 68t106 68q49 0 107 -39q7 -5 7 -9z" />
    <glyph glyph-name="icircumflex" unicode="&#xee;" horiz-adv-x="458" 
d="M417 74l-9 -13q-6 -9 -24 0l-160 79q-34 17 -48 30q-23 22 -23 59q0 11 -1 49.5t-1 56.5q0 13 -1 67q-1 51 -1 79q0 90 -1 154q2 42 -3 170q-3 32 -27 27l-41 -9q-13 -3 -14 10q-2 17 5 20q24 9 70 28q36 16 97 42q39 20 96 45q8 3 17 -2.5t9 -12.5q-1 -5 -4 -8
q-35 -35 -35 -65q0 -31 2 -90q2 -75 4 -220q1 -29 4 -96q3 -58 3 -79q0 -104 -2 -144q-1 -39 0 -65q2 -27 3 -32q4 -12 23 -24l53 -35q16 -10 9 -21zM423 1109q7 -7 -5 -22q-33 -42 -42 -52q-31 -33 -52 -34q-39 -1 -92 67q-39 -37 -73 -59q-12 -8 -16 -8q-6 0 -16 7
q-33 21 -67 45q0 10 6 14q20 15 56 41q18 12 65 48q23 21 59 51q10 -3 17 -11q-12 -13 -22 -26q15 2 29 -5q32 -23 94 -65q9 -5 15 -5q-1 0 12 3q6 5 18 12q8 5 14 -1z" />
    <glyph glyph-name="idieresis" unicode="&#xef;" horiz-adv-x="454" 
d="M412 74l-9 -13q-6 -9 -25 0l-160 79q-34 17 -47 30q-24 22 -23 59q0 11 -1.5 49.5t-1.5 56.5q0 13 -1 67q-1 51 -1 79q0 90 -1 154q3 42 -2 170q-3 32 -28 27l-41 -9q-13 -3 -14 10q-1 17 6 20q24 9 70 28q36 16 96 42q40 20 96 45q8 3 17 -2.5t9 -12.5q0 -5 -3 -8
q-36 -35 -36 -65q0 -31 3 -90q1 -75 4 -220q1 -29 4 -96q2 -58 2 -79q0 -104 -1 -144q-2 -39 0 -65q1 -27 3 -32q4 -12 22 -24l54 -35q15 -10 9 -21zM424 1109q2 -11 -6 -19l-60 -55q-24 -22 -31 -23q-13 0 -19 10.5t-14 29.5q-4 11 -13 34q-4 7 -13 3l-14 -7q-6 -3 -10 6
q-6 13 3 21l11 9q29 26 88 75q14 11 22 -9q4 -10 11 -29q5 -13 13 -34q7 -17 15 -11l9 8q6 5 8 -9zM215 1109q2 -11 -6 -19l-60 -55q-24 -22 -31 -23q-13 0 -19 10.5t-14 29.5q-4 11 -13 34q-4 7 -13 3l-14 -7q-6 -3 -10 6q-6 13 3 21l11 9q29 26 88 75q14 11 22 -9
q4 -10 11 -29q5 -13 13 -34q7 -17 15 -11l9 8q6 5 8 -9z" />
    <glyph glyph-name="ntilde" unicode="&#xf1;" horiz-adv-x="696" 
d="M666 -160q-5 -10 -21 -34q-40 -48 -83 -82q-14 -11 -54 -34q-21 -12 -38 1q-47 35 -106 90q-35 32 -39 52q-3 16 4.5 37.5t28.5 38.5h28q-38 -43 -32 -71q2 -12 17 -21q11 -6 25 -4q17 4 47 26q25 19 39 37q-19 10 -25 16q-22 20 -26 58q-3 33 -3 106q0 32 2 88
q3 60 4 84q1 101 1 121q-3 137 -6 200q-3 37 -8 105q-2 29 -27 36q-14 4 -48 -12q-37 -17 -56 -31v-137q2 -193 2 -247v-150l-2 -72q0 -18 -4 -22q-5 -7 -30 -9q-15 0 -59 -2l-140 -7q-12 -1 -13 3q0 4 18 15l28 18q24 15 24 49v400v182q0 21 -7 27q-7 5 -24 0l-64 -21
q-19 -6 -19 3q0 6 14 16l189 128q30 20 42 20q18 0 23.5 -3t7.5 -19l9 -60q34 18 113 51q20 8 41 -3t53 -37q50 -42 73 -66q15 -16 20 -43q9 -52 15 -115q7 -75 8 -116q2 -47 5 -118q0 -74 -4 -164q-4 -82 -3 -162q0 -29 6 -80q0 -4 5 -18q0 -8 30 -27l14 -5q12 -4 5 -16z
M556 986q-1 -10 -3 -13q-55 -105 -141 -105q-41 0 -106 34.5t-90 34.5q-24 0 -35.5 -13.5t-14.5 -13.5q-5 0 -15.5 9.5t-10.5 14.5q0 13 37 46q34 30 53 40q36 18 70 18q42 0 105 -28t80 -28q15 0 28 12.5t17 12.5q26 0 26 -21z" />
    <glyph glyph-name="ograve" unicode="&#xf2;" horiz-adv-x="656" 
d="M586 282q-1 -59 -12 -107q-7 -25 -19 -50q-16 -32 -119 -80q-78 -37 -113 -43q-25 -4 -50 15q-47 35 -91 76q-18 17 -58 56q-19 18 -38 43q-6 6 -13 36q-4 101 -2 231q2 39 4 118q-47 17 -75 20q-3 25 14 55q4 -1 36 -11q10 -4 30 -11q2 12 7 43q2 12 15 21q45 25 118 67
q57 34 121 61q20 8 43 -3q16 -9 64 -40.5t80 -65.5q21 -22 25 -46q14 -74 19 -134q6 -51 12 -133q3 -70 2 -118zM369 732q1 14 -2 24q-38 -27 -116 -80q-1 -6 -1 -25q0 -3 1 -10v-12q16 5 33 14q11 5 40 23q23 16 31 31q12 22 14 35zM400 346q-1 69 -5 136q-4 60 -9 105
q-2 15 -20 16q-27 2 -48 -5q-32 -10 -67 -25v-153q1 -52 5 -163q1 -42 6 -124q1 -11 11 -23.5t27 -28.5q8 -9 23 -4q20 5 49 21q11 5 14 25q6 37 10 95q5 76 4 128zM395 875q-1 -11 -48 -21q-41 -9 -59 -8q-64 4 -105.5 67t-57.5 64q-5 0 -14 -2t-13 -2q-11 1 -10 21
q0 4 7 8q58 36 105 34q60 -4 96.5 -73t66.5 -71q5 0 13 3.5t11 2.5q1 0 2 -1q7 -5 6 -22z" />
    <glyph glyph-name="oacute" unicode="&#xf3;" horiz-adv-x="656" 
d="M586 282q-1 -59 -12 -107q-7 -25 -19 -50q-16 -32 -119 -80q-78 -37 -113 -43q-25 -4 -50 15q-47 35 -91 76q-18 17 -58 56q-19 18 -38 43q-6 6 -13 36q-4 101 -2 231q2 39 4 118q-47 17 -75 20q-3 25 14 55q4 -1 36 -11q10 -4 30 -11q2 12 7 43q2 12 15 21q45 25 118 67
q57 34 121 61q20 8 43 -3q16 -9 64 -40.5t80 -65.5q21 -22 25 -46q14 -74 19 -134q6 -51 12 -133q3 -70 2 -118zM369 732q1 14 -2 24q-38 -27 -116 -80q-1 -6 -1 -25q0 -3 1 -10v-12q16 5 33 14q11 5 40 23q23 16 31 31q12 22 14 35zM400 346q-1 69 -5 136q-4 60 -9 105
q-2 15 -20 16q-27 2 -48 -5q-32 -10 -67 -25v-153q1 -52 5 -163q1 -42 6 -124q1 -11 11 -23.5t27 -28.5q8 -9 23 -4q20 5 49 21q11 5 14 25q6 37 10 95q5 76 4 128zM538 1047q3 -20 -8 -22q-10 1 -29 0q-17 -3 -52 -71t-101 -80q-20 -3 -63 0q-50 3 -52 14q-4 23 6 25
q3 1 11.5 -1.5t13.5 -1.5q31 5 60.5 79t92.5 85q48 8 113 -20q3 -1 8 -7z" />
    <glyph glyph-name="ocircumflex" unicode="&#xf4;" horiz-adv-x="656" 
d="M586 282q-1 -59 -12 -107q-7 -25 -19 -50q-16 -32 -119 -80q-78 -37 -113 -43q-25 -4 -50 15q-47 35 -91 76q-18 17 -58 56q-19 18 -38 43q-6 6 -13 36q-4 101 -2 231q2 39 4 118q-47 17 -75 20q-3 25 14 55q4 -1 36 -11q10 -4 30 -11q2 12 7 43q2 12 15 21q45 25 118 67
q57 34 121 61q20 8 43 -3q16 -9 64 -40.5t80 -65.5q21 -22 25 -46q14 -74 19 -134q6 -51 12 -133q3 -70 2 -118zM369 732q1 14 -2 24q-38 -27 -116 -80q-1 -6 -1 -25q0 -3 1 -10v-12q16 5 33 14q11 5 40 23q23 16 31 31q12 22 14 35zM400 346q-1 69 -5 136q-4 60 -9 105
q-2 15 -20 16q-27 2 -48 -5q-32 -10 -67 -25v-153q1 -52 5 -163q1 -42 6 -124q1 -11 11 -23.5t27 -28.5q8 -9 23 -4q20 5 49 21q11 5 14 25q6 37 10 95q5 76 4 128zM533 969q7 -6 -5 -22q-32 -42 -42 -52q-31 -33 -52 -34q-39 -1 -92 68q-39 -38 -72 -59q-13 -8 -16 -8
q-7 0 -17 6q-33 21 -67 46q0 10 6 13q20 15 57 41q17 13 65 49q23 20 58 51q10 -4 17 -11q-12 -14 -22 -26q15 1 30 -5q32 -23 93 -66q9 -5 15 -5q-1 0 12 3q6 5 18 13q8 4 14 -2z" />
    <glyph glyph-name="otilde" unicode="&#xf5;" horiz-adv-x="656" 
d="M586 282q-1 -59 -12 -107q-7 -25 -19 -50q-16 -32 -119 -80q-78 -37 -113 -43q-25 -4 -50 15q-47 35 -91 76q-18 17 -58 56q-19 18 -38 43q-6 6 -13 36q-4 101 -2 231q2 39 4 118q-47 17 -75 20q-3 25 14 55q4 -1 36 -11q10 -4 30 -11q2 12 7 43q2 12 15 21q45 25 118 67
q57 34 121 61q20 8 43 -3q16 -9 64 -40.5t80 -65.5q21 -22 25 -46q14 -74 19 -134q6 -51 12 -133q3 -70 2 -118zM369 732q1 14 -2 24q-38 -27 -116 -80q-1 -6 -1 -25q0 -3 1 -10v-12q16 5 33 14q11 5 40 23q23 16 31 31q12 22 14 35zM400 346q-1 69 -5 136q-4 60 -9 105
q-2 15 -20 16q-27 2 -48 -5q-32 -10 -67 -25v-153q1 -52 5 -163q1 -42 6 -124q1 -11 11 -23.5t27 -28.5q8 -9 23 -4q20 5 49 21q11 5 14 25q6 37 10 95q5 76 4 128zM526 979q-1 -10 -3 -13q-55 -105 -141 -105q-41 0 -106 34.5t-90 34.5q-24 0 -35.5 -13.5t-14.5 -13.5
q-5 0 -15.5 9.5t-10.5 14.5q0 13 37 46q34 30 53 40q36 18 70 18q42 0 105 -28t80 -28q15 0 28 12.5t17 12.5q26 0 26 -21z" />
    <glyph glyph-name="odieresis" unicode="&#xf6;" horiz-adv-x="656" 
d="M586 282q-1 -59 -12 -107q-7 -25 -19 -50q-16 -32 -119 -80q-78 -37 -113 -43q-25 -4 -50 15q-47 35 -91 76q-18 17 -58 56q-19 18 -38 43q-6 6 -13 36q-4 101 -2 231q2 39 4 118q-47 17 -75 20q-3 25 14 55q4 -1 36 -11q10 -4 30 -11q2 12 7 43q2 12 15 21q45 25 118 67
q57 34 121 61q20 8 43 -3q16 -9 64 -40.5t80 -65.5q21 -22 25 -46q14 -74 19 -134q6 -51 12 -133q3 -70 2 -118zM369 732q1 14 -2 24q-38 -27 -116 -80q-1 -6 -1 -25q0 -3 1 -10v-12q16 5 33 14q11 5 40 23q23 16 31 31q12 22 14 35zM400 346q-1 69 -5 136q-4 60 -9 105
q-2 15 -20 16q-27 2 -48 -5q-32 -10 -67 -25v-153q1 -52 5 -163q1 -42 6 -124q1 -11 11 -23.5t27 -28.5q8 -9 23 -4q20 5 49 21q11 5 14 25q6 37 10 95q5 76 4 128zM548 950q2 -11 -7 -19l-68 -56q-27 -23 -35 -23q-16 0 -22.5 10.5t-15.5 29.5q-5 12 -15 34q-4 8 -14 3
l-16 -6q-7 -3 -12 6q-7 13 3 21l13 9q33 26 100 76q16 11 25 -9q5 -10 13 -30q5 -13 15 -34q8 -17 16 -11l11 8q6 5 9 -9zM310 950q2 -11 -6 -19l-69 -56q-27 -23 -35 -23q-15 0 -21.5 10.5t-16.5 29.5q-5 12 -15 34q-4 8 -14 3l-16 -6q-7 -3 -12 6q-6 13 4 21l12 9
q33 26 101 76q15 11 24 -9q5 -10 13 -30q6 -13 15 -34q8 -17 16 -11l11 8q6 5 9 -9z" />
    <glyph glyph-name="divide" unicode="&#xf7;" horiz-adv-x="769" 
d="M463 835q3 -13 -8 -22l-90 -68q-36 -28 -47 -28q-20 0 -29 11q-8 15 -20 38q-7 14 -20 41q-5 9 -18 4l-22 -8q-9 -4 -15 7q-9 16 5 25l16 11q24 18 70 49q25 18 62 44q21 13 33 -12q6 -12 16 -36q8 -15 19 -38.5t22 -15.5l14 10q9 5 12 -12zM702 506q4 -5 5 -9
q0 -18 -33 -9q-74 19 -202 26q-138 8 -320 -19q-28 -4 -39 9q-41 60 -67 104q-11 20 -11 23q0 7 29 12q139 25 304 28q100 1 172 -10q20 -3 36 -17q53 -60 126 -138zM503 355q3 -13 -8 -22l-90 -68q-36 -28 -47 -28q-20 0 -29 11q-8 15 -20 38q-7 14 -20 41q-5 9 -18 4
l-22 -8q-9 -4 -15 7q-9 16 5 25l16 11q24 18 70 49q25 18 62 44q21 13 33 -12q6 -12 16 -36q8 -15 19 -38.5t22 -15.5l14 10q9 5 12 -12z" />
    <glyph glyph-name="oslash" unicode="&#xf8;" horiz-adv-x="555" 
d="M525 293q-1 -58 -12 -105q-6 -24 -19 -49q-15 -32 -116 -79q-77 -36 -111 -42q-24 -4 -49 15q-29 21 -56 44l-29 -76q6 -11 6 -25q0 -49 -45 -49t-45 49q0 41 37 48l35 91q-16 15 -49 47q-19 18 -37 42q-7 7 -14 36q-3 99 -1 226q1 72 4 116q3 39 12 94q2 12 14 21
q44 25 116 66q56 33 118 59q20 9 43 -3q16 -8 53 -33l17 44q-9 13 -9 29q0 49 45 49t45 -49q0 -36 -32 -47l-22 -58q28 -22 44 -39q21 -21 25 -45q13 -72 18 -131q6 -50 12 -131q2 -69 2 -115zM323 637q-12 90 -11 97q1 14 -2 24q-38 -27 -114 -79v-101v-150q1 -45 3 -110z
M342 356q-1 73 -5 133l-2 35l-131 -337q2 -22 3 -40q1 -12 10.5 -24t26.5 -28q9 -8 23 -4q19 6 48 21q11 5 14 25q6 36 9 92q5 75 4 127z" />
    <glyph glyph-name="ugrave" unicode="&#xf9;" horiz-adv-x="635" 
d="M595 245q1 -14 -8 -18q-31 -14 -99 -45q-51 -25 -111 -60q-17 -9 -20 -9q-9 0 -26 8q-57 31 -111 51q-96 35 -131 40q-27 4 -39 3q-6 -1 -19 -6q-22 -9 -24 -7q-11 7 8 19q6 3 25 14v273q0 171 -3 232q-3 58 -8 86q-8 52 -26 82q-8 13 -3 22q5 8 25 3q30 -6 42 -5
q47 2 71 39q6 10 5 23q-1 22 -21 28q-12 -19 -32 -17q-33 3 -35 37q-1 18 12.5 30.5t32.5 12.5q59 -1 95 -59q33 -52 33 -119q0 -54 -8 -137.5t-8 -175.5q0 -246 -9 -279q31 17 69 16q39 -1 71 -18q0 13 -1.5 67.5t-1.5 79.5q0 63 11 191l29 209q4 26 -9 32q-6 0 -25 7
l-16 9q-14 8 -9 19l3 7q6 12 34 2q55 -21 183 -42q32 -5 32 -27q0 -5 -4 -21q-58 -236 -58 -420q-1 -62 11 -151q4 -32 25 -26l31 9q17 5 17 -9zM439 1036q-2 -10 -50 -10q-42 0 -60 5q-62 17 -89.5 87t-42.5 74q-5 2 -14 1.5t-14 0.5q-11 3 -5 23q1 4 8 6q65 23 110 11
q58 -15 79.5 -90.5t50.5 -83.5q5 -1 13 0q9 2 12 1q8 -2 2 -25z" />
    <glyph glyph-name="uacute" unicode="&#xfa;" horiz-adv-x="635" 
d="M595 245q1 -14 -8 -18q-31 -14 -99 -45q-51 -25 -111 -60q-17 -9 -20 -9q-9 0 -26 8q-57 31 -111 51q-96 35 -131 40q-27 4 -39 3q-6 -1 -19 -6q-22 -9 -24 -7q-11 7 8 19q6 3 25 14v273q0 171 -3 232q-3 58 -8 86q-8 52 -26 82q-8 13 -3 22q5 8 25 3q30 -6 42 -5
q47 2 71 39q6 10 5 23q-1 22 -21 28q-12 -19 -32 -17q-33 3 -35 37q-1 18 12.5 30.5t32.5 12.5q59 -1 95 -59q33 -52 33 -119q0 -54 -8 -137.5t-8 -175.5q0 -246 -9 -279q31 17 69 16q39 -1 71 -18q0 13 -1.5 67.5t-1.5 79.5q0 63 11 191l29 209q4 26 -9 32q-6 0 -25 7
l-16 9q-14 8 -9 19l3 7q6 12 34 2q55 -21 183 -42q32 -5 32 -27q0 -5 -4 -21q-58 -236 -58 -420q-1 -62 11 -151q4 -32 25 -26l31 9q17 5 17 -9zM551 1149q0 -21 -11 -21q-5 0 -14 3t-14 3q-17 0 -64 -61t-114 -61q-19 0 -62 10q-48 13 -48 24q0 23 10 23q3 0 11 -4t13 -4
q31 0 73.5 68t105.5 68q49 0 108 -40q6 -4 6 -8z" />
    <glyph glyph-name="ucircumflex" unicode="&#xfb;" horiz-adv-x="635" 
d="M595 245q1 -14 -8 -18q-31 -14 -99 -45q-51 -25 -111 -60q-17 -9 -20 -9q-9 0 -26 8q-57 31 -111 51q-96 35 -131 40q-27 4 -39 3q-6 -1 -19 -6q-22 -9 -24 -7q-11 7 8 19q6 3 25 14v273q0 171 -3 232q-3 58 -8 86q-8 52 -26 82q-8 13 -3 22q5 8 25 3q30 -6 42 -5
q47 2 71 39q6 10 5 23q-1 22 -21 28q-12 -19 -32 -17q-33 3 -35 37q-1 18 12.5 30.5t32.5 12.5q59 -1 95 -59q33 -52 33 -119q0 -54 -8 -137.5t-8 -175.5q0 -246 -9 -279q31 17 69 16q39 -1 71 -18q0 13 -1.5 67.5t-1.5 79.5q0 63 11 191l29 209q4 26 -9 32q-6 0 -25 7
l-16 9q-14 8 -9 19l3 7q6 12 34 2q55 -21 183 -42q32 -5 32 -27q0 -5 -4 -21q-58 -236 -58 -420q-1 -62 11 -151q4 -32 25 -26l31 9q17 5 17 -9zM529 1101q5 -8 -11 -20q-38 -29 -47 -35q-37 -24 -57 -24q-4 -1 -10 1q-37 8 -71 88q-47 -26 -85 -38q-14 -4 -18 -3
q-5 1 -13 10q-54 59 -54 61q3 10 10 12q23 9 65 25q20 7 75 30q28 14 69 34q9 -6 14 -15q-14 -10 -27 -20q14 -2 27 -12q24 -31 73 -87q7 -8 13 -9q-1 0 12 0q4 0 11.5 3.5t9.5 3.5q9 2 14 -5z" />
    <glyph glyph-name="udieresis" unicode="&#xfc;" horiz-adv-x="635" 
d="M552 1100q2 -11 -6 -18l-69 -56q-27 -23 -35 -23q-15 0 -21.5 10.5t-16.5 29.5q-5 12 -15 34q-3 7 -14 3l-16 -6q-7 -3 -11 6q-7 13 3 20l12 10q33 26 101 76q15 11 25 -9l12 -30q6 -13 15 -34q8 -17 16 -11l11 8q7 5 9 -10zM345 1173q2 -11 -7 -19l-68 -56
q-27 -23 -36 -23q-15 0 -21.5 10.5t-15.5 29.5q-5 12 -15 34q-4 8 -14 3l-17 -6q-7 -3 -11 6q-7 13 3 21l12 9q34 26 101 76q16 11 25 -9q5 -10 12 -30q6 -13 16 -34q7 -17 16 -11l10 8q7 5 10 -9zM595 245q1 -14 -8 -18q-31 -14 -99 -45q-51 -25 -111 -60q-17 -9 -20 -9
q-9 0 -26 8q-57 31 -111 51q-96 35 -131 40q-27 4 -39 3q-6 -1 -19 -6q-22 -9 -24 -7q-11 7 8 19q6 3 25 14v273q0 171 -3 232q-3 58 -8 86q-8 52 -26 82q-8 13 -3 22q5 8 25 3q30 -6 42 -5q47 2 71 39q6 10 5 23q-1 22 -21 28q-12 -19 -32 -17q-33 3 -35 37
q-1 18 12.5 30.5t32.5 12.5q59 -1 95 -59q33 -52 33 -119q0 -54 -8 -137.5t-8 -175.5q0 -246 -9 -279q31 17 69 16q39 -1 71 -18q0 13 -1.5 67.5t-1.5 79.5q0 63 11 191l29 209q4 26 -9 32q-6 0 -25 7l-16 9q-14 8 -9 19l3 7q6 12 34 2q55 -21 183 -42q32 -5 32 -27
q0 -5 -4 -21q-58 -236 -58 -420q-1 -62 11 -151q4 -32 25 -26l31 9q17 5 17 -9z" />
    <glyph glyph-name="yacute" unicode="&#xfd;" horiz-adv-x="826" 
d="M480 946q0 -12 -11.5 -14t-21.5 -3q-18 -7 -32 -60q-17 -60 -43 -87q-44 -45 -138 -45q-27 0 -27 23q0 9 20 9q32 0 44 52q20 78 30 96q32 53 109 53q62 0 68 -13q2 -3 2 -11zM782 843q0 -86 -80 -268q-43 -98 -103 -216q-84 -167 -130 -245q-61 -104 -96 -158
q-54 -75 -124 -173q-77 -115 -117 -163q-58 -69 -105 -106q-3 -3 -18 -2q-50 5 -154 22q-14 3 -15 4q-6 3 -6 14q-1 28 -4 91q0 12 11 26q36 41 100 114q5 6 7 6q5 0 -4 -20q-5 -10 -13 -35q-6 -33 -4 -125q41 36 103 119q175 236 189 279q-30 109 -48 172q-24 77 -60 194
q-13 40 -37 119q-9 32 -24 73q-10 11 -25.5 12.5t-16.5 7.5q-2 12 12 12q68 0 139 3l124 5q12 0 23 -7q0 -7 -13.5 -11.5t-22.5 -8t-12 -12.5t-1 -20q6 -25 24 -97q25 -83 65 -218q32 54 109 208l82 167q49 95 51 137q2 44 -20 47l-31 4q-36 4 1 19l177 75q20 9 49 -4
q18 -7 18 -41z" />
    <glyph glyph-name="ydieresis" unicode="&#xff;" horiz-adv-x="826" 
d="M573 931q2 -11 -6 -18l-69 -56q-27 -23 -35 -23q-15 0 -21.5 10.5t-16.5 29.5q-5 12 -15 34q-3 7 -14 3l-16 -6q-7 -3 -11 6q-7 13 3 20l12 10q33 26 101 76q15 11 25 -9l12 -30q6 -13 15 -34q8 -17 16 -11l11 8q7 5 9 -10zM341 808q2 -11 -7 -19l-68 -56
q-27 -22 -35 -22q-15 -1 -22 10t-16 30q-5 11 -15 34q-4 7 -14 3l-16 -7q-7 -3 -12 6q-7 13 4 21l12 9q33 27 101 77q15 11 24 -10q5 -10 13 -29q6 -13 14.5 -32.5t16.5 -12.5l11 8q6 4 9 -10zM782 843q0 -86 -80 -268q-43 -98 -103 -216q-84 -167 -130 -245
q-61 -104 -96 -158q-54 -75 -124 -173q-77 -115 -117 -163q-58 -69 -105 -106q-3 -3 -18 -2q-50 5 -154 22q-14 3 -15 4q-6 3 -6 14q-1 28 -4 91q0 12 11 26q36 41 100 114q5 6 7 6q5 0 -4 -20q-5 -10 -13 -35q-6 -33 -4 -125q41 36 103 119q175 236 189 279
q-30 109 -48 172q-24 77 -60 194q-13 40 -37 119q-9 32 -24 73q-10 11 -25.5 12.5t-16.5 7.5q-2 12 12 12q68 0 139 3l124 5q12 0 23 -7q0 -7 -13.5 -11.5t-22.5 -8t-12 -12.5t-1 -20q6 -25 24 -97q25 -83 65 -218q32 54 109 208l82 167q49 95 51 137q2 44 -20 47l-31 4
q-36 4 1 19l177 75q20 9 49 -4q18 -7 18 -41z" />
    <glyph glyph-name="Aogonek" unicode="&#x104;" 
d="M1139 8q7 -9 -15 -25l-107 -80q-30 -23 -58 -24q-33 -2 -53 15q-6 5 -34 37q-46 56 -103 126l-17 -13q-24 -18 -32 1q-7 18 11 33l9 6q11 9 20 31q10 26 12 144q2 71 2 199h-275l-143 -250l101 27l-408 -619l-3 1l118 393l-110 -56l175 433l-119 -55l320 603
q-39 17 -58 55h-6q6 -69 -43.5 -122.5t-118.5 -53.5q-80 0 -134 37q-70 49 -70 149q0 77 62 78q27 1 44 -16t15 -42q-3 -39 -25 -50q7 -32 38 -32q71 0 68 126q-2 21 -4 64q0 32 8 41q5 5 14 5t30 -8q74 -29 141 -29q81 0 152 10l64 121l-16 -113q16 3 105 35q73 26 118 26
q59 0 97 -40l84 38q16 7 29 -3q18 -14 2 -27l-17 -13q-23 -17 -24 -46q-1 -256 -2 -580q-3 -303 -3 -307q2 -41 -15 -57q-20 -20 -54 -38q16 6 31 6q47 0 84 -60q26 -41 39 -60q19 -25 25 -25q5 0 8 2l12 6q20 10 29 -4zM776 806q1 113 -3 199l-6 1q-16 -43 -62 -72.5
t-105 -29.5q-24 0 -46 2l-45 -304h263q4 67 4 204zM1120 -223q-4 -20 -38 -53t-99 -90q-23 -17 -50 -2q-16 9 -50 36q-31 24 -86 86q-8 12 -8 26q0 36 40 71q30 28 86 72q42 -6 103 -15q-51 -49 -51 -78q0 -25 35 -52q20 -15 47 -21q14 -2 25 4q15 9 18 21q5 28 -32 71h27
q21 -16 28.5 -38t4.5 -38z" />
    <glyph glyph-name="aogonek" unicode="&#x105;" horiz-adv-x="549" 
d="M534 332q-14 -16 -30 -28q-30 -24 -85 -75q-11 -12 -29 -35q-23 -27 -70 -23q-11 0 -29 8q-7 7 -14 27q-5 11 -11 26q-13 -10 -35.5 -25.5t-35.5 -25.5q-20 -15 -27.5 -17t-29.5 -1q-31 2 -39 14t-15 31q-13 34 -35 101q-14 41 -37 114q-9 31 -11 45q-4 22 0 35
q7 25 55 70q29 27 74 50q33 17 59 26q11 4 42 12q11 0 33 -8q2 -11 -6 -15q-17 -13 -44 -36q-16 -14 -38 -38q0 -34 1 -48q1 -18 10 -64q5 -26 19 -66q16 -50 35 -103q24 12 36 22q3 46 10 159q3 65 1 167q0 39 -2 130q-36 -30 -105 -31q-70 -2 -121 32q-60 41 -60 118
q0 64 50 64q42 0 42 -38q0 -36 -30 -39q13 -13 36 -14q45 0 133 56q51 37 103 73q24 16 32 16t24 -16q38 -34 91 -83q13 -13 3 -22q-11 -11 -19 -18q4 -127 4 -242q0 -109 -1 -130q-1 -51 -4 -151q12 -2 33 -2q4 0 18.5 -1t18.5 -1zM489 59q-4 -20 -38 -53t-99 -90
q-23 -17 -50 -2q-16 9 -50 36q-31 24 -86 86q-8 12 -8 26q0 36 40 71q30 28 86 72q42 -6 103 -15q-51 -49 -51 -78q0 -25 35 -52q20 -15 47 -21q14 -2 25 4q15 9 18 21q5 28 -32 71h27q21 -16 28.5 -38t4.5 -38z" />
    <glyph glyph-name="Cacute" unicode="&#x106;" horiz-adv-x="1235" 
d="M1185 -65q-1 -11 -18 -28q-68 -68 -99 -87q-43 -10 -120 -10q-51 0 -107 6l-87 -456h-2l-5 439l-54 -75v116q-131 31 -215 78q-128 71 -201 192t-77 268q-3 86 16 183q-35 -14 -70 -14q-59 0 -102.5 41t-43.5 101q0 106 90 106q49 0 49 -45q1 -44 -39 -44q-8 0 -17 3
q1 -57 52 -57q46 0 93 44q62 58 79 168q22 140 97 218q12 13 114 95q64 51 70 90q22 -8 43 -25q-3 -30 -25 -64l2 -1q41 29 66 24q20 -3 44 -34q40 -50 50 -61q132 -129 240 -129q74 0 74 36q0 7 -6 18q-71 0 -71 62t73 62q47 0 75 -34.5t28 -81.5q0 -110 -76 -172
q-83 -68 -237 -68q-82 0 -179 51t-130 109l-3 -1q7 -56 7 -80q0 -124 -96 -193q-2 -29 -2 -57q0 -367 233 -564l5 216l-63 -104l1 532l258 63l-40 -313l79 55l-97 -441l67 57l-34 -165q84 -29 180 -33q31 73 64 105q17 16 23 5q14 -27 37 -76q8 -21 7 -30zM1003 1375
q0 -25 -11 -25q-5 0 -14 3t-14 3q-17 0 -63.5 -73.5t-113.5 -73.5q-20 0 -62 13q-48 14 -48 28q0 28 10 28q3 0 11 -4.5t13 -4.5q31 0 73 81.5t105 81.5q49 0 107 -47q7 -6 7 -10z" />
    <glyph glyph-name="cacute" unicode="&#x107;" horiz-adv-x="532" 
d="M497 397q0 -7 -11 -26q-31 -54 -69 -105q-20 -27 -35 -39t-47 -14q-26 -1 -63 -2q-25 -1 -40 -1q-23 1 -41 3q-13 2 -42 26q-20 14 -54 44q-18 18 -53 54l-30 29q-4 5 -8 28t-4 56q0 16 2 52.5t2 56.5v85q-1 42 3 125q-1 8 4 57q0 9 13 28q32 28 94 79q27 22 81 65
q26 19 41 17q85 -12 141 -51q97 -68 97 -182q0 -63 -28 -116q-33 -61 -84 -61q-59 0 -59 55q0 65 60 65q40 0 43 -48q12 25 11 50q-1 48 -71 90l-92 34q-39 20 -35 100l-6 -3q-13 -23 -19 -58.5t-9 -87.5q-1 -7 -3 -133q0 -25 -1 -76q-1 -70 1 -131q0 -39 4 -115
q1 -15 8.5 -29t30.5 -32q16 -13 33 -24q14 -9 21 3q2 4 13 32q9 23 25 65q5 12 32 105q5 18 10 12q11 -6 29 -17q22 -15 66 -40q39 -19 39 -25zM472 1194q0 -21 -12 -21q-4 0 -13 3t-14 3q-17 0 -64 -61.5t-114 -61.5q-19 0 -62 11q-48 12 -48 23q0 24 9 24q4 0 12 -4t13 -4
q31 0 73 67.5t106 67.5q49 0 107 -39q7 -4 7 -8z" />
    <glyph glyph-name="Ccircumflex" unicode="&#x108;" horiz-adv-x="1235" 
d="M1185 -65q-1 -11 -18 -28q-68 -68 -99 -87q-43 -10 -120 -10q-51 0 -107 6l-87 -456h-2l-5 439l-54 -75v116q-131 31 -215 78q-128 71 -201 192t-77 268q-3 86 16 183q-35 -14 -70 -14q-59 0 -102.5 41t-43.5 101q0 106 90 106q49 0 49 -45q1 -44 -39 -44q-8 0 -17 3
q1 -57 52 -57q46 0 93 44q62 58 79 168q22 140 97 218q12 13 114 95q64 51 70 90q22 -8 43 -25q-3 -30 -25 -64l2 -1q41 29 66 24q20 -3 44 -34q40 -50 50 -61q132 -129 240 -129q74 0 74 36q0 7 -6 18q-71 0 -71 62t73 62q47 0 75 -34.5t28 -81.5q0 -110 -76 -172
q-83 -68 -237 -68q-82 0 -179 51t-130 109l-3 -1q7 -56 7 -80q0 -124 -96 -193q-2 -29 -2 -57q0 -367 233 -564l5 216l-63 -104l1 532l258 63l-40 -313l79 55l-97 -441l67 57l-34 -165q84 -29 180 -33q31 73 64 105q17 16 23 5q14 -27 37 -76q8 -21 7 -30zM826 1373
q8 -6 -5 -21q-37 -41 -48 -52q-35 -31 -58 -32q-44 -1 -104 66q-43 -37 -81 -58q-14 -7 -18 -7q-7 0 -18 6q-38 20 -76 44q0 10 7 13q23 15 63 40q20 12 74 47q25 20 65 50q11 -4 19 -11q-13 -13 -24 -25q16 1 33 -5q35 -23 105 -64q10 -5 17 -5q-1 0 13 3q7 5 20 12
q9 4 16 -1z" />
    <glyph glyph-name="ccircumflex" unicode="&#x109;" horiz-adv-x="532" 
d="M497 397q0 -7 -11 -26q-31 -54 -69 -105q-20 -27 -35 -39t-47 -14q-26 -1 -63 -2q-25 -1 -40 -1q-23 1 -41 3q-13 2 -42 26q-20 14 -54 44q-18 18 -53 54l-30 29q-4 5 -8 28t-4 56q0 16 2 52.5t2 56.5v85q-1 42 3 125q-1 8 4 57q0 9 13 28q32 28 94 79q27 22 81 65
q26 19 41 17q85 -12 141 -51q97 -68 97 -182q0 -63 -28 -116q-33 -61 -84 -61q-59 0 -59 55q0 65 60 65q40 0 43 -48q12 25 11 50q-1 48 -71 90l-92 34q-39 20 -35 100l-6 -3q-13 -23 -19 -58.5t-9 -87.5q-1 -7 -3 -133q0 -25 -1 -76q-1 -70 1 -131q0 -39 4 -115
q1 -15 8.5 -29t30.5 -32q16 -13 33 -24q14 -9 21 3q2 4 13 32q9 23 25 65q5 12 32 105q5 18 10 12q11 -6 29 -17q22 -15 66 -40q39 -19 39 -25zM433 1143q7 -6 -5 -22q-33 -42 -42 -52q-31 -33 -53 -34q-38 -1 -92 68q-38 -38 -72 -59q-12 -8 -16 -8q-6 0 -16 6
q-34 21 -67 46q-1 10 6 13q20 15 56 41q18 13 65 49q23 20 58 51q11 -4 18 -11q-12 -14 -22 -26q15 1 29 -5q32 -23 94 -66q8 -5 15 -5q-1 0 12 3q6 5 17 13q9 4 15 -2z" />
    <glyph glyph-name="Cdot" unicode="&#x10a;" horiz-adv-x="1235" 
d="M1185 -65q-1 -11 -18 -28q-68 -68 -99 -87q-43 -10 -120 -10q-51 0 -107 6l-87 -456h-2l-5 439l-54 -75v116q-131 31 -215 78q-128 71 -201 192t-77 268q-3 86 16 183q-35 -14 -70 -14q-59 0 -102.5 41t-43.5 101q0 106 90 106q49 0 49 -45q1 -44 -39 -44q-8 0 -17 3
q1 -57 52 -57q46 0 93 44q62 58 79 168q22 140 97 218q12 13 114 95q64 51 70 90q22 -8 43 -25q-3 -30 -25 -64l2 -1q41 29 66 24q20 -3 44 -34q40 -50 50 -61q132 -129 240 -129q74 0 74 36q0 7 -6 18q-71 0 -71 62t73 62q47 0 75 -34.5t28 -81.5q0 -110 -76 -172
q-83 -68 -237 -68q-82 0 -179 51t-130 109l-3 -1q7 -56 7 -80q0 -124 -96 -193q-2 -29 -2 -57q0 -367 233 -564l5 216l-63 -104l1 532l258 63l-40 -313l79 55l-97 -441l67 57l-34 -165q84 -29 180 -33q31 73 64 105q17 16 23 5q14 -27 37 -76q8 -21 7 -30zM899 1337
q3 -14 -9 -23l-90 -68q-35 -27 -46 -27q-20 -1 -29 12t-21 37q-6 13 -20 40q-4 9 -18 4l-21 -8q-9 -3 -15 7q-9 16 4 26l16 11q24 17 70 49q25 17 63 43q20 13 32 -11q6 -12 16 -36q8 -15 21 -41q10 -21 21 -14l14 10q8 6 12 -11z" />
    <glyph glyph-name="cdot" unicode="&#x10b;" horiz-adv-x="532" 
d="M497 397q0 -7 -11 -26q-31 -54 -69 -105q-20 -27 -35 -39t-47 -14q-26 -1 -63 -2q-25 -1 -40 -1q-23 1 -41 3q-13 2 -42 26q-20 14 -54 44q-18 18 -53 54l-30 29q-4 5 -8 28t-4 56q0 16 2 52.5t2 56.5v85q-1 42 3 125q-1 8 4 57q0 9 13 28q32 28 94 79q27 22 81 65
q26 19 41 17q85 -12 141 -51q97 -68 97 -182q0 -63 -28 -116q-33 -61 -84 -61q-59 0 -59 55q0 65 60 65q40 0 43 -48q12 25 11 50q-1 48 -71 90l-92 34q-39 20 -35 100l-6 -3q-13 -23 -19 -58.5t-9 -87.5q-1 -7 -3 -133q0 -25 -1 -76q-1 -70 1 -131q0 -39 4 -115
q1 -15 8.5 -29t30.5 -32q16 -13 33 -24q14 -9 21 3q2 4 13 32q9 23 25 65q5 12 32 105q5 18 10 12q11 -6 29 -17q22 -15 66 -40q39 -19 39 -25zM387 1169q3 -14 -9 -23l-90 -68q-35 -27 -46 -27q-20 -1 -29 12t-21 37q-6 13 -20 40q-4 9 -18 4l-21 -8q-9 -3 -15 7
q-9 16 4 26l16 11q24 17 70 49q25 17 63 43q20 13 32 -11q6 -12 16 -36q8 -15 21 -41q10 -21 21 -14l14 10q8 6 12 -11z" />
    <glyph glyph-name="Ccaron" unicode="&#x10c;" horiz-adv-x="1235" 
d="M1185 -65q-1 -11 -18 -28q-68 -68 -99 -87q-43 -10 -120 -10q-51 0 -107 6l-87 -456h-2l-5 439l-54 -75v116q-131 31 -215 78q-128 71 -201 192t-77 268q-3 86 16 183q-35 -14 -70 -14q-59 0 -102.5 41t-43.5 101q0 106 90 106q49 0 49 -45q1 -44 -39 -44q-8 0 -17 3
q1 -57 52 -57q46 0 93 44q62 58 79 168q22 140 97 218q12 13 114 95q64 51 70 90q22 -8 43 -25q-3 -30 -25 -64l2 -1q41 29 66 24q20 -3 44 -34q40 -50 50 -61q132 -129 240 -129q74 0 74 36q0 7 -6 18q-71 0 -71 62t73 62q47 0 75 -34.5t28 -81.5q0 -110 -76 -172
q-83 -68 -237 -68q-82 0 -179 51t-130 109l-3 -1q7 -56 7 -80q0 -124 -96 -193q-2 -29 -2 -57q0 -367 233 -564l5 216l-63 -104l1 532l258 63l-40 -313l79 55l-97 -441l67 57l-34 -165q84 -29 180 -33q31 73 64 105q17 16 23 5q14 -27 37 -76q8 -21 7 -30zM1020 1280
q-7 -6 -17 -1q-7 6 -21 13q-16 4 -14 4q-8 0 -18 -6q-21 -14 -67 -45q-31 -20 -47 -26.5t-34 -4.5q4 -7 8 -13l18 -16q-7 -8 -20 -11q-27 22 -70 55q-57 39 -78 53q-27 18 -68 43q-7 4 -7 15q0 3 81 50q12 7 19 7q5 0 19 -9q41 -23 87 -64q64 74 110 73q34 -1 114 -93
q14 -17 5 -24z" />
    <glyph glyph-name="ccaron" unicode="&#x10d;" horiz-adv-x="532" 
d="M497 397q0 -7 -11 -26q-31 -54 -69 -105q-20 -27 -35 -39t-47 -14q-26 -1 -63 -2q-25 -1 -40 -1q-23 1 -41 3q-13 2 -42 26q-20 14 -54 44q-18 18 -53 54l-30 29q-4 5 -8 28t-4 56q0 16 2 52.5t2 56.5v85q-1 42 3 125q-1 8 4 57q0 9 13 28q32 28 94 79q27 22 81 65
q26 19 41 17q85 -12 141 -51q97 -68 97 -182q0 -63 -28 -116q-33 -61 -84 -61q-59 0 -59 55q0 65 60 65q40 0 43 -48q12 25 11 50q-1 48 -71 90l-92 34q-39 20 -35 100l-6 -3q-13 -23 -19 -58.5t-9 -87.5q-1 -7 -3 -133q0 -25 -1 -76q-1 -70 1 -131q0 -39 4 -115
q1 -15 8.5 -29t30.5 -32q16 -13 33 -24q14 -9 21 3q2 4 13 32q9 23 25 65q5 12 32 105q5 18 10 12q11 -6 29 -17q22 -15 66 -40q39 -19 39 -25zM455 1124q-6 -5 -15 -1q-6 5 -19 11q-13 3 -12 3q-7 0 -16 -5q-32 -23 -98 -59q-15 -6 -31 -4q2 0 23 -24q-6 -7 -18 -10
q-24 19 -61 46q-50 33 -68 44q-24 15 -60 37q-6 3 -6 12q0 2 71 41q10 6 17 6q4 0 17 -7q35 -20 75 -54q57 62 97 61q30 -1 99 -77q13 -14 5 -20z" />
    <glyph glyph-name="Gbreve" unicode="&#x11e;" horiz-adv-x="1361" 
d="M1311 992q2 -120 -93 -184q-81 -56 -203 -57q-56 -1 -120 20q-58 18 -79 37l2 -159l100 59l-96 -461l72 64l-99 -391q46 -7 91 -5q34 1 51 4q32 6 47 19q51 48 100 129q69 116 66 254q-2 117 -76 153q34 -49 6 -107q-24 -49 -84 -49q-42 0 -69 30t-27 73q0 16 5 32
q40 137 185 139q102 2 159 -56.5t58 -159.5q1 -143 -134 -332q-76 -107 -129 -162q-50 -51 -124 -70q-66 -16 -153 -17h-2q-4 -18 -6 -30q-24 -90 -67 -282q1 75 10 314q-252 15 -406 105q-129 75 -211 202q-85 132 -85 272q0 385 355 627q-4 6 -19.5 15t-15.5 13q0 10 7 15
q78 50 113 80q32 22 89 74q5 8 16 22q23 24 23 -6q0 -8 -10 -30q-27 -62 -27 -282l1 -460q48 37 112 61l-1 348q0 170 6 211q13 89 69 150q22 -8 43 -25q-3 -28 -25 -61q57 24 68 22q20 -3 45.5 -35.5t50.5 -64.5q106 -118 237 -118q73 0 73 38q0 7 -3 14q-72 0 -72 61
q0 25 21 43.5t51 18.5q47 0 75 -34t29 -81zM395 832q-115 -101 -115 -324q0 -157 72 -276q16 25 23 66q17 96 18 271zM715 110l-71 -75l1 426q-53 -32 -136 -108q-87 -81 -128 -162q44 -63 93 -112q100 -97 234 -139zM930 1368q1 -9 -3 -12q-20 -15 -73 -48q-26 -17 -74 -46
q-31 -17 -56 -17t-45 8q-15 5 -46 25q-25 16 -66 42q-10 5 -18 5q1 0 -14 -3q-8 -5 -21 -13q-10 -4 -18 2t6 22q40 44 51 54q37 34 62 34q23 1 78 -38q17 -12 35 -12q8 0 83 42q15 8 20 8q7 0 19 -7q40 -21 80 -46z" />
    <glyph glyph-name="gbreve" unicode="&#x11f;" horiz-adv-x="648" 
d="M618 -213q2 -23 -52 -74q-41 -38 -56 -51t-179 -24q-66 -4 -177 13q-19 3 -90 23q-42 12 -64 26q-13 8 5 33q38 51 47 78q0 1 75 -81q12 -13 18 -14q87 -8 178 0t129 26q9 4 40 46q3 3 3 6q0 11 -33 20q-88 25 -154 25q-91 0 -163 -35q-20 -10 -34 8q-23 30 -47 59
q-15 22 -15 57q0 27 15 62l38 64q29 54 34 94q-26 11 -63 41q-8 12 -16.5 48t-10.5 175q0 21 3 115q1 56 5 119q1 32 8 103q2 15 33 48q30 30 77 69q34 27 62 42q22 11 43 3q65 -27 111 -52l2 53q1 32 29 36q19 2 49 -11l144 -60q33 -14 -6 -19l-28 -4q-25 -4 -25 -41
q0 -15 1 -118v-140q0 -25 -1.5 -121.5t-1.5 -113.5q0 -37 -1 -40q-4 -12 -34 -35q-54 -43 -164 -119q-34 -20 -51 -20q-15 0 -48 6q-27 5 -62 17q-20 -59 -42 -158q25 10 117 21q120 1 194 -46q5 -2 78 -58q21 -16 70 -65q7 -7 10 -36zM378 609q0 27 -2 73q-2 51 -2 74
q-17 9 -61 28q-18 7 -48 16q-26 4 -30 -31q-5 -51 -8 -120q-1 -80 -2 -204q-1 -19 1 -68q2 -57 2.5 -74.5t4.5 -59.5q3 -16 14 -28q5 -5 45 -14q14 -4 34.5 5.5t35.5 21.5q9 9 10 24q1 23 3 85q1 109 3 272zM534 1095q1 -9 -3 -12q-20 -15 -73 -48q-26 -17 -74 -46
q-31 -17 -56 -17t-45 8q-15 5 -46 25q-25 16 -66 42q-10 5 -18 5q1 0 -14 -3q-8 -5 -21 -13q-10 -4 -18 2t6 22q40 44 51 54q37 34 62 34q23 1 78 -38q17 -12 35 -12q8 0 83 42q15 8 20 8q7 0 19 -7q40 -21 80 -46z" />
    <glyph glyph-name="dotlessi" unicode="&#x131;" horiz-adv-x="433" 
d="M413 74l-9 -13q-6 -9 -25 0l-160 79q-34 17 -47 30q-24 22 -23 59q0 11 -1.5 49.5t-1.5 56.5q0 13 -1 67q-1 51 -1 79q0 90 -1 154q3 42 -2 170q-3 32 -28 27l-41 -9q-13 -3 -14 10q-2 17 5 20q25 9 71 28q35 16 96 42q39 20 96 45q8 3 17 -2.5t9 -12.5q-1 -5 -3 -8
q-36 -35 -36 -65q0 -31 2 -90q2 -75 5 -220q0 -29 3 -96q3 -58 3 -79q0 -104 -1 -144q-2 -40 0 -65q1 -27 3 -32q4 -12 22 -24l53 -35q16 -10 10 -21z" />
    <glyph glyph-name="Nacute" unicode="&#x143;" horiz-adv-x="1032" 
d="M991 963q-1 -20 -14 -55q-114 -288 -270 -722q-6 -18 -12 -48q-2 -19 2 -50q12 -102 41 -240q95 40 131 52q10 3 16 4q9 0 8 -14q-3 -20 -6 -39q-3 -30 -9 -81q-69 -18 -173 -25q-22 -1 -58 31q-49 43 -105 148q-52 98 -76 182q-10 32 -9 51q6 173 93 330q41 74 114 170
l106 134q11 15 -4 36q-3 4 -174 150q-12 10 -19 11q-8 1 -24 -10q-98 -63 -140 -103q-18 -17 -17 -45l19 -611l-100 111l77 -584l-103 85l-24 -374l-6 -2l-219 710l97 -51l-133 623l108 -91l-58 346l349 294l-5 -245l133 127q31 29 51 22q83 -28 178 -77q70 -35 180 -97
q21 -12 42 -25q15 -10 13 -28zM813 1393q0 -25 -11 -25q-5 0 -14 3t-14 3q-17 0 -63.5 -73.5t-113.5 -73.5q-20 0 -62 13q-48 14 -48 28q0 28 10 28q3 0 11 -4.5t13 -4.5q31 0 73 81.5t105 81.5q49 0 107 -47q7 -6 7 -10z" />
    <glyph glyph-name="nacute" unicode="&#x144;" horiz-adv-x="696" 
d="M666 -160q-5 -10 -21 -34q-40 -48 -83 -82q-14 -11 -54 -34q-21 -12 -38 1q-47 35 -106 90q-35 32 -39 52q-3 16 4.5 37.5t28.5 38.5h28q-38 -43 -32 -71q2 -12 17 -21q11 -6 25 -4q17 4 47 26q25 19 39 37q-19 10 -25 16q-22 20 -26 58q-3 33 -3 106q0 32 2 88
q3 60 4 84q1 101 1 121q-3 137 -6 200q-3 37 -8 105q-2 29 -27 36q-14 4 -48 -12q-37 -17 -56 -31v-137q2 -193 2 -247v-150l-2 -72q0 -18 -4 -22q-5 -7 -30 -9q-15 0 -59 -2l-140 -7q-12 -1 -13 3q0 4 18 15l28 18q24 15 24 49v400v182q0 21 -7 27q-7 5 -24 0l-64 -21
q-19 -6 -19 3q0 6 14 16l189 128q30 20 42 20q18 0 23.5 -3t7.5 -19l9 -60q34 18 113 51q20 8 41 -3t53 -37q50 -42 73 -66q15 -16 20 -43q9 -52 15 -115q7 -75 8 -116q2 -47 5 -118q0 -74 -4 -164q-4 -82 -3 -162q0 -29 6 -80q0 -4 5 -18q0 -8 30 -27l14 -5q12 -4 5 -16z
M557 1043q0 -25 -11 -25q-5 0 -14 3t-14 3q-17 0 -63.5 -73.5t-113.5 -73.5q-20 0 -62 13q-48 14 -48 28q0 28 10 28q3 0 11 -4.5t13 -4.5q31 0 73 81.5t105 81.5q49 0 107 -47q7 -6 7 -10z" />
    <glyph glyph-name="OE" unicode="&#x152;" horiz-adv-x="1498" 
d="M1448 1064q1 -90 -70.5 -148.5t-216.5 -61.5q-211 -3 -310 124l-4 -72q-1 -64 -4 -186q-3 -101 -3 -190q107 75 195 73q46 -1 116 -8q14 -3 25 -17q27 -60 67 -140q3 -5 4 -9q0 -17 -24 -9q-62 22 -160 22q-63 0 -159 -57q-18 -10 -30 3.5t-32 43.5q0 -29 -1 -65
q-1 -29 -1 -44q0 -68 4 -212q64 30 178 33q218 5 380 -108q33 -23 33 -35q0 -7 -6 -18q-14 -22 -53 -69q-20 -25 -65 -78q62 17 103 12q21 -3 14 -18q-20 -44 -34 -65q-7 -10 -41 -4q-125 20 -192 56q-24 13 -5 33q43 36 111 96q15 14 15 17q1 5 -15 14q-33 19 -97 18
q-137 -1 -293 -86q-18 -9 -32 -9q-46 0 -53 80l-6 -1l-52 -275l-39 132l-43 -355h-3l-57 327q-269 22 -433 207q-159 179 -159 461q0 123 61.5 265.5t144.5 209.5q-105 23 -173 81q-19 16 -19 21q0 3 18 19.5t48 45.5q-9 5 -31 19q-14 10 -14 13q0 4 23 9q53 9 150 30
q15 3 18 -3t-4 -17q-23 -40 -63 -101q46 -18 95 -18q141 -1 229 132q42 62 91 61q28 0 66 -20q88 -46 164 -102q35 36 86 102q7 16 19 16q29 0 23 -35q-5 -24 -21 -48q38 25 60 20q21 -4 92 -73q99 -95 203 -93q85 2 89 47q-54 0 -54 55t60 55q86 0 87 -103zM647 -8l-91 347
l86 -61l-92 436l94 -60l-18 352q-37 -42 -109 -68.5t-145 -25.5q-49 1 -92 14q-55 -64 -75 -108q-46 -99 -45 -229q2 -222 142 -413q43 -59 124 -113q76 -51 134 -65l-10 54z" />
    <glyph glyph-name="oe" unicode="&#x153;" horiz-adv-x="901" 
d="M866 499q-9 -14 -24 -39q-9 -13 -31 -42q-12 -14 -24 -9q-8 2 -29 8q-44 11 -131 31q-35 7 -67 7v-74q-1 -68 0 -128q1 -38 5 -112q1 -14 9 -28q16 -28 54 -54q15 -10 20 -1q16 18 38 47q21 38 27 57q20 66 27 104q3 18 10 12q7 -7 18 -21q8 -10 23 -31q10 -16 20 -29
t6 -19q-11 -15 -39 -52q-19 -19 -52 -55q-20 -18 -52 -49q-11 -13 -26 -14h-41q-13 0 -41 2q-13 2 -43 25.5t-58 49.5q-15 -9 -46 -26q-75 -35 -109 -41q-23 -4 -48 14q-45 34 -87 73q-18 17 -56 54q-18 18 -36 41q-6 7 -13 35q-4 97 -2 222q2 38 4 114q-45 16 -72 19
q-3 24 13 53q4 -2 35 -11q9 -3 28 -10q3 11 8 41q2 12 14 20q43 24 113 65q55 32 116 58q20 8 42 -3q16 -8 61 -38q32 -21 63 -49q27 18 81 56q18 14 29 14q19 1 28 -2q24 -8 77 -32q25 -11 74 -37q11 -7 15 -19q8 -21 34 -86q3 -6 32 -82q9 -22 3 -29zM711 495
q-15 38 -39 99q-12 28 -29 72q-29 77 -45 64q-7 -5 -12 -14q-7 -13 -13 -47q-7 -41 -13 -158q23 2 58 -2q16 -1 47.5 -7t45.5 -7zM354 720q2 13 -2 23q-36 -26 -111 -77q-1 -6 -1 -24q0 -3 1 -10q1 -6 0 -11q15 4 32 13q11 5 38 22q22 16 30 30q12 21 13 34zM384 349
q-1 66 -5 130q-3 58 -8 101q-2 15 -20 16q-25 2 -46 -5q-30 -10 -64 -24v-147q1 -50 5 -157q1 -40 6 -119q1 -11 10.5 -23t25.5 -27q8 -9 23 -4q19 5 47 20q10 5 13 24q6 36 9 91q5 73 4 124z" />
    <glyph glyph-name="Sacute" unicode="&#x15a;" horiz-adv-x="1100" 
d="M1027 370q0 -239 -235 -421q-46 -31 -130 -100q-43 -43 -92 -119q-38 60 -136 198l-99 -195l1 105l-197 -442l-2 1l47 356l37 -74l115 363q-81 77 -143 75q-22 -1 -54 -32t-47 -64q-15 -34 2 -44q20 17 47 17q31 0 53 -21.5t22 -52.5t-22 -52.5t-53 -21.5q-47 -1 -95 42
q-45 40 -46 76q-1 20 28 75q50 96 127 165q93 83 184 83q41 0 74 -10l25 72l15 -88v0l47 135q-76 -24 -173 -24q-173 -1 -264 137q6 7 24 24q-46 83 -46 154q0 184 239 405q37 35 196 166q8 7 17 7q22 0 22 -23q0 -8 -5 -13q-9 -10 -31 -41q16 13 31 13q16 1 53 -38
q109 -111 241 -145l28 66h2l1 -73q16 -2 30 -2q63 0 63 45q0 9 -5 19q-72 0 -72 68q0 29 21.5 51t51.5 22q91 0 91 -122q0 -136 -179 -206l3 -226q95 -15 145 -102q43 -76 43 -188zM736 860q-26 -4 -52 -4q-158 0 -287 76q-45 27 -81 56q-13 -66 -13 -146q0 -90 20 -147.5
t77 -123.5q23 -27 65 -57q-23 -35 -79 -44l2 -2q83 1 157 54l69 201l20 -102zM774 230q-2 117 -52 177l-90 -189l5 127l-84 -172q17 -19 76 -92q24 -30 72 -79q76 68 73 228zM892 1408q0 -25 -11 -25q-5 0 -14 3t-14 3q-17 0 -63.5 -73.5t-113.5 -73.5q-20 0 -62 13
q-48 14 -48 28q0 28 10 28q3 0 11 -4.5t13 -4.5q31 0 73 81.5t105 81.5q49 0 107 -47q7 -6 7 -10z" />
    <glyph glyph-name="sacute" unicode="&#x15b;" horiz-adv-x="668" 
d="M477 1202q0 -15 -7 -17q12 2 -20 2q-16 0 -48.5 -74.5t-97.5 -74.5q-79 0 -84 18v10q0 15 4 15t11 -2t11 -2q22 0 50.5 81.5t91.5 81.5q20 0 52 -11q37 -12 37 -27zM621 1015q0 -34 -37 -88q-32 -43 -64 -87q-4 -6 -26 -61q-13 -34 -43 -44q-25 -8 -54 -8q-86 0 -156 67
q37 -91 37 -190q0 -58 -14 -104q43 93 116 150q19 15 26 17q13 4 36 4q76 0 126 -59.5t51 -137.5q0 -122 -84 -243q-78 -115 -190 -173q-63 71 -185 68q-82 -2 -104 -56q28 -2 28 -36t-39 -34q-22 0 -34 14t-11 38q1 23 41 156t40 267q0 45 -30 245q98 127 310 270
q25 -70 90 -70q39 0 71 29.5t32 58.5q0 5 -1 11q-4 -1 -9 -1q-39 0 -39 41q0 45 50 45q66 0 66 -89zM482 368q0 47 -23 80q-26 38 -71 38q-83 0 -197 -130q-63 -72 -85 -101q-53 -70 -79 -134q56 73 139.5 125.5t145.5 52.5q60 0 135 -43q35 54 35 112z" />
    <glyph glyph-name="Scedilla" unicode="&#x15e;" horiz-adv-x="1100" 
d="M1027 370q0 -239 -235 -421q-46 -31 -130 -100q-43 -43 -92 -119q-38 60 -136 198l-99 -195l1 105l-197 -442l-2 1l47 356l37 -74l115 363q-81 77 -143 75q-22 -1 -54 -32t-47 -64q-15 -34 2 -44q20 17 47 17q31 0 53 -21.5t22 -52.5t-22 -52.5t-53 -21.5q-47 -1 -95 42
q-45 40 -46 76q-1 20 28 75q50 96 127 165q93 83 184 83q41 0 74 -10l25 72l15 -88v0l47 135q-76 -24 -173 -24q-173 -1 -264 137q6 7 24 24q-46 83 -46 154q0 184 239 405q37 35 196 166q8 7 17 7q22 0 22 -23q0 -8 -5 -13q-9 -10 -31 -41q16 13 31 13q16 1 53 -38
q109 -111 241 -145l28 66h2l1 -73q16 -2 30 -2q63 0 63 45q0 9 -5 19q-72 0 -72 68q0 29 21.5 51t51.5 22q91 0 91 -122q0 -136 -179 -206l3 -226q95 -15 145 -102q43 -76 43 -188zM736 860q-26 -4 -52 -4q-158 0 -287 76q-45 27 -81 56q-13 -66 -13 -146q0 -90 20 -147.5
t77 -123.5q23 -27 65 -57q-23 -35 -79 -44l2 -2q83 1 157 54l69 201l20 -102zM774 230q-2 117 -52 177l-90 -189l5 127l-84 -172q17 -19 76 -92q24 -30 72 -79q76 68 73 228zM779 -388q0 -128 -182 -212q-12 -5 -26 -4q-52 4 -153 14q-24 3 -30 5q-11 4 -12 15l-3 33l-3 46
q-2 29 5 31q6 1 27 -9q38 -16 150 -56q6 -3 12 -2q11 0 27 11q52 37 52 89q0 45 -64 73q-49 21 -103 23q-18 1 -24 -12.5t-10 -13.5q-14 0 -13 16q11 29 29 81t71 52q70 0 151 -45q99 -55 99 -135z" />
    <glyph glyph-name="scedilla" unicode="&#x15f;" horiz-adv-x="688" 
d="M629 1053q0 -60 -38 -118q-36 -47 -71 -95q-4 -6 -26 -61q-13 -34 -43 -44q-25 -8 -54 -8q-86 0 -156 67q37 -91 37 -190q0 -58 -14 -104q43 93 116 150q19 15 26 17q13 4 36 4q76 0 126 -59.5t51 -137.5q0 -122 -84 -243q-78 -115 -190 -173q-63 71 -185 68
q-82 -2 -104 -56q28 -2 28 -36t-39 -34q-22 0 -34 14t-11 38q1 23 41 156t40 267q0 45 -30 245q98 127 310 270q27 -76 94 -75q51 0 83 49q27 43 27 95q1 75 -50 124t-130 49q-98 0 -127 -62q29 -3 29 -35q0 -43 -44 -43q-53 0 -53 65q0 66 64 103q55 32 129 33
q107 1 176.5 -66t69.5 -174zM482 368q0 47 -23 80q-26 38 -71 38q-83 0 -197 -130q-63 -72 -85 -101q-53 -70 -79 -134q56 73 139.5 125.5t145.5 52.5q60 0 135 -43q35 54 35 112zM472 -18q0 -91 -116 -150q-7 -4 -16 -3q-33 3 -98 10q-15 1 -20 3.5t-6 10.5t-2 23l-2 33
q-1 21 3 22t18 -6q24 -12 95 -40q4 -2 8 -2q7 0 17 8q33 27 33 64q0 31 -39 51q-32 16 -67 17q-12 0 -15.5 -9.5t-6.5 -9.5q-9 0 -8 12q7 20 18 57t45 37q45 0 96 -31q63 -39 63 -97z" />
    <glyph glyph-name="Scaron" unicode="&#x160;" horiz-adv-x="1100" 
d="M1027 370q0 -239 -235 -421q-46 -31 -130 -100q-43 -43 -92 -119q-38 60 -136 198l-99 -195l1 105l-197 -442l-2 1l47 356l37 -74l115 363q-81 77 -143 75q-22 -1 -54 -32t-47 -64q-15 -34 2 -44q20 17 47 17q31 0 53 -21.5t22 -52.5t-22 -52.5t-53 -21.5q-47 -1 -95 42
q-45 40 -46 76q-1 20 28 75q50 96 127 165q93 83 184 83q41 0 74 -10l25 72l15 -88v0l47 135q-76 -24 -173 -24q-173 -1 -264 137q6 7 24 24q-46 83 -46 154q0 184 239 405q37 35 196 166q8 7 17 7q22 0 22 -23q0 -8 -5 -13q-9 -10 -31 -41q16 13 31 13q16 1 53 -38
q109 -111 241 -145l28 66h2l1 -73q16 -2 30 -2q63 0 63 45q0 9 -5 19q-72 0 -72 68q0 29 21.5 51t51.5 22q91 0 91 -122q0 -136 -179 -206l3 -226q95 -15 145 -102q43 -76 43 -188zM736 860q-26 -4 -52 -4q-158 0 -287 76q-45 27 -81 56q-13 -66 -13 -146q0 -90 20 -147.5
t77 -123.5q23 -27 65 -57q-23 -35 -79 -44l2 -2q83 1 157 54l69 201l20 -102zM774 230q-2 117 -52 177l-90 -189l5 127l-84 -172q17 -19 76 -92q24 -30 72 -79q76 68 73 228zM882 1302q-8 -6 -18 -2q-7 6 -21 13q-15 4 -14 4q-8 0 -18 -6q-21 -13 -67 -43q-31 -19 -45 -24
q-18 -7 -35 -5q1 0 26 -27q-7 -8 -21 -12q-27 21 -70 53q-56 37 -78 50q-27 18 -67 42q-8 4 -7 14q0 3 80 47q12 7 19 7q5 0 20 -8q40 -22 86 -61q65 71 111 69q33 -1 113 -88q14 -16 6 -23z" />
    <glyph glyph-name="scaron" unicode="&#x161;" horiz-adv-x="688" 
d="M519 1142q-7 -5 -16 -1q-7 5 -19 11q-14 3 -13 3q-7 0 -17 -5q-33 -23 -101 -60q-16 -6 -32 -4q2 0 24 -24q-7 -7 -19 -10q-24 19 -63 47q-51 33 -71 44q-24 16 -61 37q-7 4 -6 13q0 2 73 41q10 6 17 6q4 0 18 -7q36 -20 78 -54q58 63 100 62q30 -1 102 -79q13 -14 6 -20
zM621 1015q0 -34 -37 -88q-32 -43 -64 -87q-4 -6 -26 -61q-13 -34 -43 -44q-25 -8 -54 -8q-86 0 -156 67q37 -91 37 -190q0 -58 -14 -104q43 93 116 150q19 15 26 17q13 4 36 4q76 0 126 -59.5t51 -137.5q0 -122 -84 -243q-78 -115 -190 -173q-63 71 -185 68
q-82 -2 -104 -56q28 -2 28 -36t-39 -34q-22 0 -34 14t-11 38q1 23 41 156t40 267q0 45 -30 245q98 127 310 270q25 -70 90 -70q39 0 71 29.5t32 58.5q0 5 -1 11q-4 -1 -9 -1q-39 0 -39 41q0 45 50 45q66 0 66 -89zM482 368q0 47 -23 80q-26 38 -71 38q-83 0 -197 -130
q-63 -72 -85 -101q-53 -70 -79 -134q56 73 139.5 125.5t145.5 52.5q60 0 135 -43q35 54 35 112z" />
    <glyph glyph-name="Ydieresis" unicode="&#x178;" horiz-adv-x="1392" 
d="M1362 1144q0 -3 -7 -25q-43 -130 -141 -146q-29 -5 -62 5q-23 -45 -171 -217q-117 -136 -135 -259l17 -343l-81 113l24 -598l-70 121l-33 -312h-3l-192 647l102 -60l-121 393l92 -56l4 3q-53 167 -220 313q-176 154 -244 327q-40 102 -100 109q-21 2 -21 23q0 18 16 22
q27 8 69 4q128 -13 140 -13q2 0 156 26q54 9 64 -1q6 -5 7 -21q1 -17 -9 -20l-37 -14q-26 -10 -26 -44q0 -33 18 -63q37 -63 178 -184q135 -117 215 -264q44 114 145 223q126 137 145 167q-56 15 -102 57q-30 30 -67 64q-12 6 -26 0q-8 -4 -24 -11q-16 -6 -21 2q-6 5 -14 14
q-4 9 3 15q76 68 128 102q31 20 59 7q34 -20 109 -62q43 -27 127 -60q33 -4 58 11.5t32 26.5t14 4q3 -4 5 -26zM940 1342q2 -11 -7 -19l-75 -57q-30 -23 -39 -23q-16 -1 -23.5 10t-17.5 31q-5 11 -16 34q-5 8 -16 3l-18 -6q-7 -3 -12 6q-8 13 4 21l13 10q36 26 110 77
q17 11 27 -9q5 -10 14 -30q6 -13 17 -35q8 -18 17 -11l12 8q7 5 10 -10zM680 1342q2 -11 -7 -19l-75 -57q-30 -23 -39 -23q-16 -1 -23.5 10t-17.5 31q-5 11 -16 34q-5 8 -16 3l-18 -6q-7 -3 -12 6q-8 13 4 21l13 10q36 26 110 77q17 11 27 -9q5 -10 14 -30q6 -13 17 -35
q8 -18 17 -11l12 8q7 5 10 -10z" />
    <glyph glyph-name="Zacute" unicode="&#x179;" horiz-adv-x="1490" 
d="M1450 1166l-263 -227l167 17l-397 -349l138 -6l-395 -330l113 -10l-252 -186l2 -4q166 97 358 97q276 0 423 -124q48 -40 48 -62q-1 -20 -30 -38l-153 -92l-2 -4h242q29 0 0 -12l-226 -97q-13 -6 -19 -2l-155 92q-14 8 2 19l75 52q8 6 17 15q2 5 -18.5 16.5t-92.5 23.5
q-76 13 -131 13q-292 0 -620 -237q-10 -7 -15 -5q-7 3 -3 19l36 137l-297 -217l-2 2l375 454l-128 -23l444 459l-152 -29l388 475l-6 1q-124 -114 -256 -114q-101 0 -183 62l-4 -1q3 -13 3 -26q0 -49 -36 -83q-38 -37 -99 -37q-91 0 -145 38q-89 63 -89 168q0 77 62 78
q27 1 44 -16t15 -42q-3 -39 -25 -50q7 -32 38 -32q71 0 68 126q-2 21 -4 64q0 32 8 41q5 5 14 5t30 -8q74 -29 141 -29q62 0 179.5 28t176.5 28q96 0 152 -60l74 105zM1017 1407q0 -25 -11 -25q-5 0 -14 3t-14 3q-17 0 -63.5 -73.5t-113.5 -73.5q-20 0 -62 13q-48 14 -48 28
q0 28 10 28q3 0 11 -4.5t13 -4.5q31 0 73 81.5t105 81.5q49 0 107 -47q7 -6 7 -10z" />
    <glyph glyph-name="zacute" unicode="&#x17a;" horiz-adv-x="726" 
d="M692 174q0 -222 -213 -338q-148 -80 -295 -80q-172 0 -172 92q0 58 56 58q55 0 55 -56q0 -14 -6 -30q52 -8 71 -8q113 0 222 98q122 109 122 254q0 61 -30.5 97t-75.5 36q-107 0 -181 -96q-6 -13 -21 -28q-9 -2 -22 12q-66 69 -116 108q-12 9 -44 -13q-6 -5 -11 -5
q-7 0 -14.5 11.5t-7.5 17.5q1 7 13 17q100 73 304 230q-66 2 -110 -2q-11 -1 -15.5 3.5t-2.5 13.5q5 14 24 16q58 8 145 2q150 127 146 181l-2 -1q-7 -16 -26 -35q-11 -12 -18 -12q-6 0 -12 11q-9 15 -12 18q-81 72 -215 70q-49 -1 -103 -25q-64 -29 -70 -71h3q16 26 45 26
q21 0 36 -18t15 -37q1 -58 -58 -60q-84 -3 -84 91t111 152q88 46 191 50q198 7 327 -82q35 -25 33 -60q-3 -72 -199 -211q56 -9 81 -18q18 -7 16 -20q-2 -20 -20 -13q-36 13 -118 23q-94 -61 -244 -166l5 -1q101 66 220 66q105 0 178 -52q99 -70 99 -216zM581 1141
q0 -25 -11 -25q-5 0 -14 3t-14 3q-17 0 -63.5 -73.5t-113.5 -73.5q-20 0 -62 13q-48 14 -48 28q0 28 10 28q3 0 11 -4.5t13 -4.5q31 0 73 81.5t105 81.5q49 0 107 -47q7 -6 7 -10z" />
    <glyph glyph-name="Zdot" unicode="&#x17b;" horiz-adv-x="1490" 
d="M1450 1166l-263 -227l167 17l-397 -349l138 -6l-395 -330l113 -10l-252 -186l2 -4q166 97 358 97q276 0 423 -124q48 -40 48 -62q-1 -20 -30 -38l-153 -92l-2 -4h242q29 0 0 -12l-226 -97q-13 -6 -19 -2l-155 92q-14 8 2 19l75 52q8 6 17 15q2 5 -18.5 16.5t-92.5 23.5
q-76 13 -131 13q-292 0 -620 -237q-10 -7 -15 -5q-7 3 -3 19l36 137l-297 -217l-2 2l375 454l-128 -23l444 459l-152 -29l388 475l-6 1q-124 -114 -256 -114q-101 0 -183 62l-4 -1q3 -13 3 -26q0 -49 -36 -83q-38 -37 -99 -37q-91 0 -145 38q-89 63 -89 168q0 77 62 78
q27 1 44 -16t15 -42q-3 -39 -25 -50q7 -32 38 -32q71 0 68 126q-2 21 -4 64q0 32 8 41q5 5 14 5t30 -8q74 -29 141 -29q62 0 179.5 28t176.5 28q96 0 152 -60l74 105zM974 1372q3 -14 -9 -23l-90 -68q-35 -27 -46 -27q-20 -1 -29 12t-21 37q-6 13 -20 40q-4 9 -18 4l-21 -8
q-9 -3 -15 7q-9 16 4 26l16 11q24 17 70 49q25 17 63 43q20 13 32 -11q6 -12 16 -36q8 -15 21 -41q10 -21 21 -14l14 10q8 6 12 -11z" />
    <glyph glyph-name="zdot" unicode="&#x17c;" horiz-adv-x="726" 
d="M692 174q0 -222 -213 -338q-148 -80 -295 -80q-172 0 -172 92q0 58 56 58q55 0 55 -56q0 -14 -6 -30q52 -8 71 -8q113 0 222 98q122 109 122 254q0 61 -30.5 97t-75.5 36q-107 0 -181 -96q-6 -13 -21 -28q-9 -2 -22 12q-66 69 -116 108q-12 9 -44 -13q-6 -5 -11 -5
q-7 0 -14.5 11.5t-7.5 17.5q1 7 13 17q100 73 304 230q-66 2 -110 -2q-11 -1 -15.5 3.5t-2.5 13.5q5 14 24 16q58 8 145 2q150 127 146 181l-2 -1q-7 -16 -26 -35q-11 -12 -18 -12q-6 0 -12 11q-9 15 -12 18q-81 72 -215 70q-49 -1 -103 -25q-64 -29 -70 -71h3q16 26 45 26
q21 0 36 -18t15 -37q1 -58 -58 -60q-84 -3 -84 91t111 152q88 46 191 50q198 7 327 -82q35 -25 33 -60q-3 -72 -199 -211q56 -9 81 -18q18 -7 16 -20q-2 -20 -20 -13q-36 13 -118 23q-94 -61 -244 -166l5 -1q101 66 220 66q105 0 178 -52q99 -70 99 -216zM500 1097
q3 -14 -9 -23l-90 -68q-35 -27 -46 -27q-20 -1 -29 12t-21 37q-6 13 -20 40q-4 9 -18 4l-21 -8q-9 -3 -15 7q-9 16 4 26l16 11q24 17 70 49q25 17 63 43q20 13 32 -11q6 -12 16 -36q8 -15 21 -41q10 -21 21 -14l14 10q8 6 12 -11z" />
    <glyph glyph-name="Zcaron" unicode="&#x17d;" horiz-adv-x="1490" 
d="M1450 1166l-263 -227l167 17l-397 -349l138 -6l-395 -330l113 -10l-252 -186l2 -4q166 97 358 97q276 0 423 -124q48 -40 48 -62q-1 -20 -30 -38l-153 -92l-2 -4h242q29 0 0 -12l-226 -97q-13 -6 -19 -2l-155 92q-14 8 2 19l75 52q8 6 17 15q2 5 -18.5 16.5t-92.5 23.5
q-76 13 -131 13q-292 0 -620 -237q-10 -7 -15 -5q-7 3 -3 19l36 137l-297 -217l-2 2l375 454l-128 -23l444 459l-152 -29l388 475l-6 1q-124 -114 -256 -114q-101 0 -183 62l-4 -1q3 -13 3 -26q0 -49 -36 -83q-38 -37 -99 -37q-91 0 -145 38q-89 63 -89 168q0 77 62 78
q27 1 44 -16t15 -42q-3 -39 -25 -50q7 -32 38 -32q71 0 68 126q-2 21 -4 64q0 32 8 41q5 5 14 5t30 -8q74 -29 141 -29q62 0 179.5 28t176.5 28q96 0 152 -60l74 105zM1020 1344q-7 -6 -17 -1q-7 6 -21 13q-16 4 -14 4q-8 0 -18 -6q-21 -14 -67 -45q-31 -20 -47 -26.5
t-34 -4.5q4 -7 8 -13l18 -16q-7 -8 -20 -11q-27 22 -70 55q-57 39 -78 53q-27 18 -68 43q-7 4 -7 15q0 3 81 50q12 7 19 7q5 0 19 -9q41 -23 87 -64q64 74 110 73q34 -1 114 -93q14 -17 5 -24z" />
    <glyph glyph-name="zcaron" unicode="&#x17e;" horiz-adv-x="726" 
d="M692 174q0 -222 -213 -338q-148 -80 -295 -80q-172 0 -172 92q0 58 56 58q55 0 55 -56q0 -14 -6 -30q52 -8 71 -8q113 0 222 98q122 109 122 254q0 61 -30.5 97t-75.5 36q-107 0 -181 -96q-6 -13 -21 -28q-9 -2 -22 12q-66 69 -116 108q-12 9 -44 -13q-6 -5 -11 -5
q-7 0 -14.5 11.5t-7.5 17.5q1 7 13 17q100 73 304 230q-66 2 -110 -2q-11 -1 -15.5 3.5t-2.5 13.5q5 14 24 16q58 8 145 2q150 127 146 181l-2 -1q-7 -16 -26 -35q-11 -12 -18 -12q-6 0 -12 11q-9 15 -12 18q-81 72 -215 70q-49 -1 -103 -25q-64 -29 -70 -71h3q16 26 45 26
q21 0 36 -18t15 -37q1 -58 -58 -60q-84 -3 -84 91t111 152q88 46 191 50q198 7 327 -82q35 -25 33 -60q-3 -72 -199 -211q56 -9 81 -18q18 -7 16 -20q-2 -20 -20 -13q-36 13 -118 23q-94 -61 -244 -166l5 -1q101 66 220 66q105 0 178 -52q99 -70 99 -216zM552 1060
q-6 -5 -16 -1q-7 5 -19 11q-15 4 -14 4q-7 0 -16 -6q-35 -23 -104 -61q-17 -6 -33 -4q2 0 24 -24q-6 -8 -19 -11q-25 19 -65 48q-52 34 -72 45q-25 16 -63 38q-7 4 -6 13q0 3 74 43q12 6 18 6q5 0 18 -8q37 -20 80 -55q60 64 103 63q31 -1 105 -80q13 -15 5 -21z" />
    <glyph glyph-name="circumflex" unicode="&#x2c6;" horiz-adv-x="790" 
d="M600 1340q9 -7 -5 -23q-40 -46 -51 -57q-37 -36 -63 -36q-46 -2 -110 73q-46 -41 -87 -65q-14 -8 -19 -8q-7 0 -19 7q-40 22 -81 49q0 11 7 15q25 16 68 44q21 14 78 53q27 22 70 55q12 -4 20 -12q-14 -14 -26 -28q18 2 34 -4.5t47 -27.5q25 -17 67 -44q10 -6 18 -6
q-2 0 14 4q7 5 21 13q10 5 17 -2z" />
    <glyph glyph-name="caron" unicode="&#x2c7;" horiz-adv-x="790" 
d="M600 1330q-7 -6 -17 -1q-7 6 -21 13q-16 4 -14 4q-8 0 -18 -6q-21 -14 -67 -45q-31 -20 -47 -26.5t-34 -4.5q4 -7 8 -13l18 -16q-7 -8 -20 -11q-27 22 -70 55q-57 39 -78 53q-27 18 -68 43q-7 4 -7 15q0 3 81 50q12 7 19 7q5 0 19 -9q41 -23 87 -64q64 74 110 73
q34 -1 114 -93q14 -17 5 -24z" />
    <glyph glyph-name="macron" unicode="&#xaf;" horiz-adv-x="1028" 
d="M671 1287q7 -8 -1 -11.5t-16 -1.5q-47 14 -126 19q-85 5 -199 -14q-17 -3 -24 7q-25 42 -41 73q-8 15 -7 18t18 7q86 17 188 19q63 1 108 -7q12 -2 22 -12q33 -42 78 -97z" />
    <glyph glyph-name="macron" unicode="&#x2c9;" horiz-adv-x="1028" 
d="M671 1287q7 -8 -1 -11.5t-16 -1.5q-47 14 -126 19q-85 5 -199 -14q-17 -3 -24 7q-25 42 -41 73q-8 15 -7 18t18 7q86 17 188 19q63 1 108 -7q12 -2 22 -12q33 -42 78 -97z" />
    <glyph glyph-name="breve" unicode="&#x2d8;" horiz-adv-x="790" 
d="M600 1388q1 -9 -3 -12q-20 -15 -73 -48q-26 -17 -74 -46q-31 -17 -56 -17t-45 8q-15 5 -46 25q-25 16 -66 42q-10 5 -18 5q1 0 -14 -3q-8 -5 -21 -13q-10 -4 -18 2t6 22q40 44 51 54q37 34 62 34q23 1 78 -38q17 -12 35 -12q8 0 83 42q15 8 20 8q7 0 19 -7q40 -21 80 -46
z" />
    <glyph glyph-name="dotaccent" unicode="&#x2d9;" horiz-adv-x="375" 
d="M320 1342q3 -14 -9 -23l-90 -68q-35 -27 -46 -27q-20 -1 -29 12t-21 37q-6 13 -20 40q-4 9 -18 4l-21 -8q-9 -3 -15 7q-9 16 4 26l16 11q24 17 70 49q25 17 63 43q20 13 32 -11q6 -12 16 -36q8 -15 21 -41q10 -21 21 -14l14 10q8 6 12 -11z" />
    <glyph glyph-name="ring" unicode="&#x2da;" horiz-adv-x="493" 
d="M363 1296q0 -20 -13 -35.5t-36 -40.5q-22 -17 -54 -17q-64 -1 -101 33q-29 28 -30 73q0 23 15 45q28 43 112 84l5 -5q-3 -4 -7 -6q42 -16 69 -42q40 -39 40 -89zM299 1286q0 32 -20 56q-38 42 -39 44q-44 -34 -44 -63q0 -49 58 -62q6 -1 19.5 1.5t25.5 23.5z" />
    <glyph glyph-name="ogonek" unicode="&#x2db;" horiz-adv-x="639" 
d="M476 -111q-4 -20 -38 -53t-99 -90q-23 -17 -50 -2q-16 9 -50 36q-31 24 -86 86q-8 12 -8 26q0 36 40 71q30 28 86 72q42 -6 103 -15q-51 -49 -51 -78q0 -25 35 -52q20 -15 47 -21q14 -2 25 4q15 9 18 21q5 28 -32 71h27q21 -16 28.5 -38t4.5 -38z" />
    <glyph glyph-name="tilde" unicode="&#x2dc;" horiz-adv-x="628" 
d="M499 1417q-1 -10 -3 -13q-55 -105 -141 -105q-41 0 -106 34.5t-90 34.5q-24 0 -35.5 -13.5t-14.5 -13.5q-5 0 -15.5 9.5t-10.5 14.5q0 13 37 46q34 30 53 40q36 18 70 18q42 0 105 -28t80 -28q15 0 28 12.5t17 12.5q26 0 26 -21z" />
    <glyph glyph-name="quoteleft" unicode="&#x2018;" horiz-adv-x="291" 
d="M271 1110l-60 -115q-9 -17 5 -30l23 -23q13 -12 3 -31q-7 -11 -29 6l-103 75q-32 24 -41 40q-11 22 -8 39q1 3 15 35q5 12 52 107l-18 16q-17 15 -10 23q13 14 29 4l120 -82q41 -27 22 -64z" />
    <glyph glyph-name="quoteright" unicode="&#x2019;" horiz-adv-x="291" 
d="M271 1071q3 -17 -9 -39q-9 -16 -41 -40l-102 -75q-23 -17 -29 -6q-11 19 2 31l24 23q14 13 5 30l-60 115q-19 37 21 64l121 82q15 10 28 -4q7 -8 -9 -23l-18 -16q22 -46 52 -107q6 -12 15 -35z" />
    <glyph glyph-name="quotesinglbase" unicode="&#x201a;" horiz-adv-x="375" 
d="M258 31q3 -17 -8 -39q-9 -16 -41 -40l-103 -75q-22 -17 -29 -6q-10 19 3 31l23 23q14 13 5 30l-60 115q-19 37 22 64l120 82q16 10 29 -4q7 -8 -10 -23l-18 -16q23 -46 52 -107q7 -12 15 -35z" />
    <glyph glyph-name="quotereversed" unicode="&#x201b;" horiz-adv-x="291" 
d="M271 1110l-60 -115q-9 -17 5 -30l23 -23q13 -12 3 -31q-7 -11 -29 6l-103 75q-32 24 -41 40q-11 22 -8 39q1 3 15 35q5 12 52 107l-18 16q-17 15 -10 23q13 14 29 4l120 -82q41 -27 22 -64z" />
    <glyph glyph-name="quotedblleft" unicode="&#x201c;" horiz-adv-x="442" 
d="M400 1110l-44 -114q-7 -17 3 -30l18 -23q10 -12 2 -30q-5 -11 -22 5l-76 75q-24 23 -31 40q-8 22 -6 38q0 3 11 35q4 11 39 106l-13 16q-13 15 -8 23q10 14 21 4l90 -81q30 -27 16 -64zM210 1110l-44 -114q-7 -17 3 -30l18 -23q10 -12 2 -30q-5 -11 -22 5l-76 75
q-24 23 -31 40q-8 22 -6 38q0 3 11 35q4 11 39 106l-13 16q-13 15 -8 23q10 14 21 4l90 -81q30 -27 16 -64z" />
    <glyph glyph-name="quotedblright" unicode="&#x201d;" horiz-adv-x="442" 
d="M400 1071q2 -16 -6 -38q-7 -17 -31 -40l-76 -75q-17 -16 -21 -5q-8 18 1 30l18 23q10 13 3 30l-44 114q-14 37 16 64l90 81q11 10 21 -4q5 -8 -7 -23l-14 -16q17 -46 39 -106q5 -12 11 -35zM210 1071q2 -16 -6 -38q-7 -17 -31 -40l-76 -75q-17 -16 -21 -5q-8 18 1 30
l18 23q10 13 3 30l-44 114q-14 37 16 64l90 81q11 10 21 -4q5 -8 -7 -23l-14 -16q17 -46 39 -106q5 -12 11 -35z" />
    <glyph glyph-name="quotedblbase" unicode="&#x201e;" horiz-adv-x="442" 
d="M400 31q2 -16 -6 -38q-7 -17 -31 -40l-76 -75q-17 -16 -21 -5q-8 18 1 30l18 23q10 13 3 30l-44 114q-14 37 16 64l90 81q11 10 21 -4q5 -8 -7 -23l-14 -16q17 -46 39 -106q5 -12 11 -35zM210 31q2 -16 -6 -38q-7 -17 -31 -40l-76 -75q-17 -16 -21 -5q-8 18 1 30l18 23
q10 13 3 30l-44 114q-14 37 16 64l90 81q11 10 21 -4q5 -8 -7 -23l-14 -16q17 -46 39 -106q5 -12 11 -35z" />
    <glyph glyph-name="ellipsis" unicode="&#x2026;" horiz-adv-x="1021" 
d="M950 122q3 -14 -9 -23l-90 -68q-35 -27 -46 -27q-20 -1 -29 12t-21 37q-6 13 -20 40q-4 9 -18 4l-21 -8q-9 -3 -15 7q-9 16 4 26l16 11q24 17 70 49q25 17 63 43q20 13 32 -11q6 -12 16 -36q8 -15 21 -41q10 -21 21 -14l14 10q8 6 12 -11zM610 122q3 -14 -9 -23l-90 -68
q-35 -27 -46 -27q-20 -1 -29 12t-21 37q-6 13 -20 40q-4 9 -18 4l-21 -8q-9 -3 -15 7q-9 16 4 26l16 11q24 17 70 49q25 17 63 43q20 13 32 -11q6 -12 16 -36q8 -15 21 -41q10 -21 21 -14l14 10q8 6 12 -11zM270 122q3 -14 -9 -23l-90 -68q-35 -27 -46 -27q-20 -1 -29 12
t-21 37q-6 13 -20 40q-4 9 -18 4l-21 -8q-9 -3 -15 7q-9 16 4 26l16 11q24 17 70 49q25 17 63 43q20 13 32 -11q6 -12 16 -36q8 -15 21 -41q10 -21 21 -14l14 10q8 6 12 -11z" />
    <glyph glyph-name="perthousand" unicode="&#x2030;" horiz-adv-x="1948" 
d="M1286 1261q11 -2 -10 -34q-8 -11 -33 -15q-31 -6 -68 -38q-64 -56 -179 -209q-87 -121 -174 -241l-301 -412q-54 -75 -126 -177q-21 -32 -24 -58q-4 -28 15 -29l23 -1q14 -1 14 -14q0 -20 -14 -29q-8 -5 -129 -3q-57 1 -145 3q-30 0 -76 3q-10 2 11 35q7 11 32 15
q32 5 69 37q43 38 241 303q143 192 280 389q78 102 244 343q27 43 27 69q0 17 -14 18l-23 2q-14 1 -14 14q0 23 14 32q33 1 85 3q40 3 145 -1q58 -1 130 -5zM562 846q0 -63 -26 -110q-22 -40 -85 -125q-42 -58 -114 -58q-142 -1 -220 103q-66 88 -67 231q-1 72 31.5 144
t109.5 153q50 51 138 113l11 -16q-7 -11 -16 -20q92 -51 152 -134q86 -121 86 -281zM498 811q0 88 -28 158q-23 60 -76 118l-1 -177q0 -29 1 -49v-29q0 -9 -2 -18q-4 -21 -12 -32q-23 -32 -120 -115q24 -22 75 -34q21 -6 47 -6q15 0 28 14q20 22 48 63q14 19 35 52
q5 10 5 55zM324 857q0 15 -2 149q-1 139 -1 144q-6 9 -55 57q-26 -18 -75 -81q-30 -39 -44 -74q-20 -50 -20 -109q0 -56 13 -103q15 -53 46 -103q17 -28 54 -57q18 15 50 51q26 29 32 45q0 2 1 28q0 14 1 53zM1260 288q0 -63 -26 -110q-22 -40 -85 -125q-43 -58 -114 -58
q-142 -1 -220 104q-66 87 -67 230q-1 73 31.5 144.5t109.5 152.5q49 52 137 113l12 -16l-16 -20q92 -50 151 -133q87 -121 87 -282zM1196 253q0 88 -28 159q-23 60 -76 117l-1 -177q0 -28 1 -49v-29q0 -9 -2 -17q-4 -22 -12 -32q-23 -33 -120 -116q24 -21 75 -34
q21 -5 47 -5q15 0 27 13q21 22 49 63q14 19 35 53q5 10 5 54zM1022 300q0 14 -2 148q-1 140 -1 145q-6 8 -55 56q-26 -17 -75 -80q-30 -40 -44 -75q-20 -50 -20 -109q0 -55 13 -103q15 -52 46 -103q17 -27 54 -57q18 15 50 51q26 29 32 46q0 2 1 28q0 14 1 53zM1840 288
q0 -63 -26 -110q-22 -40 -85 -125q-43 -58 -114 -58q-142 -1 -220 104q-66 87 -67 230q-1 73 31.5 144.5t109.5 152.5q49 52 137 113l12 -16l-16 -20q92 -50 151 -133q87 -121 87 -282zM1776 253q0 88 -28 159q-23 60 -76 117l-1 -177q0 -28 1 -49v-29q0 -9 -2 -17
q-4 -22 -12 -32q-23 -33 -120 -116q24 -21 75 -34q21 -5 47 -5q15 0 27 13q21 22 49 63q14 19 35 53q5 10 5 54zM1602 300q0 14 -2 148q-1 140 -1 145q-6 8 -55 56q-26 -17 -75 -80q-30 -40 -44 -75q-20 -50 -20 -109q0 -55 13 -103q15 -52 46 -103q17 -27 54 -57
q18 15 50 51q26 29 32 46q0 2 1 28q0 14 1 53z" />
    <glyph glyph-name="exclamdbl" unicode="&#x203c;" horiz-adv-x="977" 
d="M895 221l-9 -14q-7 -10 -25 0l-194 109q-40 22 -48 30q-24 22 -24 60q1 12 -1 49q-1 41 -1 59q0 8 -1 98v111v237q-1 73 -4 220q-1 29 -28 27l-26 -2q-13 -2 -14 10q-2 16 8 19q31 9 59 15q39 9 113 26q53 13 125 29q11 2 17 -8q7 -10 -3 -17l-30 -22q-15 -14 -15 -39
q0 -23 1 -53q1 -38 2 -47q0 -77 2 -224q2 -116 2 -259q0 -12 2 -106q1 -77 0 -101q-1 -33 2 -93q1 -28 3 -33q4 -12 23 -24l54 -36q16 -10 10 -21zM455 221l-9 -14q-7 -10 -25 0l-194 109q-40 22 -48 30q-24 22 -24 60q1 12 -1 49q-1 41 -1 59q0 8 -1 98v111v237
q-1 73 -4 220q-1 29 -28 27l-26 -2q-13 -2 -14 10q-2 16 8 19q31 9 59 15q39 9 113 26q53 13 125 29q11 2 17 -8q7 -10 -3 -17l-30 -22q-15 -14 -15 -39q0 -23 1 -53q1 -38 2 -47q0 -77 2 -224q2 -116 2 -259q0 -12 2 -106q1 -77 0 -101q-1 -33 2 -93q1 -28 3 -33
q4 -12 23 -24l54 -36q16 -10 10 -21zM897 90q-7 -12 -19 -8l-27 8q-17 6 -25 -8t-23 -39q-8 -16 -25 -40q-13 -13 -38 -12q-13 0 -59 29l-113 73q-15 9 -12 23q5 19 16 13l17 -11q14 -8 27 15q11 15 26 44q2 5 21 38q15 26 41 12q27 -17 79 -46q19 -11 88 -52l21 -12
q17 -11 5 -27zM457 90q-7 -12 -19 -8l-27 8q-17 6 -25 -8t-23 -39q-8 -16 -25 -40q-13 -13 -38 -12q-13 0 -59 29l-113 73q-15 9 -12 23q5 19 16 13l17 -11q14 -8 27 15q11 15 26 44q2 5 21 38q15 26 41 12q27 -17 79 -46q19 -11 88 -52l21 -12q17 -11 5 -27z" />
    <glyph glyph-name="fraction" unicode="&#x2044;" horiz-adv-x="1443" 
d="M1350 1261q10 -2 -11 -34q-7 -11 -32 -15q-32 -6 -69 -38q-64 -56 -178 -209q-88 -121 -175 -241l-301 -412q-54 -75 -126 -177q-20 -32 -24 -58q-4 -28 15 -29l24 -1q14 -1 14 -14q0 -20 -15 -29q-7 -5 -129 -3q-57 1 -145 3q-30 0 -76 3q-10 2 11 35q7 11 33 15
q31 5 68 37q44 38 241 303q144 192 281 389q77 102 243 343q28 43 28 69q0 17 -15 18l-23 2q-14 1 -14 14q0 23 15 32q32 1 84 3q40 3 145 -1q59 -1 131 -5z" />
    <glyph glyph-name="afii61248" unicode="&#x2105;" horiz-adv-x="1443" 
d="M1350 1261q10 -2 -11 -34q-7 -11 -32 -15q-32 -6 -69 -38q-64 -56 -178 -209q-88 -121 -175 -241l-301 -412q-54 -75 -126 -177q-20 -32 -24 -58q-4 -28 15 -29l24 -1q14 -1 14 -14q0 -20 -15 -29q-7 -5 -129 -3q-57 1 -145 3q-30 0 -76 3q-10 2 11 35q7 11 33 15
q31 5 68 37q44 38 241 303q144 192 281 389q77 102 243 343q28 43 28 69q0 17 -15 18l-23 2q-14 1 -14 14q0 23 15 32q32 1 84 3q40 3 145 -1q59 -1 131 -5zM585 743q0 -6 -9 -22q-26 -46 -58 -89q-18 -23 -30.5 -33.5t-40.5 -11.5q-22 -1 -53 -2q-21 -1 -34 -1q-19 1 -35 3
q-11 1 -35 22q-17 12 -46 37q-16 15 -46 46l-25 25q-3 4 -6.5 23.5t-3.5 47.5q0 13 1.5 44.5t1.5 48.5q1 20 0 72q0 36 3 106q-1 7 3 49q1 7 12 23q27 24 79 68q24 19 69 55q22 16 35 14q73 -10 119 -43q83 -58 83 -155q0 -53 -24 -98q-27 -52 -71 -52q-50 0 -50 47
q0 55 51 55q34 0 36 -41q10 21 10 43q-1 40 -61 76q-39 14 -78 29q-33 17 -30 85l-5 -3q-11 -19 -16 -49.5t-8 -74.5q0 -6 -2 -113q0 -21 -1 -64q-1 -60 1 -112q0 -33 3 -98q1 -12 7.5 -24t26.5 -28q13 -11 28 -20q12 -7 17 3q2 3 11 27l22 55q4 11 27 90q4 14 9 10
q9 -5 24 -15q19 -12 56 -34q33 -15 33 -21zM1318 242q-1 -51 -11 -91q-5 -21 -16 -43q-13 -27 -101 -68q-66 -31 -96 -36q-21 -4 -42 12q-40 30 -77 65q-16 15 -50 48q-16 15 -32 36q-5 6 -12 31q-3 86 -1 196q1 34 4 101q-41 14 -64 17q-3 21 12 46q3 -1 30 -9q8 -3 25 -9
q2 10 7 36q2 10 12 18q38 21 101 57q48 29 102 51q18 8 37 -2q14 -7 54.5 -34t68.5 -56q17 -19 21 -39q11 -63 16 -114q5 -43 10 -113q2 -60 2 -100zM1133 624q1 12 -2 21q-32 -24 -98 -68q-1 -6 -1 -22q0 -2 1 -8v-10q13 4 28 11q9 5 34 20q19 14 26 26q11 19 12 30z
M1160 296q-1 59 -5 115q-3 52 -7 90q-2 13 -18 14q-22 1 -40 -5q-27 -8 -57 -21v-130q1 -44 4 -139q1 -35 5 -105q1 -10 9.5 -20.5t22.5 -23.5q8 -7 21 -4q16 5 41 18q9 5 12 21q5 32 8 81q4 65 4 109z" />
    <glyph glyph-name="trademark" unicode="&#x2122;" horiz-adv-x="1286" 
d="M587 1369q-3 -14 -12 -36q-13 -35 -35 -91q-3 -12 -11 -33q-4 -9 -21 -23q-17 -5 -19 -3t5 17q13 32 17 53q-11 -21 -37 -43q-85 -10 -88 -47l-17 -153l53 55l-70 -318l42 34l-108 -385h-2l9 274l-37 -46l15 281l-38 -45l-1 267q0 15 -26 16q-15 0 -31 -3q-33 -7 -80 -20
q-13 -7 -25 -32q-1 -8 -20 -19q-9 -1 -13 0q-5 2 -3 9q3 7 10.5 34.5t23.5 86.5q7 26 19 64q6 13 17 6q4 -3 4 -10q-2 -17 -5 -29q25 29 36 32h22q23 1 159 31l99 22q40 9 120 31q8 3 22 21q4 5 13 14q7 -2 13 -12zM1077 686q-3 -90 10 -136q19 9 49 21q18 7 25 -16
q5 -16 11 -41q-32 -9 -60 -10q-40 -2 -63 16q-85 71 -87 168q-2 82 23.5 138.5t65.5 107.5q23 27 55 70q5 8 -2 18q-41 54 -92 90q-11 7 -20 1q-42 -34 -59 -49q-9 -8 -8 -23q1 -80 11 -326l-49 40l28 -284l-43 52l-12 -211l-2 1l-101 329l47 -28l-56 269l48 -30l-16 162
q-2 23 -28 47t-61 51q-8 7 -19 -1q-58 -40 -88 -79q-7 -9 -2 -18q22 -37 50 -75q46 -63 68 -112q28 -64 25 -135q-3 -103 -105 -184q-17 -14 -29 -9q-40 18 -78 9q0 17 4.5 39t20.5 18l35 -9q37 47 32 144q-4 66 -72 207q-67 137 -67 162q0 11 29 36q20 18 92 65
q48 32 74 41q16 6 31 -9q31 -27 75 -71q23 20 64 56q12 11 24 1q27 -22 65 -54q25 29 73 75q8 7 24 2q28 -7 80 -39q68 -41 90 -61q29 -25 29 -37q0 -25 -68.5 -169.5t-70.5 -219.5z" />
    <glyph glyph-name="oneeighth" unicode="&#x215b;" horiz-adv-x="1365" 
d="M1277 1261q11 -2 -10 -34q-8 -11 -33 -15q-31 -6 -68 -38q-64 -56 -179 -209q-87 -121 -175 -241l-300 -412q-54 -75 -126 -177q-21 -32 -24 -58q-4 -28 15 -29l23 -1q14 -1 14 -14q0 -20 -14 -29q-8 -5 -129 -3q-57 1 -145 3q-30 0 -76 3q-10 2 11 35q7 11 32 15
q32 5 69 37q43 38 240 303q144 192 281 389q77 102 244 343q27 43 27 69q0 17 -14 18l-24 2q-13 1 -13 14q0 23 14 32q32 1 84 3q41 3 145 -1q59 -1 131 -5zM402 583l-33 -1q-16 0 -98 1q-21 -1 -60 0h-27q-11 0 -11 6q0 3 12 9l23 11q10 5 10 12v77q0 10 1 103q2 116 0 199
q-2 126 -1 176q0 15 -25 15h-52h-11q-10 2 7 10l145 70q23 11 35 8q11 -3 19 -6q5 -2 6 -11l4 -37q3 -29 3 -60l1 -153q0 -120 2 -146q1 -29 4 -87q2 -30 12 -119q1 -13 4 -39q2 -16 8 -19l18 -8q25 -11 4 -11zM1285 199q0 -46 -20 -75q-28 -41 -113 -98q-68 -44 -102 -44
q-92 0 -181.5 58t-89.5 120q0 52 79 114l78 62q-146 75 -146 134q0 72 139 169q46 27 134 84l24 -14q-2 -4 -14 -15q55 -8 109 -50t54 -83q0 -39 -44 -80q-27 -25 -120 -88q213 -108 213 -194zM1120 500q0 36 -49 82q-41 39 -77 53q-81 -54 -81 -89q0 -57 117 -130l19 -10
q71 52 71 94zM1171 128q0 49 -62 99q-40 33 -148 93q-59 -36 -59 -88q0 -48 65.5 -105.5t143.5 -76.5q16 8 48 35q12 10 12 43z" />
    <glyph glyph-name="threeeighths" unicode="&#x215c;" horiz-adv-x="1406" 
d="M1326 1261q10 -2 -11 -34q-7 -11 -33 -15q-31 -6 -68 -38q-64 -56 -179 -209q-87 -121 -174 -241l-301 -412q-54 -75 -126 -177q-21 -32 -24 -58q-4 -28 15 -29l23 -1q14 -1 14 -14q0 -20 -14 -29q-7 -5 -129 -3q-57 1 -145 3q-30 0 -76 3q-10 2 11 35q7 11 33 15
q31 5 68 37q43 38 241 303q143 192 280 389q78 102 244 343q27 43 27 69q0 17 -14 18l-23 2q-14 1 -14 14q0 23 15 32q32 1 84 3q40 3 145 -1q58 -1 131 -5zM572 770q0 -71 -110 -159q-58 -46 -96 -67q-21 -11 -45 -11q-37 0 -57 25q-74 94 -120 94q-21 0 -37.5 -17
t-16.5 -33q0 -5 2 -9q9 8 21 8q33 0 33 -31q0 -34 -41 -34q-55 0 -55 55q0 56 39 93q52 48 119 48q64 0 104 -38q27 -26 55 -57q14 -16 22 -16q6 0 13 4q42 26 42 94q0 62 -74 111q-32 21 -128 62q-12 -5 -30 -14q-11 -5 -16 -2q-1 2 -6 6q-6 5 3 9q15 10 40 26q47 30 99 82
q66 68 66 108q0 32 -18 44q-46 -37 -143 -37q-71 0 -125 25q-62 28 -62 75q0 55 54 55q40 0 40 -30t-41 -30q-2 -4 -2 -8q0 -19 35 -20q82 -2 166 66q12 10 48 48l30 -13q-5 -9 -15 -20q83 -12 138.5 -48.5t55.5 -80.5q0 -90 -190 -183q203 -77 203 -180zM1321 199
q0 -46 -20 -75q-27 -41 -113 -98q-68 -44 -102 -44q-91 0 -181 58t-90 120q0 52 79 114l78 62q-145 75 -145 134q0 72 138 169q46 27 134 84l24 -14q-2 -4 -14 -15q55 -8 109.5 -50t54.5 -83q0 -39 -45 -80q-27 -25 -119 -88q212 -108 212 -194zM1156 500q0 36 -48 82
q-42 39 -78 53q-80 -54 -80 -89q0 -57 116 -130l20 -10q70 52 70 94zM1207 128q0 49 -62 99q-40 33 -148 93q-59 -36 -59 -88q0 -48 66 -105.5t144 -76.5q15 8 47 35q12 10 12 43z" />
    <glyph glyph-name="fiveeighths" unicode="&#x215d;" horiz-adv-x="1373" 
d="M1293 1261q11 -2 -10 -34q-8 -11 -33 -15q-31 -6 -68 -38q-64 -56 -179 -209q-87 -121 -174 -241l-301 -412q-54 -75 -126 -177q-21 -32 -24 -58q-4 -28 15 -29l23 -1q14 -1 14 -14q0 -20 -14 -29q-8 -5 -129 -3q-57 1 -145 3q-30 0 -76 3q-10 2 11 35q7 11 32 15
q32 5 69 37q43 38 241 303q143 192 280 389q78 102 244 343q27 43 27 69q0 17 -14 18l-23 2q-14 1 -14 14q0 23 14 32q33 1 85 3q40 3 145 -1q58 -1 130 -5zM1291 199q0 -46 -20 -75q-28 -41 -113 -98q-68 -44 -102 -44q-92 0 -181.5 58t-89.5 120q0 52 79 114l78 62
q-146 75 -146 134q0 72 139 169q46 27 134 84l24 -14q-2 -4 -14 -15q55 -8 109 -50t54 -83q0 -39 -44 -80q-27 -25 -120 -88q213 -108 213 -194zM1126 500q0 36 -48 82q-42 39 -78 53q-81 -54 -81 -89q0 -57 117 -130l19 -10q71 52 71 94zM1177 128q0 49 -62 99
q-40 33 -148 93q-59 -36 -59 -88q0 -48 65.5 -105.5t143.5 -76.5q16 8 48 35q12 10 12 43zM673 1190q0 -117 -167 -117q-122 0 -228 91q-26 -103 -50 -153q112 -9 211 -59q133 -67 133 -172q0 -125 -221 -208q-75 -21 -149 -42q-120 -38 -108 -68q6 6 20 6q24 0 24 -19
q0 -22 -38 -22q-59 0 -59 47q0 40 79 87q74 43 149 85q79 56 79 117q0 122 -269 174q68 107 89 196q-3 6 -16 10l-53 -9q-14 -2 -14 10q0 4 11 10q67 31 125 63q55 29 127 72l28 -17q-2 -3 -26 -28q33 15 53 12q30 -3 59 -37q48 -55 91 -55q52 0 54 21q-47 0 -47 33
q0 35 50 35q63 0 63 -63z" />
    <glyph glyph-name="seveneighths" unicode="&#x215e;" horiz-adv-x="1357" 
d="M1277 1261q11 -2 -10 -34q-8 -11 -33 -15q-31 -6 -68 -38q-64 -56 -179 -209q-87 -121 -175 -241l-300 -412q-54 -75 -126 -177q-21 -32 -24 -58q-4 -28 15 -29l23 -1q14 -1 14 -14q0 -20 -14 -29q-8 -5 -129 -3q-57 1 -145 3q-30 0 -76 3q-10 2 11 35q7 11 32 15
q32 5 69 37q43 38 240 303q144 192 281 389q77 102 244 343q27 43 27 69q0 17 -14 18l-24 2q-13 1 -13 14q0 23 14 32q32 1 84 3q41 3 145 -1q59 -1 131 -5zM1275 199q0 -46 -20 -75q-28 -41 -113 -98q-68 -44 -102 -44q-92 0 -181.5 58t-89.5 120q0 52 79 114l78 62
q-146 75 -146 134q0 72 139 169q46 27 134 84l24 -14q-2 -4 -14 -15q55 -8 109 -50t54 -83q0 -39 -44 -80q-27 -25 -120 -88q213 -108 213 -194zM1110 500q0 36 -49 82q-41 39 -77 53q-81 -54 -81 -89q0 -57 117 -130l19 -10q71 52 71 94zM1161 128q0 49 -62 99
q-40 33 -148 93q-59 -36 -59 -88q0 -48 65.5 -105.5t143.5 -76.5q16 8 48 35q12 10 12 43zM579 1156q-154 -179 -177 -437q-4 -47 0 -79q2 -16 5 -22q4 -11 16 -14l29 -5q20 -4 10 -18q-5 -8 -37 -14q-95 -18 -167 -42q-18 -7 -47 -15q-7 -2 -8 15q-1 4 19 24t22 47
q-1 -14 -1 90q0 112 56 207q43 73 154 184l-8 2q-61 -56 -195 -56q-79 0 -136 36q-61 40 -61 103q0 31 18 55q21 28 55 28q43 0 43 -37q0 -40 -46 -32q-4 -5 -4 -10q0 -29 54 -29q91 0 181 45q27 16 55 32q38 21 52 21q9 0 40 -21q-2 5 -10 31l26 13q21 -37 62 -102z" />
    </font>
</defs>
</svg>
