<?xml version="1.0" standalone="no"?>
<!DOCTYPE svg PUBLIC "-//W3C//DTD SVG 1.1//EN" "http://www.w3.org/Graphics/SVG/1.1/DTD/svg11.dtd" >
<svg xmlns="http://www.w3.org/2000/svg" xmlns:xlink="http://www.w3.org/1999/xlink" version="1.1">
<metadata>
Created by FontForge 20201107 at Mon Jan 21 18:20:11 2019
 By Jimmy Wärting
Harry Beast (c) J.K. Rowling &#38; Warner Bros. TM Warner Bros.
Design direction by Pentagram, Emily Oberman and Timothy Cohan
Created by MCKL Type (https://mckltype.com/custom-typeface/harry-beast/)
</metadata>
<defs>
<font id="WizardWorld-Simplified" horiz-adv-x="498" >
  <font-face 
    font-family="Wizard World"
    font-weight="400"
    font-stretch="normal"
    units-per-em="2048"
    panose-1="2 0 0 0 0 0 0 0 0 0"
    ascent="1485"
    descent="-563"
    x-height="1294"
    cap-height="1293"
    bbox="-61 -567 2496 1700.05"
    underline-thickness="102"
    underline-position="-306"
    unicode-range="U+0020-F8FF"
  />
<missing-glyph horiz-adv-x="460" 
 />
    <glyph glyph-name=".notdef" horiz-adv-x="460" 
 />
    <glyph glyph-name=".notdef" horiz-adv-x="460" 
 />
    <glyph glyph-name=".null" horiz-adv-x="0" 
 />
    <glyph glyph-name="nonmarkingreturn" horiz-adv-x="682" 
 />
    <glyph glyph-name="space" unicode=" " horiz-adv-x="460" 
 />
    <glyph glyph-name="exclam" unicode="!" horiz-adv-x="361" 
d="M316 122l-134 -135l-135 135l135 134zM298 1202q-53 -355 -92 -795l-41 -35q-38 418 -99 830l116 116z" />
    <glyph glyph-name="quotedbl" unicode="&#x22;" horiz-adv-x="684" 
d="M121 1012q-67 68 -6 166q64 98 167 153q-92 -134 -26 -199l61 -60l-128 -128zM445 1012q-68 68 -7 166q64 98 168 153q-93 -134 -27 -199l61 -60l-127 -128z" />
    <glyph glyph-name="numbersign" unicode="#" horiz-adv-x="1313" 
d="M438 491h315l129 310h-315zM237 1l-148 -3l160 389h-224l55 102h211l129 309h-223l55 101h209l160 389h146l-159 -385h315l160 388h147l-161 -388h225l-55 -102h-211l-129 -310h223l-56 -101h-208l-160 -389h-146l160 389h-315z" />
    <glyph glyph-name="dollar" unicode="$" horiz-adv-x="962" 
d="M541 490l-3 -390q179 36 179 189q0 133 -176 201zM256 977q0 -138 182 -214v372q-182 -15 -182 -158zM859 1124l17 -269q-190 234 -340 271v-402l117 -44q260 -100 260 -336q0 -139 -104.5 -242t-272.5 -123v-193l-99 -74v264q-207 14 -374 137l-13 260
q209 -264 387 -279v437l-92 35q-277 109 -277 346q0 140 104.5 238.5t265.5 101.5v180l100 74v-260q176 -20 321 -122z" />
    <glyph glyph-name="percent" unicode="%" horiz-adv-x="1359" 
d="M1028 567q-129 0 -129 -264q0 -262 138 -262q127 0 127 262q0 264 -136 264zM1032 634q80 0 143 -42.5t98 -118t35 -170.5q0 -137 -78.5 -232.5t-197.5 -95.5q-120 0 -197.5 93t-77.5 235q0 139 78 235t197 96zM333 728q129 0 129 264q0 261 -138 261q-127 0 -127 -261
q0 -264 136 -264zM330 661q-80 0 -143.5 42.5t-98.5 117.5t-35 170q0 138 79 234.5t198 95.5q120 -1 197 -94t77 -236q0 -139 -78 -234.5t-196 -95.5zM394 14l-125 -43l698 1306l126 41z" />
    <glyph glyph-name="ampersand" unicode="&#x26;" horiz-adv-x="1336" 
d="M1296 0h-442l76 81l-99 114q-84 -112 -172 -166q-101 -62 -226 -62q-177 0 -287 112q-46 47 -72 107q-23 57 -23 114q0 143 87 249q82 99 236 163l-28 31q-69 78 -101 146q-28 59 -30 117q0 138 97 224q98 86 262 86q87 0 169 -21q84 -22 143 -62l19 -246
q-95 118 -186 172q-80 47 -162 47q-69 0 -108 -38q-37 -36 -37 -97q0 -52 28 -99q22 -39 89 -114l353 -399l118 183l-96 96h292l-240 -361l260 -296zM308 531q-47 -76 -47 -170t62 -164q69 -78 180 -78q80 0 147 43q58 37 112 112l-333 375q-78 -46 -121 -118z" />
    <glyph glyph-name="quotesingle" unicode="'" horiz-adv-x="361" 
d="M242 1246q68 -68 7 -166q-64 -98 -168 -153q92 133 27 199l-61 59l127 129z" />
    <glyph glyph-name="parenleft" unicode="(" horiz-adv-x="714" 
d="M54 642q0 613 597 800q-359 -218 -359 -800t363 -792l-4 -7q-597 186 -597 799z" />
    <glyph glyph-name="parenright" unicode=")" horiz-adv-x="714" 
d="M661 642q0 -612 -597 -799l-4 7q363 210 363 792t-363 793q601 -179 601 -793z" />
    <glyph glyph-name="asterisk" unicode="*" horiz-adv-x="735" 
d="M448 701l-81 -80l-79 80l63 239l-176 -175l-108 30l29 108l243 65l-243 64l-29 111l108 29l177 -178l-64 243l79 79l81 -79l-66 -243l177 178l110 -29l-29 -111l-242 -62l242 -67l29 -108l-110 -30l-177 177z" />
    <glyph glyph-name="plus" unicode="+" horiz-adv-x="887" 
d="M57 558l65 101h269v271l101 64v-335h336l-65 -101h-271v-270l-101 -64v334h-334z" />
    <glyph glyph-name="comma" unicode="," horiz-adv-x="369" 
d="M266 189q67 -68 6 -166q-64 -98 -168 -153q93 133 27 199l-61 59l128 129z" />
    <glyph glyph-name="hyphen" unicode="-" horiz-adv-x="669" 
d="M103 613l65 99h429l-64 -99h-430z" />
    <glyph glyph-name="period" unicode="." horiz-adv-x="409" 
d="M336 123l-135 -135l-134 135l134 134z" />
    <glyph glyph-name="slash" unicode="/" horiz-adv-x="1000" 
d="M221 -165l-125 -40l612 1491l125 40z" />
    <glyph glyph-name="zero" unicode="0" horiz-adv-x="1198" 
d="M608 65q125 0 204 158t79 422q0 175 -38.5 308t-107 203t-155.5 70q-127 0 -206 -158t-79 -422.5t84.5 -422.5t218.5 -158zM599 -35q-242 0 -396.5 192.5t-154.5 487.5q0 284 157 483t394 197q239 -1 394 -193.5t155 -486.5q0 -284 -156 -482t-393 -198z" />
    <glyph glyph-name="one" unicode="1" horiz-adv-x="699" 
d="M254 91v1035l-185 61l423 132l-3 -118v-1110l96 -92h-427z" />
    <glyph glyph-name="two" unicode="2" horiz-adv-x="968" 
d="M485 1317q177 0 291 -87.5t114 -217.5q0 -67 -18 -124.5t-65.5 -125.5t-100.5 -128t-153 -164l-295 -309h517l157 187l-18 -349h-889l360 462q263 336 263 506q0 235 -219 235q-145 0 -340 -240l19 246q172 111 377 109z" />
    <glyph glyph-name="three" unicode="3" horiz-adv-x="1018" 
d="M453 -34q-231 0 -333 89l-19 240q192 -237 354 -237q269 0 269 298q0 139 -85 219t-219 80q-46 2 -183 -7l410 495h-392l-157 -186l18 336h825l-450 -530h29q210 0 328 -99.5t118 -270.5q0 -192 -140.5 -309.5t-372.5 -117.5z" />
    <glyph glyph-name="four" unicode="4" horiz-adv-x="1209" 
d="M677 756l234 125v-407h46l148 197l-16 -341h-178v-239l93 -92h-418l92 92v239h-630q410 533 569 963h265q-203 -305 -630 -819h425v282z" />
    <glyph glyph-name="five" unicode="5" horiz-adv-x="1022" 
d="M432 654l-4 -1q-114 2 -301 -67l43 707h688l24 -342l-151 192h-424l-22 -396q111 36 229 35q198 0 324 -104t126 -288q0 -185 -139 -305t-364 -120q-251 0 -353 89l-19 241q192 -237 374 -237q58 0 106.5 21t82.5 60t52.5 96.5t18.5 127.5q0 136 -84 213.5t-207 77.5z
" />
    <glyph glyph-name="six" unicode="6" horiz-adv-x="1101" 
d="M1048 418q-1 -199 -143.5 -327.5t-332.5 -128.5q-230 0 -374.5 182t-144.5 467q0 323 178 518.5t434 195.5q147 5 275 -67l18 -244q-167 200 -319 200q-150 0 -239.5 -151.5t-89.5 -436.5q0 -257 81 -410.5t210 -153.5q93 0 154.5 82.5t61.5 230.5q0 131 -73 207.5
t-187 76.5q-95 5 -174 -48q22 62 104.5 120t196.5 58q162 0 263 -103t101 -268z" />
    <glyph glyph-name="seven" unicode="7" horiz-adv-x="1038" 
d="M51 948l17 345h946q-216 -261 -329 -495.5t-139.5 -397.5t-26.5 -401h-266q73 624 523 1132h-577z" />
    <glyph glyph-name="eight" unicode="8" horiz-adv-x="994" 
d="M488 64q108 0 176 66t68 163q0 93 -42.5 142.5t-153.5 98.5l-176 75q-285 126 -285 357q0 74 33 140.5t88 114t130 76t156 28.5q174 0 287.5 -81t113.5 -206q0 -96 -74 -168.5t-157 -93.5q68 82 68 190q0 65 -29.5 126.5t-87.5 102.5t-130 41q-63 0 -109 -25t-68.5 -66
t-22.5 -92q0 -148 207 -238l172 -76q296 -130 296 -377q0 -160 -132.5 -277t-337.5 -117q-120 0 -218 41.5t-154.5 115.5t-56.5 165q0 110 85.5 194.5t179.5 104.5q-94 -107 -94 -231q0 -53 19 -105t52.5 -94.5t85 -68.5t111.5 -26z" />
    <glyph glyph-name="nine" unicode="9" horiz-adv-x="1102" 
d="M54 868q2 200 144.5 328t331.5 128q230 0 375 -182t145 -467q0 -323 -178 -518.5t-434 -195.5q-147 -5 -275 67l-19 244q168 -200 320 -200q150 0 239.5 151.5t89.5 436.5q0 171 -37.5 299.5t-103.5 196.5t-150 68q-94 0 -155.5 -82t-61.5 -230q0 -132 73 -208.5
t188 -76.5q95 -5 174 48q-23 -62 -105.5 -120t-196.5 -58q-162 0 -263 103t-101 268z" />
    <glyph glyph-name="colon" unicode=":" horiz-adv-x="409" 
d="M336 676l-135 -135l-134 135l134 134zM336 123l-135 -135l-134 135l134 134z" />
    <glyph glyph-name="semicolon" unicode=";" horiz-adv-x="409" 
d="M336 675l-135 -135l-134 135l134 134zM270 189q68 -68 7 -166q-64 -98 -168 -153q93 133 27 199l-61 59l127 129z" />
    <glyph glyph-name="less" unicode="&#x3c;" horiz-adv-x="687" 
d="M592 152l-500 418l500 421v-129l-344 -286l344 -288v-136z" />
    <glyph glyph-name="equal" unicode="=" horiz-adv-x="863" 
d="M32 447l64 101h706l-64 -101h-706zM50 723l65 102h706l-65 -102h-706z" />
    <glyph glyph-name="greater" unicode="&#x3e;" horiz-adv-x="682" 
d="M92 991l499 -420l-499 -420v129l343 286l-343 287v138z" />
    <glyph glyph-name="question" unicode="?" horiz-adv-x="884" 
d="M535 122l-135 -134l-135 134l135 135zM417 1320q196 0 307 -92t111 -252q0 -145 -104 -232.5t-270 -98.5l-35 -238l-43 -35l-49 339h70q90 0 151.5 75.5t61.5 176.5q0 253 -221 253q-175 0 -350 -217l15 215q117 106 356 106z" />
    <glyph glyph-name="at" unicode="@" horiz-adv-x="1358" 
d="M1175 268q-58 -141 -197 -220.5t-293 -79.5q-268 -6 -458 183t-186 457q0 292 188 501t492 209q277 0 436 -149t159 -384q0 -163 -101 -287.5t-262 -124.5q-123 0 -175.5 65.5t-25.5 173.5l48 199q-36 25 -79 20q-75 0 -139 -59.5t-64 -168.5q0 -116 96 -116q47 2 85 29
q-31 -142 -177 -145q-58 0 -107.5 54t-49.5 148q0 164 108 271t252 107q88 0 166 -42l110 49l-94 -360q-32 -129 72 -129q96 0 164 93t68 224q0 189 -127.5 316t-355.5 127q-248 0 -409 -179t-161 -437q0 -233 150 -393t379 -160q269 0 488 208z" />
    <glyph glyph-name="A" unicode="A" horiz-adv-x="1449" 
d="M465 520h423l-212 529zM139 82l138 333l-92 106h137l288 688l-87 83h420l-85 -83l460 -1127l81 -83h-427l85 83l-101 268l57 63h-591l-130 -320l91 -94h-333z" />
    <glyph glyph-name="B" unicode="B" horiz-adv-x="1148" 
d="M382 178l-68 -72h297q108 0 175 73.5t67 179.5q0 107 -67 179.5t-175 72.5h-229v-433zM535 1184l-153 1v-468h153q113 0 182.5 67t69.5 166t-69.5 166.5t-182.5 67.5zM140 92l-1 1108l-92 92h524q192 0 319 -93.5t127 -233.5q0 -199 -235 -284q312 -68 312 -322
q0 -155 -126.5 -257.5t-320.5 -102.5h-600z" />
    <glyph glyph-name="C" unicode="C" horiz-adv-x="1268" 
d="M738 1324q186 -3 342 -102l100 98l39 -418l-78 98q-154 194 -368 194q-201 0 -333 -160.5t-132 -389.5q0 -230 132.5 -390.5t332.5 -160.5q229 -4 368 178l78 97l-39 -400l-100 98q-156 -100 -342 -102q-286 -8 -489 193t-199 487q0 145 51 271t141 216t218.5 141.5
t277.5 51.5z" />
    <glyph glyph-name="D" unicode="D" horiz-adv-x="1387" 
d="M407 178l-69 -71h261q206 0 345.5 158t139.5 381.5t-139.5 380.5t-345.5 157h-192v-1006zM165 92v1108l-92 92h563q305 -1 505 -184t200 -462q0 -280 -200 -463.5t-505 -183.5h-564z" />
    <glyph glyph-name="E" unicode="E" horiz-adv-x="1045" 
d="M141 92v1108l-93 92h880l28 -340l-176 224h-397v-456h237l127 115v-344l-127 120h-237v-423l-68 -73h520l158 205l-18 -321h-927z" />
    <glyph glyph-name="F" unicode="F" horiz-adv-x="1045" 
d="M144 92v1108l-92 92h880l27 -340l-176 224h-397v-456h237l127 115v-344l-127 120h-305l68 -72v-447l93 -93h-427z" />
    <glyph glyph-name="G" unicode="G" horiz-adv-x="1400" 
d="M1019 454l69 73h-240l-93 109h593l-93 -92v-576l-116 112q-184 -114 -401 -116q-286 -8 -489.5 193t-198.5 487q0 194 87 349t244.5 243t356.5 88q185 -4 340 -103l100 98l39 -420l-77 98q-156 196 -368 196q-201 0 -333.5 -161.5t-132.5 -389.5q0 -232 132.5 -393.5
t333.5 -161.5q130 -2 247 55v312z" />
    <glyph glyph-name="H" unicode="H" horiz-adv-x="1320" 
d="M140 91l1 1109l-93 93h426l-92 -93v-482h553v482l-93 93h427l-93 -93v-1108l93 -93h-427l91 93v509h-620l69 -72v-437l92 -93h-426z" />
    <glyph glyph-name="I" unicode="I" 
d="M127 91v1109l-92 93h427l-93 -93v-1109l93 -93h-427z" />
    <glyph glyph-name="J" unicode="J" horiz-adv-x="997" 
d="M382 -33q-203 -2 -305 87l-19 240q175 -218 324 -218q223 0 223 251v873l-92 93h427l-93 -93v-803q0 -131 -54 -227.5t-159 -149.5t-252 -53z" />
    <glyph glyph-name="K" unicode="K" horiz-adv-x="1288" 
d="M391 93l92 -94h-427l93 93v1108l-93 93h427l-92 -93v-501l554 499l-83 94h338l-96 -83l-466 -427l489 -685l119 -98h-481l85 83l-382 547l-77 -72v-464z" />
    <glyph glyph-name="L" unicode="L" horiz-adv-x="1028" 
d="M145 93v1107l-92 93h427l-92 -93v-1012l-69 -73h521l158 207l-19 -322h-926z" />
    <glyph glyph-name="M" unicode="M" horiz-adv-x="1896" 
d="M336 102l101 -103h-358l101 101l165 1112l-2 4l-91 75h428l-85 -83l360 -900l359 892l-92 93h418l-93 -93l176 -1107l92 -93h-430l92 93l-129 849l-377 -914l-100 -87l-421 1016z" />
    <glyph glyph-name="N" unicode="N" horiz-adv-x="1295" 
d="M280 102l101 -102h-353l102 102v1069l-96 122h305l679 -971v870l-101 101h354l-102 -101v-1083l85 -109h-297l-677 970v-868z" />
    <glyph glyph-name="O" unicode="O" horiz-adv-x="1483" 
d="M755 75q185 0 308 166t123 405q0 156 -57.5 286.5t-160.5 207.5t-231 77q-187 0 -309.5 -166t-122.5 -405q0 -240 127 -405.5t323 -165.5zM748 -34l-6 -1q-306 0 -502 192.5t-196 487.5q0 283 201.5 482.5t502.5 198.5q304 -2 500 -194t196 -486q0 -139 -52 -263.5
t-143 -216.5t-221.5 -146t-279.5 -54z" />
    <glyph glyph-name="P" unicode="P" horiz-adv-x="1083" 
d="M147 94l-5 1106l-93 92h550q194 -1 320.5 -104t126.5 -256q0 -151 -114.5 -253t-278.5 -102q-144 0 -198 74q48 -8 96 -7q113 1 184 79.5t71 192t-67.5 190.5t-176.5 77h-173v-1089l92 -93h-427z" />
    <glyph glyph-name="Q" unicode="Q" horiz-adv-x="1551" 
d="M685 152q1 -87 125 -87q41 0 81 11l-17 19q-102 112 -132 112q-24 2 -41 -14.5t-16 -40.5zM306 602q1 -427 283 -597q-222 13 -379.5 188t-157.5 429q0 305 198.5 504.5t501.5 199.5q302 0 498 -193t196 -487q4 -377 -316 -575l43 -50q82 -92 164 -92q92 0 187 94
l-83 -190q-61 -45 -137 -46q-157 0 -294 155l-53 59q-67 -14 -136 -15q-249 0 -249 186q0 179 199 179q116 0 214 -115l59 -68q144 157 144 476q0 238 -128.5 404.5t-318.5 166.5q-192 0 -313.5 -168.5t-121.5 -444.5z" />
    <glyph glyph-name="R" unicode="R" horiz-adv-x="1262" 
d="M564 1183h-173v-504h173q106 0 171.5 73t65.5 180q0 69 -28.5 126t-83 91t-125.5 34zM149 91l-3 1108l-92 93h545q194 -2 320.5 -103.5t126.5 -256.5q0 -264 -294 -340l79 -27l338 -483l68 -83h-417l83 83l-344 490h-168v-481l92 -92h-427z" />
    <glyph glyph-name="S" unicode="S" horiz-adv-x="962" 
d="M917 360q1 -166 -128.5 -281t-324.5 -113q-159 5 -288 98l-98 -95l-30 420l74 -93q170 -216 344 -216q100 0 167.5 66t67.5 154q0 131 -181 214l-175 80q-289 130 -289 370q0 152 110 258t278 104q164 -4 298 -98l97 95l30 -420l-74 92q-174 217 -342 217
q-192 0 -192 -180q0 -143 203 -236l172 -79q281 -131 281 -357z" />
    <glyph glyph-name="T" unicode="T" horiz-adv-x="1301" 
d="M52 972l19 321h1165l18 -321l-157 204h-323v-1085l92 -92h-426l92 92v1085h-323z" />
    <glyph glyph-name="U" unicode="U" horiz-adv-x="1362" 
d="M1210 455q0 -201 -147.5 -344.5t-391.5 -143.5t-387 133.5t-143 353.5v746l-92 93h427l-93 -93v-710q0 -378 344 -378q139 -2 237 96.5t96 237.5v744l-102 102h353l-101 -102v-735z" />
    <glyph glyph-name="V" unicode="V" horiz-adv-x="1449" 
d="M678 -60l-549 1268l-81 83h423l-85 -83l383 -907l389 896l-90 94h328l-88 -83l-512 -1162z" />
    <glyph glyph-name="W" unicode="W" horiz-adv-x="1923" 
d="M546 -60l-409 1269l-82 84h426l-85 -84l238 -829l268 820l-90 92h427l-85 -83l242 -822l240 811l-91 94h311l-89 -83l-355 -1180l-99 -89l-350 1071l-317 -982z" />
    <glyph glyph-name="X" unicode="X" horiz-adv-x="1382" 
d="M961 82l-313 449l-314 -438l91 -94h-329l88 83l394 549l-402 578l-81 83h436l-85 -83l278 -401l277 390l-90 94h328l-88 -83l-357 -501l436 -626l81 -83h-436z" />
    <glyph glyph-name="Y" unicode="Y" horiz-adv-x="1420" 
d="M830 92l93 -93h-427l92 93v429l-452 688l-81 83h439l-85 -83l357 -571l362 560l-91 94h329l-89 -83l-447 -685v-432z" />
    <glyph glyph-name="Z" unicode="Z" horiz-adv-x="1152" 
d="M1073 1292l-672 -1112l-85 -65h575l157 205l-19 -321h-999l713 1177h-482l-176 -224l27 340h961z" />
    <glyph glyph-name="bracketleft" unicode="[" horiz-adv-x="540" 
d="M484 -56v-83h-435v1576h435v-83h-230v-1410h230z" />
    <glyph glyph-name="backslash" unicode="\" horiz-adv-x="1004" 
d="M793 -165l-614 1491l133 -42l611 -1491z" />
    <glyph glyph-name="bracketright" unicode="]" horiz-adv-x="540" 
d="M53 1353v83h435v-1576h-435v83h231v1410h-231z" />
    <glyph glyph-name="asciicircum" unicode="^" 
d="M306 1611l196 -216l-249 103l-251 -103l196 216h108z" />
    <glyph glyph-name="underscore" unicode="_" horiz-adv-x="1026" 
d="M21 -300v100h983v-100h-983z" />
    <glyph glyph-name="grave" unicode="`" 
d="M-2 1529l126 121l260 -263z" />
    <glyph glyph-name="a" unicode="a" horiz-adv-x="1449" 
d="M858 1210l460 -1127l81 -84h-427l85 84l-101 268l57 63h-592l-129 -320l90 -95h-332l89 83l96 228l-43 111l100 -22l-108 122h137l289 689l-87 83h419zM676 1049l-212 -528h425z" />
    <glyph glyph-name="b" unicode="b" horiz-adv-x="1148" 
d="M893 1199q-127 94 -319 94h-527l107 -122l-129 10l122 -234l-81 33l75 -159v-730l-92 -93h600q194 0 321 103t127 258q0 117 -86 205q-85 86 -227 117q109 40 171 113q64 76 64 172q0 140 -126 233zM383 1185h154q112 0 183 -69q68 -67 68 -166q0 -98 -68 -164
q-71 -69 -183 -69h-154v468zM855 359q0 -108 -66 -180q-68 -73 -177 -73h-297l68 72v432h229q109 0 177 -74q66 -71 66 -177z" />
    <glyph glyph-name="c" unicode="c" horiz-adv-x="1263" 
d="M1191 1056q31 -71 31 -143q0 -108 -62 -183q-69 -84 -186 -84q-83 0 -129 40q-43 38 -43 96q0 40 21 68q18 24 44 30q-19 -21 -19 -68q0 -33 27 -56q29 -25 77 -25q57 0 94 49q35 47 35 117q0 117 -98 194q-99 78 -251 78q-186 0 -304 -139q-108 -128 -120 -324l69 39
q-56 -127 -59 -231l61 43q-10 -16 -16 -48q-7 -32 -7 -71q0 -60 32 -122q31 -63 88 -114q128 -115 308 -115q103 0 197 49q91 48 159 134l78 98l-39 -401l-100 98q-166 -101 -342 -101q-148 0 -277 52q-124 50 -218 143q-92 91 -142 211q-50 122 -50 257q0 149 48 278
q47 127 135 221q88 95 207 146q123 52 266 52q245 0 390 -136q62 -58 95 -132z" />
    <glyph glyph-name="d" unicode="d" horiz-adv-x="1397" 
d="M1292 905q-52 117 -148 205q-95 87 -223 134q-132 49 -282 50h-566l108 -122l-130 10l122 -234l-81 33l76 -159v-730l-93 -92h564q150 0 282 48q128 47 223 135q96 88 148 205q53 121 53 259t-53 258zM795 1142q87 -41 154 -116q66 -74 102 -171q37 -99 37 -209t-37 -210
q-36 -97 -102 -171q-67 -75 -154 -116q-91 -42 -193 -42h-261l69 72v1005h192q102 0 193 -42z" />
    <glyph glyph-name="e" unicode="e" horiz-adv-x="1045" 
d="M385 719h236l128 115v-344l-128 120h-236v-423l-69 -72h522l157 205l-19 -322h-927l105 123l-100 -11l92 223l-83 -35l80 174v728l-93 92h880l28 -340l-176 224h-397v-457z" />
    <glyph glyph-name="f" unicode="f" horiz-adv-x="1045" 
d="M385 1104l-68 72h465l176 -224l-28 340h-880l93 -92v-471h-78l106 -122l-128 9l122 -235l-83 35l61 -129v-196l-93 -93h427l-92 93v519h237l127 -120v344l-127 -115h-237v385z" />
    <glyph glyph-name="g" unicode="g" horiz-adv-x="1400" 
d="M1326 1266l-109 -366l-78 100q-71 93 -169 142q-100 50 -219 49q-95 -1 -179 -45q-80 -43 -141 -120q-60 -76 -92 -174q-33 -100 -33 -208q0 -114 35 -216q34 -101 97 -177q65 -78 151 -120q90 -44 194 -44q67 0 119 8q66 11 116 36v372l64 68h-292l-48 -96l-104 83
q18 64 53 92q37 28 106 28h573l-105 -99l105 -17l-116 -137v-347q-112 -57 -233 -85q-122 -29 -247 -30q-171 0 -311 56q-132 52 -227 148q-91 93 -140 217q-47 123 -47 260q0 144 49 270q48 123 138 215t211 142q126 51 271 51q128 0 244 -43q117 -43 212 -125z" />
    <glyph glyph-name="h" unicode="h" horiz-adv-x="1453" 
d="M612 1294h-427l92 -93v-425q-47 16 -90 42q-40 23 -81 58l25 83l85 -22l-39 88l-113 24l-66 -201q117 -133 279 -203v-553l-92 -93h427l-93 93v438l-68 72h20q81 0 274 33q193 34 273 34q25 0 54 -4v-573l-93 -93h427l-92 93v1109l92 93h-427l93 -93v-412q-13 2 -24 2
q-86 0 -248 -21q-173 -23 -281 -25v456z" />
    <glyph glyph-name="i" unicode="i" horiz-adv-x="512" 
d="M463 1294l-93 -93v-1109l93 -93h-427l92 93v601l-49 297l73 -16l-112 199l101 -1l-105 122h427z" />
    <glyph glyph-name="j" unicode="j" horiz-adv-x="997" 
d="M943 1294l-92 -93v-806q0 -197 -116 -313q-117 -116 -320 -116q-173 0 -275 93q-97 86 -97 220q0 97 60 168q68 83 219 135l137 -227l-100 -93l-83 47l74 60l-57 80q-56 -13 -88 -47q-38 -42 -38 -112q0 -90 60 -149q64 -62 168 -62q108 0 163 69q51 65 51 181v872
l-93 93h427z" />
    <glyph glyph-name="k" unicode="k" horiz-adv-x="1288" 
d="M1196 1294h-339l83 -95l-554 -499v501l92 93h-427l93 -93v-1109l-93 -93h427l-92 93v466l74 68l270 -471q58 -102 124 -146q66 -43 161 -43q67 0 134 32q66 31 96 77h2v183h-157l-23 -79l90 2v-72q-11 -11 -27 -16t-41 -5q-35 0 -65 24q-35 27 -72 95l-324 573l471 431z
" />
    <glyph glyph-name="l" unicode="l" horiz-adv-x="1028" 
d="M484 1294l-105 -122l96 9l-90 -235l83 35l-78 -163v-630l-68 -72h521l157 205l-19 -322h-926l93 93v1109l-93 93h429z" />
    <glyph glyph-name="m" unicode="m" horiz-adv-x="1896" 
d="M682 1294h-427l105 -121l-90 21l70 -194l-59 35l18 -150l-116 -784l-101 -102h358l-102 102l115 856l422 -1017l99 87l377 915l130 -852l-92 -90h430l-92 92l-176 1109l92 93h-417l91 -91l-359 -893l-361 901z" />
    <glyph glyph-name="n" unicode="n" horiz-adv-x="1303" 
d="M338 1294l680 -973v871l-101 102h353l-102 -102v-1083l85 -110h-296l-678 971v-473l61 -198l-70 15l86 -200l-99 13l123 -128h-353l102 102v1071l-96 122h305z" />
    <glyph glyph-name="o" unicode="o" horiz-adv-x="1481" 
d="M1332 254q-83 -134 -235 -213t-342 -79q-286 0 -495.5 180.5t-209.5 498.5q0 272 193.5 472t511.5 200q158 0 269 -44.5t187 -88.5q-95 32 -358 44.5t-422 -203.5q-70 -82 -95.5 -186.5t-25.5 -193.5q0 -260 140 -415.5t305 -155.5q145 0 259.5 101.5t158.5 304.5
q26 133 -15.5 247t-92.5 171q-44 58 -145.5 89.5t-196.5 -44.5q-57 -51 -63.5 -101.5t12.5 -88.5q25 -64 79 -73l54 -10q-127 -19 -180.5 54t-34.5 143q12 76 73 165l60 88h361l292 -272l13 -38q13 -38 25 -96q32 -120 3.5 -247t-85.5 -209z" />
    <glyph glyph-name="p" unicode="p" horiz-adv-x="1131" 
d="M394 1186v-1093l93 -92h-427l92 92v1109l-92 93h573q194 -2 321 -104q126 -102 126 -257q0 -160 -124 -264q-121 -100 -306 -108l-137 -5l-50 227l141 31l70 -62l-107 -21l20 -87q122 5 189 83q64 73 64 190q0 113 -67 189q-68 79 -177 79h-202z" />
    <glyph glyph-name="q" unicode="q" horiz-adv-x="1627" 
d="M310 714q0 78 29 164q30 90 84 163q59 81 135 126q85 50 182 50q96 0 180 -45q81 -44 142 -123t94 -182q33 -105 33 -221q0 -163 -39 -286q-36 -116 -105 -189l-77 85q-40 44 -93 69q-51 25 -99 25q-91 0 -149 -53q-55 -51 -55 -128q0 -74 50 -121q65 -62 200 -62
q75 0 146 17l75 -83q66 -74 134 -107q76 -38 177 -38q125 0 197 76q62 65 62 155q0 56 -14 99q-14 41 -44 81q-1 -30 -7 -46q-5 -13 -13 -13q-7 0 -14 12q-9 17 -16 27q-28 42 -83 47q9 -12 16 -28q6 -17 6 -25q0 -10 -7 -10q-1 0 -16 4t-28 4q-21 0 -40 -8.5t-32 -24.5
q39 0 39 -21q0 -5 -10 -26q-9 -21 -9 -39q-1 -26 16 -46.5t43 -25.5q-10 10 -14 22q-5 12 -5 30q1 25 19 42t42 17q37 0 56.5 -22.5t19.5 -62.5v-1q-1 -46 -35 -77q-33 -32 -80 -31q-52 0 -102 28q-48 26 -90 74l-77 87q144 88 227 241q85 154 85 332q0 146 -52 273
q-52 123 -147 215t-222 142q-130 50 -279.5 50t-280.5 -54q-125 -52 -219 -147q-93 -95 -144 -219q-51 -127 -51 -267q0 -272 163 -452q74 -83 173 -130.5t208 -53.5q-69 37 -118 84q-45 43 -77 99l96 -13q-38 17 -95 79q-47 53 -80 104q10 -3 41 -9q34 -7 53 -10
q-32 29 -66 91q-29 51 -49 103q6 -2 30 -8q24 -7 33 -10q-26 41 -39 87q-14 52 -14 114zM668 145q0 26 20 45q21 20 56 20q22 0 47 -20q15 -12 45 -43l63 -69q-50 -14 -103 -14h-1q-63 0 -97 26q-30 22 -30 55z" />
    <glyph glyph-name="r" unicode="r" horiz-adv-x="1250" 
d="M25 1295h545q187 -2 309 -104q121 -102 121 -257q0 -40 -9 -76q33 -3 66 2q-53 -70 -116 -133q19 -20 43 -33q-71 -37 -128 -60q-69 -27 -133 -40h-2l82 -28l336 -482l69 -83h-418l83 83l-346 490h-168v-481l92 -92h-426l92 92v1109zM359 1186v-505h174q106 0 172 74
q64 71 64 179q0 107 -64 178q-66 74 -172 74h-174z" />
    <glyph glyph-name="s" unicode="s" horiz-adv-x="972" 
d="M517 1037q-22 -27 -22 -58q0 -67 59 -100q44 -24 104 -24q85 0 138 51q54 54 53 141l-4 277q-33 -53 -48 -73q-25 -35 -46 -47q-57 56 -130 88q-80 34 -162 34q-187 0 -296 -104q-102 -98 -102 -256q0 -130 64 -213q66 -86 225 -157l175 -80q103 -47 139 -86
q42 -46 42 -128q0 -90 -66 -154q-68 -66 -169 -66q-92 0 -177 54q-81 52 -168 163l-74 92l29 -420l98 95q150 -98 289 -98q196 -2 327 114q61 55 94 126q33 73 33 153q0 121 -62 202q-65 84 -218 155l-172 79q-115 53 -161 109q-43 52 -43 128q0 77 49 125q56 54 158 54
q75 0 145 -45q86 -54 86 -141q0 -38 -21 -64q-22 -29 -58 -29q-33 0 -57 20q-25 20 -25 49q0 33 17 63q-23 -5 -43 -29z" />
    <glyph glyph-name="t" unicode="t" horiz-adv-x="1301" 
d="M211 1056l-6 120l-155 -203l19 321h1166l18 -321l-155 203l-15 -109l-99 130l-4 -107l-98 88h-109v-1085l92 -92h-427l93 92v1085h-233z" />
    <glyph glyph-name="u" unicode="u" horiz-adv-x="1362" 
d="M497 1184l-128 -11l106 122h-428l93 -93v-746q0 -220 141 -353q144 -135 387 -135q245 0 397 148q69 68 106 156t37 185v736l102 102h-353l102 -102v-746q0 -139 -94 -235q-96 -99 -239 -99q-162 0 -254 106q-90 102 -90 273v331l76 159l-82 -35z" />
    <glyph glyph-name="v" unicode="v" horiz-adv-x="1449" 
d="M44 1295h423l-84 -83l382 -908l386 887l-125 35l-67 -116l-39 113l48 72h426l-89 -83l-512 -1163l-118 -107l-549 1270z" />
    <glyph glyph-name="w" unicode="w" horiz-adv-x="1906" 
d="M1237 1294h-427l100 -102l-111 -15l61 -99l-63 -4l30 -96l-194 -597l-239 830l85 83h-427l82 -83l410 -1270l99 89l318 983l350 -1072l100 89l355 1181l89 83h-407l-41 -85l50 -104l54 121l122 -34l-239 -804l-242 823z" />
    <glyph glyph-name="x" unicode="x" horiz-adv-x="1382" 
d="M1241 1294l-89 -83l-357 -501l437 -627l81 -83h-436l85 83l-313 450l-314 -439l90 -94h-329l89 83l394 549l-403 579l-81 83h436l-85 -83l279 -402l144 204l-5 111l61 -11l-43 103l106 -7l-84 85h337z" />
    <glyph glyph-name="y" unicode="y" horiz-adv-x="1420" 
d="M590 523v-105l-46 -118l57 25l-90 -216l96 13l-109 -122h427l-93 92v433l448 686l89 83h-330l91 -94l-362 -560l-357 571l85 83h-440l81 -83z" />
    <glyph glyph-name="z" unicode="z" horiz-adv-x="1152" 
d="M319 117l81 62l372 612l133 93l-67 36l233 158l-93 53l120 163h-983l-27 -340l175 223h483l-714 -1177h1000l19 322l-158 -205h-574z" />
    <glyph glyph-name="braceleft" unicode="{" horiz-adv-x="658" 
d="M466 898q-1 -179 -165 -245q164 -87 164 -247q0 -60 -56 -179.5t-56 -174.5q0 -160 188 -160q28 -1 55 7q-37 -46 -140 -46q-145 0 -222 78t-77 178q0 85 64 211t64 197q0 94 -155 94h-94l46 83h48q155 0 155 94q0 70 -63.5 196t-63.5 211q0 100 76.5 178t221.5 78
q104 0 140 -46q-27 8 -55 7q-188 0 -188 -160q0 -54 56.5 -174t56.5 -180z" />
    <glyph glyph-name="bar" unicode="|" horiz-adv-x="722" 
d="M311 1284l99 73v-1719l-99 -74v1720z" />
    <glyph glyph-name="braceright" unicode="}" horiz-adv-x="688" 
d="M201 407q-1 179 163 245q-164 87 -164 247q0 60 56 180t56 174q0 160 -188 160q-28 1 -55 -7q35 46 140 46q145 0 222 -78t77 -178q0 -85 -63.5 -211t-63.5 -197q0 -94 155 -94h94l-47 -82h-46q-155 0 -155 -95q0 -70 63.5 -196t63.5 -211q0 -63 -30 -119t-100 -96.5
t-169 -40.5q-102 0 -140 46q27 -8 55 -7q189 0 189 160q0 54 -56.5 174t-56.5 180z" />
    <glyph glyph-name="asciitilde" unicode="~" horiz-adv-x="1320" 
d="M72 444q18 118 86.5 184t191.5 66q75 0 154 -25.5t184 -72.5q187 -86 281 -86q92 0 149.5 39.5t69.5 118.5h61q-18 -117 -87.5 -183.5t-192.5 -66.5q-110 0 -314 92t-305 92q-92 0 -148.5 -39t-68.5 -119h-61z" />
    <glyph glyph-name="uni009A" horiz-adv-x="1718" 
 />
    <glyph glyph-name="uni00A0" unicode="&#xa0;" horiz-adv-x="460" 
 />
    <glyph glyph-name="exclamdown" unicode="&#xa1;" horiz-adv-x="361" 
d="M47 1183l134 135l135 -135l-135 -134zM65 103q53 355 92 795l41 35q38 -418 99 -830l-116 -116z" />
    <glyph glyph-name="cent" unicode="&#xa2;" horiz-adv-x="968" 
d="M257 464q0 -144 70 -251t182 -127v756q-112 -21 -182 -127t-70 -251zM871 76q-117 -91 -263 -106v-219l-100 -74v291q-196 11 -329 155t-128 340q0 207 127 344t332 149v213l99 74v-290q142 -16 258 -100l20 -211q-138 170 -278 195v-752q143 16 278 184z" />
    <glyph glyph-name="sterling" unicode="&#xa3;" horiz-adv-x="1005" 
d="M69 558l63 99h91q-100 246 -100 327q0 141 119 236t304 95q189 2 346 -103l21 -250q-195 239 -340 239q-217 0 -217 -205q0 -37 13 -89t35.5 -125.5t34.5 -124.5h244l-64 -99h-162q5 -46 5 -92q2 -174 -116 -303h452l156 187l-18 -349h-887q236 185 236 387q0 87 -26 170
h-190z" />
    <glyph glyph-name="currency" unicode="&#xa4;" horiz-adv-x="1234" 
d="M102 231l211 205q-82 106 -82 242q0 131 82 237l-211 207l58 58l211 -205q106 88 245 88q138 0 246 -90l213 207l58 -58l-213 -207q81 -105 81 -237q0 -139 -83 -242l212 -205l-57 -57l-213 205q-107 -86 -244 -86q-135 0 -245 86l-211 -205zM313 678q0 -126 88.5 -214.5
t214.5 -88.5t215 88.5t89 214.5t-89 214.5t-215 88.5t-214.5 -88.5t-88.5 -214.5z" />
    <glyph glyph-name="yen" unicode="&#xa5;" horiz-adv-x="1420" 
d="M302 307l64 100l226 -1v0v85h-273l65 100h164l-408 618l-81 82h439l-85 -82l356 -570l361 558l-90 94h328l-89 -82l-403 -618h290l-64 -100h-268v-84h314l-65 -100h-249v-214l92 -92h-425l109 122l-96 -13l83 197v0v0h-295z" />
    <glyph glyph-name="section" unicode="&#xa7;" horiz-adv-x="837" 
d="M72 569q0 81 20.5 142t50 97.5t82.5 82.5q-49 87 -49 162q0 102 49 177t127 111.5t172 36.5q59 0 96 -22t37 -62q-17 -61 -79 -75q-71 59 -166 59q-67 0 -109.5 -42t-42.5 -116q0 -50 37.5 -112.5t93.5 -121.5t122 -131t122 -140t93.5 -151t37.5 -161q0 -114 -35 -180.5
t-110 -134.5q61 -101 61 -178q0 -102 -55.5 -190t-141.5 -137.5t-178 -49.5q-61 0 -127.5 34.5t-66.5 73.5q7 26 37 49t63 31q82 -88 207 -88q63 0 111.5 66.5t48.5 144.5q0 44 -28 96t-73 104.5t-99 109.5t-108 119t-99 124t-73 133t-28 139zM164 651q0 -59 48 -141
t108 -152t142.5 -166t125.5 -157q39 45 54 92t15 123q0 60 -45 138.5t-102.5 144t-134.5 156.5t-119 153q-51 -53 -71.5 -90.5t-20.5 -100.5z" />
    <glyph glyph-name="dieresis" unicode="&#xa8;" 
d="M540 1550l-124 -124l-124 124l124 124zM237 1550l-125 -124l-124 124l125 124z" />
    <glyph glyph-name="copyright" unicode="&#xa9;" horiz-adv-x="1551" 
d="M1042 356q-110 -83 -247 -80q-156 -7 -269 101.5t-112 264.5q0 162 106.5 266t274.5 104q134 1 243 -77l17 -166q-134 160 -253 160q-93 -1 -153 -84t-60 -201.5t61 -201t156 -82.5q129 0 249 151zM1335 644q0 158 -70.5 290t-200 210.5t-289.5 78.5
q-242 0 -401.5 -168.5t-159.5 -410.5q0 -245 159 -412t402 -167t401.5 167t158.5 412zM1457 644q0 -288 -192.5 -484t-489.5 -196t-489.5 196t-192.5 484q0 283 193 479t489 198q295 1 488.5 -196t193.5 -481z" />
    <glyph glyph-name="guillemotleft" unicode="&#xab;" horiz-adv-x="1044" 
d="M965 928l-227 -466l232 -461l-5 -4l-469 465zM559 928l6 -4l-233 -462l233 -461l-6 -4l-468 465z" />
    <glyph glyph-name="logicalnot" unicode="&#xac;" horiz-adv-x="409" 
d="M333 600l-133 -135l-134 135l134 134z" />
    <glyph glyph-name="uni00AD" unicode="&#xad;" horiz-adv-x="669" 
d="M103 613l65 99h429l-64 -99h-430z" />
    <glyph glyph-name="registered" unicode="&#xae;" horiz-adv-x="858" 
d="M412 1128h-35v-120h35q60 0 60 60t-60 60zM296 853l-1 288l-24 24h168q116 0 116 -98q-2 -77 -77 -90l22 -8l105 -140h-127l22 22l-90 120h-33v-118l24 -24h-129zM696 990q0 115 -75 195.5t-189 80.5q-116 0 -191 -79.5t-75 -196.5t75.5 -197t190 -80t189.5 80t75 197z
M766 990q2 -140 -97 -238.5t-239 -95.5q-224 0 -309.5 207.5t73.5 365.5t366 71.5t206 -310.5z" />
    <glyph glyph-name="macron" unicode="&#xaf;" 
d="M31 1459l46 72h403l-46 -72h-403z" />
    <glyph glyph-name="degree" unicode="&#xb0;" horiz-adv-x="783" 
d="M609 999q3 92 -60.5 157.5t-155.5 65.5q-89 0 -152 -62.5t-64 -150.5q0 -58 27.5 -108t76.5 -79.5t107 -30.5q89 -2 153.5 58.5t67.5 149.5zM706 999q3 -130 -89 -222t-222 -89q-208 0 -288 192.5t67.5 339.5t340 67t191.5 -288z" />
    <glyph glyph-name="plusminus" unicode="&#xb1;" horiz-adv-x="887" 
d="M193 153l65 99h429l-64 -99h-430zM57 688l65 101h269v271l101 64v-335h336l-65 -101h-271v-270l-101 -64v334h-334z" />
    <glyph glyph-name="twosuperior" unicode="&#xb2;" horiz-adv-x="747" 
d="M381 1312q205 2 205 -145q0 -95 -164 -264l-125 -132h234l75 90l-9 -188h-449l175 225q128 161 128 245q3 41 -26 70.5t-70 25.5q-79 0 -175 -116l9 136q88 56 192 53z" />
    <glyph glyph-name="threesuperior" unicode="&#xb3;" horiz-adv-x="667" 
d="M311 644q-125 0 -172 43l-9 134q89 -114 181 -114q122 0 122 125q0 128 -150 128q-49 1 -98 -4l201 241h-182l-76 -92l10 183h425l-217 -258h5q216 0 216 -179q0 -207 -256 -207z" />
    <glyph glyph-name="acute" unicode="&#xb4;" 
d="M465 1529l-387 -142l261 263z" />
    <glyph glyph-name="mu" unicode="&#xb5;" horiz-adv-x="409" 
d="M333 600l-133 -135l-134 135l134 134z" />
    <glyph glyph-name="paragraph" unicode="&#xb6;" horiz-adv-x="1052" 
d="M102 635q0 78 52 193t133 214.5t155 135.5q109 53 220 78.5t288 35.5l-10 -75q-179 -9 -309 -48l-10 -1081q90 -29 241 -45l-8 -70q-351 34 -516 197q-97 96 -166.5 224t-69.5 241zM385 610q0 -103 3 -173.5t13 -122.5t20.5 -82.5t34.5 -54t44.5 -35.5t60.5 -29l10 1038
q-41 -15 -67 -32.5t-51 -53.5t-38.5 -92t-21.5 -146t-8 -217z" />
    <glyph glyph-name="periodcentered" unicode="&#xb7;" horiz-adv-x="409" 
d="M199 445q-69 0 -118 49.5t-49 118.5q0 112 103.5 155t183 -36.5t36.5 -183t-156 -103.5z" />
    <glyph glyph-name="cedilla" unicode="&#xb8;" horiz-adv-x="306" 
d="M222 2h45v0q-136 -154 -132 -220q3 -59 55 -57q46 1 87 20q-66 -122 -159 -122q-39 0 -66 28q-25 25 -26 66q-5 142 196 285v0z" />
    <glyph glyph-name="onesuperior" unicode="&#xb9;" horiz-adv-x="538" 
d="M200 730v490l-89 30l223 64v-584l55 -53h-245z" />
    <glyph glyph-name="guillemotright" unicode="&#xbb;" horiz-adv-x="1042" 
d="M81 -3l-6 4l233 462l-233 461l6 4l468 -465zM486 -3l-5 4l232 462l-232 461l473 -461z" />
    <glyph glyph-name="onequarter" unicode="&#xbc;" horiz-adv-x="1136" 
d="M848 367l132 61v-190h22l72 112l-7 -208h-87v-89l53 -52h-238l53 52v89h-306q171 224 277 485h147q-143 -213 -286 -389h168v129zM190 730v490l-88 30l223 64v-584l55 -53h-245zM247 13l-125 -41l698 1307l126 41z" />
    <glyph glyph-name="onehalf" unicode="&#xbd;" horiz-adv-x="1146" 
d="M850 640q209 1 209 -147q0 -94 -164 -264l-126 -132h234l76 91l-9 -189h-449l175 225q127 161 127 245q4 43 -26 73t-72 24q-79 0 -176 -115l10 136q87 56 191 53zM166 731v489l-89 30l223 64v-583l56 -53h-246zM223 14l-124 -43l699 1306l125 41z" />
    <glyph glyph-name="threequarters" unicode="&#xbe;" horiz-adv-x="1216" 
d="M924 367l132 61v-190h22l72 112l-7 -208h-87v-89l53 -52h-238l53 52v89h-306q171 223 277 485h147q-142 -213 -286 -389h168v129zM240 647q-124 0 -171 42l-9 135q88 -114 180 -114q122 0 122 125q0 127 -149 127q-49 1 -98 -4l201 242h-183l-75 -92l9 182h426l-217 -258
q221 0 221 -179q0 -206 -257 -206zM333 13l-126 -41l699 1307l125 41z" />
    <glyph glyph-name="questiondown" unicode="&#xbf;" horiz-adv-x="884" 
d="M346 1185l135 134l134 -134l-134 -135zM464 -13q-196 1 -307 93t-111 251q0 145 104 232.5t270 99.5l35 237l42 35l50 -339h-70q-36 0 -69.5 -13.5t-59 -37.5t-45 -56t-30 -69.5t-10.5 -75.5q0 -253 222 -253q175 0 350 217l-15 -215q-117 -106 -356 -106z" />
    <glyph glyph-name="Agrave" unicode="&#xc0;" horiz-adv-x="1449" 
d="M473 1528l125 120l261 -262zM464 523h423l-212 529zM139 86l139 328l-93 108h137l288 687l-87 83h419l-85 -83l460 -1126l81 -83h-426l85 83l-102 268l57 63h-591l-129 -320l91 -94h-333z" />
    <glyph glyph-name="Aacute" unicode="&#xc1;" horiz-adv-x="1449" 
d="M939 1528l-386 -142l260 262zM465 523h423l-211 529zM140 86l139 328l-93 108h137l288 687l-87 83h418l-85 -83l460 -1126l81 -83h-426l86 83l-102 268l57 63h-590l-130 -320l91 -94h-333z" />
    <glyph glyph-name="Acircumflex" unicode="&#xc2;" horiz-adv-x="1449" 
d="M782 1610l196 -216l-249 103l-251 -103l195 216h109zM465 522h423l-212 529zM140 84l138 332l-92 107h137l288 688l-87 83h419l-85 -83l460 -1127l81 -84h-427l85 83l-101 268l57 63h-591l-129 -320l90 -94h-332z" />
    <glyph glyph-name="Atilde" unicode="&#xc3;" horiz-adv-x="1449" 
d="M519 1412q78 157 135 157q25 0 89.5 -32.5t95.5 -32.5q42 0 127 63q-77 -157 -134 -157q-26 0 -90 32t-95 32q-42 0 -128 -62zM466 522h424l-212 529zM139 84l139 330l-93 108h137l288 687l-86 83h419l-85 -83l459 -1126l82 -83h-427l85 83l-101 268l57 63h-591
l-129 -320l90 -94h-332z" />
    <glyph glyph-name="Adieresis" unicode="&#xc4;" horiz-adv-x="1449" 
d="M1015 1548l-124 -124l-124 124l124 124zM712 1548l-124 -124l-124 124l124 124zM464 522h424l-212 529zM139 84l139 330l-93 108h137l288 687l-86 83h419l-85 -83l459 -1126l82 -83h-427l85 83l-101 268l57 63h-591l-129 -320l90 -94h-332z" />
    <glyph glyph-name="Aring" unicode="&#xc5;" horiz-adv-x="1449" 
d="M723 1432q99 5 98 104q2 100 -98 103q-102 -1 -102 -103q1 -101 102 -104zM723 1373q-166 -3 -170 163q-1 161 160.5 164t166 -159t-156.5 -168zM464 522h424l-212 529zM141 84l137 332l-92 107h136l288 688l-86 83h419l-85 -83l460 -1128l81 -83h-427l86 83l-101 268
l57 63h-592l-129 -320l90 -94h-332z" />
    <glyph glyph-name="AE" unicode="&#xc6;" horiz-adv-x="1718" 
d="M465 523h395l-188 513zM140 86l138 329l-92 107h137l286 683l-2 6l-53 56l-30 26h1078l27 -340l-175 224h-579l159 -430h273l128 114v-344l-128 120h-234l192 -521h271l157 205l-18 -321h-739l84 84l-98 270l56 61h-556l-128 -321l90 -94h-332z" />
    <glyph glyph-name="Ccedilla" unicode="&#xc7;" horiz-adv-x="1268" 
d="M739 1325q185 -2 342 -102l99 98l39 -417l-78 98q-154 194 -367 194q-201 0 -333 -161.5t-132 -388.5q0 -230 132 -390.5t333 -160.5q229 -4 367 178l78 97l-40 -400l-99 98q-145 -92 -316 -102l-43 -74q28 9 57 9q95 0 95 -75q0 -109 -233 -190q116 78 116 156
q0 45 -62 45q-40 -1 -80 -8l74 139q-185 11 -331 104.5t-226 244.5t-80 329q0 193 87 348t244.5 243t356.5 88z" />
    <glyph glyph-name="Egrave" unicode="&#xc8;" horiz-adv-x="1045" 
d="M329 1528l126 120l260 -262zM141 94v1107l-92 93h878l28 -340l-176 224h-397v-457h238l128 115v-344l-128 120h-236v-424l-68 -72h520l158 205l-19 -321h-926z" />
    <glyph glyph-name="Eacute" unicode="&#xc9;" horiz-adv-x="1045" 
d="M793 1528l-386 -142l260 262zM139 94l1 1107l-92 93h880l28 -340l-175 224h-397v-457h236l127 115v-344l-127 120h-236v-424l-69 -72h521l157 205l-19 -321h-926z" />
    <glyph glyph-name="Ecircumflex" unicode="&#xca;" horiz-adv-x="1045" 
d="M637 1610l196 -216l-249 103l-252 -103l196 216h109zM140 94l1 1107l-92 93h879l27 -340l-175 224h-397v-456h236l128 115v-344l-128 120h-236v-423l-68 -72h521l157 205l-19 -322h-926z" />
    <glyph glyph-name="Edieresis" unicode="&#xcb;" horiz-adv-x="1045" 
d="M870 1549l-124 -124l-124 124l124 124zM568 1549l-125 -124l-124 124l124 124zM140 94l2 1107l-92 93h879l26 -340l-175 224h-397v-456h236l128 115v-344l-128 120h-236v-423l-68 -72h520l157 205l-18 -322h-926z" />
    <glyph glyph-name="Igrave" unicode="&#xcc;" 
d="M-2 1529l126 121l260 -263zM127 93v1109l-92 92h427l-92 -92v-1109l92 -92h-427z" />
    <glyph glyph-name="Iacute" unicode="&#xcd;" 
d="M465 1529l-387 -142l261 263zM128 93v1109l-92 92h427l-92 -92v-1109l92 -92h-427z" />
    <glyph glyph-name="Icircumflex" unicode="&#xce;" 
d="M306 1611l196 -216l-249 103l-251 -103l196 216h108zM126 93v1109l-92 92h427l-93 -92v-1109l93 -92h-427z" />
    <glyph glyph-name="Idieresis" unicode="&#xcf;" 
d="M540 1550l-124 -124l-124 124l124 124zM237 1550l-125 -124l-124 124l125 124zM128 93l-2 1109l-92 92h427l-92 -92v-1109l92 -92h-426z" />
    <glyph glyph-name="Eth" unicode="&#xd0;" horiz-adv-x="1387" 
d="M406 181l-67 -72h260q206 0 346 157.5t140 381t-140 380.5t-346 157h-192v-503h283l-64 -100h-220v-401zM164 94v487h-153l64 100h89v520l-92 93h563q305 -2 505 -184.5t200 -461.5q0 -280 -200 -463.5t-505 -183.5h-563z" />
    <glyph glyph-name="Ntilde" unicode="&#xd1;" horiz-adv-x="1295" 
d="M444 1413q78 157 135 157q26 0 90 -32.5t95 -32.5q42 0 128 63q-77 -157 -135 -157q-26 0 -90 32.5t-95 32.5q-42 0 -128 -63zM281 102l101 -101h-353l101 101v1070l-96 122h304l681 -972v871l-101 101h354l-101 -101v-1084l85 -108h-296l-679 970v-869z" />
    <glyph glyph-name="Ograve" unicode="&#xd2;" horiz-adv-x="1483" 
d="M492 1527l125 121l261 -263zM751 73q124 0 223.5 77t154.5 207.5t55 286.5q0 238 -128.5 404.5t-322.5 166.5q-123 0 -223 -77t-154.5 -207.5t-54.5 -286.5q0 -240 127 -405.5t323 -165.5zM746 -37q-307 0 -503 192.5t-196 488.5q0 284 199 482.5t500 197.5
q303 -2 499.5 -194t196.5 -486q0 -284 -198 -482.5t-498 -198.5z" />
    <glyph glyph-name="Oacute" unicode="&#xd3;" horiz-adv-x="1483" 
d="M957 1529l-386 -143l261 263zM751 74q187 0 310 166t123 405t-128.5 405t-322.5 166q-93 0 -174 -45t-137.5 -122t-88.5 -182t-32 -222q0 -239 127 -405t323 -166zM746 -35q-307 0 -503 192.5t-196 487.5q0 284 199.5 483t499.5 197q303 -1 499.5 -193.5t196.5 -486.5
q0 -284 -197.5 -482t-498.5 -198z" />
    <glyph glyph-name="Ocircumflex" unicode="&#xd4;" horiz-adv-x="1483" 
d="M802 1611l196 -216l-250 103l-251 -103l195 216h110zM753 75q185 0 308 166t123 405t-128 405t-321 166q-187 0 -310 -166t-123 -405t127.5 -405t323.5 -166zM746 -34q-306 0 -502.5 192.5t-196.5 487.5q0 284 199.5 483t499.5 197q304 -1 500.5 -193.5t196.5 -486.5
q0 -284 -198 -482t-499 -198z" />
    <glyph glyph-name="Otilde" unicode="&#xd5;" horiz-adv-x="1483" 
d="M536 1413q77 157 135 157q25 0 89.5 -32.5t95.5 -32.5q42 0 128 63q-78 -157 -135 -157q-26 0 -90 32.5t-96 32.5q-41 0 -127 -63zM751 75q187 0 310 166t123 404.5t-128.5 405t-322.5 166.5q-187 0 -309.5 -166t-122.5 -405q0 -240 127 -405.5t323 -165.5zM746 -34
q-307 0 -503 192.5t-196 487.5q0 185 89 341t250 248t360 91q303 -1 499.5 -193.5t196.5 -486.5q0 -284 -198 -482t-498 -198z" />
    <glyph glyph-name="Odieresis" unicode="&#xd6;" horiz-adv-x="1483" 
d="M1033 1550l-124 -124l-124 124l124 124zM730 1550l-124 -124l-125 124l125 124zM751 75q187 0 309.5 166.5t122.5 405t-128.5 405t-321.5 166.5q-187 0 -309.5 -166t-122.5 -406q0 -239 127 -405t323 -166zM745 -34q-306 0 -502 192.5t-196 487.5q0 285 199 483.5
t499 197.5q304 -2 500.5 -194t196.5 -487q0 -284 -198 -482t-499 -198z" />
    <glyph glyph-name="multiply" unicode="&#xd7;" horiz-adv-x="897" 
d="M31 215l342 340l-342 340l78 76l340 -340l339 340l78 -76l-342 -340l342 -340l-78 -78l-339 340l-340 -340z" />
    <glyph glyph-name="Oslash" unicode="&#xd8;" horiz-adv-x="1483" 
d="M755 75q185 0 308 166t123 405q2 180 -84 338l-656 -760q119 -148 309 -149zM305 646q-3 -180 83 -338l656 759q-118 148 -307 150q-93 0 -174 -45t-137.5 -122.5t-88.5 -182t-32 -221.5zM255 1h-136l130 149q-209 204 -204 496q0 284 199.5 482.5t502.5 197.5
q226 4 414 -122l79 91h133l-133 -154q211 -202 205 -495q0 -284 -198 -482t-499 -198q-228 -5 -417 124z" />
    <glyph glyph-name="Ugrave" unicode="&#xd9;" horiz-adv-x="1362" 
d="M429 1528l126 120l261 -263zM1210 456q0 -202 -147.5 -346t-391.5 -144t-387 134t-143 354v747l-92 92h426l-93 -92v-710q0 -379 345 -379q139 -2 237 97t95 238v744l-101 102h354l-102 -102v-735z" />
    <glyph glyph-name="Uacute" unicode="&#xda;" horiz-adv-x="1362" 
d="M896 1528l-386 -143l260 263zM1211 456q0 -202 -147.5 -346t-391.5 -144t-387 134t-143 354v747l-92 92h426l-93 -92v-710q0 -379 345 -379q139 -2 237 97t95 238v744l-101 102h353l-101 -102v-735z" />
    <glyph glyph-name="Ucircumflex" unicode="&#xdb;" horiz-adv-x="1362" 
d="M739 1609l197 -216l-250 103l-251 -103l196 216h108zM1211 456q1 -202 -147 -346t-392 -144t-387 134t-143 354v747l-92 92h426l-92 -92v-710q0 -379 344 -379q139 -2 237.5 97t95.5 238v744l-102 102h354l-102 -102v-735z" />
    <glyph glyph-name="Udieresis" unicode="&#xdc;" horiz-adv-x="1362" 
d="M971 1548l-124 -124l-124 124l124 124zM668 1548l-124 -124l-124 124l124 124zM1210 456q-1 -202 -148.5 -346t-391.5 -144q-162 0 -282.5 61t-184 171.5t-63.5 255.5v747l-92 92h426l-92 -92v-710q0 -379 344 -379q139 -2 237.5 96.5t95.5 238.5v744l-101 102h354
l-102 -102v-735z" />
    <glyph glyph-name="Yacute" unicode="&#xdd;" horiz-adv-x="1420" 
d="M972 1528l-387 -143l261 263zM829 92l94 -94h-427l92 93v430l-452 689l-82 83h440l-85 -83l357 -571l361 560l-91 94h329l-88 -83l-448 -686v-432z" />
    <glyph glyph-name="Thorn" unicode="&#xde;" horiz-adv-x="1083" 
d="M146 92l-1 1109l-92 92h425l-92 -92v-196h212q193 -2 320 -104.5t127 -256.5q0 -99 -53 -181t-143.5 -127.5t-197.5 -45.5q-144 0 -198 73q48 -7 97 -7q112 1 183.5 79.5t71.5 192.5q0 268 -244 268h-174v-804l92 -93h-426z" />
    <glyph glyph-name="germandbls" unicode="&#xdf;" horiz-adv-x="997" 
d="M35 0v39q47 3 69.5 11t42.5 28q26 26 34.5 142.5t8.5 402.5q-3 41 -9.5 50.5t-30.5 12.5l-82 8v58h122q7 139 30 249t65.5 196.5t111 133.5t158.5 47q127 0 220 -96.5t93 -228.5q0 -110 -50 -182t-140 -128q-119 -71 -119 -139q0 -22 8.5 -40t18 -30t35 -27.5t40.5 -23.5
t54 -26q111 -54 166 -111t55 -125q0 -67 -23 -102.5t-86 -73.5q-52 -31 -91 -44t-85 -13q-15 0 -31 2.5t-28 5t-28.5 8.5t-24.5 9t-25.5 10.5t-21.5 9.5q-1 32 -11 139h49q19 -60 54 -88.5t92 -28.5q66 0 102.5 28.5t36.5 74.5q0 58 -38.5 101t-131.5 87
q-112 54 -158.5 99.5t-46.5 107.5q0 19 2 35.5t9 32t11.5 26.5t18.5 25.5t20.5 21.5t27 23t27.5 21t34 23.5t35 24.5q116 83 116 252q0 118 -64 202.5t-151 84.5q-204 0 -207 -573q0 -406 5 -532t28 -148q33 -33 70 -33v-39q-12 1 -70 6.5t-90 5.5q-43 0 -114 -6t-113 -6z
" />
    <glyph glyph-name="agrave" unicode="&#xe0;" horiz-adv-x="1449" 
d="M473 1528l125 120l261 -262zM464 523h423l-212 529zM139 86l139 328l-93 108h137l288 687l-87 83h419l-85 -83l460 -1126l81 -83h-426l85 83l-102 268l57 63h-591l-129 -320l91 -94h-333z" />
    <glyph glyph-name="aacute" unicode="&#xe1;" horiz-adv-x="1449" 
d="M939 1528l-386 -142l260 262zM465 523h423l-211 529zM140 86l139 328l-93 108h137l288 687l-87 83h418l-85 -83l460 -1126l81 -83h-426l86 83l-102 268l57 63h-590l-130 -320l91 -94h-333z" />
    <glyph glyph-name="acircumflex" unicode="&#xe2;" horiz-adv-x="1449" 
d="M782 1610l196 -216l-249 103l-251 -103l195 216h109zM465 522h423l-212 529zM140 84l138 332l-92 107h137l288 688l-87 83h419l-85 -83l460 -1127l81 -84h-427l85 83l-101 268l57 63h-591l-129 -320l90 -94h-332z" />
    <glyph glyph-name="atilde" unicode="&#xe3;" horiz-adv-x="1449" 
d="M519 1412q78 157 135 157q25 0 89.5 -32.5t95.5 -32.5q42 0 127 63q-77 -157 -134 -157q-26 0 -90 32t-95 32q-42 0 -128 -62zM466 522h424l-212 529zM139 84l139 330l-93 108h137l288 687l-86 83h419l-85 -83l459 -1126l82 -83h-427l85 83l-101 268l57 63h-591
l-129 -320l90 -94h-332z" />
    <glyph glyph-name="adieresis" unicode="&#xe4;" horiz-adv-x="1449" 
d="M1015 1548l-124 -124l-124 124l124 124zM712 1548l-124 -124l-124 124l124 124zM464 522h424l-212 529zM139 84l139 330l-93 108h137l288 687l-86 83h419l-85 -83l459 -1126l82 -83h-427l85 83l-101 268l57 63h-591l-129 -320l90 -94h-332z" />
    <glyph glyph-name="aring" unicode="&#xe5;" horiz-adv-x="1449" 
d="M723 1432q99 5 98 104q2 100 -98 103q-102 -1 -102 -103q1 -101 102 -104zM723 1373q-166 -3 -170 163q-1 161 160.5 164t166 -159t-156.5 -168zM464 522h424l-212 529zM141 84l137 332l-92 107h136l288 688l-86 83h419l-85 -83l460 -1128l81 -83h-427l86 83l-101 268
l57 63h-592l-129 -320l90 -94h-332z" />
    <glyph glyph-name="ae" unicode="&#xe6;" horiz-adv-x="1718" 
d="M465 523h395l-188 513zM140 86l138 329l-92 107h137l286 683l-2 6l-53 56l-30 26h1078l27 -340l-175 224h-579l159 -430h273l128 114v-344l-128 120h-234l192 -521h271l157 205l-18 -321h-739l84 84l-98 270l56 61h-556l-128 -321l90 -94h-332z" />
    <glyph glyph-name="ccedilla" unicode="&#xe7;" horiz-adv-x="1268" 
d="M739 1325q185 -2 342 -102l99 98l39 -417l-78 98q-154 194 -367 194q-201 0 -333 -161.5t-132 -388.5q0 -230 132 -390.5t333 -160.5q229 -4 367 178l78 97l-40 -400l-99 98q-145 -92 -316 -102l-43 -74q28 9 57 9q95 0 95 -75q0 -109 -233 -190q116 78 116 156
q0 45 -62 45q-40 -1 -80 -8l74 139q-185 11 -331 104.5t-226 244.5t-80 329q0 193 87 348t244.5 243t356.5 88z" />
    <glyph glyph-name="egrave" unicode="&#xe8;" horiz-adv-x="1045" 
d="M329 1528l126 120l260 -262zM141 94v1107l-92 93h878l28 -340l-176 224h-397v-457h238l128 115v-344l-128 120h-236v-424l-68 -72h520l158 205l-19 -321h-926z" />
    <glyph glyph-name="eacute" unicode="&#xe9;" horiz-adv-x="1045" 
d="M793 1528l-386 -142l260 262zM139 94l1 1107l-92 93h880l28 -340l-175 224h-397v-457h236l127 115v-344l-127 120h-236v-424l-69 -72h521l157 205l-19 -321h-926z" />
    <glyph glyph-name="ecircumflex" unicode="&#xea;" horiz-adv-x="1045" 
d="M637 1610l196 -216l-249 103l-252 -103l196 216h109zM140 94l1 1107l-92 93h879l27 -340l-175 224h-397v-456h236l128 115v-344l-128 120h-236v-423l-68 -72h521l157 205l-19 -322h-926z" />
    <glyph glyph-name="edieresis" unicode="&#xeb;" horiz-adv-x="1045" 
d="M870 1549l-124 -124l-124 124l124 124zM568 1549l-125 -124l-124 124l124 124zM140 94l2 1107l-92 93h879l26 -340l-175 224h-397v-456h236l128 115v-344l-128 120h-236v-423l-68 -72h520l157 205l-18 -322h-926z" />
    <glyph glyph-name="igrave" unicode="&#xec;" 
d="M-2 1529l126 121l260 -263zM127 93v1109l-92 92h427l-92 -92v-1109l92 -92h-427z" />
    <glyph glyph-name="iacute" unicode="&#xed;" 
d="M465 1529l-387 -142l261 263zM128 93v1109l-92 92h427l-92 -92v-1109l92 -92h-427z" />
    <glyph glyph-name="icircumflex" unicode="&#xee;" 
d="M306 1611l196 -216l-249 103l-251 -103l196 216h108zM126 93v1109l-92 92h427l-93 -92v-1109l93 -92h-427z" />
    <glyph glyph-name="idieresis" unicode="&#xef;" 
d="M540 1550l-124 -124l-124 124l124 124zM237 1550l-125 -124l-124 124l125 124zM128 93l-2 1109l-92 92h427l-92 -92v-1109l92 -92h-426z" />
    <glyph glyph-name="eth" unicode="&#xf0;" horiz-adv-x="1387" 
d="M406 181l-67 -72h260q206 0 346 157.5t140 381t-140 380.5t-346 157h-192v-503h283l-64 -100h-220v-401zM164 94v487h-153l64 100h89v520l-92 93h563q305 -2 505 -184.5t200 -461.5q0 -280 -200 -463.5t-505 -183.5h-563z" />
    <glyph glyph-name="ntilde" unicode="&#xf1;" horiz-adv-x="1295" 
d="M444 1413q78 157 135 157q26 0 90 -32.5t95 -32.5q42 0 128 63q-77 -157 -135 -157q-26 0 -90 32.5t-95 32.5q-42 0 -128 -63zM281 102l101 -101h-353l101 101v1070l-96 122h304l681 -972v871l-101 101h354l-101 -101v-1084l85 -108h-296l-679 970v-869z" />
    <glyph glyph-name="ograve" unicode="&#xf2;" horiz-adv-x="1483" 
d="M492 1527l125 121l261 -263zM751 73q124 0 223.5 77t154.5 207.5t55 286.5q0 238 -128.5 404.5t-322.5 166.5q-123 0 -223 -77t-154.5 -207.5t-54.5 -286.5q0 -240 127 -405.5t323 -165.5zM746 -37q-307 0 -503 192.5t-196 488.5q0 284 199 482.5t500 197.5
q303 -2 499.5 -194t196.5 -486q0 -284 -198 -482.5t-498 -198.5z" />
    <glyph glyph-name="oacute" unicode="&#xf3;" horiz-adv-x="1483" 
d="M957 1529l-386 -143l261 263zM751 74q187 0 310 166t123 405t-128.5 405t-322.5 166q-93 0 -174 -45t-137.5 -122t-88.5 -182t-32 -222q0 -239 127 -405t323 -166zM746 -35q-307 0 -503 192.5t-196 487.5q0 284 199.5 483t499.5 197q303 -1 499.5 -193.5t196.5 -486.5
q0 -284 -197.5 -482t-498.5 -198z" />
    <glyph glyph-name="ocircumflex" unicode="&#xf4;" horiz-adv-x="1483" 
d="M802 1611l196 -216l-250 103l-251 -103l195 216h110zM753 75q185 0 308 166t123 405t-128 405t-321 166q-187 0 -310 -166t-123 -405t127.5 -405t323.5 -166zM746 -34q-306 0 -502.5 192.5t-196.5 487.5q0 284 199.5 483t499.5 197q304 -1 500.5 -193.5t196.5 -486.5
q0 -284 -198 -482t-499 -198z" />
    <glyph glyph-name="otilde" unicode="&#xf5;" horiz-adv-x="1483" 
d="M536 1413q77 157 135 157q25 0 89.5 -32.5t95.5 -32.5q42 0 128 63q-78 -157 -135 -157q-26 0 -90 32.5t-96 32.5q-41 0 -127 -63zM751 75q187 0 310 166t123 404.5t-128.5 405t-322.5 166.5q-187 0 -309.5 -166t-122.5 -405q0 -240 127 -405.5t323 -165.5zM746 -34
q-307 0 -503 192.5t-196 487.5q0 185 89 341t250 248t360 91q303 -1 499.5 -193.5t196.5 -486.5q0 -284 -198 -482t-498 -198z" />
    <glyph glyph-name="odieresis" unicode="&#xf6;" horiz-adv-x="1483" 
d="M1033 1550l-124 -124l-124 124l124 124zM730 1550l-124 -124l-125 124l125 124zM751 75q187 0 309.5 166.5t122.5 405t-128.5 405t-321.5 166.5q-187 0 -309.5 -166t-122.5 -406q0 -239 127 -405t323 -166zM745 -34q-306 0 -502 192.5t-196 487.5q0 285 199 483.5
t499 197.5q304 -2 500.5 -194t196.5 -487q0 -284 -198 -482t-499 -198z" />
    <glyph glyph-name="divide" unicode="&#xf7;" horiz-adv-x="1142" 
d="M10 489v119h1102v-119h-1102zM426 211q0 16 11.5 27t30 21.5t26.5 19.5q9 9 18.5 28.5t19.5 30t27 10.5t27 -11.5t19 -31t18 -29.5q8 -9 27 -19.5t30.5 -20.5t11.5 -25q0 -14 -10 -21.5t-27.5 -15.5t-27.5 -18q-11 -11 -20.5 -31.5t-19 -32.5t-24.5 -12q-16 0 -27.5 11
t-24.5 33t-22 32q-10 11 -26.5 19t-26.5 15.5t-10 20.5zM426 883q0 16 11.5 27t30 21t26.5 19q9 9 18 28.5t19.5 30.5t27.5 11t27 -11.5t19 -31t18 -29.5q8 -9 27 -19.5t30.5 -20.5t11.5 -25q0 -14 -10 -21.5t-27.5 -16t-27.5 -18.5q-11 -11 -20.5 -31t-19 -32t-24.5 -12
q-16 0 -27.5 11t-25 32.5t-21.5 31.5q-10 11 -26.5 19.5t-26.5 15.5t-10 21z" />
    <glyph glyph-name="oslash" unicode="&#xf8;" horiz-adv-x="1483" 
d="M755 75q185 0 308 166t123 405q2 180 -84 338l-656 -760q119 -148 309 -149zM305 646q-3 -180 83 -338l656 759q-118 148 -307 150q-93 0 -174 -45t-137.5 -122.5t-88.5 -182t-32 -221.5zM255 1h-136l130 149q-209 204 -204 496q0 284 199.5 482.5t502.5 197.5
q226 4 414 -122l79 91h133l-133 -154q211 -202 205 -495q0 -284 -198 -482t-499 -198q-228 -5 -417 124z" />
    <glyph glyph-name="ugrave" unicode="&#xf9;" horiz-adv-x="1362" 
d="M429 1528l126 120l261 -263zM1210 456q0 -202 -147.5 -346t-391.5 -144t-387 134t-143 354v747l-92 92h426l-93 -92v-710q0 -379 345 -379q139 -2 237 97t95 238v744l-101 102h354l-102 -102v-735z" />
    <glyph glyph-name="uacute" unicode="&#xfa;" horiz-adv-x="1362" 
d="M896 1528l-386 -143l260 263zM1211 456q0 -202 -147.5 -346t-391.5 -144t-387 134t-143 354v747l-92 92h426l-93 -92v-710q0 -379 345 -379q139 -2 237 97t95 238v744l-101 102h353l-101 -102v-735z" />
    <glyph glyph-name="ucircumflex" unicode="&#xfb;" horiz-adv-x="1362" 
d="M739 1609l197 -216l-250 103l-251 -103l196 216h108zM1211 456q1 -202 -147 -346t-392 -144t-387 134t-143 354v747l-92 92h426l-92 -92v-710q0 -379 344 -379q139 -2 237.5 97t95.5 238v744l-102 102h354l-102 -102v-735z" />
    <glyph glyph-name="udieresis" unicode="&#xfc;" horiz-adv-x="1362" 
d="M971 1548l-124 -124l-124 124l124 124zM668 1548l-124 -124l-124 124l124 124zM1210 456q-1 -202 -148.5 -346t-391.5 -144q-162 0 -282.5 61t-184 171.5t-63.5 255.5v747l-92 92h426l-92 -92v-710q0 -379 344 -379q139 -2 237.5 96.5t95.5 238.5v744l-101 102h354
l-102 -102v-735z" />
    <glyph glyph-name="yacute" unicode="&#xfd;" horiz-adv-x="1420" 
d="M972 1528l-387 -143l261 263zM829 92l94 -94h-427l92 93v430l-452 689l-82 83h440l-85 -83l357 -571l361 560l-91 94h329l-88 -83l-448 -686v-432z" />
    <glyph glyph-name="thorn" unicode="&#xfe;" horiz-adv-x="1083" 
d="M146 92l-1 1109l-92 92h425l-92 -92v-196h212q193 -2 320 -104.5t127 -256.5q0 -99 -53 -181t-143.5 -127.5t-197.5 -45.5q-144 0 -198 73q48 -7 97 -7q112 1 183.5 79.5t71.5 192.5q0 268 -244 268h-174v-804l92 -93h-426z" />
    <glyph glyph-name="ydieresis" unicode="&#xff;" horiz-adv-x="1420" 
d="M1049 1548l-124 -124l-124 124l124 124zM747 1548l-125 -124l-124 124l124 124zM831 92l92 -94h-427l93 93v430l-453 689l-81 83h439l-85 -83l357 -571l362 560l-90 94h329l-89 -83l-447 -686v-432z" />
    <glyph glyph-name="Amacron" unicode="&#x100;" horiz-adv-x="1449" 
d="M532 1459l46 72h403l-46 -72h-403zM858 1210l460 -1127l81 -84h-427l85 84l-101 268l57 63h-592l-129 -320l90 -95h-332l89 83l96 228l-43 111l100 -22l-108 122h137l289 689l-87 83h419zM676 1049l-212 -528h425z" />
    <glyph glyph-name="amacron" unicode="&#x101;" horiz-adv-x="1449" 
d="M532 1459l46 72h403l-46 -72h-403zM858 1210l460 -1127l81 -84h-427l85 84l-101 268l57 63h-592l-129 -320l90 -95h-332l89 83l96 228l-43 111l100 -22l-108 122h137l289 689l-87 83h419zM676 1049l-212 -528h425z" />
    <glyph glyph-name="Abreve" unicode="&#x102;" horiz-adv-x="1449" 
d="M865 1612l95 -47q-68 -150 -232 -144q-188 -4 -205 183q74 -98 175 -98q118 -2 167 106zM466 522h423l-212 529zM141 84l138 332l-93 107h137l288 688l-87 83h419l-85 -83l460 -1127l82 -84h-426l84 83l-101 268l57 63h-591l-129 -320l91 -94h-333z" />
    <glyph glyph-name="abreve" unicode="&#x103;" horiz-adv-x="1449" 
d="M865 1612l95 -47q-68 -150 -232 -144q-188 -4 -205 183q74 -98 175 -98q118 -2 167 106zM466 522h423l-212 529zM141 84l138 332l-93 107h137l288 688l-87 83h419l-85 -83l460 -1127l82 -84h-426l84 83l-101 268l57 63h-591l-129 -320l91 -94h-333z" />
    <glyph glyph-name="Aogonek" unicode="&#x104;" horiz-adv-x="1449" 
d="M465 522h423l-211 529zM139 84l138 330l-92 108h137l287 687l-86 83h418l-84 -83l459 -1126l81 -83q-136 -154 -132 -220q3 -57 55 -57q46 1 87 20q-66 -122 -159 -122q-38 1 -65.5 28.5t-26.5 66.5q-7 140 196 284h-381l85 83l-102 268l58 63h-591l-129 -320l90 -94
h-332z" />
    <glyph glyph-name="aogonek" unicode="&#x105;" horiz-adv-x="1449" 
d="M465 522h423l-211 529zM139 84l138 330l-92 108h137l287 687l-86 83h418l-84 -83l459 -1126l81 -83q-136 -154 -132 -220q3 -57 55 -57q46 1 87 20q-66 -122 -159 -122q-38 1 -65.5 28.5t-26.5 66.5q-7 140 196 284h-381l85 83l-102 268l58 63h-591l-129 -320l90 -94
h-332z" />
    <glyph glyph-name="Cacute" unicode="&#x106;" horiz-adv-x="1268" 
d="M958 1528l-386 -142l261 262zM739 1325h1q185 -2 342 -102l99 98l39 -417l-78 98q-154 194 -367 194q-201 0 -333 -161.5t-132 -388.5q0 -230 132 -390.5t333 -160.5q229 -5 367 178l78 97l-40 -400l-100 98q-156 -100 -341 -102q-298 -1 -493 197t-195 483
q0 295 193 487t495 192z" />
    <glyph glyph-name="cacute" unicode="&#x107;" horiz-adv-x="1268" 
d="M958 1528l-386 -142l261 262zM739 1325h1q185 -2 342 -102l99 98l39 -417l-78 98q-154 194 -367 194q-201 0 -333 -161.5t-132 -388.5q0 -230 132 -390.5t333 -160.5q229 -5 367 178l78 97l-40 -400l-100 98q-156 -100 -341 -102q-298 -1 -493 197t-195 483
q0 295 193 487t495 192z" />
    <glyph glyph-name="Ccircumflex" unicode="&#x108;" horiz-adv-x="1268" 
d="M801 1609l195 -216l-249 104l-251 -104l196 216h109zM738 1325q185 -2 341 -102l100 98l39 -417l-77 98q-154 194 -368 194q-201 0 -333 -161.5t-132 -388.5q0 -230 132 -390.5t333 -160.5q229 -4 368 178l77 97l-39 -400l-100 98q-156 -100 -341 -102q-298 -1 -493 197
t-195 483q0 193 87 348t244.5 243t356.5 88z" />
    <glyph glyph-name="ccircumflex" unicode="&#x109;" horiz-adv-x="1268" 
d="M801 1609l195 -216l-249 104l-251 -104l196 216h109zM738 1325q185 -2 341 -102l100 98l39 -417l-77 98q-154 194 -368 194q-201 0 -333 -161.5t-132 -388.5q0 -230 132 -390.5t333 -160.5q229 -4 368 178l77 97l-39 -400l-100 98q-156 -100 -341 -102q-298 -1 -493 197
t-195 483q0 193 87 348t244.5 243t356.5 88z" />
    <glyph glyph-name="Cdotaccent" unicode="&#x10a;" horiz-adv-x="1268" 
d="M865 1512l-124 -125l-124 125l124 124zM737 1326q186 -3 343 -103l99 98l39 -417l-78 98q-153 194 -367 194q-201 0 -333 -161.5t-132 -388.5q0 -230 132.5 -390.5t332.5 -160.5q229 -4 367 178l78 97l-40 -399l-99 98q-157 -99 -342 -101q-148 -1 -277 52.5
t-218.5 145.5t-141 217t-51.5 264q0 295 193 487t495 192z" />
    <glyph glyph-name="cdotaccent" unicode="&#x10b;" horiz-adv-x="1268" 
d="M865 1512l-124 -125l-124 125l124 124zM737 1326q186 -3 343 -103l99 98l39 -417l-78 98q-153 194 -367 194q-201 0 -333 -161.5t-132 -388.5q0 -230 132.5 -390.5t332.5 -160.5q229 -4 367 178l78 97l-40 -399l-99 98q-157 -99 -342 -101q-148 -1 -277 52.5
t-218.5 145.5t-141 217t-51.5 264q0 295 193 487t495 192z" />
    <glyph glyph-name="Ccaron" unicode="&#x10c;" horiz-adv-x="1268" 
d="M694 1421l-196 216l251 -103l249 103l-195 -216h-109zM740 1325q184 -2 340 -102l100 98l39 -417l-78 98q-154 194 -367 194q-201 0 -333.5 -161.5t-132.5 -388.5q0 -230 132.5 -390.5t333.5 -160.5q228 -4 367 178l78 97l-38 -400l-100 98q-156 -99 -341 -102
q-148 0 -277 53.5t-218.5 145.5t-141 217t-51.5 264q0 295 193 487t495 192z" />
    <glyph glyph-name="ccaron" unicode="&#x10d;" horiz-adv-x="1268" 
d="M694 1421l-196 216l251 -103l249 103l-195 -216h-109zM740 1325q184 -2 340 -102l100 98l39 -417l-78 98q-154 194 -367 194q-201 0 -333.5 -161.5t-132.5 -388.5q0 -230 132.5 -390.5t333.5 -160.5q228 -4 367 178l78 97l-38 -400l-100 98q-156 -99 -341 -102
q-148 0 -277 53.5t-218.5 145.5t-141 217t-51.5 264q0 295 193 487t495 192z" />
    <glyph glyph-name="Dcaron" unicode="&#x10e;" horiz-adv-x="1387" 
d="M664 1421l-195 216l251 -103l249 103l-196 -216h-109zM406 181l-67 -72h260q206 0 345.5 158t139.5 382q0 223 -140 380t-346 157h-192v-1005zM164 94l1 1106l-92 92h563q305 -1 505 -183.5t200 -462.5q0 -137 -53 -257.5t-146.5 -205.5t-224.5 -134t-281 -49h-563z" />
    <glyph glyph-name="dcaron" unicode="&#x10f;" horiz-adv-x="1387" 
d="M664 1421l-195 216l251 -103l249 103l-196 -216h-109zM406 181l-67 -72h260q206 0 345.5 158t139.5 382q0 223 -140 380t-346 157h-192v-1005zM164 94l1 1106l-92 92h563q305 -1 505 -183.5t200 -462.5q0 -137 -53 -257.5t-146.5 -205.5t-224.5 -134t-281 -49h-563z" />
    <glyph glyph-name="Dcroat" unicode="&#x110;" horiz-adv-x="1387" 
d="M406 181l-67 -72h260q206 0 346 157.5t140 381t-140 380.5t-346 157h-192v-503h283l-64 -100h-220v-401zM164 94v487h-153l64 100h89v520l-92 93h563q305 -2 505 -184.5t200 -461.5q0 -280 -200 -463.5t-505 -183.5h-563z" />
    <glyph glyph-name="dcroat" unicode="&#x111;" horiz-adv-x="1387" 
d="M406 181l-67 -72h260q206 0 346 157.5t140 381t-140 380.5t-346 157h-192v-503h283l-64 -100h-220v-401zM164 94v487h-153l64 100h89v520l-92 93h563q305 -2 505 -184.5t200 -461.5q0 -280 -200 -463.5t-505 -183.5h-563z" />
    <glyph glyph-name="Emacron" unicode="&#x112;" horiz-adv-x="1045" 
d="M364 1458l46 73h402l-46 -73h-402zM143 94l-1 1107l-92 93h879l26 -340l-175 224h-397v-456h236l128 115v-344l-128 120h-233v-423l-68 -72h520l157 205l-18 -322h-926z" />
    <glyph glyph-name="emacron" unicode="&#x113;" horiz-adv-x="1045" 
d="M364 1458l46 73h402l-46 -73h-402zM143 94l-1 1107l-92 93h879l26 -340l-175 224h-397v-456h236l128 115v-344l-128 120h-233v-423l-68 -72h520l157 205l-18 -322h-926z" />
    <glyph glyph-name="Ebreve" unicode="&#x114;" horiz-adv-x="1045" 
d="M718 1612l96 -47q-68 -150 -232 -144q-188 -4 -205 183q73 -98 175 -98q118 -2 166 106zM141 94l1 1107l-92 93h878l27 -340l-176 224h-397v-457h237l127 115v-344l-127 120h-237v-424l-68 -72h523l157 205l-18 -321h-926z" />
    <glyph glyph-name="ebreve" unicode="&#x115;" horiz-adv-x="1045" 
d="M718 1612l96 -47q-68 -150 -232 -144q-188 -4 -205 183q73 -98 175 -98q118 -2 166 106zM141 94l1 1107l-92 93h878l27 -340l-176 224h-397v-457h237l127 115v-344l-127 120h-237v-424l-68 -72h523l157 205l-18 -321h-926z" />
    <glyph glyph-name="Edotaccent" unicode="&#x116;" horiz-adv-x="1045" 
d="M703 1512l-124 -125l-124 125l124 124zM141 94l2 1107l-92 93h879l26 -340l-175 224h-397v-456h236l128 115v-344l-128 120h-236v-423l-68 -72h520l157 205l-18 -322h-926z" />
    <glyph glyph-name="edotaccent" unicode="&#x117;" horiz-adv-x="1045" 
d="M703 1512l-124 -125l-124 125l124 124zM141 94l2 1107l-92 93h879l26 -340l-175 224h-397v-456h236l128 115v-344l-128 120h-236v-423l-68 -72h520l157 205l-18 -322h-926z" />
    <glyph glyph-name="Eogonek" unicode="&#x118;" horiz-adv-x="1045" 
d="M142 94l1 1107l-93 93h879l27 -340l-176 224h-397v-455h237l127 114v-344l-127 120h-237v-423l-68 -72h521l157 205l-19 -321q-136 -154 -132 -220q3 -57 55 -57q46 1 87 20q-66 -122 -159 -122q-39 0 -66 27.5t-26 66.5q-7 140 196 285h-879z" />
    <glyph glyph-name="eogonek" unicode="&#x119;" horiz-adv-x="1045" 
d="M142 94l1 1107l-93 93h879l27 -340l-176 224h-397v-455h237l127 114v-344l-127 120h-237v-423l-68 -72h521l157 205l-19 -321q-136 -154 -132 -220q3 -57 55 -57q46 1 87 20q-66 -122 -159 -122q-39 0 -66 27.5t-26 66.5q-7 140 196 285h-879z" />
    <glyph glyph-name="Ecaron" unicode="&#x11a;" horiz-adv-x="1045" 
d="M528 1421l-195 216l251 -103l249 103l-196 -216h-109zM140 94l3 1107l-93 93h879l27 -340l-176 224h-397v-456h237l127 115v-344l-127 120h-237v-423l-68 -72h521l157 205l-19 -322h-926z" />
    <glyph glyph-name="ecaron" unicode="&#x11b;" horiz-adv-x="1045" 
d="M528 1421l-195 216l251 -103l249 103l-196 -216h-109zM140 94l3 1107l-93 93h879l27 -340l-176 224h-397v-456h237l127 115v-344l-127 120h-237v-423l-68 -72h521l157 205l-19 -322h-926z" />
    <glyph glyph-name="Gcircumflex" unicode="&#x11c;" horiz-adv-x="1400" 
d="M803 1608l195 -216l-249 103l-251 -103l196 216h109zM1021 458l68 71h-240l-92 109h590l-92 -92v-576l-116 113q-184 -115 -401 -117q-298 -1 -493 197t-195 483q0 295 193 487t495 192q185 -2 342 -101l99 98l39 -420l-77 98q-156 196 -368 196q-100 0 -187.5 -44.5
t-148 -119t-95 -175.5t-34.5 -211q0 -232 132.5 -394t332.5 -162q130 -1 248 56v312z" />
    <glyph glyph-name="gcircumflex" unicode="&#x11d;" horiz-adv-x="1400" 
d="M803 1608l195 -216l-249 103l-251 -103l196 216h109zM1021 458l68 71h-240l-92 109h590l-92 -92v-576l-116 113q-184 -115 -401 -117q-298 -1 -493 197t-195 483q0 295 193 487t495 192q185 -2 342 -101l99 98l39 -420l-77 98q-156 196 -368 196q-100 0 -187.5 -44.5
t-148 -119t-95 -175.5t-34.5 -211q0 -232 132.5 -394t332.5 -162q130 -1 248 56v312z" />
    <glyph glyph-name="Gbreve" unicode="&#x11e;" horiz-adv-x="1400" 
d="M883 1610l96 -48q-68 -150 -233 -144q-187 -4 -205 183q74 -98 176 -98q119 -2 166 107zM1020 458l68 71h-240l-92 109h590l-92 -92v-576l-116 113q-184 -115 -401 -117q-298 -1 -493 197t-195 483q0 145 51 271t141 215.5t218.5 141t277.5 51.5q185 -2 342 -101l99 98
l39 -420l-77 98q-156 196 -368 196q-133 0 -240.5 -75.5t-166 -201t-58.5 -273.5q0 -232 132.5 -394t332.5 -162q131 -1 248 56v312z" />
    <glyph glyph-name="gbreve" unicode="&#x11f;" horiz-adv-x="1400" 
d="M883 1610l96 -48q-68 -150 -233 -144q-187 -4 -205 183q74 -98 176 -98q119 -2 166 107zM1020 458l68 71h-240l-92 109h590l-92 -92v-576l-116 113q-184 -115 -401 -117q-298 -1 -493 197t-195 483q0 145 51 271t141 215.5t218.5 141t277.5 51.5q185 -2 342 -101l99 98
l39 -420l-77 98q-156 196 -368 196q-133 0 -240.5 -75.5t-166 -201t-58.5 -273.5q0 -232 132.5 -394t332.5 -162q131 -1 248 56v312z" />
    <glyph glyph-name="Gdotaccent" unicode="&#x120;" horiz-adv-x="1400" 
d="M868 1510l-124 -125l-124 125l124 124zM1021 458l68 71h-240l-92 109h590l-92 -92v-576l-116 112q-184 -114 -401 -116q-298 -1 -493 197t-195 483q0 193 87 348t244.5 243t356.5 88q185 -2 342 -102l99 98l39 -419l-78 98q-155 196 -367 196q-201 0 -333 -161.5
t-132 -388.5q0 -232 132 -394t333 -162q130 -1 248 55v313z" />
    <glyph glyph-name="gdotaccent" unicode="&#x121;" horiz-adv-x="1400" 
d="M868 1510l-124 -125l-124 125l124 124zM1021 458l68 71h-240l-92 109h590l-92 -92v-576l-116 112q-184 -114 -401 -116q-298 -1 -493 197t-195 483q0 193 87 348t244.5 243t356.5 88q185 -2 342 -102l99 98l39 -419l-78 98q-155 196 -367 196q-201 0 -333 -161.5
t-132 -388.5q0 -232 132 -394t333 -162q130 -1 248 55v313z" />
    <glyph glyph-name="uni0122" unicode="&#x122;" horiz-adv-x="1400" 
d="M845 -161q61 -66 8 -153q-61 -90 -155 -142q83 126 23 185l-57 53l119 120zM1021 458l68 71h-240l-92 109h590l-92 -92v-576l-116 113q-184 -115 -401 -117q-298 -1 -493 197t-195 483q0 295 193 487t495 192q185 -2 342 -101l99 98l39 -420l-77 98q-156 196 -368 196
q-100 0 -187.5 -44.5t-148 -119t-95 -175.5t-34.5 -211q0 -151 59 -278t166.5 -202.5t239.5 -75.5q130 -1 248 56v312z" />
    <glyph glyph-name="uni0123" unicode="&#x123;" horiz-adv-x="1400" 
d="M845 -161q61 -66 8 -153q-61 -90 -155 -142q83 126 23 185l-57 53l119 120zM1021 458l68 71h-240l-92 109h590l-92 -92v-576l-116 113q-184 -115 -401 -117q-298 -1 -493 197t-195 483q0 295 193 487t495 192q185 -2 342 -101l99 98l39 -420l-77 98q-156 196 -368 196
q-100 0 -187.5 -44.5t-148 -119t-95 -175.5t-34.5 -211q0 -151 59 -278t166.5 -202.5t239.5 -75.5q130 -1 248 56v312z" />
    <glyph glyph-name="Hcircumflex" unicode="&#x124;" horiz-adv-x="1320" 
d="M716 1611l196 -216l-250 103l-251 -103l196 216h109zM140 93v1109l-93 92h428l-93 -92v-483h553v483l-93 92h428l-93 -92v-1109l93 -92h-428l93 92v510h-621l68 -72v-438l93 -92h-428z" />
    <glyph glyph-name="hcircumflex" unicode="&#x125;" horiz-adv-x="1320" 
d="M716 1611l196 -216l-250 103l-251 -103l196 216h109zM140 93v1109l-93 92h428l-93 -92v-483h553v483l-93 92h428l-93 -92v-1109l93 -92h-428l93 92v510h-621l68 -72v-438l93 -92h-428z" />
    <glyph glyph-name="Hbar" unicode="&#x126;" horiz-adv-x="1320" 
d="M382 929v-209h552v209h-552zM140 93v835h-156l65 100h91v174l-93 92h427l-92 -92v-174h552v174l-92 92h427l-92 -92v-174h155l-65 -100h-90v-835l94 -92h-429l92 92v510h-621l69 -72v-438l92 -92h-427z" />
    <glyph glyph-name="hbar" unicode="&#x127;" horiz-adv-x="1320" 
d="M382 929v-209h552v209h-552zM140 93v835h-156l65 100h91v174l-93 92h427l-92 -92v-174h552v174l-92 92h427l-92 -92v-174h155l-65 -100h-90v-835l94 -92h-429l92 92v510h-621l69 -72v-438l92 -92h-427z" />
    <glyph glyph-name="Itilde" unicode="&#x128;" 
d="M42 1413q77 157 134 157q27 0 91 -32.5t95 -32.5q42 0 128 63q-78 -157 -136 -157q-25 0 -89 32.5t-96 32.5q-41 0 -127 -63zM127 93v1109l-93 92h427l-92 -92v-1109l92 -92h-427z" />
    <glyph glyph-name="itilde" unicode="&#x129;" 
d="M42 1413q77 157 134 157q27 0 91 -32.5t95 -32.5q42 0 128 63q-78 -157 -136 -157q-25 0 -89 32.5t-96 32.5q-41 0 -127 -63zM127 93v1109l-93 92h427l-92 -92v-1109l92 -92h-427z" />
    <glyph glyph-name="Imacron" unicode="&#x12a;" 
d="M31 1459l46 72h403l-46 -72h-403zM127 93v1109l-93 92h427l-92 -92v-1109l92 -92h-427z" />
    <glyph glyph-name="imacron" unicode="&#x12b;" 
d="M31 1459l46 72h403l-46 -72h-403zM127 93v1109l-93 92h427l-92 -92v-1109l92 -92h-427z" />
    <glyph glyph-name="Ibreve" unicode="&#x12c;" 
d="M388 1612l97 -48q-69 -149 -233 -144q-188 -4 -205 183q73 -98 175 -98q119 -2 166 107zM128 93v1109l-93 92h427l-92 -92v-1109l92 -92h-427z" />
    <glyph glyph-name="ibreve" unicode="&#x12d;" 
d="M388 1612l97 -48q-69 -149 -233 -144q-188 -4 -205 183q73 -98 175 -98q119 -2 166 107zM128 93v1109l-93 92h427l-92 -92v-1109l92 -92h-427z" />
    <glyph glyph-name="Iogonek" unicode="&#x12e;" 
d="M127 93v1109l-92 92h427l-93 -92v-1109l92 -92q-136 -155 -132 -220q3 -58 55 -58q46 2 87 21q-66 -122 -159 -122q-39 0 -66 27.5t-26 66.5q-7 140 196 285h-381z" />
    <glyph glyph-name="iogonek" unicode="&#x12f;" 
d="M127 93v1109l-92 92h427l-93 -92v-1109l92 -92q-136 -155 -132 -220q3 -58 55 -58q46 2 87 21q-66 -122 -159 -122q-39 0 -66 27.5t-26 66.5q-7 140 196 285h-381z" />
    <glyph glyph-name="Idotaccent" unicode="&#x130;" 
d="M375 1512l-124 -125l-124 125l124 124zM126 93v1109l-92 92h427l-93 -92v-1109l93 -92h-427z" />
    <glyph glyph-name="dotlessi" unicode="&#x131;" 
d="M127 91v1109l-92 93h427l-93 -93v-1109l93 -93h-427z" />
    <glyph glyph-name="Jcircumflex" unicode="&#x134;" horiz-adv-x="997" 
d="M767 1611l196 -216l-249 103l-252 -103l196 216h109zM381 -31q-204 -2 -305 87l-19 240q175 -218 324 -218q223 0 223 252v872l-92 92h427l-92 -92v-803q0 -430 -466 -430z" />
    <glyph glyph-name="jcircumflex" unicode="&#x135;" horiz-adv-x="997" 
d="M767 1611l196 -216l-249 103l-252 -103l196 216h109zM381 -31q-204 -2 -305 87l-19 240q175 -218 324 -218q223 0 223 252v872l-92 92h427l-92 -92v-803q0 -430 -466 -430z" />
    <glyph glyph-name="uni0136" unicode="&#x136;" horiz-adv-x="1288" 
d="M696 -162q62 -67 8 -154q-61 -89 -155 -142q83 126 24 185l-58 53l118 121zM391 93l92 -92h-427l93 92v1109l-93 92h427l-92 -92v-501l554 499l-83 94h338l-96 -83l-465 -427l487 -686l119 -97h-481l85 83l-380 547l-78 -72v-466z" />
    <glyph glyph-name="uni0137" unicode="&#x137;" horiz-adv-x="1288" 
d="M696 -162q62 -67 8 -154q-61 -89 -155 -142q83 126 24 185l-58 53l118 121zM391 93l92 -92h-427l93 92v1109l-93 92h427l-92 -92v-501l554 499l-83 94h338l-96 -83l-465 -427l487 -686l119 -97h-481l85 83l-380 547l-78 -72v-466z" />
    <glyph glyph-name="Lacute" unicode="&#x139;" horiz-adv-x="1028" 
d="M484 1529l-386 -142l260 263zM145 93v1109l-93 92h428l-93 -92v-1013l-68 -72h522l157 205l-19 -321h-927z" />
    <glyph glyph-name="lacute" unicode="&#x13a;" horiz-adv-x="1028" 
d="M484 1529l-386 -142l260 263zM145 93v1109l-93 92h428l-93 -92v-1013l-68 -72h522l157 205l-19 -321h-927z" />
    <glyph glyph-name="uni013B" unicode="&#x13b;" horiz-adv-x="1028" 
d="M628 -162q62 -65 7 -153q-60 -90 -155 -143q83 126 24 186l-57 53l118 120zM146 93v1109l-93 92h427l-92 -92v-1013l-69 -72h523l157 205l-19 -321h-927z" />
    <glyph glyph-name="uni013C" unicode="&#x13c;" horiz-adv-x="1028" 
d="M628 -162q62 -65 7 -153q-60 -90 -155 -143q83 126 24 186l-57 53l118 120zM146 93v1109l-93 92h427l-92 -92v-1013l-69 -72h523l157 205l-19 -321h-927z" />
    <glyph glyph-name="Lcaron" unicode="&#x13d;" horiz-adv-x="1028" 
d="M838 1250q67 -68 7 -166q-65 -98 -169 -153q93 133 27 199l-61 59l128 130zM145 93v1109l-93 92h427l-92 -92v-1013l-68 -72h522l157 205l-19 -321h-927z" />
    <glyph glyph-name="lcaron" unicode="&#x13e;" horiz-adv-x="1028" 
d="M838 1250q67 -68 7 -166q-65 -98 -169 -153q93 133 27 199l-61 59l128 130zM145 93v1109l-93 92h427l-92 -92v-1013l-68 -72h522l157 205l-19 -321h-927z" />
    <glyph glyph-name="Ldot" unicode="&#x13f;" horiz-adv-x="1028" 
d="M882 647l-125 -124l-124 124l124 124zM146 93l1 1109l-93 92h426l-93 -92v-1013l-68 -72h523l157 205l-18 -321h-927z" />
    <glyph glyph-name="ldot" unicode="&#x140;" horiz-adv-x="1028" 
d="M882 647l-125 -124l-124 124l124 124zM146 93l1 1109l-93 92h426l-93 -92v-1013l-68 -72h523l157 205l-18 -321h-927z" />
    <glyph glyph-name="Lslash" unicode="&#x141;" horiz-adv-x="1028" 
d="M148 93l-3 405l-131 -63v124l131 63v580l-92 92h427l-93 -92v-466l392 186v-124l-392 -185v-424l-68 -72h525l157 205l-18 -321h-928z" />
    <glyph glyph-name="lslash" unicode="&#x142;" horiz-adv-x="1028" 
d="M148 93l-3 405l-131 -63v124l131 63v580l-92 92h427l-93 -92v-466l392 186v-124l-392 -185v-424l-68 -72h525l157 205l-18 -321h-928z" />
    <glyph glyph-name="Nacute" unicode="&#x143;" horiz-adv-x="1295" 
d="M864 1529l-386 -142l260 262zM281 102l99 -101h-353l102 101v1070l-96 122h305l680 -972v871l-102 101h356l-102 -101v-1084l86 -108h-296l-679 970v-869z" />
    <glyph glyph-name="nacute" unicode="&#x144;" horiz-adv-x="1295" 
d="M864 1529l-386 -142l260 262zM281 102l99 -101h-353l102 101v1070l-96 122h305l680 -972v871l-102 101h356l-102 -101v-1084l86 -108h-296l-679 970v-869z" />
    <glyph glyph-name="uni0145" unicode="&#x145;" horiz-adv-x="1295" 
d="M717 -163q61 -66 8 -153q-61 -90 -155 -142q83 125 23 185l-57 53l119 120zM279 102l102 -101h-354l101 101v1070l-96 122h305l680 -972v871l-101 101h353l-102 -101v-1084l85 -108h-294l-679 970v-869z" />
    <glyph glyph-name="uni0146" unicode="&#x146;" horiz-adv-x="1295" 
d="M717 -163q61 -66 8 -153q-61 -90 -155 -142q83 125 23 185l-57 53l119 120zM279 102l102 -101h-354l101 101v1070l-96 122h305l680 -972v871l-101 101h353l-102 -101v-1084l85 -108h-294l-679 970v-869z" />
    <glyph glyph-name="Ncaron" unicode="&#x147;" horiz-adv-x="1295" 
d="M599 1422l-198 216l254 -103l249 103l-196 -216h-109zM281 102l101 -101h-354l102 101v1070l-96 122h305l680 -972v871l-101 101h353l-102 -101v-1084l84 -108h-296l-676 970v-869z" />
    <glyph glyph-name="ncaron" unicode="&#x148;" horiz-adv-x="1295" 
d="M599 1422l-198 216l254 -103l249 103l-196 -216h-109zM281 102l101 -101h-354l102 101v1070l-96 122h305l680 -972v871l-101 101h353l-102 -101v-1084l84 -108h-296l-676 970v-869z" />
    <glyph glyph-name="Omacron" unicode="&#x14c;" horiz-adv-x="1483" 
d="M524 1459l46 72h404l-47 -72h-403zM751 75q187 0 309.5 166t122.5 404.5t-128.5 405t-321.5 166.5q-187 0 -310 -166t-123 -405q0 -240 127.5 -405.5t323.5 -165.5zM745 -34q-306 0 -502.5 192.5t-196.5 487.5q0 284 199.5 482.5t499.5 197.5q304 -1 500.5 -193.5
t196.5 -486.5q0 -139 -52 -264t-143 -216.5t-222 -145.5t-280 -54z" />
    <glyph glyph-name="omacron" unicode="&#x14d;" horiz-adv-x="1483" 
d="M524 1459l46 72h404l-47 -72h-403zM751 75q187 0 309.5 166t122.5 404.5t-128.5 405t-321.5 166.5q-187 0 -310 -166t-123 -405q0 -240 127.5 -405.5t323.5 -165.5zM745 -34q-306 0 -502.5 192.5t-196.5 487.5q0 284 199.5 482.5t499.5 197.5q304 -1 500.5 -193.5
t196.5 -486.5q0 -139 -52 -264t-143 -216.5t-222 -145.5t-280 -54z" />
    <glyph glyph-name="Obreve" unicode="&#x14e;" horiz-adv-x="1483" 
d="M881 1613l96 -48q-69 -150 -233 -144q-188 -4 -205 183q73 -98 175 -98q119 -2 167 107zM750 75q187 0 310 166t123 405t-128.5 405t-321.5 166q-124 0 -223.5 -77t-154.5 -207.5t-55 -286.5q0 -239 127.5 -405t322.5 -166zM745 -34q-307 0 -503 192.5t-196 487.5
q0 284 199.5 483t499.5 197q304 -1 500.5 -193.5t196.5 -486.5q0 -284 -198 -482t-499 -198z" />
    <glyph glyph-name="obreve" unicode="&#x14f;" horiz-adv-x="1483" 
d="M881 1613l96 -48q-69 -150 -233 -144q-188 -4 -205 183q73 -98 175 -98q119 -2 167 107zM750 75q187 0 310 166t123 405t-128.5 405t-321.5 166q-124 0 -223.5 -77t-154.5 -207.5t-55 -286.5q0 -239 127.5 -405t322.5 -166zM745 -34q-307 0 -503 192.5t-196 487.5
q0 284 199.5 483t499.5 197q304 -1 500.5 -193.5t196.5 -486.5q0 -284 -198 -482t-499 -198z" />
    <glyph glyph-name="Ohungarumlaut" unicode="&#x150;" horiz-adv-x="1483" 
d="M1112 1608l-336 -217l177 287zM814 1608l-335 -217l177 287zM752 74q124 0 223.5 77t154.5 207.5t55 286.5q0 238 -128.5 404.5t-321.5 166.5q-124 0 -224 -77t-154.5 -207.5t-54.5 -286.5q0 -240 127.5 -405.5t322.5 -165.5zM747 -35q-306 0 -502.5 192.5t-196.5 487.5
q0 284 199.5 482.5t499.5 197.5q304 -1 500.5 -193.5t196.5 -486.5q0 -284 -198 -482t-499 -198z" />
    <glyph glyph-name="ohungarumlaut" unicode="&#x151;" horiz-adv-x="1483" 
d="M1112 1608l-336 -217l177 287zM814 1608l-335 -217l177 287zM752 74q124 0 223.5 77t154.5 207.5t55 286.5q0 238 -128.5 404.5t-321.5 166.5q-124 0 -224 -77t-154.5 -207.5t-54.5 -286.5q0 -240 127.5 -405.5t322.5 -165.5zM747 -35q-306 0 -502.5 192.5t-196.5 487.5
q0 284 199.5 482.5t499.5 197.5q304 -1 500.5 -193.5t196.5 -486.5q0 -284 -198 -482t-499 -198z" />
    <glyph glyph-name="OE" unicode="&#x152;" horiz-adv-x="2548" 
d="M1643 91l2 1111l-92 92h880l26 -340l-175 224h-398v-458h237l127 115v-344l-127 120h-237v-424l-68 -72h521l157 205l-18 -321h-927zM750 73q187 0 310 166t123 404.5t-128.5 405t-321.5 166.5q-124 0 -224 -77t-154.5 -207.5t-54.5 -286.5q0 -240 127.5 -405.5
t322.5 -165.5zM745 -37q-307 0 -503 192.5t-196 488.5q0 284 199.5 482.5t499.5 197.5q304 -2 500.5 -194t196.5 -486q0 -284 -198 -482.5t-499 -198.5z" />
    <glyph glyph-name="oe" unicode="&#x153;" horiz-adv-x="2548" 
d="M1643 91l2 1111l-92 92h880l26 -340l-175 224h-398v-458h237l127 115v-344l-127 120h-237v-424l-68 -72h521l157 205l-18 -321h-927zM750 73q187 0 310 166t123 404.5t-128.5 405t-321.5 166.5q-124 0 -224 -77t-154.5 -207.5t-54.5 -286.5q0 -240 127.5 -405.5
t322.5 -165.5zM745 -37q-307 0 -503 192.5t-196 488.5q0 284 199.5 482.5t499.5 197.5q304 -2 500.5 -194t196.5 -486q0 -284 -198 -482.5t-499 -198.5z" />
    <glyph glyph-name="Racute" unicode="&#x154;" horiz-adv-x="1262" 
d="M837 1529l-386 -142l260 263zM562 1185h-173v-505h173q237 0 237 254q0 251 -237 251zM148 93v1108l-93 92h544q195 -1 321.5 -103t126.5 -257q0 -264 -294 -340l79 -27l337 -482l68 -83h-418l84 83l-345 489h-168v-480l93 -92h-427z" />
    <glyph glyph-name="racute" unicode="&#x155;" horiz-adv-x="1262" 
d="M837 1529l-386 -142l260 263zM562 1185h-173v-505h173q237 0 237 254q0 251 -237 251zM148 93v1108l-93 92h544q195 -1 321.5 -103t126.5 -257q0 -264 -294 -340l79 -27l337 -482l68 -83h-418l84 83l-345 489h-168v-480l93 -92h-427z" />
    <glyph glyph-name="uni0156" unicode="&#x156;" horiz-adv-x="1262" 
d="M692 -162q61 -67 8 -154q-61 -89 -156 -142q84 126 24 185l-57 53l118 121zM564 1185h-174v-504h174q236 0 236 253q0 251 -236 251zM148 93v1108l-93 92h545q195 -1 321.5 -103t126.5 -257q0 -264 -294 -340l80 -27l336 -482l68 -83h-417l83 83l-346 489h-168v-480
l92 -92h-427z" />
    <glyph glyph-name="uni0157" unicode="&#x157;" horiz-adv-x="1262" 
d="M692 -162q61 -67 8 -154q-61 -89 -156 -142q84 126 24 185l-57 53l118 121zM564 1185h-174v-504h174q236 0 236 253q0 251 -236 251zM148 93v1108l-93 92h545q195 -1 321.5 -103t126.5 -257q0 -264 -294 -340l80 -27l336 -482l68 -83h-417l83 83l-346 489h-168v-480
l92 -92h-427z" />
    <glyph glyph-name="Rcaron" unicode="&#x158;" horiz-adv-x="1262" 
d="M575 1422l-196 217l252 -104l249 104l-196 -217h-109zM567 1186l-174 -1v-504h174q236 0 236 253q0 252 -236 252zM148 93l-1 1108l-92 92h545q194 -1 320.5 -103t126.5 -257q0 -264 -293 -340l79 -27l337 -482l68 -83h-418l83 83l-344 489h-168v-480l92 -92h-427z" />
    <glyph glyph-name="rcaron" unicode="&#x159;" horiz-adv-x="1262" 
d="M575 1422l-196 217l252 -104l249 104l-196 -217h-109zM567 1186l-174 -1v-504h174q236 0 236 253q0 252 -236 252zM148 93l-1 1108l-92 92h545q194 -1 320.5 -103t126.5 -257q0 -264 -293 -340l79 -27l337 -482l68 -83h-418l83 83l-344 489h-168v-480l92 -92h-427z" />
    <glyph glyph-name="Sacute" unicode="&#x15a;" horiz-adv-x="962" 
d="M667 1526l-387 -141l262 261zM919 358q0 -165 -129.5 -280t-325.5 -114q-159 6 -288 98l-98 -94l-30 420l74 -93q172 -216 346 -216q100 0 167 66t67 154q0 132 -181 214l-175 80q-289 130 -289 371q0 152 110.5 257.5t278.5 104.5q163 -4 297 -98l98 94l30 -419l-74 92
q-175 216 -342 216q-192 0 -192 -179q0 -143 203 -237l172 -80q281 -131 281 -357z" />
    <glyph glyph-name="sacute" unicode="&#x15b;" horiz-adv-x="962" 
d="M667 1526l-387 -141l262 261zM919 358q0 -165 -129.5 -280t-325.5 -114q-159 6 -288 98l-98 -94l-30 420l74 -93q172 -216 346 -216q100 0 167 66t67 154q0 132 -181 214l-175 80q-289 130 -289 371q0 152 110.5 257.5t278.5 104.5q163 -4 297 -98l98 94l30 -419l-74 92
q-175 216 -342 216q-192 0 -192 -179q0 -143 203 -237l172 -80q281 -131 281 -357z" />
    <glyph glyph-name="Scircumflex" unicode="&#x15c;" horiz-adv-x="962" 
d="M510 1608l196 -216l-250 104l-251 -104l196 216h109zM919 359q0 -166 -129.5 -281t-325.5 -114q-159 6 -288 98l-98 -94l-30 420l74 -93q172 -216 346 -216q94 -4 163 60.5t71 159.5q0 131 -181 214l-175 80q-289 130 -289 370q0 153 110.5 258.5t277.5 104.5
q164 -4 298 -98l98 94l29 -420l-74 93q-174 216 -341 216q-193 0 -193 -179q0 -144 204 -237l172 -79q281 -131 281 -357z" />
    <glyph glyph-name="scircumflex" unicode="&#x15d;" horiz-adv-x="962" 
d="M510 1608l196 -216l-250 104l-251 -104l196 216h109zM919 359q0 -166 -129.5 -281t-325.5 -114q-159 6 -288 98l-98 -94l-30 420l74 -93q172 -216 346 -216q94 -4 163 60.5t71 159.5q0 131 -181 214l-175 80q-289 130 -289 370q0 153 110.5 258.5t277.5 104.5
q164 -4 298 -98l98 94l29 -420l-74 93q-174 216 -341 216q-193 0 -193 -179q0 -144 204 -237l172 -79q281 -131 281 -357z" />
    <glyph glyph-name="Scedilla" unicode="&#x15e;" horiz-adv-x="962" 
d="M917 358q0 -160 -121.5 -274t-308.5 -121l-45 -78q28 9 58 10q94 0 94 -76q0 -109 -233 -190q116 78 116 157q0 44 -62 44q-40 -1 -80 -7l78 144q-131 19 -239 94l-98 -94l-29 420l74 -93q172 -216 345 -216q100 0 167.5 66t67.5 154q0 131 -181 214l-176 79
q-288 131 -288 371q0 153 110 258.5t278 104.5q164 -4 298 -98l98 94l29 -420l-74 93q-174 216 -342 216q-192 0 -192 -179q0 -144 203 -237l172 -79q281 -131 281 -357z" />
    <glyph glyph-name="scedilla" unicode="&#x15f;" horiz-adv-x="962" 
d="M917 358q0 -160 -121.5 -274t-308.5 -121l-45 -78q28 9 58 10q94 0 94 -76q0 -109 -233 -190q116 78 116 157q0 44 -62 44q-40 -1 -80 -7l78 144q-131 19 -239 94l-98 -94l-29 420l74 -93q172 -216 345 -216q100 0 167.5 66t67.5 154q0 131 -181 214l-176 79
q-288 131 -288 371q0 153 110 258.5t278 104.5q164 -4 298 -98l98 94l29 -420l-74 93q-174 216 -342 216q-192 0 -192 -179q0 -144 203 -237l172 -79q281 -131 281 -357z" />
    <glyph glyph-name="Scaron" unicode="&#x160;" horiz-adv-x="962" 
d="M403 1418l-196 216l251 -103l249 103l-195 -216h-109zM920 357q0 -106 -57.5 -196.5t-162.5 -144t-235 -52.5q-158 6 -288 98l-98 -94l-29 420l74 -93q169 -216 344 -216q94 -4 163 61t71 159q0 132 -181 214l-175 80q-289 131 -289 371q0 99 49 182t139 132t201 48
q163 -4 297 -98l98 94l30 -419l-74 92q-174 216 -342 216q-192 0 -192 -179q0 -143 203 -237l173 -81q281 -131 281 -357z" />
    <glyph glyph-name="scaron" unicode="&#x161;" horiz-adv-x="962" 
d="M403 1418l-196 216l251 -103l249 103l-195 -216h-109zM920 357q0 -106 -57.5 -196.5t-162.5 -144t-235 -52.5q-158 6 -288 98l-98 -94l-29 420l74 -93q169 -216 344 -216q94 -4 163 61t71 159q0 132 -181 214l-175 80q-289 131 -289 371q0 99 49 182t139 132t201 48
q163 -4 297 -98l98 94l30 -419l-74 92q-174 216 -342 216q-192 0 -192 -179q0 -143 203 -237l173 -81q281 -131 281 -357z" />
    <glyph glyph-name="uni0162" unicode="&#x162;" horiz-adv-x="1301" 
d="M721 -163q61 -67 7 -153q-60 -90 -155 -143q84 126 24 186l-57 53l118 120zM50 972l20 321h1165l18 -321l-157 205h-323v-1086l92 -92h-427l93 92v1086h-324z" />
    <glyph glyph-name="uni0163" unicode="&#x163;" horiz-adv-x="1301" 
d="M721 -163q61 -67 7 -153q-60 -90 -155 -143q84 126 24 186l-57 53l118 120zM50 972l20 321h1165l18 -321l-157 205h-323v-1086l92 -92h-427l93 92v1086h-324z" />
    <glyph glyph-name="Tcaron" unicode="&#x164;" horiz-adv-x="1301" 
d="M586 1422l-196 216l251 -103l250 103l-196 -216h-109zM53 972l20 321h1165l18 -321l-157 205h-323v-1086l92 -92h-427l93 92v1086h-324z" />
    <glyph glyph-name="tcaron" unicode="&#x165;" horiz-adv-x="1301" 
d="M586 1422l-196 216l251 -103l250 103l-196 -216h-109zM53 972l20 321h1165l18 -321l-157 205h-323v-1086l92 -92h-427l93 92v1086h-324z" />
    <glyph glyph-name="Tbar" unicode="&#x166;" horiz-adv-x="1301" 
d="M277 604l66 99h191v474h-324l-157 -205l18 321h1166l18 -321l-157 205h-324v-474h220l-65 -99h-155v-512l92 -93h-426l92 93v512h-255z" />
    <glyph glyph-name="tbar" unicode="&#x167;" horiz-adv-x="1301" 
d="M277 604l66 99h191v474h-324l-157 -205l18 321h1166l18 -321l-157 205h-324v-474h220l-65 -99h-155v-512l92 -93h-426l92 93v512h-255z" />
    <glyph glyph-name="Utilde" unicode="&#x168;" horiz-adv-x="1362" 
d="M473 1411q77 157 135 157q26 0 90 -32t95 -32q42 0 128 63q-78 -157 -135 -157q-26 0 -90 32t-96 32q-41 0 -127 -63zM1209 456q1 -202 -147 -346t-392 -144t-387 134t-143 354v747l-92 92h427l-93 -92v-710q0 -379 345 -379q139 -2 237 96.5t96 238.5v744l-102 102h353
l-102 -102v-735z" />
    <glyph glyph-name="utilde" unicode="&#x169;" horiz-adv-x="1362" 
d="M473 1411q77 157 135 157q26 0 90 -32t95 -32q42 0 128 63q-78 -157 -135 -157q-26 0 -90 32t-96 32q-41 0 -127 -63zM1209 456q1 -202 -147 -346t-392 -144t-387 134t-143 354v747l-92 92h427l-93 -92v-710q0 -379 345 -379q139 -2 237 96.5t96 238.5v744l-102 102h353
l-102 -102v-735z" />
    <glyph glyph-name="Umacron" unicode="&#x16a;" horiz-adv-x="1362" 
d="M463 1457l46 73h403l-46 -73h-403zM1210 456q1 -202 -146.5 -346t-391.5 -144q-162 0 -282.5 61t-184 171.5t-63.5 255.5v747l-92 92h426l-92 -92v-710q0 -379 344 -379q139 -2 237 96.5t96 238.5v744l-102 102h353l-102 -102v-735z" />
    <glyph glyph-name="umacron" unicode="&#x16b;" horiz-adv-x="1362" 
d="M463 1457l46 73h403l-46 -73h-403zM1210 456q1 -202 -146.5 -346t-391.5 -144q-162 0 -282.5 61t-184 171.5t-63.5 255.5v747l-92 92h426l-92 -92v-710q0 -379 344 -379q139 -2 237 96.5t96 238.5v744l-102 102h353l-102 -102v-735z" />
    <glyph glyph-name="Ubreve" unicode="&#x16c;" horiz-adv-x="1362" 
d="M818 1611l97 -48q-69 -150 -233 -144q-188 -4 -205 183q73 -98 175 -98q119 -2 166 107zM1209 456q1 -202 -146.5 -346t-391.5 -144t-387 134t-143 354v747l-92 92h428l-93 -92v-710q0 -379 344 -379q139 -2 237.5 97t95.5 238v744l-102 102h352l-102 -102v-735z" />
    <glyph glyph-name="ubreve" unicode="&#x16d;" horiz-adv-x="1362" 
d="M818 1611l97 -48q-69 -150 -233 -144q-188 -4 -205 183q73 -98 175 -98q119 -2 166 107zM1209 456q1 -202 -146.5 -346t-391.5 -144t-387 134t-143 354v747l-92 92h428l-93 -92v-710q0 -379 344 -379q139 -2 237.5 97t95.5 238v744l-102 102h352l-102 -102v-735z" />
    <glyph glyph-name="Uring" unicode="&#x16e;" horiz-adv-x="1362" 
d="M679 1431q99 4 97 104q3 100 -97 103q-103 -1 -102 -103q0 -102 102 -104zM679 1372q-167 -4 -171 163q0 161 161.5 163.5t166 -159t-156.5 -167.5zM1210 455q0 -201 -147.5 -345t-391.5 -144t-387 134t-143 354v747l-92 92h427l-93 -92v-710q0 -379 344 -379
q140 -2 238 97t95 238v744l-102 102h353l-101 -102v-736z" />
    <glyph glyph-name="uring" unicode="&#x16f;" horiz-adv-x="1362" 
d="M679 1431q99 4 97 104q3 100 -97 103q-103 -1 -102 -103q0 -102 102 -104zM679 1372q-167 -4 -171 163q0 161 161.5 163.5t166 -159t-156.5 -167.5zM1210 455q0 -201 -147.5 -345t-391.5 -144t-387 134t-143 354v747l-92 92h427l-93 -92v-710q0 -379 344 -379
q140 -2 238 97t95 238v744l-102 102h353l-101 -102v-736z" />
    <glyph glyph-name="Uhungarumlaut" unicode="&#x170;" horiz-adv-x="1362" 
d="M1049 1607l-331 -218l172 289zM751 1607l-331 -218l172 289zM1210 456q0 -202 -147.5 -346t-391.5 -144t-387 134t-143 354v747l-93 92h427l-92 -92v-710q0 -379 344 -379q139 -2 237 97t96 238v744l-102 102h354l-102 -102v-735z" />
    <glyph glyph-name="uhungarumlaut" unicode="&#x171;" horiz-adv-x="1362" 
d="M1049 1607l-331 -218l172 289zM751 1607l-331 -218l172 289zM1210 456q0 -202 -147.5 -346t-391.5 -144t-387 134t-143 354v747l-93 92h427l-92 -92v-710q0 -379 344 -379q139 -2 237 97t96 238v744l-102 102h354l-102 -102v-735z" />
    <glyph glyph-name="Uogonek" unicode="&#x172;" horiz-adv-x="1362" 
d="M1210 456q1 -355 -338 -459q-135 -153 -131 -218q3 -57 56 -57q45 1 86 20q-65 -122 -158 -122q-39 0 -66.5 27.5t-26.5 66.5q-6 122 168 265q-64 -14 -129 -13q-244 0 -387 134t-143 354v747l-92 92h427l-92 -92v-710q0 -379 344 -379q139 -1 237 97.5t95 237.5v744
l-102 102h354l-102 -102v-735z" />
    <glyph glyph-name="uogonek" unicode="&#x173;" horiz-adv-x="1362" 
d="M1210 456q1 -355 -338 -459q-135 -153 -131 -218q3 -57 56 -57q45 1 86 20q-65 -122 -158 -122q-39 0 -66.5 27.5t-26.5 66.5q-6 122 168 265q-64 -14 -129 -13q-244 0 -387 134t-143 354v747l-92 92h427l-92 -92v-710q0 -379 344 -379q139 -1 237 97.5t95 237.5v744
l-102 102h354l-102 -102v-735z" />
    <glyph glyph-name="Wcircumflex" unicode="&#x174;" horiz-adv-x="1923" 
d="M1073 1609l196 -216l-249 103l-252 -103l196 216h109zM546 -59l-409 1267l-81 83h427l-85 -83l238 -830l268 821l-91 93h426l-85 -83l242 -821l240 811l-91 94h311l-89 -83l-354 -1181l-100 -88l-349 1071l-318 -983z" />
    <glyph glyph-name="wcircumflex" unicode="&#x175;" horiz-adv-x="1923" 
d="M1073 1609l196 -216l-249 103l-252 -103l196 216h109zM546 -59l-409 1267l-81 83h427l-85 -83l238 -830l268 821l-91 93h426l-85 -83l242 -821l240 811l-91 94h311l-89 -83l-354 -1181l-100 -88l-349 1071l-318 -983z" />
    <glyph glyph-name="Ycircumflex" unicode="&#x176;" horiz-adv-x="1420" 
d="M815 1609l196 -216l-250 103l-251 -103l196 216h109zM830 92l91 -94h-427l92 93v430l-452 689l-82 83h440l-85 -83l358 -571l362 560l-90 94h329l-89 -83l-447 -686v-432z" />
    <glyph glyph-name="ycircumflex" unicode="&#x177;" horiz-adv-x="1420" 
d="M815 1609l196 -216l-250 103l-251 -103l196 216h109zM830 92l91 -94h-427l92 93v430l-452 689l-82 83h440l-85 -83l358 -571l362 560l-90 94h329l-89 -83l-447 -686v-432z" />
    <glyph glyph-name="Ydieresis" unicode="&#x178;" horiz-adv-x="1420" 
d="M1049 1548l-124 -124l-124 124l124 124zM747 1548l-125 -124l-124 124l124 124zM831 92l92 -94h-427l93 93v430l-453 689l-81 83h439l-85 -83l357 -571l362 560l-90 94h329l-89 -83l-447 -686v-432z" />
    <glyph glyph-name="Zacute" unicode="&#x179;" horiz-adv-x="1152" 
d="M780 1528l-386 -143l261 263zM1074 1293l-671 -1113l-85 -64h574l157 205l-18 -322h-1000l714 1177h-483l-175 -223l26 340h961z" />
    <glyph glyph-name="zacute" unicode="&#x17a;" horiz-adv-x="1152" 
d="M780 1528l-386 -143l261 263zM1074 1293l-671 -1113l-85 -64h574l157 205l-18 -322h-1000l714 1177h-483l-175 -223l26 340h961z" />
    <glyph glyph-name="Zdotaccent" unicode="&#x17b;" horiz-adv-x="1152" 
d="M686 1510l-124 -124l-124 124l124 125zM1072 1293l-673 -1113l-85 -64h575l157 205l-18 -322h-999l713 1177h-482l-176 -223l27 340h961z" />
    <glyph glyph-name="zdotaccent" unicode="&#x17c;" horiz-adv-x="1152" 
d="M686 1510l-124 -124l-124 124l124 125zM1072 1293l-673 -1113l-85 -64h575l157 205l-18 -322h-999l713 1177h-482l-176 -223l27 340h961z" />
    <glyph glyph-name="Zcaron" unicode="&#x17d;" horiz-adv-x="1152" 
d="M514 1420l-196 216l252 -103l249 103l-196 -216h-109zM1074 1293l-673 -1113l-85 -64h575l157 205l-18 -322h-1000l713 1177h-482l-176 -223l28 340h961z" />
    <glyph glyph-name="zcaron" unicode="&#x17e;" horiz-adv-x="1152" 
d="M514 1420l-196 216l252 -103l249 103l-196 -216h-109zM1074 1293l-673 -1113l-85 -64h575l157 205l-18 -322h-1000l713 1177h-482l-176 -223l28 340h961z" />
    <glyph glyph-name="florin" unicode="&#x192;" horiz-adv-x="409" 
d="M72 758q0 16 11 27t29.5 21t26.5 19q9 9 18.5 28.5t20 30.5t27.5 11t27 -11.5t18.5 -31t17.5 -29.5q8 -9 27 -19.5t31 -20.5t12 -25q0 -14 -10 -21.5t-28 -16t-28 -18.5q-11 -11 -20.5 -31t-18.5 -32t-24 -12q-16 0 -27.5 11t-25 32.5t-21.5 31.5q-10 11 -26.5 19.5
t-26.5 15.5t-10 21z" />
    <glyph glyph-name="uni0218" unicode="&#x218;" horiz-adv-x="962" 
d="M536 -164q62 -64 7 -152q-60 -90 -155 -143q83 126 24 186l-57 53l118 118zM917 360q0 -166 -129.5 -281t-325.5 -114q-159 6 -288 98l-98 -94l-30 420l74 -93q172 -216 346 -216q100 0 167.5 66t67.5 154q0 131 -182 214l-175 80q-288 130 -288 370q0 153 110 258.5
t277 104.5q164 -4 298 -98l98 94l30 -420l-74 93q-174 216 -342 216q-192 0 -192 -179q0 -144 203 -237l172 -79q281 -131 281 -357z" />
    <glyph glyph-name="uni0219" unicode="&#x219;" horiz-adv-x="962" 
d="M536 -164q62 -64 7 -152q-60 -90 -155 -143q83 126 24 186l-57 53l118 118zM917 360q0 -166 -129.5 -281t-325.5 -114q-159 6 -288 98l-98 -94l-30 420l74 -93q172 -216 346 -216q100 0 167.5 66t67.5 154q0 131 -182 214l-175 80q-288 130 -288 370q0 153 110 258.5
t277 104.5q164 -4 298 -98l98 94l30 -420l-74 93q-174 216 -342 216q-192 0 -192 -179q0 -144 203 -237l172 -79q281 -131 281 -357z" />
    <glyph glyph-name="uni021A" unicode="&#x21a;" horiz-adv-x="1301" 
d="M721 -163q61 -67 7 -153q-60 -90 -155 -143q84 126 24 186l-57 53l118 120zM50 972l20 321h1165l18 -321l-157 205h-323v-1086l92 -92h-427l93 92v1086h-324z" />
    <glyph glyph-name="uni021B" unicode="&#x21b;" horiz-adv-x="1301" 
d="M721 -163q61 -67 7 -153q-60 -90 -155 -143q84 126 24 186l-57 53l118 120zM50 972l20 321h1165l18 -321l-157 205h-323v-1086l92 -92h-427l93 92v1086h-324z" />
    <glyph glyph-name="uni0237" unicode="&#x237;" horiz-adv-x="997" 
d="M382 -33q-203 -2 -305 87l-19 240q175 -218 324 -218q223 0 223 251v873l-92 93h427l-93 -93v-803q0 -131 -54 -227.5t-159 -149.5t-252 -53z" />
    <glyph glyph-name="circumflex" unicode="&#x2c6;" 
d="M306 1611l196 -216l-249 103l-251 -103l196 216h108z" />
    <glyph glyph-name="caron" unicode="&#x2c7;" 
d="M196 1421l-195 216l251 -103l249 103l-196 -216h-109z" />
    <glyph glyph-name="uni02C9" unicode="&#x2c9;" 
d="M31 1459l46 72h403l-46 -72h-403z" />
    <glyph glyph-name="uni02CA" unicode="&#x2ca;" 
d="M465 1529l-387 -142l261 263z" />
    <glyph glyph-name="uni02CB" unicode="&#x2cb;" 
d="M-2 1529l126 121l260 -263z" />
    <glyph glyph-name="breve" unicode="&#x2d8;" 
d="M388 1612l97 -48q-69 -149 -233 -144q-188 -4 -205 183q73 -98 175 -98q119 -2 166 107z" />
    <glyph glyph-name="dotaccent" unicode="&#x2d9;" 
d="M375 1512l-124 -125l-124 125l124 124z" />
    <glyph glyph-name="ring" unicode="&#x2da;" 
d="M254 1432q99 5 98 104q2 100 -98 103q-102 -1 -102 -103q1 -101 102 -104zM254 1373q-166 -3 -170 163q-1 161 160.5 164t166 -159t-156.5 -168z" />
    <glyph glyph-name="ogonek" unicode="&#x2db;" horiz-adv-x="306" 
d="M222 2h45v0q-136 -154 -132 -220q3 -59 55 -57q46 1 87 20q-66 -122 -159 -122q-39 0 -66 28q-25 25 -26 66q-5 142 196 285v0z" />
    <glyph glyph-name="tilde" unicode="&#x2dc;" 
d="M42 1413q77 157 134 157q27 0 91 -32.5t95 -32.5q42 0 128 63q-78 -157 -136 -157q-25 0 -89 32.5t-96 32.5q-41 0 -127 -63z" />
    <glyph glyph-name="hungarumlaut" unicode="&#x2dd;" 
d="M572 1608l-336 -217l177 287zM274 1608l-335 -217l177 287z" />
    <glyph glyph-name="uni0308" unicode="&#x308;" 
d="M540 1550l-124 -124l-124 124l124 124zM237 1550l-125 -124l-124 124l125 124z" />
    <glyph glyph-name="uni0326" unicode="&#x326;" 
d="M318 -162q62 -65 7 -153q-60 -90 -155 -143q83 126 24 186l-57 53l118 120z" />
    <glyph glyph-name="uni03A9" unicode="&#x3a9;" horiz-adv-x="409" 
d="M72 758q0 16 11 27t29.5 21t26.5 19q9 9 18.5 28.5t20 30.5t27.5 11t27 -11.5t18.5 -31t17.5 -29.5q8 -9 27 -19.5t31 -20.5t12 -25q0 -14 -10 -21.5t-28 -16t-28 -18.5q-11 -11 -20.5 -31t-18.5 -32t-24 -12q-16 0 -27.5 11t-25 32.5t-21.5 31.5q-10 11 -26.5 19.5
t-26.5 15.5t-10 21z" />
    <glyph glyph-name="pi" unicode="&#x3c0;" horiz-adv-x="409" 
d="M72 758q0 16 11 27t29.5 21t26.5 19q9 9 18.5 28.5t20 30.5t27.5 11t27 -11.5t18.5 -31t17.5 -29.5q8 -9 27 -19.5t31 -20.5t12 -25q0 -14 -10 -21.5t-28 -16t-28 -18.5q-11 -11 -20.5 -31t-18.5 -32t-24 -12q-16 0 -27.5 11t-25 32.5t-21.5 31.5q-10 11 -26.5 19.5
t-26.5 15.5t-10 21z" />
    <glyph glyph-name="Wgrave" unicode="&#x1e80;" horiz-adv-x="1923" 
d="M766 1529l125 120l261 -262zM547 -59l-410 1267l-81 83h427l-86 -83l239 -829l268 821l-91 92h427l-85 -83l242 -821l241 811l-91 94h311l-89 -83l-355 -1181l-100 -88l-349 1071l-318 -983z" />
    <glyph glyph-name="wgrave" unicode="&#x1e81;" horiz-adv-x="1923" 
d="M766 1529l125 120l261 -262zM547 -59l-410 1267l-81 83h427l-86 -83l239 -829l268 821l-91 92h427l-85 -83l242 -821l241 811l-91 94h311l-89 -83l-355 -1181l-100 -88l-349 1071l-318 -983z" />
    <glyph glyph-name="Wacute" unicode="&#x1e82;" horiz-adv-x="1923" 
d="M1229 1529l-387 -142l261 262zM545 -60l-410 1268l-82 83h427l-85 -83l238 -830l268 821l-90 93h427l-85 -83l242 -821l240 811l-91 94h311l-89 -83l-354 -1181l-100 -89l-350 1072l-317 -983z" />
    <glyph glyph-name="wacute" unicode="&#x1e83;" horiz-adv-x="1923" 
d="M1229 1529l-387 -142l261 262zM545 -60l-410 1268l-82 83h427l-85 -83l238 -830l268 821l-90 93h427l-85 -83l242 -821l240 811l-91 94h311l-89 -83l-354 -1181l-100 -89l-350 1072l-317 -983z" />
    <glyph glyph-name="Wdieresis" unicode="&#x1e84;" horiz-adv-x="1923" 
d="M1309 1548l-124 -124l-125 124l125 124zM1006 1548l-125 -124l-124 124l124 124zM548 -60l-410 1268l-81 83h427l-85 -83l238 -830l268 821l-90 93h427l-86 -83l243 -821l240 811l-91 94h311l-89 -83l-354 -1181l-100 -89l-351 1072l-317 -983z" />
    <glyph glyph-name="wdieresis" unicode="&#x1e85;" horiz-adv-x="1923" 
d="M1309 1548l-124 -124l-125 124l125 124zM1006 1548l-125 -124l-124 124l124 124zM548 -60l-410 1268l-81 83h427l-85 -83l238 -830l268 821l-90 93h427l-86 -83l243 -821l240 811l-91 94h311l-89 -83l-354 -1181l-100 -89l-351 1072l-317 -983z" />
    <glyph glyph-name="Ygrave" unicode="&#x1ef2;" horiz-adv-x="1420" 
d="M506 1528l125 120l261 -263zM829 92l92 -94h-427l93 93v430l-453 689l-81 83h440l-85 -83l356 -571l363 560l-91 94h329l-89 -83l-447 -686v-432z" />
    <glyph glyph-name="ygrave" unicode="&#x1ef3;" horiz-adv-x="1420" 
d="M506 1528l125 120l261 -263zM829 92l92 -94h-427l93 93v430l-453 689l-81 83h440l-85 -83l356 -571l363 560l-91 94h329l-89 -83l-447 -686v-432z" />
    <glyph glyph-name="uni2000" unicode="&#x2000;" horiz-adv-x="827" 
 />
    <glyph glyph-name="uni2001" unicode="&#x2001;" horiz-adv-x="1655" 
 />
    <glyph glyph-name="uni2002" unicode="&#x2002;" horiz-adv-x="827" 
 />
    <glyph glyph-name="uni2003" unicode="&#x2003;" horiz-adv-x="1655" 
 />
    <glyph glyph-name="uni2004" unicode="&#x2004;" horiz-adv-x="551" 
 />
    <glyph glyph-name="uni2005" unicode="&#x2005;" horiz-adv-x="413" 
 />
    <glyph glyph-name="uni2006" unicode="&#x2006;" horiz-adv-x="275" 
 />
    <glyph glyph-name="uni2007" unicode="&#x2007;" horiz-adv-x="275" 
 />
    <glyph glyph-name="uni2008" unicode="&#x2008;" horiz-adv-x="206" 
 />
    <glyph glyph-name="uni2009" unicode="&#x2009;" horiz-adv-x="331" 
 />
    <glyph glyph-name="uni200A" unicode="&#x200a;" horiz-adv-x="91" 
 />
    <glyph glyph-name="uni2010" unicode="&#x2010;" horiz-adv-x="669" 
d="M103 613l65 99h429l-64 -99h-430z" />
    <glyph glyph-name="uni2011" unicode="&#x2011;" horiz-adv-x="669" 
d="M103 613l65 99h429l-64 -99h-430z" />
    <glyph glyph-name="figuredash" unicode="&#x2012;" horiz-adv-x="669" 
d="M103 613l65 99h429l-64 -99h-430z" />
    <glyph glyph-name="endash" unicode="&#x2013;" horiz-adv-x="935" 
d="M88 613l64 101h706l-64 -101h-706z" />
    <glyph glyph-name="emdash" unicode="&#x2014;" horiz-adv-x="1174" 
d="M55 613l65 99h982l-64 -99h-983z" />
    <glyph glyph-name="uni2015" unicode="&#x2015;" horiz-adv-x="1174" 
d="M55 613l65 99h982l-64 -99h-983z" />
    <glyph glyph-name="quoteleft" unicode="&#x2018;" horiz-adv-x="360" 
d="M101 1012q-68 68 -7 166q64 98 168 153q-93 -133 -27 -199l61 -60l-127 -128z" />
    <glyph glyph-name="quoteright" unicode="&#x2019;" horiz-adv-x="370" 
d="M264 1246q68 -68 7 -166q-64 -98 -168 -153q92 133 27 199l-61 59l127 129z" />
    <glyph glyph-name="quotesinglbase" unicode="&#x201a;" horiz-adv-x="373" 
d="M266 189q67 -68 6 -166q-64 -98 -168 -153q93 133 27 199l-61 59l128 129z" />
    <glyph glyph-name="quotereversed" unicode="&#x201b;" horiz-adv-x="360" 
d="M101 1012q-68 68 -7 166q64 98 168 153q-93 -133 -27 -199l61 -60l-127 -128z" />
    <glyph glyph-name="quotedblleft" unicode="&#x201c;" horiz-adv-x="688" 
d="M100 1012q-67 68 -6 166q64 98 167 153q-92 -134 -26 -199l61 -60l-128 -128zM424 1012q-68 68 -7 166q64 98 168 153q-93 -134 -27 -199l61 -60l-127 -128z" />
    <glyph glyph-name="quotedblright" unicode="&#x201d;" horiz-adv-x="688" 
d="M582 1246q68 -68 7 -166q-65 -98 -168 -153q92 133 26 199l-60 59l127 129zM259 1246q68 -68 7 -166q-65 -98 -168 -153q92 133 26 199l-61 59l128 129z" />
    <glyph glyph-name="quotedblbase" unicode="&#x201e;" horiz-adv-x="695" 
d="M587 170q67 -69 6 -167q-64 -97 -167 -152q92 133 26 199l-61 59l127 129zM264 170q67 -69 6 -167q-64 -97 -168 -152q93 133 27 199l-61 59l127 129z" />
    <glyph glyph-name="dagger" unicode="&#x2020;" horiz-adv-x="765" 
d="M72 754v194h37q11 -10 23.5 -17.5t30.5 -14t29 -10t37 -8t35.5 -6t42 -6t41.5 -5.5q-2 12 -20.5 68.5t-18.5 99.5q0 25 12.5 69t12.5 76q0 42 -23.5 60.5t-66.5 27.5v35h274v-35q-43 -9 -66.5 -27.5t-23.5 -60.5q0 -32 12.5 -76t12.5 -69q0 -45 -18.5 -99t-20.5 -69
q10 1 41.5 5.5t42.5 6t36 6t37.5 8t30.5 10t31 14t24 17.5h37v-194h-37q-20 15 -51 27t-50.5 17t-72.5 16t-71 15q6 -112 84 -178q-33 -87 -57.5 -293.5t-24.5 -357.5h-66q0 151 -24.5 357.5t-57.5 293.5q78 69 84 178q-25 -6 -71.5 -16t-69.5 -15.5t-52 -17t-48 -26.5h-37z
" />
    <glyph glyph-name="daggerdbl" unicode="&#x2021;" horiz-adv-x="765" 
d="M72 481v236h37q74 -65 239 -88q-14 86 -82 145q78 69 84 178q-171 -41 -241 -96h-37v236h37q74 -65 239 -88q-4 23 -21.5 58t-17.5 58t12.5 50t12.5 34q0 28 -34 48.5t-77 29.5v35h316v-35q-40 -8 -75.5 -31t-35.5 -47q0 -7 12.5 -33.5t12.5 -50.5q0 -22 -18 -57t-21 -59
q167 23 243 88h37v-236h-37q-78 59 -245 96q6 -112 84 -178q-73 -73 -82 -145q167 23 243 88h37v-236h-37q-80 61 -245 97q6 -113 84 -179q-34 -90 -58 -267t-24 -322h-66q0 145 -24 322t-58 267q78 69 84 179q-169 -41 -241 -97h-37z" />
    <glyph glyph-name="bullet" unicode="&#x2022;" horiz-adv-x="409" 
d="M333 600l-133 -135l-134 135l134 134z" />
    <glyph glyph-name="ellipsis" unicode="&#x2026;" horiz-adv-x="1058" 
d="M988 122l-135 -135l-134 135l134 134zM664 122l-135 -135l-135 135l135 134zM339 122l-134 -135l-135 135l135 134z" />
    <glyph glyph-name="uni202F" unicode="&#x202f;" horiz-adv-x="331" 
 />
    <glyph glyph-name="perthousand" unicode="&#x2030;" horiz-adv-x="1971" 
d="M1641 567q-129 0 -129 -264q0 -262 138 -262q127 0 127 262q0 264 -136 264zM1645 634q80 0 143 -42.5t98 -118t35 -170.5q0 -137 -78.5 -232.5t-197.5 -95.5q-120 0 -197.5 93t-77.5 235q0 139 78 235t197 96zM1028 567q-129 0 -129 -264q0 -262 138 -262q127 0 127 262
q0 264 -136 264zM1032 634q80 0 143 -42.5t98 -118t35 -170.5q0 -137 -78.5 -232.5t-197.5 -95.5q-120 0 -197.5 93t-77.5 235q0 139 78 235t197 96zM333 728q129 0 129 264q0 261 -138 261q-127 0 -127 -261q0 -264 136 -264zM330 661q-80 0 -143.5 42.5t-98.5 117.5
t-35 170q0 138 79 234.5t198 95.5q120 -1 197 -94t77 -236q0 -139 -78 -234.5t-196 -95.5zM394 14l-125 -43l698 1306l126 41z" />
    <glyph glyph-name="guilsinglleft" unicode="&#x2039;" horiz-adv-x="649" 
d="M562 928l5 -4l-232 -462l232 -461l-5 -4l-469 465z" />
    <glyph glyph-name="guilsinglright" unicode="&#x203a;" horiz-adv-x="632" 
d="M74 -3l-6 4l233 462l-233 461l6 4l468 -465z" />
    <glyph glyph-name="fraction" unicode="&#x2044;" horiz-adv-x="1000" 
d="M221 -165l-125 -40l612 1491l125 40z" />
    <glyph glyph-name="uni205F" unicode="&#x205f;" horiz-adv-x="413" 
 />
    <glyph glyph-name="Euro" unicode="&#x20ac;" horiz-adv-x="1329" 
d="M25 488l63 101h96q-2 26 -2 53q0 24 2 49h-142l65 100h90q46 237 223 382.5t430 145.5q205 4 377 -109l21 -251q-175 218 -408 218q-142 0 -246.5 -108.5t-140.5 -278.5h528l-64 -100h-475q-3 -24 -2 -49q-1 -27 2 -53h429l-64 -100h-351q26 -113 86 -201t149.5 -139.5
t194.5 -51.5q219 8 365 192l-17 -188q-161 -138 -374 -137q-238 -6 -425 142.5t-235 382.5h-175z" />
    <glyph glyph-name="trademark" unicode="&#x2122;" horiz-adv-x="1322" 
d="M52 1150l7 138h485l7 -138l-62 83h-129v-426l36 -37h-189l36 37v426h-128zM636 811l40 -41h-154l40 41l65 445l-35 32h197l-33 -34l132 -326l129 323l-37 37h195l-36 -37l70 -444l37 -37h-190l36 37l-52 337l-150 -363l-40 -35l-168 405z" />
    <glyph glyph-name="partialdiff" unicode="&#x2202;" horiz-adv-x="409" 
d="M333 600l-133 -135l-134 135l134 134z" />
    <glyph glyph-name="Delta" unicode="&#x2206;" horiz-adv-x="409" 
d="M333 600l-133 -135l-134 135l134 134z" />
    <glyph glyph-name="product" unicode="&#x220f;" horiz-adv-x="409" 
d="M333 600l-133 -135l-134 135l134 134z" />
    <glyph glyph-name="summation" unicode="&#x2211;" horiz-adv-x="409" 
d="M333 600l-133 -135l-134 135l134 134z" />
    <glyph glyph-name="minus" unicode="&#x2212;" horiz-adv-x="935" 
d="M88 613l64 101h706l-64 -101h-706z" />
    <glyph glyph-name="radical" unicode="&#x221a;" horiz-adv-x="409" 
d="M333 600l-133 -135l-134 135l134 134z" />
    <glyph glyph-name="infinity" unicode="&#x221e;" horiz-adv-x="409" 
d="M333 600l-133 -135l-134 135l134 134z" />
    <glyph glyph-name="integral" unicode="&#x222b;" horiz-adv-x="409" 
d="M333 600l-133 -135l-134 135l134 134z" />
    <glyph glyph-name="approxequal" unicode="&#x2248;" horiz-adv-x="409" 
d="M72 758q0 16 11 27t29.5 21t26.5 19q9 9 18.5 28.5t20 30.5t27.5 11t27 -11.5t18.5 -31t17.5 -29.5q8 -9 27 -19.5t31 -20.5t12 -25q0 -14 -10 -21.5t-28 -16t-28 -18.5q-11 -11 -20.5 -31t-18.5 -32t-24 -12q-16 0 -27.5 11t-25 32.5t-21.5 31.5q-10 11 -26.5 19.5
t-26.5 15.5t-10 21z" />
    <glyph glyph-name="notequal" unicode="&#x2260;" horiz-adv-x="1286" 
d="M92 0l234 289h-234v119h330l291 358h-621v119h717l240 295h147l-240 -295h238v-119h-334l-291 -358h625v-119h-721l-233 -289h-148z" />
    <glyph glyph-name="lessequal" unicode="&#x2264;" horiz-adv-x="1298" 
d="M92 0v119h1114v-119h-1114zM92 674v123l1114 495v-125l-977 -432l977 -432v-125z" />
    <glyph glyph-name="greaterequal" unicode="&#x2265;" horiz-adv-x="1298" 
d="M92 0v119h1114v-119h-1114zM92 178v125l977 432l-977 432v125l1114 -495v-123z" />
    <glyph glyph-name="lozenge" unicode="&#x25ca;" horiz-adv-x="409" 
d="M333 600l-133 -135l-134 135l134 134z" />
    <glyph glyph-name="uni25FC" unicode="&#x25fc;" horiz-adv-x="747" 
d="M0 0v748h748v-748h-748z" />
    <glyph glyph-name="commaaccent" unicode="&#xf6c3;" 
d="M318 -162q62 -65 7 -153q-60 -90 -155 -143q83 126 24 186l-57 53l118 120z" />
    <glyph glyph-name="uniF8FF" unicode="&#xf8ff;" horiz-adv-x="722" 
d="M327 1226q-16 -56 -7 -134t12 -141q7 -103 4.5 -207.5t-0.5 -209.5v-173q3 -114 3 -241t2 -241q0 -114 2 -172q0 -37 -7 -96.5t10 -94.5q23 -49 26.5 -16.5t3.5 60.5q7 100 7 259q2 158 2 328v329q0 158 3 258q2 93 -1.5 185t3.5 185q2 31 11.5 78.5t2.5 77.5
q-2 19 -17.5 46t-45.5 3q-19 -11 -14 -38t0 -45v0z" />
    <glyph glyph-name="zero.onum" horiz-adv-x="1198" 
d="M994 1173q-120 69 -258 71q-435 0 -435 -552q0 -281 84 -454t228 -173q120 0 200 158.5t80 379.5q0 397 -229 397q-62 0 -99.5 -36.5t-37.5 -83.5q0 -135 140 -135q-31 -19 -68 -18q-72 0 -111 48t-39 109q0 141 151 242h274l215 -198q57 -126 59 -265
q0 -194 -68.5 -352.5t-194 -251.5t-285.5 -93q-235 0 -394.5 186.5t-159.5 495.5q0 282 156 480.5t398 198.5q241 0 394 -154z" />
    <glyph glyph-name="one.onum" horiz-adv-x="699" 
d="M476 120l109 -122h-427l96 93v1033l-185 61l420 132v-847l48 -186l-69 37l89 -208z" />
    <glyph glyph-name="two.onum" horiz-adv-x="968" 
d="M475 1316q191 0 303.5 -95t112.5 -219q0 -122 -70.5 -225.5t-266.5 -307.5l-295 -308h517l157 186l-18 -349h-889l360 462q263 336 263 507q0 234 -226 234q-74 0 -131.5 -30.5t-86.5 -78.5t-29 -103q0 -77 44.5 -127t106.5 -54l43 67l-80 70l80 37l97 -81l-112 -212
q-300 72 -300 291q0 136 111.5 236t308.5 100z" />
    <glyph glyph-name="three.onum" horiz-adv-x="1018" 
d="M965 396l1 -2q0 -194 -139.5 -315t-350.5 -121q-173 0 -277 79.5t-104 203.5q0 46 19 91.5t61 78.5t97 33q85 0 121.5 -45.5t34.5 -91.5q-38 61 -110 63q-99 0 -99 -118q0 -73 63 -129.5t177 -56.5q122 0 194 79t72 210q0 70 -23 127t-64 94.5t-97 57.5t-121 20h-24
q-53 0 -159 -7l411 495h-392l-157 -187l18 337h824l-447 -530q102 50 216 46q-39 -26 -57 -70q1 -11 12 -11t46 3.5t49 3.5q46 0 88 -20q-51 -20 -51 -35q0 -11 37 -9q85 11 127 -63q-14 4 -29 5q-9 1 -14.5 -5.5t-4.5 -14.5q0 -7 13 -32t26 -69t13 -95z" />
    <glyph glyph-name="four.onum" horiz-adv-x="1209" 
d="M615 1293h269q-216 -324 -625 -818h420v282l233 124v-407h38l155 210l-17 -354h-177v-239l92 -92h-417l92 92v239h-630q217 282 392 593q-43 -3 -82 17q78 50 150 109q-33 4 -61 22q50 29 102 66q-47 9 -87 34q90 44 153 122z" />
    <glyph glyph-name="five.onum" horiz-adv-x="1022" 
d="M458 -34q-252 -1 -354 88l-18 241q191 -237 373 -237q119 0 190 82t71 223q0 136 -84.5 213.5t-207.5 77.5q-156 -7 -300 -67l40 706h689l22 -316l-156 166l10 -90l-170 111l20 -78l-131 57h-148l-22 -396q111 37 229 36q129 0 230 -45t160.5 -135t59.5 -212t-61 -218.5
t-176.5 -151.5t-265.5 -55z" />
    <glyph glyph-name="six.onum" horiz-adv-x="1101" 
d="M1048 419q0 -200 -142.5 -328t-332.5 -128q-230 0 -375 181.5t-145 467.5q0 322 178 517.5t434 195.5q147 5 276 -66l18 -245q-167 200 -320 200q-73 0 -133 -37.5t-104 -109.5t-68 -184.5t-24 -256.5q0 -257 81 -410t211 -153q96 0 160.5 81.5t64.5 228.5
q0 128 -63.5 198t-147.5 70q-116 0 -116 -88q-2 -34 21 -57.5t56 -22.5q34 -2 63 15q-22 -69 -94 -69q-57 2 -96 44.5t-36 100.5q0 88 73 149t195 61q109 0 193.5 -48.5t129 -129t43.5 -177.5z" />
    <glyph glyph-name="seven.onum" horiz-adv-x="1038" 
d="M161 1131l1 -127l90 -45l35 100l63 -78l-48 -140l-244 124v329h955q-312 -377 -403.5 -656.5t-91.5 -637.5h-266q73 623 523 1131h-614z" />
    <glyph glyph-name="eight.onum" horiz-adv-x="994" 
d="M948 363q0 -160 -132.5 -277t-337.5 -117q-183 0 -305.5 91.5t-122.5 230.5q0 110 85 194.5t179 104.5q-94 -108 -94 -231q0 -113 75 -203.5t193 -90.5q72 0 128.5 31t86 83t29.5 116q0 93 -42 143t-154 97l-144 59q-268 109 -312 157q4 0 14 -1t15 -1q35 0 35 13
q0 8 -21 20.5t-51.5 37t-47.5 57.5q53 -5 53 29q0 9 -1 31t-1 30q0 149 120.5 254t286.5 105q173 0 287 -81t114 -206q0 -65 -39 -123.5t-90 -92t-102 -46.5q68 81 68 190q0 103 -70 186.5t-178 83.5q-62 0 -108 -25t-68.5 -66t-22.5 -92q0 -148 207 -238l43 -19
q32 -14 89.5 -32t100 -34t61.5 -32q-56 0 -56 -18q0 -8 26.5 -13t76.5 -24t95 -56q-50 -4 -50 -20q0 -8 24.5 -24t55.5 -51t42 -86q-8 7 -18 8q-22 0 -22 -52z" />
    <glyph glyph-name="nine.onum" horiz-adv-x="1102" 
d="M54 868q-1 202 141.5 330t332.5 128q230 0 375 -182t145 -467q0 -322 -178 -518t-434 -196q-147 -5 -276 67l-18 244q168 -200 320 -200q98 0 171 65t115.5 199t42.5 324q0 258 -81 411t-211 153q-62 0 -112 -34t-81.5 -105.5t-31.5 -170.5q0 -87 33 -150t79.5 -90.5
t99.5 -27.5q116 0 116 88q2 34 -21 57.5t-56 22.5q-34 2 -63 -15q22 68 94 68q58 -2 96.5 -44t36.5 -100q0 -89 -73.5 -150.5t-195.5 -61.5q-163 0 -265 103.5t-101 251.5z" />
    </font>
</defs>
</svg>
